<svg width="23" height="20" viewBox="0 0 23 20" fill="none" xmlns="http://www.w3.org/2000/svg">
<path d="M0.333008 9.9997C0.333008 9.5972 0.659674 9.27054 1.06217 9.27054H19.989L12.5095 1.9147C12.4381 1.84834 12.3807 1.76834 12.3407 1.67942C12.3008 1.5905 12.2791 1.49447 12.2769 1.39701C12.2747 1.29954 12.292 1.20263 12.3279 1.112C12.3638 1.02136 12.4175 0.938846 12.4859 0.86933C12.5542 0.799814 12.6358 0.744709 12.7258 0.707273C12.8158 0.669838 12.9124 0.650831 13.0099 0.651379C13.1074 0.651926 13.2038 0.672016 13.2934 0.71046C13.383 0.748905 13.4639 0.804923 13.5315 0.875202L22.2745 9.47237L22.2903 9.48754C22.366 9.56425 22.4238 9.65687 22.4593 9.75868C22.4948 9.86049 22.5072 9.96892 22.4956 10.0761C22.4773 10.2515 22.3958 10.4143 22.2663 10.534L13.5315 19.1236C13.4639 19.1939 13.383 19.2499 13.2934 19.2884C13.2038 19.3268 13.1074 19.3469 13.0099 19.3474C12.9124 19.348 12.8158 19.329 12.7258 19.2915C12.6358 19.2541 12.5542 19.199 12.4859 19.1295C12.4175 19.06 12.3638 18.9775 12.3279 18.8868C12.292 18.7962 12.2747 18.6993 12.2769 18.6018C12.2791 18.5044 12.3008 18.4083 12.3407 18.3194C12.3807 18.2305 12.4381 18.1505 12.5095 18.0841L19.989 10.7283H1.06217C0.966446 10.7284 0.871642 10.7096 0.783179 10.673C0.694715 10.6364 0.614328 10.5828 0.546611 10.5151C0.478894 10.4474 0.425175 10.3671 0.388524 10.2787C0.351872 10.1902 0.333008 10.0954 0.333008 9.9997Z" fill="#1F3792"/>
</svg>
