<svg width="237" height="233" viewBox="0 0 237 233" fill="none" xmlns="http://www.w3.org/2000/svg">
<path d="M262.705 -4.05999C260.994 -3.69356 259.276 -3.31547 257.567 -2.96943C250.964 -1.58643 245.119 1.25904 240.513 6.23948C238.38 8.54556 238.428 11.6087 238.698 14.5282C239.067 18.3375 241.026 21.4813 243.246 24.5365C246.185 28.4524 249.673 31.9241 253.603 34.8443C256.018 36.7115 258.442 38.5904 261.002 40.2387C265.788 43.3276 270.777 46.11 275.512 49.2602C282.716 54.065 290.7 57.3327 298.4 61.1343C304.11 63.9538 310.037 66.3504 315.952 68.7412C319.928 70.3417 324.039 71.6244 328.11 73.0033C331.001 73.9808 333.892 74.9875 336.84 75.7902C341.245 76.9783 345.707 77.9917 350.14 79.0924C351.594 79.4546 353.033 79.8895 354.493 80.2401C355.489 80.4707 356.487 80.6082 357.518 80.798L357.425 81.3687L354.115 80.8441C350.076 80.2069 346.038 79.6715 342.017 78.8974C338.444 78.2142 334.913 77.2835 331.371 76.4489C326.997 75.4206 322.616 74.4185 318.255 73.332C316.697 72.9471 315.181 72.3874 313.654 71.8801C311.16 71.0548 308.663 70.2353 306.15 69.3431C302.568 68.0577 298.989 66.7549 295.413 65.4346C293.58 64.7397 291.764 64.0099 290.037 63.172C282.437 59.463 274.811 55.8065 267.289 51.9401C263.226 49.8226 259.274 47.4984 255.448 44.9766C252.086 42.7796 248.902 40.2936 245.731 37.8134C242.83 35.6927 240.043 33.4208 237.382 31.0069C233.81 27.6036 230.504 23.94 228.293 19.3952C225.868 14.418 226.266 9.68855 229.544 5.43045C230.943 3.61098 233.214 2.27297 235.344 1.24987C238.489 -0.355337 241.803 -1.6025 245.226 -2.46823C249.503 -3.43228 253.939 -3.68727 258.311 -4.24159C259.326 -4.37178 260.338 -4.52522 261.358 -4.60889C261.795 -4.60502 262.229 -4.55355 262.654 -4.45539L262.705 -4.05999Z" fill="#1744F2" fill-opacity="0.15"/>
<path d="M242.565 -6.43306C240.543 -6.00028 238.515 -5.55372 236.496 -5.145C228.698 -3.51154 221.794 -0.150772 216.353 5.73161C213.835 8.45531 213.891 12.0732 214.21 15.5214C214.645 20.0205 216.959 23.7336 219.582 27.3421C223.053 31.9673 227.172 36.0676 231.814 39.5166C234.666 41.722 237.529 43.9411 240.553 45.888C246.206 49.5362 252.098 52.8225 257.69 56.5432C266.199 62.2182 275.63 66.0777 284.724 70.5677C291.468 73.8978 298.468 76.7284 305.454 79.5522C310.15 81.4425 315.006 82.9575 319.814 84.5861C323.229 85.7407 326.643 86.9296 330.125 87.8777C335.328 89.281 340.598 90.4778 345.834 91.7779C347.551 92.2057 349.251 92.7194 350.974 93.1334C352.151 93.4058 353.33 93.5683 354.548 93.7924L354.438 94.4664L350.528 93.8469C345.758 93.0943 340.989 92.4619 336.239 91.5477C332.019 90.7407 327.849 89.6415 323.666 88.6557C318.499 87.4412 313.325 86.2577 308.175 84.9743C306.334 84.5197 304.544 83.8587 302.741 83.2595C299.795 82.2847 296.845 81.3168 293.878 80.2631C289.646 78.7449 285.419 77.2062 281.196 75.6467C279.031 74.8261 276.886 73.964 274.847 72.9744C265.87 68.5937 256.863 64.2751 247.979 59.7084C243.18 57.2075 238.512 54.4624 233.994 51.4839C230.022 48.889 226.262 45.9528 222.516 43.0234C219.09 40.5188 215.799 37.8353 212.655 34.9843C208.436 30.9647 204.532 26.6376 201.921 21.2698C199.057 15.3913 199.527 9.8053 203.398 4.77606C205.05 2.6271 207.733 1.04677 210.249 -0.161604C213.963 -2.05751 217.878 -3.53053 221.92 -4.55304C226.972 -5.69167 232.211 -5.99284 237.375 -6.64755C238.574 -6.80132 239.768 -6.98254 240.974 -7.08136C241.489 -7.07679 242.002 -7.016 242.504 -6.90006L242.565 -6.43306Z" fill="#1744F2" fill-opacity="0.15"/>
<path d="M215.527 -7.20817C213.168 -6.7032 210.801 -6.18215 208.446 -5.70527C199.347 -3.79932 191.292 0.12205 184.943 6.98566C182.005 10.1637 182.07 14.3851 182.443 18.4085C182.95 23.6581 185.65 27.9906 188.71 32.201C192.76 37.5977 197.567 42.382 202.982 46.4063C206.311 48.9796 209.652 51.5689 213.179 53.8405C219.776 58.0973 226.651 61.9317 233.176 66.2731C243.104 72.8947 254.108 77.398 264.718 82.637C272.588 86.5226 280.755 89.8253 288.906 93.1201C294.386 95.3258 300.052 97.0935 305.663 98.9938C309.647 100.341 313.631 101.728 317.694 102.834C323.764 104.472 329.913 105.868 336.023 107.385C338.026 107.884 340.009 108.484 342.02 108.967C343.393 109.285 344.769 109.474 346.19 109.736L346.062 110.522L341.499 109.799C335.934 108.921 330.37 108.183 324.827 107.117C319.903 106.175 315.038 104.892 310.157 103.742C304.128 102.325 298.091 100.944 292.081 99.4468C289.934 98.9163 287.845 98.145 285.741 97.4459C282.303 96.3085 278.862 95.1792 275.399 93.9497C270.462 92.1783 265.53 90.3828 260.602 88.5633C258.076 87.6057 255.573 86.5999 253.194 85.4451C242.72 80.3338 232.21 75.2947 221.844 69.9663C216.244 67.0482 210.798 63.8452 205.526 60.3699C200.892 57.3421 196.505 53.9161 192.134 50.4981C188.137 47.5756 184.296 44.4446 180.628 41.118C175.706 36.4278 171.15 31.379 168.103 25.1157C164.761 18.2566 165.31 11.7389 169.827 5.87073C171.755 3.36329 174.885 1.51936 177.821 0.10941C182.154 -2.10275 186.722 -3.82148 191.438 -5.01455C197.333 -6.34312 203.446 -6.69453 209.472 -7.45845C210.87 -7.63786 212.264 -7.84932 213.671 -7.96462C214.272 -7.95929 214.871 -7.88836 215.456 -7.75308L215.527 -7.20817Z" fill="#1744F2" fill-opacity="0.15"/>
<path d="M183.51 -6.88845C180.804 -6.30912 178.089 -5.71135 175.387 -5.16424C164.947 -2.97763 155.706 1.52119 148.423 9.39551C145.051 13.0415 145.126 17.8846 145.554 22.5005C146.136 28.5231 149.234 33.4935 152.745 38.324C157.391 44.5153 162.905 50.0042 169.118 54.6211C172.937 57.5733 176.77 60.5439 180.817 63.15C188.385 68.0336 196.272 72.4327 203.758 77.4134C215.148 85.01 227.772 90.1765 239.945 96.1869C248.974 100.645 258.344 104.434 267.695 108.214C273.982 110.744 280.482 112.772 286.919 114.952C291.489 116.498 296.06 118.09 300.721 119.359C307.686 121.237 314.74 122.839 321.75 124.58C324.048 125.152 326.323 125.84 328.631 126.394C330.205 126.759 331.784 126.976 333.414 127.276L333.267 128.179L328.033 127.349C321.648 126.342 315.264 125.495 308.906 124.271C303.257 123.191 297.675 121.72 292.075 120.4C285.158 118.774 278.232 117.19 271.338 115.472C268.874 114.864 266.478 113.979 264.064 113.177C260.12 111.872 256.171 110.576 252.199 109.165C246.535 107.133 240.876 105.073 235.223 102.986C232.325 101.887 229.453 100.733 226.724 99.4086C214.707 93.5446 202.65 87.7635 190.757 81.6504C184.333 78.3026 178.085 74.6279 172.037 70.6408C166.721 67.1672 161.687 63.2367 156.672 59.3154C152.086 55.9626 147.68 52.3705 143.473 48.5541C137.825 43.1732 132.598 37.3809 129.103 30.1954C125.269 22.3262 125.898 14.8487 131.081 8.11639C133.292 5.23972 136.883 3.12426 140.251 1.50669C145.223 -1.03122 150.463 -3.00305 155.874 -4.37181C162.637 -5.89602 169.65 -6.29917 176.563 -7.17559C178.168 -7.38142 179.767 -7.62401 181.381 -7.7563C182.07 -7.75018 182.757 -7.66881 183.429 -7.51361L183.51 -6.88845Z" fill="#1744F2" fill-opacity="0.15"/>
<path d="M145.959 -5.16586C142.856 -4.5015 139.742 -3.816 136.643 -3.1886C124.672 -0.681101 114.075 4.47794 105.723 13.5079C101.856 17.689 101.942 23.2427 102.433 28.536C103.1 35.4425 106.652 41.1424 110.678 46.6817C116.006 53.7817 122.33 60.0761 129.455 65.3706C133.834 68.756 138.229 72.1625 142.87 75.1511C151.549 80.7514 160.594 85.7961 169.178 91.5077C182.239 100.219 196.716 106.144 210.676 113.036C221.029 118.148 231.775 122.494 242.499 126.828C249.708 129.73 257.162 132.056 264.543 134.556C269.785 136.328 275.026 138.153 280.371 139.609C288.358 141.763 296.448 143.6 304.486 145.596C307.121 146.252 309.731 147.041 312.376 147.677C314.182 148.095 315.993 148.344 317.862 148.688L317.693 149.723L311.691 148.772C304.369 147.617 297.048 146.646 289.757 145.242C283.279 144.004 276.877 142.316 270.456 140.803C262.524 138.939 254.582 137.122 246.676 135.152C243.85 134.454 241.102 133.439 238.334 132.519C233.811 131.023 229.283 129.537 224.728 127.92C218.232 125.589 211.743 123.227 205.261 120.833C201.937 119.573 198.644 118.25 195.514 116.731C181.735 110.006 167.908 103.377 154.27 96.3666C146.903 92.5274 139.737 88.3135 132.802 83.7413C126.705 79.7578 120.933 75.2506 115.182 70.7538C109.924 66.9089 104.871 62.7896 100.046 58.4131C93.5689 52.2426 87.5752 45.6002 83.5673 37.3602C79.1705 28.3362 79.8923 19.7613 85.835 12.041C88.3714 8.74219 92.4893 6.31627 96.3516 4.46131C102.053 1.55095 108.062 -0.710254 114.267 -2.27988C122.023 -4.02778 130.065 -4.49009 137.993 -5.49513C139.832 -5.73117 141.666 -6.00936 143.517 -6.16106C144.308 -6.15404 145.095 -6.06073 145.866 -5.88275L145.959 -5.16586Z" fill="#1744F2" fill-opacity="0.15"/>
<path d="M106.974 -5.19003C103.346 -4.41336 99.7057 -3.61196 96.0835 -2.87848C82.088 0.0529625 69.699 6.08426 59.9349 16.6409C55.4148 21.5289 55.5152 28.0216 56.0889 34.2099C56.8694 42.284 61.022 48.9476 65.7287 55.4235C71.9572 63.7238 79.3504 71.0824 87.6799 77.2721C92.7994 81.2299 97.9375 85.2124 103.363 88.7062C113.509 95.2534 124.083 101.151 134.119 107.828C149.388 118.013 166.313 124.939 182.633 132.997C194.737 138.973 207.299 144.053 219.836 149.121C228.264 152.513 236.978 155.232 245.608 158.155C251.735 160.227 257.863 162.36 264.112 164.062C273.448 166.58 282.906 168.728 292.303 171.061C295.384 171.829 298.435 172.751 301.528 173.494C303.639 173.983 305.756 174.274 307.941 174.676L307.743 175.886L300.727 174.774C292.167 173.423 283.608 172.289 275.084 170.648C267.511 169.2 260.027 167.227 252.52 165.458C243.247 163.278 233.962 161.154 224.719 158.851C221.416 158.035 218.204 156.849 214.967 155.774C209.68 154.024 204.386 152.287 199.061 150.396C191.467 147.672 183.881 144.91 176.303 142.112C172.416 140.639 168.567 139.092 164.908 137.316C148.798 129.454 132.634 121.704 116.69 113.509C108.077 109.02 99.7007 104.094 91.5923 98.7487C84.4652 94.0918 77.7173 88.8225 70.9942 83.5654C64.8462 79.0705 58.9393 74.2548 53.2981 69.1383C45.7265 61.9246 38.7194 54.1591 34.0339 44.526C28.8937 33.9763 29.7375 23.9516 36.685 14.926C39.6502 11.0695 44.4643 8.23339 48.9796 6.06482C55.6444 2.6624 62.67 0.0188835 69.9245 -1.81612C78.9913 -3.85954 88.3924 -4.40002 97.6609 -5.57497C99.8116 -5.85092 101.956 -6.17615 104.119 -6.3535C105.044 -6.34529 105.964 -6.2362 106.865 -6.02814L106.974 -5.19003Z" fill="#1744F2" fill-opacity="0.15"/>
</svg>
