<svg width="244" height="233" viewBox="0 0 244 233" fill="none" xmlns="http://www.w3.org/2000/svg">
<path d="M227.526 217.391C226.682 215.329 225.847 213.253 224.985 211.209C221.7 203.277 220.496 195.093 222.424 186.678C223.317 182.782 226.57 180.633 229.832 178.823C234.1 176.476 238.81 176.279 243.614 176.42C249.838 176.698 255.989 177.872 261.878 179.906C265.574 181.105 269.288 182.304 272.857 183.811C279.538 186.625 286.042 189.871 292.75 192.586C302.97 196.709 312.134 202.755 321.654 208.118C328.715 212.096 335.487 216.604 342.244 221.105C346.779 224.135 351.078 227.535 355.448 230.824C358.55 233.16 361.683 235.476 364.642 237.998C369.051 241.775 373.318 245.737 377.657 249.606C379.08 250.874 380.57 252.074 381.986 253.356C382.943 254.237 383.804 255.188 384.743 256.135L385.276 255.628L382.349 252.525C378.782 248.739 375.321 244.879 371.622 241.209C368.34 237.944 364.828 234.901 361.409 231.778C357.189 227.919 352.993 224.034 348.722 220.231C347.199 218.87 345.523 217.679 343.894 216.438C341.237 214.409 338.583 212.373 335.843 210.373C331.921 207.53 327.983 204.703 324.03 201.894C321.984 200.466 319.914 199.081 317.794 197.868C308.443 192.542 299.128 187.152 289.666 182.021C284.525 179.271 279.246 176.786 273.851 174.575C269.129 172.618 264.232 171.057 259.349 169.503C255.039 167.977 250.652 166.678 246.205 165.614C240.065 164.302 233.843 163.457 227.48 164.395C220.509 165.418 215.825 169.231 213.702 175.731C212.794 178.507 213.018 181.854 213.471 184.827C214.041 189.283 215.109 193.661 216.655 197.88C218.711 203.067 221.626 207.911 224.182 212.904C224.773 214.064 225.338 215.237 225.982 216.37C226.299 216.825 226.665 217.245 227.073 217.621L227.526 217.391Z" fill="#4596DF" fill-opacity="0.15"/>
<path d="M210.578 197.929C209.582 195.494 208.596 193.042 207.577 190.627C203.697 181.259 202.275 171.593 204.552 161.654C205.607 157.052 209.449 154.515 213.303 152.376C218.343 149.605 223.906 149.372 229.58 149.538C236.931 149.867 244.196 151.254 251.152 153.656C255.517 155.071 259.903 156.488 264.119 158.268C272.01 161.591 279.692 165.425 287.615 168.632C299.685 173.501 310.508 180.642 321.753 186.977C330.093 191.675 338.09 197 346.071 202.315C351.428 205.894 356.505 209.91 361.667 213.794C365.33 216.554 369.03 219.289 372.525 222.268C377.734 226.728 382.773 231.408 387.897 235.978C389.579 237.475 391.338 238.893 393.01 240.407C394.141 241.448 395.158 242.571 396.267 243.69L396.897 243.09L393.44 239.426C389.226 234.953 385.139 230.395 380.77 226.06C376.893 222.204 372.746 218.611 368.708 214.922C363.723 210.363 358.767 205.775 353.722 201.284C351.924 199.676 349.944 198.269 348.02 196.803C344.882 194.407 341.748 192.002 338.511 189.64C333.879 186.282 329.228 182.944 324.559 179.625C322.143 177.938 319.698 176.303 317.194 174.87C306.149 168.58 295.147 162.214 283.972 156.154C277.9 152.905 271.665 149.97 265.293 147.359C259.716 145.048 253.932 143.203 248.165 141.369C243.074 139.566 237.892 138.032 232.64 136.775C225.388 135.226 218.039 134.228 210.524 135.336C202.291 136.544 196.758 141.047 194.251 148.725C193.178 152.003 193.443 155.956 193.978 159.468C194.651 164.731 195.912 169.902 197.739 174.884C200.168 181.011 203.61 186.732 206.629 192.629C207.327 193.999 207.994 195.385 208.755 196.723C209.13 197.261 209.562 197.756 210.044 198.2L210.578 197.929Z" fill="#4596DF" fill-opacity="0.15"/>
<path d="M190.36 170.071C189.198 167.229 188.047 164.368 186.858 161.551C182.331 150.62 180.672 139.341 183.329 127.744C184.56 122.375 189.043 119.414 193.539 116.919C199.42 113.685 205.911 113.413 212.532 113.608C221.109 113.991 229.587 115.609 237.702 118.413C242.795 120.064 247.913 121.717 252.832 123.794C262.039 127.671 271.003 132.145 280.247 135.886C294.331 141.568 306.96 149.9 320.08 157.292C329.811 162.773 339.143 168.986 348.455 175.188C354.705 179.364 360.629 184.05 366.652 188.582C370.927 191.802 375.244 194.994 379.322 198.47C385.399 203.674 391.279 209.134 397.258 214.466C399.22 216.213 401.273 217.868 403.224 219.634C404.543 220.849 405.73 222.159 407.024 223.464L407.758 222.765L403.725 218.489C398.808 213.271 394.04 207.953 388.941 202.894C384.418 198.395 379.579 194.202 374.867 189.898C369.052 184.579 363.268 179.226 357.382 173.985C355.283 172.109 352.974 170.467 350.729 168.757C347.067 165.961 343.41 163.155 339.634 160.398C334.229 156.481 328.802 152.586 323.354 148.713C320.535 146.745 317.682 144.837 314.761 143.165C301.873 135.826 289.036 128.398 275.997 121.327C268.912 117.537 261.637 114.112 254.202 111.065C247.695 108.368 240.946 106.216 234.217 104.075C228.277 101.972 222.231 100.183 216.103 98.7154C207.641 96.9077 199.066 95.7432 190.298 97.0363C180.691 98.4463 174.235 103.7 171.31 112.658C170.058 116.484 170.367 121.096 170.992 125.193C171.776 131.335 173.248 137.368 175.379 143.181C178.213 150.33 182.23 157.006 185.752 163.887C186.567 165.485 187.345 167.102 188.233 168.663C188.67 169.291 189.174 169.869 189.737 170.387L190.36 170.071Z" fill="#4596DF" fill-opacity="0.15"/>
<path d="M167.72 136.195C166.387 132.935 165.067 129.653 163.703 126.421C158.509 113.881 156.605 100.941 159.654 87.6359C161.066 81.4762 166.21 78.0795 171.368 75.2167C178.115 71.5066 185.561 71.1949 193.157 71.4179C202.997 71.8574 212.723 73.7139 222.034 76.9301C227.876 78.8247 233.749 80.7206 239.392 83.1034C249.955 87.552 260.238 92.6842 270.844 96.9767C287.001 103.495 301.49 113.055 316.542 121.534C327.706 127.823 338.412 134.951 349.095 142.066C356.266 146.857 363.062 152.233 369.972 157.433C374.876 161.127 379.829 164.788 384.508 168.776C391.48 174.747 398.226 181.011 405.085 187.128C407.336 189.133 409.691 191.031 411.93 193.057C413.443 194.451 414.804 195.954 416.289 197.451L417.132 196.649L412.504 191.744C406.864 185.757 401.393 179.656 395.544 173.852C390.355 168.69 384.803 163.88 379.397 158.942C372.725 152.84 366.09 146.698 359.337 140.686C356.93 138.533 354.28 136.65 351.705 134.688C347.503 131.48 343.308 128.261 338.975 125.099C332.775 120.604 326.549 116.135 320.299 111.693C317.064 109.435 313.791 107.246 310.44 105.328C295.654 96.908 280.926 88.3857 265.967 80.2739C257.839 75.9253 249.493 71.9958 240.963 68.5009C233.498 65.4068 225.755 62.9378 218.035 60.4817C211.221 58.0684 204.284 56.0158 197.254 54.3325C187.546 52.2586 177.708 50.9225 167.649 52.4061C156.627 54.0237 149.221 60.0512 145.865 70.3285C144.429 74.7172 144.782 80.0091 145.5 84.7094C146.4 91.7551 148.088 98.6774 150.533 105.346C153.785 113.547 158.393 121.206 162.433 129.101C163.368 130.934 164.261 132.789 165.28 134.58C165.781 135.3 166.36 135.964 167.005 136.558L167.72 136.195Z" fill="#4596DF" fill-opacity="0.15"/>
<path d="M142.584 95.4951C141.055 91.7569 139.541 87.9926 137.977 84.2862C132.021 69.9059 129.838 55.0668 133.334 39.8096C134.953 32.7459 140.851 28.8507 146.766 25.5678C154.503 21.3132 163.043 20.9557 171.753 21.2116C183.038 21.7155 194.191 23.8445 204.868 27.5326C211.568 29.7052 218.302 31.8795 224.773 34.612C236.886 39.7134 248.679 45.5987 260.841 50.5211C279.37 57.9961 295.985 68.9586 313.246 78.6827C326.048 85.8948 338.325 94.0688 350.577 102.228C358.8 107.722 366.593 113.887 374.517 119.85C380.141 124.086 385.821 128.285 391.186 132.858C399.181 139.704 406.917 146.888 414.783 153.903C417.364 156.201 420.065 158.378 422.632 160.702C424.367 162.3 425.929 164.024 427.631 165.741L428.598 164.821L423.291 159.196C416.823 152.331 410.549 145.334 403.842 138.678C397.891 132.759 391.524 127.243 385.325 121.58C377.674 114.582 370.065 107.54 362.321 100.645C359.56 98.1764 356.522 96.0168 353.569 93.7673C348.751 90.0883 343.94 86.3961 338.971 82.7702C331.86 77.6158 324.721 72.4915 317.554 67.397C313.845 64.8078 310.091 62.297 306.248 60.0977C289.293 50.4424 272.404 40.6694 255.249 31.3672C245.928 26.3804 236.357 21.8742 226.575 17.8665C218.014 14.3183 209.135 11.4869 200.283 8.67031C192.468 5.90288 184.513 3.54908 176.451 1.61867C165.319 -0.759567 154.037 -2.29169 142.501 -0.590424C129.863 1.26464 121.369 8.17672 117.521 19.9622C115.874 24.995 116.28 31.0635 117.102 36.4536C118.134 44.5332 120.071 52.4714 122.874 60.1191C126.603 69.5238 131.888 78.3065 136.521 87.3594C137.593 89.4622 138.617 91.5894 139.786 93.6431C140.36 94.469 141.024 95.2296 141.763 95.9116L142.584 95.4951Z" fill="#4596DF" fill-opacity="0.15"/>
<path d="M114.582 54.5432C112.795 50.173 111.025 45.7722 109.196 41.4392C102.233 24.6275 99.681 7.27964 103.768 -10.5571C105.661 -18.8151 112.557 -23.3689 119.472 -27.2068C128.517 -32.1808 138.5 -32.5987 148.683 -32.2996C161.876 -31.7104 174.914 -29.2215 187.396 -24.9098C195.23 -22.3699 203.102 -19.8281 210.667 -16.6336C224.829 -10.6696 238.615 -3.78928 252.834 1.9654C274.494 10.7042 293.919 23.5201 314.098 34.8883C329.065 43.3197 343.418 52.8757 357.74 62.4146C367.354 68.8372 376.465 76.0443 385.729 83.0154C392.303 87.9679 398.943 92.8765 405.216 98.2227C414.562 106.227 423.606 114.625 432.802 122.826C435.82 125.513 438.978 128.058 441.978 130.775C444.007 132.643 445.832 134.658 447.823 136.666L448.953 135.59L442.749 129.014C435.187 120.988 427.852 112.808 420.011 105.027C413.054 98.1074 405.611 91.6585 398.364 85.0385C389.419 76.8576 380.524 68.6241 371.471 60.5635C368.243 57.6777 364.691 55.153 361.238 52.5232C355.606 48.2222 349.982 43.9058 344.173 39.6668C335.86 33.641 327.514 27.6503 319.135 21.6945C314.798 18.6675 310.41 15.7322 305.917 13.161C286.095 1.87329 266.351 -9.55202 246.296 -20.427C235.399 -26.2569 224.21 -31.5249 212.774 -36.2103C202.766 -40.3583 192.386 -43.6684 182.036 -46.9612C172.901 -50.1965 163.601 -52.9483 154.176 -55.2051C141.161 -57.9854 127.972 -59.7766 114.486 -57.7877C99.7103 -55.6189 89.7808 -47.5382 85.2815 -33.7601C83.3564 -27.8764 83.8307 -20.782 84.792 -14.4806C85.9991 -5.03488 88.2627 4.24544 91.5403 13.1861C95.8993 24.1809 102.078 34.4485 107.494 45.032C108.748 47.4902 109.945 49.9771 111.311 52.378C111.983 53.3435 112.758 54.2328 113.623 55.03L114.582 54.5432Z" fill="#4596DF" fill-opacity="0.15"/>
<path d="M240.456 228.689C239.801 227.088 239.152 225.475 238.482 223.887C235.93 217.727 234.995 211.37 236.493 204.833C237.187 201.807 239.713 200.139 242.247 198.732C245.562 196.909 249.22 196.756 252.952 196.866C257.786 197.082 262.564 197.994 267.138 199.574C270.009 200.505 272.893 201.436 275.666 202.607C280.855 204.792 285.907 207.313 291.117 209.422C299.055 212.624 306.173 217.321 313.567 221.487C319.052 224.576 324.311 228.078 329.56 231.573C333.083 233.927 336.421 236.568 339.816 239.123C342.225 240.937 344.658 242.736 346.957 244.695C350.382 247.628 353.696 250.706 357.066 253.711C358.172 254.696 359.329 255.628 360.428 256.624C361.172 257.308 361.841 258.047 362.57 258.782L362.984 258.388L360.711 255.978C357.94 253.037 355.252 250.04 352.379 247.189C349.829 244.653 347.102 242.29 344.446 239.864C341.168 236.866 337.909 233.849 334.591 230.895C333.408 229.838 332.107 228.912 330.842 227.949C328.778 226.373 326.717 224.791 324.588 223.238C321.542 221.03 318.483 218.834 315.413 216.652C313.824 215.543 312.216 214.467 310.569 213.525C303.306 209.388 296.07 205.202 288.722 201.217C284.728 199.08 280.628 197.15 276.438 195.433C272.77 193.913 268.966 192.7 265.174 191.493C261.826 190.308 258.418 189.299 254.965 188.472C250.195 187.453 245.362 186.797 240.42 187.526C235.006 188.321 231.367 191.282 229.719 196.331C229.013 198.487 229.187 201.087 229.539 203.396C229.982 206.857 230.811 210.258 232.012 213.534C233.609 217.563 235.874 221.325 237.858 225.204C238.318 226.105 238.756 227.016 239.257 227.896C239.503 228.249 239.787 228.575 240.104 228.867L240.456 228.689Z" fill="#4596DF" fill-opacity="0.15"/>
<path d="M250.825 237.593C250.315 236.346 249.81 235.09 249.288 233.854C247.301 229.056 246.573 224.105 247.739 219.015C248.28 216.658 250.247 215.358 252.221 214.263C254.802 212.843 257.651 212.724 260.557 212.81C264.322 212.978 268.043 213.688 271.606 214.919C273.841 215.643 276.088 216.369 278.247 217.28C282.288 218.982 286.223 220.946 290.281 222.588C296.462 225.082 302.006 228.74 307.765 231.984C312.036 234.39 316.132 237.117 320.22 239.84C322.963 241.673 325.563 243.729 328.207 245.719C330.083 247.132 331.978 248.533 333.768 250.059C336.436 252.343 339.017 254.74 341.641 257.08C342.502 257.847 343.404 258.573 344.26 259.349C344.839 259.882 345.36 260.457 345.928 261.03L346.25 260.723L344.48 258.846C342.322 256.556 340.229 254.221 337.991 252.001C336.005 250.026 333.881 248.186 331.813 246.296C329.26 243.962 326.722 241.612 324.138 239.311C323.217 238.488 322.203 237.767 321.218 237.017C319.61 235.789 318.005 234.558 316.348 233.348C313.975 231.628 311.593 229.918 309.202 228.219C307.964 227.355 306.712 226.517 305.43 225.783C299.773 222.562 294.138 219.301 288.415 216.198C285.305 214.534 282.112 213.031 278.848 211.694C275.992 210.51 273.029 209.565 270.076 208.625C267.469 207.702 264.815 206.917 262.125 206.273C258.411 205.479 254.647 204.968 250.798 205.536C246.581 206.155 243.747 208.461 242.463 212.393C241.914 214.072 242.049 216.097 242.324 217.895C242.668 220.591 243.314 223.239 244.25 225.791C245.494 228.928 247.257 231.859 248.803 234.879C249.16 235.581 249.502 236.29 249.892 236.975C250.084 237.251 250.305 237.505 250.552 237.732L250.825 237.593Z" fill="#4596DF" fill-opacity="0.15"/>
</svg>
