<svg width="214" height="233" viewBox="0 0 214 233" fill="none" xmlns="http://www.w3.org/2000/svg">
<path d="M56.8872 40.8385C58.5932 41.9119 60.3133 42.9803 62.0005 44.0683C68.5567 48.2341 75.6633 50.5849 83.4643 50.1799C87.0761 49.9921 89.4987 47.4281 91.6217 44.8031C94.3793 41.366 95.2902 37.1992 95.9144 32.8954C96.6383 27.3047 96.552 21.6388 95.6583 16.0728C95.1672 12.592 94.6782 9.09462 93.8921 5.67835C92.4273 -0.715473 90.5495 -7.01899 89.177 -13.4216C87.0977 -23.1731 83.1394 -32.2846 79.8455 -41.607C77.4024 -48.5211 74.4414 -55.26 71.4853 -61.9849C69.4926 -66.5001 67.1332 -70.8619 64.8842 -75.2706C63.286 -78.3999 61.711 -81.5533 59.925 -84.5845C57.2476 -89.1041 54.3825 -93.5255 51.6113 -97.996C50.7038 -99.4627 49.8664 -100.978 48.9448 -102.44C48.3087 -103.431 47.5958 -104.346 46.8983 -105.331L47.4337 -105.727L49.742 -102.634C52.5599 -98.8634 55.4593 -95.177 58.1534 -91.3069C60.5508 -87.8721 62.7142 -84.2672 64.9641 -80.7327C67.7453 -76.3689 70.5522 -72.0223 73.2748 -67.622C74.2505 -66.0522 75.0505 -64.3727 75.902 -62.7273C77.2957 -60.0421 78.6964 -57.3593 80.0511 -54.6047C81.9726 -50.6655 83.8769 -46.7149 85.7641 -42.7529C86.7175 -40.7066 87.6286 -38.6452 88.3789 -36.5668C91.6653 -27.4007 95.0153 -18.257 98.1111 -9.0235C99.7599 -4.01209 101.151 1.08047 102.279 6.23419C103.286 10.7481 103.913 15.3565 104.536 19.9507C105.223 24.0303 105.695 28.1434 105.95 32.2727C106.161 37.9499 105.943 43.6276 104.113 49.1517C102.113 55.2048 97.9841 58.7849 91.8593 59.6621C89.2435 60.0382 86.2953 59.3163 83.7165 58.448C79.8337 57.2448 76.0982 55.6095 72.5801 53.5729C68.2781 50.9303 64.4157 47.5762 60.3645 44.5193C59.4232 43.8112 58.4656 43.1247 57.5567 42.3734C57.2002 42.0198 56.8834 41.6283 56.6119 41.2058L56.8872 40.8385Z" fill="#92D7D7" fill-opacity="0.29"/>
<path d="M71.5885 58.9817C73.6034 60.2495 75.635 61.5114 77.6278 62.7964C85.3714 67.7167 93.7648 70.4932 102.979 70.0148C107.244 69.793 110.106 66.7647 112.613 63.6643C115.87 59.6048 116.946 54.6834 117.683 49.6001C118.538 42.997 118.436 36.3051 117.381 29.731C116.801 25.6199 116.223 21.4891 115.295 17.4542C113.565 9.90247 111.347 2.45741 109.726 -5.10465C107.27 -16.6222 102.595 -27.3837 98.7044 -38.3943C95.819 -46.5605 92.3217 -54.5199 88.8302 -62.4626C86.4768 -67.7955 83.69 -72.9472 81.0338 -78.1544C79.1461 -81.8504 77.2859 -85.5748 75.1764 -89.1549C72.0142 -94.493 68.6303 -99.7151 65.3572 -104.995C64.2853 -106.728 63.2963 -108.517 62.2077 -110.244C61.4565 -111.414 60.6145 -112.496 59.7906 -113.659L60.423 -114.126L63.1493 -110.473C66.4776 -106.02 69.902 -101.666 73.084 -97.0947C75.9155 -93.0378 78.4708 -88.7802 81.1281 -84.6055C84.413 -79.4516 87.7282 -74.3177 90.9439 -69.1206C92.0963 -67.2665 93.0411 -65.2828 94.0468 -63.3394C95.6929 -60.1679 97.3473 -56.9994 98.9473 -53.7459C101.217 -49.0933 103.466 -44.4273 105.695 -39.7478C106.821 -37.3309 107.897 -34.8962 108.783 -32.4414C112.665 -21.6153 116.622 -10.8158 120.278 0.0898919C122.225 6.00885 123.868 12.0237 125.201 18.1107C126.39 23.4421 127.131 28.885 127.866 34.3112C128.678 39.1297 129.236 43.9876 129.537 48.8647C129.785 55.57 129.528 62.2759 127.367 68.8004C125.005 75.9497 120.128 80.1781 112.894 81.2142C109.804 81.6584 106.322 80.8058 103.277 79.7803C98.6905 78.3592 94.2785 76.4277 90.1234 74.0223C85.0422 70.9011 80.4805 66.9396 75.6955 63.3291C74.5837 62.4928 73.4528 61.682 72.3793 60.7946C71.9582 60.3769 71.584 59.9145 71.2633 59.4156L71.5885 58.9817Z" fill="#92D7D7" fill-opacity="0.29"/>
<path d="M93.2609 81.3492C95.6119 82.8285 97.9823 84.3009 100.308 85.8003C109.343 91.5413 119.136 94.7809 129.887 94.2228C134.865 93.9639 138.203 90.4305 141.129 86.8129C144.929 82.0763 146.185 76.3339 147.045 70.4027C148.042 62.6981 147.923 54.89 146.692 47.2193C146.015 42.4224 145.341 37.6026 144.258 32.8946C142.239 24.0832 139.651 15.3962 137.76 6.5727C134.894 -6.86608 129.439 -19.4227 124.9 -32.27C121.533 -41.7984 117.452 -51.0855 113.379 -60.3531C110.633 -66.5756 107.381 -72.5866 104.282 -78.6624C102.079 -82.9749 99.9086 -87.3206 97.4473 -91.4979C93.7576 -97.7264 89.8091 -103.82 85.99 -109.98C84.7393 -112.002 83.5854 -114.09 82.3153 -116.105C81.4387 -117.47 80.4562 -118.732 79.4949 -120.089L80.2329 -120.635L83.4139 -116.372C87.2974 -111.176 91.293 -106.096 95.0058 -100.762C98.3096 -96.0286 101.291 -91.0607 104.392 -86.1896C108.224 -80.176 112.093 -74.1858 115.845 -68.1217C117.189 -65.9583 118.292 -63.6438 119.465 -61.3762C121.386 -57.6756 123.316 -53.9786 125.183 -50.1824C127.831 -44.7537 130.456 -39.3093 133.056 -33.8492C134.37 -31.0291 135.626 -28.1884 136.66 -25.3241C141.189 -12.6921 145.806 -0.0910951 150.072 12.6337C152.344 19.54 154.261 26.5582 155.816 33.6606C157.204 39.8813 158.068 46.2321 158.926 52.5635C159.874 58.1857 160.524 63.854 160.875 69.5446C161.166 77.3684 160.865 85.1929 158.344 92.8058C155.587 101.148 149.897 106.081 141.456 107.29C137.851 107.809 133.789 106.814 130.235 105.617C124.884 103.959 119.736 101.705 114.887 98.8988C108.959 95.2569 103.636 90.6346 98.0529 86.4218C96.7557 85.446 95.4361 84.4999 94.1835 83.4646C93.6922 82.9772 93.2556 82.4377 92.8814 81.8555L93.2609 81.3492Z" fill="#92D7D7" fill-opacity="0.29"/>
<path d="M119.92 106.816C122.617 108.513 125.336 110.202 128.004 111.922C138.37 118.509 149.605 122.225 161.939 121.585C167.65 121.288 171.48 117.234 174.837 113.084C179.197 107.65 180.637 101.062 181.624 94.2572C182.768 85.4181 182.632 76.4601 181.219 67.6599C180.442 62.1566 179.669 56.627 178.426 51.2258C176.11 41.1168 173.141 31.1506 170.971 21.0278C167.684 5.61009 161.426 -8.7956 156.218 -23.5347C152.355 -34.4662 147.674 -45.1209 143 -55.7532C139.849 -62.892 136.119 -69.7882 132.563 -76.7587C130.036 -81.7062 127.546 -86.6919 124.723 -91.4844C120.489 -98.63 115.96 -105.62 111.578 -112.689C110.143 -115.008 108.819 -117.404 107.362 -119.715C106.357 -121.281 105.229 -122.729 104.127 -124.286L104.973 -124.912L108.623 -120.022C113.078 -114.06 117.662 -108.232 121.922 -102.113C125.712 -96.6821 129.132 -90.9827 132.69 -85.3944C137.087 -78.4952 141.525 -71.6229 145.829 -64.6658C147.372 -62.1839 148.637 -59.5285 149.983 -56.927C152.186 -52.6815 154.401 -48.44 156.543 -44.0848C159.581 -37.8567 162.592 -31.6106 165.575 -25.3465C167.083 -22.1111 168.523 -18.8521 169.709 -15.566C174.906 -1.07388 180.202 13.3827 185.097 27.9814C187.704 35.9047 189.903 43.9563 191.686 52.1045C193.278 59.2413 194.27 66.5273 195.254 73.791C196.341 80.2412 197.088 86.7441 197.491 93.2728C197.824 102.249 197.479 111.225 194.586 119.959C191.424 129.53 184.896 135.19 175.212 136.577C171.077 137.171 166.415 136.03 162.338 134.657C156.199 132.755 150.293 130.169 144.731 126.949C137.929 122.771 131.823 117.468 125.417 112.635C123.929 111.516 122.415 110.43 120.978 109.243C120.414 108.683 119.914 108.064 119.484 107.396L119.92 106.816Z" fill="#92D7D7" fill-opacity="0.29"/>
<path d="M152.269 135.572C155.362 137.518 158.481 139.455 161.54 141.428C173.427 148.981 186.312 153.243 200.456 152.509C207.004 152.168 211.396 147.519 215.246 142.76C220.245 136.528 221.897 128.974 223.029 121.17C224.341 111.034 224.185 100.761 222.564 90.6698C221.674 84.3589 220.787 78.0178 219.362 71.8239C216.706 60.2314 213.302 48.8026 210.813 37.1942C207.043 19.5139 199.867 2.99409 193.894 -13.9081C189.465 -26.4438 184.096 -38.6621 178.737 -50.8548C175.124 -59.0412 170.846 -66.9495 166.769 -74.9429C163.871 -80.6166 161.015 -86.3339 157.777 -91.8297C152.923 -100.024 147.728 -108.04 142.704 -116.146C141.058 -118.805 139.54 -121.553 137.869 -124.203C136.716 -125.999 135.423 -127.66 134.159 -129.445L135.129 -130.163L139.315 -124.555C144.424 -117.718 149.68 -111.035 154.565 -104.018C158.912 -97.7902 162.834 -91.2544 166.913 -84.8459C171.956 -76.9342 177.045 -69.0534 181.981 -61.0753C183.75 -58.2292 185.201 -55.1841 186.745 -52.2008C189.271 -47.3323 191.811 -42.4683 194.267 -37.474C197.751 -30.3319 201.204 -23.1691 204.625 -15.9858C206.354 -12.2756 208.006 -8.53823 209.366 -4.76989C215.325 11.849 221.399 28.4272 227.011 45.1683C230.001 54.2544 232.523 63.4876 234.568 72.8317C236.394 81.0157 237.531 89.371 238.66 97.7007C239.906 105.097 240.763 112.555 241.224 120.042C241.606 130.335 241.211 140.629 237.894 150.644C234.267 161.619 226.781 168.11 215.676 169.701C210.934 170.382 205.589 169.074 200.913 167.499C193.873 165.318 187.1 162.353 180.722 158.66C172.922 153.869 165.919 147.788 158.574 142.245C156.867 140.962 155.131 139.717 153.483 138.355C152.837 137.714 152.262 137.004 151.77 136.238L152.269 135.572Z" fill="#92D7D7" fill-opacity="0.29"/>
<path d="M184.397 166.921C188.013 169.197 191.659 171.461 195.235 173.767C209.132 182.597 224.195 187.58 240.73 186.722C248.386 186.323 253.521 180.889 258.021 175.325C263.866 168.04 265.796 159.207 267.12 150.085C268.654 138.235 268.471 126.226 266.577 114.428C265.536 107.05 264.499 99.6366 262.833 92.3954C259.728 78.8429 255.748 65.4819 252.839 51.9109C248.432 31.2413 240.041 11.9285 233.059 -7.83134C227.881 -22.4866 221.605 -36.7706 215.339 -51.0247C211.115 -60.5952 206.114 -69.8405 201.347 -79.1854C197.96 -85.8183 194.621 -92.5023 190.836 -98.9272C185.161 -108.507 179.088 -117.879 173.214 -127.354C171.29 -130.463 169.515 -133.675 167.562 -136.774C166.214 -138.874 164.703 -140.815 163.224 -142.903L164.359 -143.741L169.252 -137.186C175.225 -129.193 181.37 -121.379 187.081 -113.176C192.162 -105.896 196.748 -98.2547 201.517 -90.7628C207.412 -81.5134 213.361 -72.3001 219.132 -62.9732C221.2 -59.6459 222.896 -56.086 224.701 -52.5983C227.655 -46.9066 230.624 -41.2203 233.495 -35.3816C237.568 -27.0319 241.605 -18.6582 245.605 -10.2603C247.626 -5.92284 249.557 -1.55363 251.147 2.85182C258.113 22.2805 265.214 41.6616 271.776 61.2331C275.271 71.8554 278.219 82.6496 280.61 93.5735C282.744 103.141 284.074 112.909 285.393 122.647C286.851 131.295 287.852 140.013 288.392 148.765C288.838 160.799 288.376 172.833 284.498 184.542C280.258 197.373 271.506 204.961 258.524 206.82C252.98 207.617 246.731 206.087 241.265 204.247C233.034 201.696 225.117 198.23 217.66 193.914C208.541 188.312 200.354 181.203 191.767 174.723C189.772 173.222 187.742 171.767 185.816 170.175C185.06 169.425 184.389 168.595 183.813 167.7L184.397 166.921Z" fill="#92D7D7" fill-opacity="0.29"/>
<path d="M48.8367 27.5515C50.1618 28.3853 51.4978 29.2152 52.8084 30.0602C57.9007 33.2959 63.4205 35.1218 69.4798 34.8073C72.2851 34.6614 74.1668 32.6699 75.8158 30.631C77.9577 27.9613 78.6652 24.7249 79.1501 21.382C79.7123 17.0396 79.6453 12.6388 78.9511 8.31549C78.5697 5.61189 78.1898 2.89539 77.5793 0.24189C76.4415 -4.72434 74.983 -9.62042 73.9169 -14.5935C72.3019 -22.1677 69.2274 -29.2448 66.6689 -36.4857C64.7714 -41.856 62.4714 -47.0903 60.1754 -52.3137C58.6277 -55.8208 56.795 -59.2086 55.0482 -62.633C53.8068 -65.0636 52.5835 -67.5129 51.1962 -69.8673C49.1167 -73.3778 46.8913 -76.812 44.7388 -80.2843C44.0339 -81.4236 43.3835 -82.6006 42.6677 -83.736C42.1736 -84.5055 41.6199 -85.2169 41.0781 -85.9819L41.494 -86.2893L43.2869 -83.8869C45.4756 -80.9581 47.7276 -78.0948 49.8202 -75.0887C51.6823 -72.4208 53.3627 -69.6209 55.1102 -66.8755C57.2704 -63.4861 59.4506 -60.11 61.5653 -56.6922C62.3232 -55.4729 62.9446 -54.1684 63.606 -52.8903C64.6885 -50.8046 65.7765 -48.7209 66.8286 -46.5813C68.3211 -43.5217 69.8003 -40.4531 71.2661 -37.3758C72.0066 -35.7863 72.7143 -34.1853 73.297 -32.5709C75.8497 -25.4514 78.4517 -18.3493 80.8563 -11.1774C82.1369 -7.2849 83.2174 -3.32939 84.0935 0.67362C84.8757 4.17967 85.363 7.7591 85.8464 11.3275C86.3805 14.4963 86.7472 17.691 86.9451 20.8983C87.1087 25.3079 86.9392 29.7179 85.5182 34.0086C83.9647 38.7102 80.7576 41.4909 76.0003 42.1723C73.9686 42.4644 71.6787 41.9037 69.6757 41.2293C66.6598 40.2947 63.7583 39.0246 61.0258 37.4427C57.6843 35.3901 54.6843 32.7849 51.5376 30.4105C50.8065 29.8605 50.0627 29.3273 49.3567 28.7438C49.0798 28.4691 48.8338 28.165 48.6229 27.8369L48.8367 27.5515Z" fill="#92D7D7" fill-opacity="0.29"/>
<path d="M42.5194 16.9192C43.5514 17.5686 44.5919 18.2149 45.6125 18.873C49.5784 21.3929 53.8772 22.815 58.5962 22.57C60.781 22.4564 62.2464 20.9054 63.5307 19.3175C65.1988 17.2384 65.7498 14.7178 66.1274 12.1144C66.5653 8.73252 66.5131 5.30519 65.9724 1.93823C65.6754 -0.167329 65.3796 -2.28294 64.9041 -4.34948C64.018 -8.21717 62.8821 -12.0302 62.0518 -15.9032C60.7941 -21.802 58.3997 -27.3137 56.4071 -32.9529C54.9293 -37.1353 53.1381 -41.2117 51.3499 -45.2797C50.1446 -48.011 48.7173 -50.6495 47.3569 -53.3164C46.3901 -55.2093 45.4374 -57.1168 44.357 -58.9504C42.7374 -61.6843 41.0043 -64.3589 39.328 -67.0632C38.779 -67.9504 38.2725 -68.8671 37.7149 -69.7513C37.3302 -70.3506 36.8989 -70.9047 36.477 -71.5004L36.8009 -71.7398L38.1972 -69.8689C39.9018 -67.5879 41.6556 -65.3579 43.2854 -63.0168C44.7355 -60.9391 46.0442 -58.7585 47.4052 -56.6204C49.0876 -53.9807 50.7855 -51.3514 52.4324 -48.6896C53.0226 -47.7401 53.5066 -46.7241 54.0217 -45.7287C54.8647 -44.1044 55.712 -42.4816 56.5315 -40.8153C57.6938 -38.4325 58.8458 -36.0427 59.9873 -33.6461C60.5641 -32.4082 61.1152 -31.1613 61.569 -29.904C63.557 -24.3593 65.5835 -18.8282 67.4562 -13.2428C68.4536 -10.2113 69.2951 -7.13079 69.9773 -4.01325C70.5865 -1.28274 70.966 1.50491 71.3425 4.28401C71.7584 6.75183 72.044 9.23985 72.1982 11.7377C72.3256 15.1719 72.1936 18.6064 71.0869 21.948C69.877 25.6096 67.3793 27.7752 63.6744 28.3058C62.0921 28.5334 60.3087 28.0967 58.7487 27.5714C56.4 26.8436 54.1403 25.8544 52.0122 24.6224C49.4099 23.0239 47.0735 20.995 44.6229 19.1458C44.0534 18.7175 43.4742 18.3022 42.9244 17.8478C42.7088 17.6338 42.5171 17.397 42.3529 17.1415L42.5194 16.9192Z" fill="#92D7D7" fill-opacity="0.29"/>
<path d="M36.346 7.50072C37.2001 8.03814 38.0613 8.57306 38.906 9.11777C42.1885 11.2034 45.7464 12.3804 49.6521 12.1776C51.4604 12.0836 52.6733 10.7999 53.7362 9.48566C55.1168 7.76486 55.5729 5.67869 55.8854 3.52393C56.2478 0.724899 56.2046 -2.11177 55.7571 -4.89847C55.5113 -6.64115 55.2664 -8.39216 54.8729 -10.1026C54.1395 -13.3037 53.1994 -16.4596 52.5122 -19.6651C51.4712 -24.5474 49.4894 -29.1091 47.8403 -33.7764C46.6171 -37.2381 45.1347 -40.612 43.6547 -43.9789C42.657 -46.2395 41.4757 -48.4232 40.3498 -50.6305C39.5496 -52.1972 38.7611 -53.776 37.8669 -55.2936C36.5264 -57.5564 35.092 -59.77 33.7045 -62.0082C33.2502 -62.7425 32.831 -63.5012 32.3695 -64.2331C32.0511 -64.7291 31.6942 -65.1876 31.3449 -65.6807L31.613 -65.8789L32.7687 -64.3304C34.1795 -62.4425 35.6311 -60.5968 36.9799 -58.6592C38.1802 -56.9395 39.2633 -55.1348 40.3898 -53.3651C41.7822 -51.1804 43.1875 -49.0042 44.5506 -46.8011C45.0391 -46.0152 45.4396 -45.1744 45.8659 -44.3505C46.5637 -43.0062 47.265 -41.663 47.9432 -40.2839C48.9052 -38.3117 49.8587 -36.3338 50.8035 -34.3502C51.2809 -33.3257 51.737 -32.2936 52.1126 -31.2531C53.758 -26.6639 55.4352 -22.086 56.9852 -17.4632C57.8107 -14.9542 58.5071 -12.4045 59.0718 -9.82427C59.576 -7.56434 59.8901 -5.25711 60.2017 -2.95696C60.546 -0.914439 60.7824 1.1448 60.9099 3.21219C61.0154 6.05451 60.9061 8.89712 59.9902 11.6628C58.9888 14.6934 56.9216 16.4858 53.8551 16.925C52.5455 17.1133 51.0695 16.7518 49.7784 16.3171C47.8344 15.7147 45.9642 14.896 44.2028 13.8764C42.0489 12.5533 40.1152 10.874 38.0869 9.34355C37.6156 8.98905 37.1362 8.64536 36.6812 8.26922C36.5027 8.09216 36.3441 7.89615 36.2081 7.68465L36.346 7.50072Z" fill="#92D7D7" fill-opacity="0.29"/>
<path d="M30.7163 -2.09885C31.3868 -1.67693 32.0629 -1.25697 32.7261 -0.829328C35.3031 0.808102 38.0964 1.73211 41.1627 1.57293C42.5823 1.49909 43.5346 0.491282 44.3691 -0.540496C45.453 -1.89148 45.811 -3.5293 46.0564 -5.22098C46.3409 -7.41846 46.307 -9.64549 45.9557 -11.8333C45.7627 -13.2015 45.5704 -14.5761 45.2615 -15.919C44.6857 -18.4321 43.9476 -20.9098 43.4081 -23.4264C42.5909 -27.2594 41.035 -30.8408 39.7403 -34.505C38.78 -37.2227 37.6161 -39.8715 36.4542 -42.5148C35.671 -44.2896 34.7436 -46.004 33.8596 -47.7369C33.2314 -48.9669 32.6123 -50.2064 31.9103 -51.3979C30.8579 -53.1743 29.7318 -54.9122 28.6425 -56.6694C28.2858 -57.2459 27.9566 -57.8416 27.5944 -58.4162C27.3444 -58.8056 27.0642 -59.1656 26.79 -59.5527L27.0004 -59.7082L27.9077 -58.4925C29.0154 -57.0104 30.155 -55.5614 31.2139 -54.0402C32.1563 -52.6901 33.0066 -51.2732 33.891 -49.8839C34.9841 -48.1686 36.0874 -46.4601 37.1576 -44.7306C37.5411 -44.1135 37.8556 -43.4534 38.1902 -42.8066C38.738 -41.7512 39.2886 -40.6967 39.8211 -39.614C40.5764 -38.0656 41.3249 -36.5128 42.0667 -34.9555C42.4414 -34.1511 42.7995 -33.3409 43.0944 -32.5239C44.3862 -28.9211 45.703 -25.327 46.9198 -21.6977C47.5679 -19.7279 48.1147 -17.7262 48.558 -15.7005C48.9539 -13.9262 49.2004 -12.1149 49.4451 -10.309C49.7153 -8.70548 49.9009 -7.0888 50.0011 -5.46572C50.0839 -3.23425 49.9981 -1.00255 49.279 1.16878C48.4928 3.54803 46.8699 4.95521 44.4624 5.30001C43.4343 5.44784 42.2755 5.16409 41.2618 4.82281C39.7356 4.34987 38.2673 3.7071 36.8845 2.90659C35.1936 1.86787 33.6754 0.549505 32.083 -0.652068C31.713 -0.930383 31.3367 -1.2002 30.9794 -1.49551C30.8393 -1.63452 30.7147 -1.78841 30.608 -1.95445L30.7163 -2.09885Z" fill="#92D7D7" fill-opacity="0.29"/>
</svg>
