<svg width="69" height="69" viewBox="0 0 69 69" fill="none" xmlns="http://www.w3.org/2000/svg">
<path d="M68.8608 37.6C68.6629 38.9724 68.5658 40.3647 68.2618 41.712C66.0223 51.6828 60.446 59.2738 51.6624 64.4706C47.7361 66.7825 43.3676 68.2429 38.8404 68.7572C38.29 68.8219 37.745 68.9191 37.1963 69H31.8107C31.271 68.9191 30.717 68.8201 30.1666 68.7572C24.5126 68.0985 19.1232 65.9961 14.5169 62.652C7.52492 57.5991 2.94695 50.8878 0.919689 42.4783C0.0721936 38.8967 -0.192028 35.2019 0.137206 31.5362C0.594647 25.587 2.64507 19.8707 6.07328 14.9871C11.1531 7.70551 18.0198 3.01121 26.6733 0.9042C29.9497 0.124154 33.3256 -0.153633 36.6855 0.0803446C43.9977 0.540469 50.9733 3.31753 56.601 8.00891C62.2287 12.7003 66.216 19.0621 67.9848 26.1721C68.4129 27.9026 68.573 29.6978 68.8608 31.4624C68.8626 31.4624 69.1054 34.9755 68.8608 37.6ZM66.8012 34.542C66.7112 16.651 52.434 2.24971 34.5053 2.24791C30.267 2.24543 26.0697 3.07777 22.153 4.69742C18.2364 6.31706 14.6771 8.69228 11.6784 11.6875C5.62226 17.7365 2.21714 25.9436 2.21213 34.5033C2.20713 43.063 5.60264 51.274 11.6517 57.3302C17.7008 63.3863 25.9079 66.7915 34.4675 66.7965C52.3513 66.8324 66.6824 52.4923 66.8012 34.542Z" fill="#1744F2"/>
<path d="M4.20312 34.5424C4.2409 22.055 11.983 11.1758 22.9198 6.632C25.7536 5.45346 28.7543 4.72514 31.8131 4.47342C38.7301 3.89061 45.1075 5.46757 50.9452 9.2043C51.305 9.43814 51.6648 9.67019 51.7475 10.1415C51.7853 10.3351 51.7703 10.5352 51.7043 10.721C51.6382 10.9069 51.5235 11.0716 51.372 11.1978C51.2205 11.3241 51.0379 11.4074 50.8432 11.439C50.6485 11.4705 50.4489 11.4492 50.2653 11.3773C50.0801 11.2975 49.904 11.198 49.74 11.0805C46.3468 8.83133 42.4873 7.38165 38.4525 6.84066C30.6133 5.81714 23.5008 7.67531 17.2553 12.5573C12.269 16.4535 8.98077 21.51 7.40861 27.6457C6.54878 30.9724 6.3248 34.4316 6.74844 37.8414C7.38444 43.3068 9.63312 48.4592 13.208 52.642C13.3681 52.8309 13.5336 53.0143 13.6775 53.214C13.856 53.4336 13.9443 53.713 13.9242 53.9954C13.9042 54.2777 13.7774 54.5418 13.5695 54.734C13.4631 54.8346 13.3373 54.9125 13.1998 54.963C13.0623 55.0134 12.916 55.0353 12.7698 55.0274C12.6236 55.0195 12.4805 54.9819 12.3492 54.917C12.218 54.852 12.1013 54.761 12.0064 54.6495C11.3408 53.8922 10.695 53.1133 10.0996 52.3002C7.38897 48.6272 5.57093 44.3734 4.78954 39.8758C4.48014 38.1202 4.392 36.3232 4.20312 34.5424Z" fill="#1744F2"/>
<path d="M34.4627 64.7193C27.4635 64.6437 21.1928 62.4743 15.6885 58.132C15.4315 57.9247 15.2372 57.65 15.1272 57.3387C15.0616 57.1206 15.0745 56.8864 15.1635 56.6768C15.2526 56.4672 15.4122 56.2953 15.6147 56.1911C15.8066 56.0734 16.0298 56.0167 16.2547 56.0286C16.4795 56.0405 16.6954 56.1203 16.8739 56.2577C17.6959 56.8423 18.4928 57.4683 19.3365 58.0151C22.6697 60.1737 26.2943 61.6019 30.2337 62.138C40.3484 63.5177 48.8316 60.3571 55.6383 52.7841C58.8959 49.1595 60.925 44.8694 61.9035 40.1043C62.5052 37.179 62.6267 34.1753 62.2633 31.211C61.755 26.95 60.2782 22.8619 57.9461 19.2597C57.7541 18.9636 57.6368 18.6254 57.6044 18.274C57.5756 17.8278 57.9839 17.4069 58.4012 17.3026C58.6412 17.2329 58.8978 17.2486 59.1274 17.347C59.357 17.4454 59.5454 17.6205 59.6604 17.8422C60.4105 19.114 61.1858 20.3786 61.8334 21.7043C63.2792 24.6438 64.184 27.8196 64.5046 31.0797C65.404 40.304 62.8101 48.4076 56.4657 55.2179C52.1216 59.8841 46.7755 62.8269 40.5408 64.1256C38.5443 64.5561 36.5048 64.7553 34.4627 64.7193Z" fill="#1744F2"/>
<path d="M35.5977 24.1862C35.5977 26.4077 35.5977 28.6293 35.5977 30.8418C35.5977 31.2411 35.6859 31.4696 36.0708 31.6801C36.4599 31.8825 36.803 32.1632 37.0786 32.5046C37.3541 32.8459 37.5562 33.2405 37.672 33.6635C37.7879 34.0866 37.8151 34.5291 37.7519 34.9632C37.6887 35.3973 37.5365 35.8136 37.3048 36.1861C37.0835 36.5566 37.1069 36.7977 37.3048 37.1484C39.1216 40.2658 40.9186 43.3939 42.721 46.5185C42.8255 46.693 42.9204 46.8732 43.0052 47.0581C43.1206 47.3032 43.1408 47.5825 43.062 47.8417C42.9833 48.1009 42.8111 48.3216 42.5789 48.4612C42.3465 48.6014 42.071 48.6518 41.804 48.6031C41.537 48.5545 41.297 48.4099 41.1291 48.1967C41.0117 48.0325 40.9065 47.86 40.8143 47.6805C39.0155 44.5578 37.1987 41.4368 35.4178 38.3051C35.3381 38.1273 35.2041 37.9794 35.0351 37.8825C34.8661 37.7855 34.6708 37.7446 34.4771 37.7654C32.9858 37.7852 31.7788 36.8355 31.3669 35.3766C31.1673 34.7025 31.2008 33.9808 31.4619 33.328C31.723 32.6752 32.1965 32.1295 32.806 31.779C33.3258 31.484 33.4337 31.1584 33.4301 30.617C33.4104 26.2423 33.4176 21.8657 33.4301 17.4856C33.4301 16.6672 33.7899 16.2265 34.4663 16.1905C35.1426 16.1545 35.6031 16.6024 35.6121 17.3076C35.6265 18.5667 35.6121 19.8259 35.6121 21.0761L35.5977 24.1862ZM35.5509 34.5132C35.5473 34.3056 35.482 34.1037 35.3633 33.9334C35.2446 33.763 35.078 33.6317 34.8845 33.5563C34.691 33.4808 34.4795 33.4647 34.2768 33.5098C34.0741 33.5548 33.8894 33.6592 33.7462 33.8095C33.603 33.9599 33.5077 34.1494 33.4725 34.354C33.4372 34.5587 33.4637 34.7692 33.5484 34.9587C33.6331 35.1483 33.7722 35.3084 33.9482 35.4187C34.1241 35.529 34.3289 35.5845 34.5364 35.5781C34.8058 35.5535 35.0571 35.432 35.2437 35.2362C35.4303 35.0403 35.5394 34.7834 35.5509 34.5132Z" fill="#1744F2"/>
<path d="M57.0717 22.3286C56.9566 22.4905 56.8127 22.8844 56.5321 23.0661C55.6147 23.6615 54.6577 24.1976 53.6954 24.7156C53.5693 24.7902 53.4294 24.8383 53.2842 24.8571C53.139 24.8759 52.9915 24.8649 52.8506 24.8249C52.7098 24.7848 52.5786 24.7165 52.4649 24.6241C52.3513 24.5318 52.2577 24.4172 52.1898 24.2875C52.1171 24.1664 52.0696 24.0319 52.0501 23.892C52.0306 23.7522 52.0395 23.6098 52.0763 23.4735C52.1131 23.3371 52.1769 23.2096 52.2641 23.0985C52.3513 22.9874 52.46 22.895 52.5837 22.8269C53.5335 22.2405 54.4976 21.6702 55.4888 21.1594C56.2227 20.7816 57.0537 21.3267 57.0717 22.3286Z" fill="#1744F2"/>
<path d="M22.2878 57.0936C21.3273 57.0774 20.7499 56.2716 21.1042 55.5736C21.6439 54.5195 22.2501 53.4996 22.8851 52.5031C23.1909 52.0192 23.7845 51.9508 24.2611 52.2152C24.7378 52.4797 25.013 53.0985 24.7486 53.5967C24.1946 54.6418 23.5992 55.6672 22.9624 56.6637C22.8059 56.9083 22.4282 57.0091 22.2878 57.0936Z" fill="#1744F2"/>
<path d="M24.8293 15.7307C24.8545 16.3315 24.6171 16.6624 24.2088 16.8729C24.0079 16.9765 23.7785 17.0113 23.5559 16.972C23.3334 16.9327 23.1298 16.8214 22.9766 16.6552C22.7914 16.4327 22.6299 16.1916 22.4945 15.9357C22.052 15.1838 21.6059 14.4355 21.1886 13.671C20.8666 13.0828 21.0267 12.4622 21.5483 12.1402C21.6699 12.0583 21.8071 12.0024 21.9513 11.9762C22.0955 11.9499 22.2436 11.9538 22.3862 11.9876C22.5288 12.0214 22.6629 12.0844 22.78 12.1726C22.8971 12.2607 22.9946 12.3722 23.0665 12.5C23.6547 13.448 24.1926 14.4283 24.7412 15.4015C24.7874 15.506 24.8171 15.617 24.8293 15.7307Z" fill="#1744F2"/>
<path d="M46.7448 11.9531C47.7072 12.0017 48.2468 12.8166 47.8906 13.5163C47.3744 14.5308 46.7916 15.513 46.189 16.4807C46.1169 16.6021 46.0212 16.7077 45.9074 16.7911C45.7936 16.8746 45.6641 16.9343 45.5267 16.9665C45.3894 16.9988 45.2469 17.0029 45.1078 16.9788C44.9688 16.9547 44.836 16.9028 44.7175 16.8261C44.4716 16.6862 44.2904 16.4553 44.213 16.1831C44.1356 15.9109 44.1682 15.6192 44.3038 15.3709C44.8435 14.3887 45.3831 13.412 45.9893 12.4766C46.1692 12.1978 46.5757 12.0575 46.7448 11.9531Z" fill="#1744F2"/>
<path d="M15.7316 24.8513C15.5961 24.8278 15.4643 24.7867 15.3395 24.729C14.3843 24.1894 13.4327 23.6497 12.4919 23.0939C12.2911 22.9871 12.131 22.8173 12.0361 22.6106C11.9412 22.4039 11.9168 22.1717 11.9667 21.9498C12.0872 21.2573 12.8067 20.795 13.4327 21.1134C14.512 21.653 15.5409 22.2862 16.5591 22.9284C16.971 23.1874 17.0447 23.6893 16.881 24.13C16.7173 24.5707 16.3288 24.8495 15.7316 24.8513Z" fill="#1744F2"/>
<path d="M15.6733 44.2182C16.2939 44.184 16.6285 44.416 16.8425 44.8244C16.9465 45.0238 16.9829 45.2516 16.9463 45.4735C16.9096 45.6954 16.8019 45.8994 16.6392 46.0547C16.4925 46.1946 16.3287 46.3155 16.1518 46.4145C15.3225 46.902 14.4987 47.3967 13.655 47.8536C13.0362 48.1917 12.3958 48.0083 12.0811 47.4614C12.0071 47.3349 11.9597 47.1947 11.9417 47.0493C11.9238 46.9038 11.9356 46.7563 11.9765 46.6156C12.0174 46.4749 12.0865 46.344 12.1796 46.2309C12.2728 46.1177 12.3879 46.0248 12.5182 45.9576C13.432 45.3982 14.3691 44.8783 15.3027 44.3495C15.4199 44.2896 15.5445 44.2454 15.6733 44.2182Z" fill="#1744F2"/>
<path d="M53.2885 44.207C53.4748 44.2563 53.6556 44.3244 53.8282 44.4103C54.6862 44.8888 55.5424 45.3745 56.3807 45.8853C56.6086 46.0242 56.8008 46.2146 56.9419 46.4412C57.0475 46.6406 57.0858 46.8689 57.0512 47.0919C57.0165 47.3149 56.9107 47.5208 56.7495 47.6787C56.3897 48.0385 55.9508 48.1518 55.5191 47.9198C54.4973 47.3711 53.4882 46.7919 52.5025 46.1785C52.2998 46.0524 52.1494 45.8576 52.0787 45.6297C52.0081 45.4017 52.0218 45.156 52.1175 44.9373C52.292 44.4822 52.6607 44.2178 53.2885 44.207Z" fill="#1744F2"/>
<path d="M47.9897 55.9045C47.9807 56.4945 47.7361 56.8309 47.3098 57.0018C47.1148 57.0933 46.8958 57.1205 46.6843 57.0794C46.4729 57.0383 46.2799 56.9312 46.1334 56.7733C45.9702 56.5901 45.8289 56.3885 45.7124 56.1725C45.2483 55.3829 44.7825 54.595 44.3435 53.7909C44.009 53.1811 44.1924 52.5317 44.7375 52.2187C45.2825 51.9057 45.8743 52.0604 46.2395 52.6541C46.8007 53.5679 47.3188 54.505 47.8476 55.4404C47.9156 55.588 47.9634 55.7441 47.9897 55.9045Z" fill="#1744F2"/>
<path d="M33.4113 11.3086C33.4113 10.7941 33.3987 10.2796 33.4113 9.76698C33.431 9.09422 33.8628 8.66611 34.4905 8.66251C34.6361 8.65502 34.7817 8.67817 34.9178 8.73048C35.0539 8.78279 35.1775 8.86309 35.2806 8.96618C35.3836 9.06928 35.4639 9.19286 35.5163 9.32895C35.5686 9.46503 35.5917 9.61059 35.5842 9.75619C35.6022 10.8355 35.6004 11.9022 35.5842 12.9743C35.5734 13.6434 35.1291 14.0769 34.5049 14.0787C33.8807 14.0805 33.4257 13.6524 33.4095 12.9851C33.3969 12.4274 33.4113 11.877 33.4113 11.3086Z" fill="#1744F2"/>
<path d="M11.3383 35.6215C10.7986 35.6215 10.259 35.6359 9.71934 35.6215C9.04839 35.6 8.62207 35.1628 8.62207 34.5297C8.62207 33.8965 9.05019 33.4504 9.72114 33.4414C10.7932 33.4258 11.8659 33.4258 12.9392 33.4414C13.0848 33.4337 13.2304 33.4566 13.3666 33.5085C13.5028 33.5605 13.6267 33.6403 13.7302 33.743C13.8337 33.8457 13.9146 33.9689 13.9676 34.1046C14.0207 34.2404 14.0448 34.3858 14.0383 34.5315C14.0383 35.1628 13.6066 35.6 12.9374 35.6215C12.4176 35.6359 11.8779 35.6215 11.3383 35.6215Z" fill="#1744F2"/>
<path d="M57.6615 35.6215C57.1218 35.6215 56.5822 35.6359 56.0515 35.6215C55.3824 35.6 54.9543 35.1628 54.9561 34.5297C54.9579 33.8965 55.3824 33.4504 56.0551 33.4414C57.1272 33.4258 58.1999 33.4258 59.2732 33.4414C59.4188 33.4337 59.5644 33.4566 59.7006 33.5085C59.8368 33.5605 59.9607 33.6403 60.0642 33.743C60.1677 33.8457 60.2486 33.9689 60.3016 34.1046C60.3547 34.2404 60.3788 34.3858 60.3723 34.5315C60.3723 35.1628 59.9406 35.591 59.2714 35.6233H57.6525L57.6615 35.6215Z" fill="#1744F2"/>
<path d="M33.4102 57.6449C33.4102 57.1304 33.4102 56.6159 33.4102 56.1033C33.4282 55.4233 33.8474 54.9934 34.4787 54.9826C35.1407 54.9718 35.5814 55.4089 35.5904 56.1249C35.603 57.1754 35.6048 58.2277 35.5904 59.2782C35.5814 59.9545 35.1515 60.388 34.5219 60.3988C33.8635 60.4096 33.4246 59.9671 33.4102 59.2548C33.4013 58.7187 33.4102 58.1809 33.4102 57.6449Z" fill="#1744F2"/>
<path d="M54.0444 11.751C54.2649 11.817 54.4723 11.9205 54.6578 12.0568C55.4097 12.7763 56.1472 13.4958 56.8487 14.2405C56.9516 14.3449 57.0321 14.469 57.0854 14.6055C57.1388 14.7419 57.1637 14.8878 57.1589 15.0342C57.154 15.1806 57.1193 15.3245 57.0571 15.4571C56.9948 15.5897 56.9061 15.7083 56.7966 15.8055C56.3451 16.2192 55.7173 16.2084 55.2298 15.7389C54.5193 15.0572 53.8267 14.3557 53.1306 13.6577C52.9635 13.5035 52.8494 13.3005 52.8045 13.0776C52.7596 12.8548 52.7862 12.6234 52.8806 12.4165C53.055 11.992 53.3968 11.7636 54.0444 11.751Z" fill="#1744F2"/>
</svg>
