<svg width="14" height="14" viewBox="0 0 14 14" fill="none" xmlns="http://www.w3.org/2000/svg">
<path d="M7 0C3.14031 0 0 3.14031 0 7C0 10.8597 3.14031 14 7 14C10.8597 14 14 10.8597 14 7C14 3.14031 10.8597 0 7 0ZM7 1.07692C10.2771 1.07692 12.9231 3.72292 12.9231 7C12.9231 10.2771 10.2771 12.9231 7 12.9231C3.72292 12.9231 1.07692 10.2771 1.07692 7C1.07692 3.72292 3.72292 1.07692 7 1.07692ZM6.94939 3.76923C5.15954 3.76923 3.71862 5.21015 3.71862 7C3.71862 8.78985 5.15954 10.2308 6.94939 10.2308C8.24115 10.2308 9.34554 9.45646 9.86031 8.36285L8.88462 7.90892C8.53731 8.64662 7.812 9.15385 6.94939 9.15385C5.72331 9.15385 4.79554 8.22608 4.79554 7C4.79554 5.77392 5.72331 4.84615 6.94939 4.84615C7.812 4.84615 8.53785 5.35285 8.88462 6.09162L9.86085 5.63715C9.345 4.54354 8.24115 3.76923 6.94885 3.76923H6.94939Z" fill="#1F3792"/>
</svg>
