<svg width="17" height="17" viewBox="0 0 17 17" fill="none" xmlns="http://www.w3.org/2000/svg">
<path d="M8.13637 3.56421C5.656 3.56421 3.11166 4.9998 1.10865 7.87097C1.05147 7.95382 1.02014 8.05177 1.01861 8.15242C1.01708 8.25308 1.04543 8.35193 1.10005 8.43648C2.63907 10.8456 5.14936 12.7296 8.13637 12.7296C11.0909 12.7296 13.6528 10.8398 15.1946 8.42535C15.248 8.34245 15.2764 8.24595 15.2764 8.14736C15.2764 8.04878 15.248 7.95228 15.1946 7.86938C13.6493 5.48257 11.0686 3.56421 8.13637 3.56421Z" stroke="#92D7D7" stroke-width="1.01837" stroke-linecap="round" stroke-linejoin="round"/>
<path d="M8.14749 10.6929C9.55357 10.6929 10.6934 9.55308 10.6934 8.14701C10.6934 6.74093 9.55357 5.60107 8.14749 5.60107C6.74141 5.60107 5.60156 6.74093 5.60156 8.14701C5.60156 9.55308 6.74141 10.6929 8.14749 10.6929Z" stroke="#92D7D7" stroke-width="1.01837" stroke-miterlimit="10"/>
</svg>
