<svg width="16" height="15" viewBox="0 0 16 15" fill="none" xmlns="http://www.w3.org/2000/svg">
<path d="M15.2622 4.42732C15.2538 3.7975 15.1357 3.17395 14.9132 2.58454C14.7203 2.08739 14.4256 1.63588 14.0479 1.25887C13.6703 0.881858 13.218 0.587635 12.72 0.395C12.1372 0.176591 11.5215 0.0584943 10.8992 0.0457368C10.0979 0.00997899 9.84381 0 7.80971 0C5.77562 0 5.5149 5.57616e-08 4.71942 0.0457368C4.09733 0.058588 3.48193 0.176684 2.8994 0.395C2.40133 0.587501 1.949 0.881676 1.57135 1.2587C1.19369 1.63573 0.899026 2.08731 0.706204 2.58454C0.486994 3.16593 0.368957 3.78044 0.357193 4.40154C0.321375 5.20235 0.310547 5.45598 0.310547 7.4867C0.310547 9.51741 0.310547 9.77686 0.357193 10.5718C0.369687 11.1939 0.487135 11.8076 0.706204 12.3905C0.89935 12.8876 1.19423 13.339 1.57202 13.7159C1.9498 14.0927 2.40217 14.3868 2.90023 14.5792C3.48117 14.8064 4.09667 14.933 4.72025 14.9534C5.5224 14.9892 5.77645 15 7.81055 15C9.84464 15 10.1054 15 10.9008 14.9534C11.5232 14.9412 12.1389 14.8234 12.7217 14.605C13.2196 14.4121 13.6717 14.1178 14.0493 13.7409C14.4269 13.3639 14.7217 12.9125 14.9149 12.4155C15.134 11.8334 15.2514 11.2196 15.2639 10.5968C15.2997 9.79682 15.3105 9.54319 15.3105 7.51164C15.3089 5.48093 15.3089 5.22314 15.2622 4.42732ZM7.80472 11.3269C5.67733 11.3269 3.95393 9.60639 3.95393 7.48254C3.95393 5.35869 5.67733 3.63815 7.80472 3.63815C8.82601 3.63815 9.80547 4.04319 10.5276 4.76415C11.2498 5.48511 11.6555 6.46294 11.6555 7.48254C11.6555 8.50213 11.2498 9.47997 10.5276 10.2009C9.80547 10.9219 8.82601 11.3269 7.80472 11.3269ZM11.8088 4.39239C11.6908 4.3925 11.574 4.36939 11.465 4.32438C11.356 4.27937 11.257 4.21334 11.1736 4.13008C11.0902 4.04681 11.0241 3.94795 10.979 3.83914C10.9339 3.73032 10.9107 3.61371 10.9108 3.49595C10.9108 3.37829 10.9341 3.26177 10.9792 3.15306C11.0243 3.04435 11.0904 2.94557 11.1737 2.86237C11.2571 2.77916 11.356 2.71316 11.4649 2.66813C11.5738 2.6231 11.6905 2.59993 11.8084 2.59993C11.9262 2.59993 12.0429 2.6231 12.1518 2.66813C12.2607 2.71316 12.3597 2.77916 12.443 2.86237C12.5263 2.94557 12.5924 3.04435 12.6376 3.15306C12.6827 3.26177 12.7059 3.37829 12.7059 3.49595C12.7059 3.99157 12.3044 4.39239 11.8088 4.39239Z" fill="#1F3792"/>
<path d="M7.81055 10C9.19126 10 10.3105 8.88071 10.3105 7.5C10.3105 6.11929 9.19126 5 7.81055 5C6.42984 5 5.31055 6.11929 5.31055 7.5C5.31055 8.88071 6.42984 10 7.81055 10Z" fill="#1F3792"/>
</svg>
