<svg width="50" height="34" viewBox="0 0 50 34" fill="none" xmlns="http://www.w3.org/2000/svg">
<g clip-path="url(#clip0_758_2620)">
<path d="M25.4023 0.0342138H25.529C26.5637 0.0342138 27.5983 0.0342138 28.6287 0.0342138C29.0244 0.0324358 29.4174 0.100212 29.79 0.234478C30.0785 0.335274 30.3361 0.510017 30.5375 0.741574C30.7389 0.973132 30.8771 1.25354 30.9387 1.55527C31.016 1.88116 31.064 2.21342 31.0822 2.54801C31.1139 3.19345 31.0927 3.84041 31.0189 4.48233C30.9904 4.68044 30.9452 4.87571 30.8838 5.06604C30.8182 5.28482 30.7004 5.48397 30.5406 5.64595C30.3808 5.80793 30.1839 5.92775 29.9674 5.99486L29.8111 6.05025V6.28461L30.0265 6.3485C30.2883 6.41436 30.5269 6.55185 30.7162 6.74581C30.9054 6.93976 31.038 7.18267 31.0991 7.44776C31.2143 7.8637 31.2697 8.29414 31.2638 8.72595C31.2638 9.28836 31.2638 9.84651 31.2638 10.4047C31.2459 10.8793 31.1187 11.3431 30.8922 11.7595C30.6572 12.1675 30.2789 12.4716 29.8322 12.6117C29.4656 12.7325 29.082 12.7929 28.6963 12.7906C27.6363 12.7906 26.5848 12.7906 25.5121 12.7906H25.415L25.4023 0.0342138ZM27.8812 10.4813H28.1431C28.2215 10.4929 28.3016 10.4858 28.3768 10.4605C28.452 10.4352 28.5203 10.3924 28.5762 10.3357C28.632 10.2789 28.6739 10.2097 28.6984 10.1336C28.723 10.0575 28.7295 9.9767 28.7174 9.89763C28.7174 9.33523 28.7174 8.76856 28.7174 8.19337C28.7174 8.1465 28.7174 8.09963 28.7174 8.05276C28.7109 7.96338 28.6786 7.87788 28.6246 7.80673C28.5706 7.73558 28.4972 7.68189 28.4133 7.65226C28.2427 7.59817 28.0616 7.5865 27.8855 7.61819L27.8812 10.4813ZM27.8812 2.3861V5.24074C27.9867 5.24714 28.0925 5.24714 28.198 5.24074C28.2623 5.23694 28.3253 5.22035 28.3833 5.19193C28.4413 5.16351 28.4932 5.12383 28.536 5.07514C28.5787 5.02645 28.6115 4.96973 28.6325 4.90822C28.6535 4.8467 28.6623 4.7816 28.6583 4.71667C28.6583 4.11165 28.6583 3.51091 28.6583 2.91015C28.6658 2.78575 28.6265 2.66307 28.5482 2.56668C28.4699 2.47029 28.3583 2.40732 28.236 2.39037C28.1181 2.37847 27.9994 2.37704 27.8812 2.3861Z" fill="white"/>
<path d="M44.211 0.0341797H46.6857V9.94446C46.6842 10.0435 46.6955 10.1424 46.7195 10.2384C46.7458 10.3277 46.8027 10.4046 46.8801 10.4553C46.9575 10.506 47.0503 10.5274 47.1418 10.5154C47.2317 10.5062 47.3164 10.4681 47.3833 10.4067C47.4502 10.3454 47.4958 10.264 47.5134 10.1745C47.5219 10.0796 47.5219 9.98403 47.5134 9.88907C47.5134 6.67654 47.5134 3.46116 47.5134 0.242947V0.0341797H49.9754C49.9754 0.0895681 49.9754 0.140694 49.9754 0.191822V9.99132C49.9912 10.4897 49.9212 10.987 49.7685 11.4612C49.653 11.8135 49.4493 12.1296 49.177 12.379C48.9047 12.6283 48.5731 12.8024 48.2144 12.8843C47.3811 13.1184 46.4966 13.0887 45.6806 12.7991C45.3456 12.6789 45.0461 12.4753 44.8098 12.2072C44.5736 11.939 44.4083 11.6151 44.3293 11.2653C44.2233 10.858 44.1736 10.4379 44.1815 10.0169V0.0341797H44.211Z" fill="white"/>
<path d="M40.8368 7.62211H40.4568V12.8073H37.9863V0.0253906H40.4483V5.22763H40.8368L41.2591 0.0253906H43.7929C43.7718 0.195817 43.7549 0.366244 43.7338 0.532409C43.5987 1.51662 43.4593 2.50509 43.3115 3.4893C43.1933 4.34143 43.0736 5.20208 42.9525 6.07126C42.9152 6.41482 42.9265 6.762 42.9863 7.10233C43.1257 8.08228 43.2608 9.06221 43.4086 10.0422C43.5269 10.8943 43.6493 11.7464 43.7676 12.5986C43.7676 12.6667 43.7676 12.7392 43.7887 12.8201H41.2549L40.8368 7.62211Z" fill="white"/>
<path d="M6.39746 13.5664H6.52837C7.57567 13.5664 8.63986 13.5664 9.66604 13.5664C10.0797 13.5652 10.4893 13.6493 10.8696 13.8135C11.1558 13.9413 11.409 14.1338 11.6097 14.3761C11.8103 14.6185 11.953 14.9041 12.0267 15.211C12.1311 15.565 12.1837 15.9324 12.1829 16.3018C12.1829 17.0559 12.1829 17.8058 12.1365 18.5599C12.1222 18.8766 12.0477 19.1876 11.9169 19.4759C11.7499 19.8633 11.4391 20.1692 11.0512 20.3281L10.8992 20.392V20.6732H11.6931L12.5799 26.3782H10.0208C9.84341 24.9296 9.67026 23.4895 9.49712 22.0323H8.87634V26.3739H6.39746V13.5664ZM8.88057 19.6762H9.13817C9.21588 19.6849 9.29452 19.6759 9.36834 19.6499C9.44216 19.6239 9.50928 19.5816 9.56476 19.526C9.62025 19.4705 9.6627 19.4031 9.68899 19.3288C9.71528 19.2545 9.72476 19.1752 9.71672 19.0967V16.4935C9.71882 16.4594 9.71882 16.4253 9.71672 16.3912C9.71306 16.28 9.67095 16.1735 9.59769 16.0902C9.52442 16.007 9.42462 15.9522 9.31554 15.9353C9.17504 15.923 9.03374 15.923 8.89324 15.9353L8.88057 19.6762Z" fill="white"/>
<path d="M31.5107 13.5664H33.9938C34.16 17.0459 34.3275 20.5312 34.4964 24.0221H34.7202C34.8849 20.5369 35.0538 17.0601 35.2227 13.5664H37.7016C37.4201 17.8271 37.1386 22.0877 36.857 26.3484H32.3553C32.0766 22.0991 31.7951 17.8384 31.5107 13.5664Z" fill="white"/>
<path d="M20.9253 24.6558C20.8492 22.4786 20.7901 18.0902 20.7141 15.9257H20.3932C20.3256 18.0902 20.2411 22.3721 20.1736 24.5493V24.6558L20.1271 26.3601H17.5469C17.8284 22.0994 18.124 17.8388 18.4337 13.5781H22.6567C22.9579 17.8388 23.2592 22.0994 23.5604 26.3601H20.9633L20.9253 24.6558Z" fill="white"/>
<path d="M5.80363 19.1733H3.32897V16.4933C3.33528 16.4168 3.33528 16.3398 3.32897 16.2633C3.32897 16.1503 3.28448 16.0419 3.20528 15.962C3.12608 15.8821 3.01867 15.8372 2.90667 15.8372C2.79467 15.8372 2.68726 15.8821 2.60806 15.962C2.52887 16.0419 2.48438 16.1503 2.48438 16.2633C2.48438 16.3187 2.48438 16.3783 2.48438 16.4337V23.4979C2.48017 23.5603 2.48017 23.6229 2.48438 23.6853C2.49682 23.7892 2.54675 23.8849 2.62464 23.9541C2.70253 24.0232 2.80292 24.061 2.90667 24.0603C3.00914 24.0613 3.10849 24.0247 3.18618 23.9573C3.26388 23.8898 3.31463 23.7962 3.32897 23.6939C3.33528 23.6173 3.33528 23.5403 3.32897 23.4638V20.7753H5.79941C5.79941 20.8179 5.79941 20.8605 5.79941 20.9031C5.79941 21.9044 5.79941 22.9056 5.79941 23.9112C5.80114 24.4069 5.68224 24.8956 5.45312 25.3342C5.3184 25.5944 5.13182 25.8238 4.90508 26.0078C4.67835 26.1918 4.41636 26.3266 4.13556 26.4036C3.33191 26.6421 2.4772 26.6421 1.67356 26.4036C1.3046 26.3018 0.96957 26.1017 0.703583 25.8244C0.437597 25.547 0.250446 25.2026 0.161742 24.8272C0.0607808 24.4755 0.00959871 24.1111 0.00971464 23.745C0.00971464 21.9257 0.00971464 20.1021 0.00971464 18.2786V16.3357C-0.0011299 15.8272 0.0834049 15.3213 0.258868 14.8445C0.378939 14.5192 0.575977 14.2284 0.832842 13.9975C1.08971 13.7665 1.39861 13.6024 1.73268 13.5194C2.50196 13.3021 3.3156 13.3021 4.08488 13.5194C4.46546 13.6156 4.81301 13.8142 5.09043 14.0941C5.36786 14.374 5.56473 14.7247 5.66005 15.1086C5.77225 15.5251 5.82626 15.9553 5.82052 16.3868V19.0199C5.81207 19.071 5.80785 19.1179 5.80363 19.1733Z" fill="white"/>
<path d="M42.3773 21.1633H40.6247V24.0307H42.3773V26.3698H38.1543V13.5879H42.3773V15.9398H40.6247V18.8115H42.3773V21.1633Z" fill="white"/>
<path d="M17.2327 26.3738H13.0098V13.5918H17.2327V15.9352H15.476V18.8154H17.2285V21.1843H15.4802V24.0517H17.2285L17.2327 26.3738Z" fill="white"/>
<path d="M28.3323 15.9226H27.0654V26.3697H24.5569V15.9226H23.29V13.5664H28.3154L28.3323 15.9226Z" fill="white"/>
<path d="M31.0834 26.3738H28.6172V13.5918H31.0834V26.3738Z" fill="white"/>
<path d="M24.1341 33.889H22.7786L22.5041 31.5925H22.1747V33.889H20.8613V27.123H22.597C22.8207 27.1235 23.042 27.1699 23.2473 27.2594C23.3755 27.3202 23.4904 27.4061 23.5854 27.5122C23.6804 27.6183 23.7535 27.7424 23.8005 27.8772C23.8962 28.1506 23.9406 28.4395 23.9314 28.7293C23.9314 29.0702 23.9314 29.4067 23.8976 29.7476C23.8916 29.9784 23.8182 30.2022 23.6865 30.391C23.5911 30.5217 23.4607 30.6222 23.3107 30.6807L23.2431 30.7105V30.8596H23.6654L24.1341 33.889ZM22.162 28.3757V30.3441C22.2337 30.3484 22.3056 30.3484 22.3774 30.3441C22.443 30.3356 22.5031 30.3023 22.5454 30.2509C22.5877 30.1995 22.6092 30.1338 22.6054 30.0671C22.6054 29.9947 22.6054 29.9223 22.6054 29.8456C22.6054 29.4494 22.6054 29.0574 22.6054 28.6611C22.613 28.596 22.5959 28.5304 22.5575 28.4774C22.5191 28.4245 22.4623 28.3881 22.3985 28.3757C22.3198 28.3693 22.2407 28.3693 22.162 28.3757Z" fill="white"/>
<path d="M27.3507 30.5063C27.3507 31.1965 27.3507 31.8867 27.3507 32.577C27.3512 32.851 27.2829 33.1207 27.1522 33.3609C27.0257 33.5917 26.8222 33.7698 26.5779 33.8637C26.2341 33.986 25.8661 34.0225 25.5053 33.9702C25.3106 33.9545 25.121 33.8994 24.9478 33.8083C24.6945 33.6795 24.5007 33.4565 24.4073 33.1862C24.3304 32.9821 24.2903 32.7656 24.2891 32.5471C24.2891 31.9336 24.2891 31.3243 24.2891 30.7151C24.2891 29.9609 24.2891 29.2068 24.2891 28.4527C24.2885 28.1751 24.3552 27.9016 24.4833 27.6559C24.609 27.4125 24.8219 27.2266 25.0788 27.1361C25.3953 27.023 25.7335 26.9851 26.0669 27.0254C26.2468 27.0386 26.4235 27.0803 26.5906 27.1489C26.7375 27.2075 26.8705 27.2965 26.9811 27.4103C27.0916 27.5241 27.1773 27.66 27.2325 27.8093C27.3238 28.0718 27.3653 28.3494 27.355 28.6274V30.5063H27.3507ZM25.5982 30.5063V32.3597C25.5961 32.3937 25.5961 32.4279 25.5982 32.462C25.6001 32.5096 25.6178 32.5552 25.6484 32.5915C25.679 32.6278 25.7208 32.6527 25.7671 32.6622C25.817 32.6762 25.8702 32.6708 25.9163 32.6471C25.9624 32.6235 25.9981 32.5833 26.0163 32.5344C26.0319 32.4819 26.039 32.4272 26.0374 32.3725C26.0374 31.1284 26.0374 29.8828 26.0374 28.6359C26.0393 28.599 26.0393 28.562 26.0374 28.5251C26.0281 28.4779 26.0043 28.4348 25.9695 28.402C25.9346 28.3691 25.8904 28.3481 25.8431 28.3419C25.7949 28.3357 25.746 28.3468 25.7051 28.3732C25.6642 28.3997 25.6338 28.4399 25.6193 28.4868C25.604 28.5335 25.5969 28.5825 25.5982 28.6316V30.5063Z" fill="white"/>
<path d="M36.466 30.0801H35.1653C35.1632 30.0546 35.1632 30.0289 35.1653 30.0034C35.1653 29.5475 35.1653 29.0873 35.1653 28.6315C35.1718 28.5862 35.1718 28.5404 35.1653 28.4951C35.1506 28.4444 35.118 28.4008 35.0737 28.3726C35.0294 28.3443 34.9764 28.3334 34.9246 28.3417C34.8727 28.3497 34.8253 28.3759 34.7905 28.4156C34.7558 28.4553 34.736 28.5061 34.7346 28.559V32.3681C34.7261 32.4188 34.7261 32.4707 34.7346 32.5214C34.7492 32.5688 34.7804 32.6092 34.8224 32.635C34.8643 32.6609 34.9142 32.6705 34.9626 32.662C35.0097 32.6563 35.0536 32.6353 35.0878 32.6023C35.1221 32.5693 35.1448 32.526 35.1527 32.4788C35.1548 32.4405 35.1548 32.4021 35.1527 32.3638V30.9322H36.4576C36.4597 30.9506 36.4597 30.9692 36.4576 30.9876C36.4576 31.5202 36.4576 32.0528 36.4576 32.5854C36.4586 32.8613 36.3888 33.1329 36.2549 33.3736C36.1284 33.6009 35.9265 33.7759 35.6848 33.8678C35.3395 33.9901 34.9701 34.0267 34.6079 33.9743C34.4148 33.9572 34.2269 33.9022 34.0547 33.8124C33.8025 33.6822 33.6091 33.4597 33.5142 33.1904C33.4392 32.9871 33.3992 32.7724 33.3959 32.5555C33.3959 32.1721 33.3959 31.7886 33.3959 31.4051V28.6315C33.3924 28.431 33.4122 28.2308 33.455 28.035C33.4845 27.8756 33.5457 27.724 33.635 27.5892C33.7243 27.4545 33.8398 27.3394 33.9745 27.251C34.125 27.1587 34.291 27.0952 34.4643 27.0635C34.6675 27.0254 34.8746 27.0126 35.0809 27.0252C35.3294 27.0342 35.5736 27.0936 35.7988 27.1999C36.049 27.3319 36.2428 27.5516 36.3436 27.8177C36.4348 28.0743 36.4764 28.3462 36.466 28.6187V30.0204C36.4675 30.0403 36.4675 30.0602 36.466 30.0801Z" fill="white"/>
<path d="M42.3547 29.527H41.0498C41.0498 29.5057 41.0498 29.4844 41.0498 29.4631V28.6109C41.0568 28.5567 41.045 28.5017 41.0166 28.4552C40.9881 28.4087 40.9447 28.3734 40.8936 28.3553C40.8641 28.3423 40.8319 28.3366 40.7997 28.3387C40.7676 28.3408 40.7364 28.3505 40.7087 28.3672C40.6811 28.3838 40.6578 28.4069 40.6407 28.4345C40.6236 28.4621 40.6133 28.4933 40.6107 28.5257C40.5853 28.7722 40.5853 29.0206 40.6107 29.2671C40.6325 29.3863 40.6917 29.4953 40.7796 29.5781C41.1259 29.9062 41.4806 30.23 41.8269 30.5538C42.0594 30.7682 42.2215 31.0491 42.2914 31.3591C42.3453 31.5619 42.3723 31.7711 42.3716 31.9811C42.3716 32.1601 42.3716 32.339 42.3716 32.5179C42.3624 32.7983 42.2963 33.0738 42.1774 33.3275C42.1039 33.4721 42.0008 33.5994 41.8748 33.7008C41.7488 33.8021 41.6029 33.8753 41.4468 33.9154C41.091 34.0183 40.7162 34.0343 40.3531 33.9623C40.1685 33.9309 39.9919 33.8628 39.8336 33.7621C39.6295 33.6279 39.4739 33.4305 39.3902 33.1997C39.3066 32.9589 39.2666 32.7049 39.272 32.4498V31.4997H40.6022C40.6042 31.5223 40.6042 31.5451 40.6022 31.5678C40.6022 31.849 40.6022 32.126 40.6022 32.4199C40.601 32.4768 40.611 32.5333 40.6318 32.5861C40.6511 32.6281 40.6849 32.6615 40.7268 32.6803C40.7687 32.6991 40.816 32.702 40.8598 32.6884C40.9054 32.6805 40.9473 32.658 40.9792 32.6242C41.0112 32.5905 41.0315 32.5472 41.0372 32.5009C41.0604 32.2657 41.0604 32.0288 41.0372 31.7936C41.0089 31.6569 40.9378 31.5329 40.8345 31.44L39.8294 30.4984C39.6058 30.2857 39.4487 30.0118 39.3775 29.7102C39.3268 29.5082 39.3013 29.3007 39.3015 29.0924C39.3015 28.9092 39.3015 28.726 39.3015 28.547C39.3094 28.2656 39.374 27.9886 39.4916 27.7332C39.5604 27.5925 39.6569 27.4674 39.7753 27.3656C39.8936 27.2638 40.0313 27.1873 40.1799 27.141C40.4736 27.0504 40.7829 27.0228 41.0878 27.06C41.2978 27.073 41.5031 27.1281 41.6917 27.222C41.9477 27.3518 42.1443 27.5761 42.2407 27.8483C42.3195 28.0565 42.3609 28.2773 42.3632 28.5001C42.3632 28.8325 42.3632 29.1648 42.3632 29.4971L42.3547 29.527Z" fill="white"/>
<path d="M17.5469 27.123H17.5891C18.1592 27.123 18.7251 27.123 19.2783 27.123C19.5324 27.1257 19.7803 27.2026 19.992 27.3446C20.2126 27.4973 20.3797 27.7165 20.4692 27.9709C20.5741 28.2427 20.6299 28.5314 20.6339 28.823C20.6339 29.1895 20.6339 29.5559 20.6339 29.9223C20.6259 30.2284 20.5569 30.5298 20.4312 30.8085C20.3639 30.966 20.2644 31.1073 20.1392 31.2233C20.014 31.3393 19.866 31.4274 19.7048 31.4817C19.5123 31.5426 19.311 31.5699 19.1094 31.5626H18.8476V33.8634H17.5469V27.123ZM18.8602 30.3441C18.9334 30.3484 19.0067 30.3484 19.0798 30.3441C19.1444 30.3356 19.2033 30.3027 19.2449 30.2521C19.2864 30.2016 19.3074 30.137 19.3036 30.0714C19.3036 30.0118 19.3036 29.9479 19.3036 29.8882V28.6654C19.309 28.6076 19.2959 28.5495 19.2663 28.4997C19.2367 28.4499 19.1921 28.4109 19.1389 28.3885C19.0466 28.3737 18.9526 28.3737 18.8602 28.3885V30.3441Z" fill="white"/>
<path d="M27.4773 30.9321H28.778C28.78 30.9562 28.78 30.9804 28.778 31.0045C28.778 31.4646 28.778 31.9248 28.778 32.3807C28.7762 32.4394 28.7877 32.4977 28.8118 32.5511C28.8277 32.5915 28.857 32.6251 28.8948 32.6461C28.9325 32.6671 28.9763 32.6742 29.0187 32.6662C29.0616 32.6638 29.1029 32.6482 29.1368 32.6216C29.1708 32.5949 29.1959 32.5584 29.2087 32.517C29.2152 32.4661 29.2152 32.4146 29.2087 32.3636V27.123H30.5178C30.5178 27.1444 30.5178 27.1614 30.5178 27.1784V32.419C30.5217 32.6556 30.489 32.8914 30.4207 33.1178C30.3719 33.2888 30.2842 33.4459 30.1648 33.5768C30.0453 33.7077 29.8972 33.8088 29.7324 33.8719C29.3915 33.9942 29.0262 34.0307 28.6682 33.9784C28.4611 33.963 28.2596 33.9035 28.077 33.8037C27.8316 33.6666 27.6462 33.4416 27.5575 33.1732C27.4737 32.9252 27.4351 32.6639 27.4435 32.402C27.4435 31.9333 27.4435 31.4647 27.4435 30.996L27.4773 30.9321Z" fill="white"/>
<path d="M30.8906 33.889V27.123H33.133V28.3757H32.204V29.8925H33.1288V31.1451H32.204V32.6363H33.133V33.8762L30.8906 33.889Z" fill="white"/>
<path d="M38.5466 33.8892H37.2248V28.3759H36.5576V27.1318H39.2139V28.3759H38.5382L38.5466 33.8892Z" fill="white"/>
<path d="M34.9656 11.0894C34.8938 8.91222 34.8305 4.52375 34.7587 2.35934H34.4335C34.3702 4.52375 34.2815 8.8057 34.2182 10.9829V11.0894L34.1759 12.7937H31.5957C31.8913 8.53302 32.1869 4.27237 32.4825 0.0117188H36.7055C37.0096 4.27237 37.3122 8.54012 37.6134 12.815H35.0121L34.9656 11.0894Z" fill="white"/>
</g>
<defs>
<clipPath id="clip0_758_2620">
<rect width="50" height="34" fill="white"/>
</clipPath>
</defs>
</svg>
