<svg width="15" height="11" viewBox="0 0 15 11" fill="none" xmlns="http://www.w3.org/2000/svg">
<path d="M14.6949 1.72945C14.6095 1.39769 14.4427 1.09514 14.211 0.851906C13.9793 0.608672 13.6908 0.433239 13.3743 0.343069C12.2006 0.00550109 7.50519 5.96357e-06 7.50519 5.96357e-06C7.50519 5.96357e-06 2.81051 -0.00548948 1.63609 0.317162C1.31976 0.411482 1.03189 0.589396 0.800109 0.833824C0.568331 1.07825 0.400432 1.38099 0.31253 1.71296C0.00299911 2.94234 1.09808e-06 5.49215 1.09808e-06 5.49215C1.09808e-06 5.49215 -0.00299677 8.05452 0.304286 9.27133C0.476664 9.94411 0.982556 10.4756 1.6256 10.6569C2.81126 10.9945 7.49395 11 7.49395 11C7.49395 11 12.1894 11.0055 13.363 10.6836C13.6797 10.5936 13.9684 10.4186 14.2007 10.1758C14.433 9.93311 14.6007 9.63107 14.6874 9.2996C14.9976 8.07101 14.9999 5.52198 14.9999 5.52198C14.9999 5.52198 15.0149 2.95882 14.6949 1.72945ZM6.00325 7.85434L6.007 3.14409L9.90949 5.50314L6.00325 7.85434Z" fill="#1F3792"/>
</svg>
