<svg width="37" height="25" viewBox="0 0 37 25" fill="none" xmlns="http://www.w3.org/2000/svg">
<path d="M35.0529 10H9.94714C8.87177 10 8 10.8417 8 11.88V12.12C8 13.1583 8.87177 14 9.94714 14H35.0529C36.1282 14 37 13.1583 37 12.12V11.88C37 10.8417 36.1282 10 35.0529 10Z" fill="#1F3792"/>
<path d="M34.8308 0H1.91917C0.85924 0 0 0.85924 0 1.91917V2.16417C0 3.22409 0.85924 4.08333 1.91917 4.08333H34.8308C35.8908 4.08333 36.75 3.22409 36.75 2.16417V1.91917C36.75 0.85924 35.8908 0 34.8308 0Z" fill="#1F3792"/>
<path d="M2.04167 14.0833C3.16925 14.0833 4.08333 13.1692 4.08333 12.0417C4.08333 10.9141 3.16925 10 2.04167 10C0.914085 10 0 10.9141 0 12.0417C0 13.1692 0.914085 14.0833 2.04167 14.0833Z" fill="#1F3792"/>
<path d="M34.8308 20H1.91917C0.85924 20 0 20.8592 0 21.9192V22.1642C0 23.2241 0.85924 24.0833 1.91917 24.0833H34.8308C35.8908 24.0833 36.75 23.2241 36.75 22.1642V21.9192C36.75 20.8592 35.8908 20 34.8308 20Z" fill="#1F3792"/>
</svg>
