<svg width="17" height="18" viewBox="0 0 17 18" fill="none" xmlns="http://www.w3.org/2000/svg">
<path d="M9.31373 17.6062H1.90209C1.6481 17.6062 1.64031 17.6062 1.64947 17.3471C1.66552 16.8974 1.62793 16.4325 1.72787 16.0011C1.93739 15.0988 2.54991 14.5619 3.45631 14.3744C3.58422 14.3478 3.62686 14.291 3.67317 14.1786C3.84968 13.75 3.78136 13.3992 3.45585 13.0508C3.12346 12.6959 3.00563 12.2361 3.02122 11.7487C3.02901 11.4865 3.02122 11.221 3.05836 10.9629C3.18856 10.0767 4.01748 9.3922 4.93809 9.39357C5.8587 9.39495 6.68715 10.0845 6.80315 10.9735C6.84243 11.3366 6.84873 11.7026 6.82194 12.0669C6.79694 12.4669 6.62978 12.8448 6.35064 13.1324C6.08381 13.4189 6.01916 13.7069 6.1567 14.0759C6.22502 14.2593 6.27682 14.3808 6.49505 14.4037C6.65506 14.4207 6.81323 14.4927 6.96407 14.5587C7.23915 14.6788 7.41291 14.572 7.41337 14.2685C7.41337 13.313 7.41337 12.358 7.41337 11.4031C7.40872 11.0821 7.47478 10.764 7.60685 10.4714C7.6383 10.4054 7.65007 10.3317 7.64077 10.2592C7.39412 8.97132 6.65735 8.0851 5.44011 7.60003C5.21546 7.50834 5.21088 7.51613 5.14853 7.74858C5.08375 7.98195 4.94317 8.18714 4.74894 8.33182C4.5547 8.4765 4.31785 8.55245 4.0757 8.54769C3.83631 8.54065 3.60616 8.45367 3.42195 8.30061C3.23773 8.14756 3.11006 7.93724 3.05927 7.70319C3.02626 7.5441 2.96758 7.52347 2.83004 7.57574C1.53807 8.07043 0.772878 8.99333 0.559231 10.3632C0.537214 10.5275 0.526644 10.6931 0.527596 10.8588C0.527596 10.9767 0.477623 11.0175 0.362088 11.0211C-0.00468859 11.0321 -0.00468858 11.0354 0.00127155 10.6617C0.0365738 9.00571 1.21301 7.49596 2.83325 7.02603C2.87839 7.01938 2.92238 7.00641 2.96391 6.98752C3.00976 6.95634 3.06936 6.9137 3.08082 6.86556C3.08861 6.8321 3.03497 6.76699 2.99555 6.74086C2.85342 6.65386 2.73301 6.53559 2.64347 6.39505C2.55394 6.25451 2.49763 6.0954 2.47885 5.92983C2.46647 5.83813 2.433 5.81154 2.34452 5.79458C1.70266 5.67308 1.36981 5.27009 1.37439 4.62272C1.37806 4.07256 1.35559 3.52239 1.41015 2.97819C1.52936 1.78066 2.54395 0.782112 3.7346 0.639986C5.21179 0.461183 6.49964 1.37858 6.78481 2.83056C6.84212 3.12444 6.83066 3.43253 6.83937 3.73467C6.84808 4.0368 6.84212 4.35223 6.83937 4.66124C6.83937 5.2522 6.49368 5.674 5.91188 5.78266C5.79359 5.80512 5.74179 5.84134 5.72436 5.96604C5.67852 6.29523 5.5043 6.54739 5.22555 6.73123C5.1797 6.76103 5.12239 6.83531 5.13385 6.86877C5.14723 6.89732 5.16634 6.9228 5.19001 6.94363C5.21367 6.96446 5.24138 6.98018 5.2714 6.98981C6.67019 7.40656 7.59814 8.30425 8.04515 9.69479C8.10108 9.86947 8.17397 9.77823 8.251 9.72734C9.38571 8.98278 10.8666 9.56183 11.1779 10.8772C11.2144 11.0386 11.2326 11.2036 11.232 11.3691C11.237 12.347 11.2343 13.325 11.2347 14.3033C11.2347 14.5564 11.4204 14.6664 11.6547 14.5725C11.8601 14.4904 12.0783 14.4409 12.2865 14.3648C12.3509 14.3423 12.4039 14.2954 12.4341 14.2341C12.4961 14.044 12.5453 13.8499 12.5813 13.6532C12.5869 13.5816 12.5671 13.5104 12.5253 13.452C12.4043 13.2718 12.2663 13.1031 12.1425 12.9247C11.9185 12.6096 11.8021 12.2306 11.8106 11.8441C11.8174 11.503 11.8069 11.1523 11.8816 10.8231C12.0801 9.9497 12.9159 9.35231 13.8164 9.39587C14.7168 9.43942 15.4829 10.1221 15.5907 11.0161C15.6365 11.409 15.6191 11.8148 15.5838 12.2109C15.5521 12.5653 15.3738 12.8798 15.1331 13.1379C14.8777 13.413 14.8044 13.6881 14.9364 14.0493C15.0075 14.2442 15.0694 14.3519 15.2927 14.401C16.3123 14.6252 16.9977 15.5013 17 16.543C17 16.8232 17 17.1034 17 17.3833C17 17.6039 16.9972 17.6062 16.7786 17.6066H9.31373V17.6062ZM7.93832 13.1535C7.93832 13.7822 7.93832 14.4109 7.93832 15.0396C7.93832 15.3381 8.03002 15.4326 8.3239 15.433C8.98685 15.433 9.64995 15.433 10.3132 15.433C10.6117 15.433 10.707 15.3413 10.707 15.0479C10.707 13.8079 10.707 12.5676 10.707 11.3269C10.7047 10.5365 10.0973 9.92081 9.32703 9.91944C8.54763 9.91944 7.94245 10.5352 7.93924 11.3361C7.93695 11.9404 7.93878 12.5479 7.93878 13.1535H7.93832ZM1.89934 3.39265C1.89934 3.47838 1.89934 3.56411 1.89934 3.64985C1.89934 3.72733 1.91355 3.75392 2.00937 3.73604C2.2581 3.68173 2.51075 3.64724 2.76493 3.63289C3.20919 3.61959 3.59018 3.47838 3.91111 3.16754C4.09954 2.98415 4.10505 2.98002 4.30127 3.16479C4.64329 3.48572 5.04399 3.63289 5.51439 3.6338C5.74362 3.6338 5.97286 3.6879 6.20209 3.73329C6.2892 3.75025 6.31808 3.73971 6.31671 3.65306C6.31671 3.51047 6.31992 3.36743 6.31671 3.22439C6.27957 2.11947 5.31082 1.16127 4.20774 1.13468C2.90156 1.1035 1.90072 2.08325 1.89934 3.39265ZM13.9915 17.0803C14.4041 17.0803 14.8145 17.078 15.2262 17.0803C15.3353 17.0803 15.3788 17.0459 15.3766 16.9327C15.3706 16.6814 15.3811 16.4284 15.3729 16.1785C15.3678 16.0309 15.4187 15.9635 15.5705 15.98C15.6162 15.9851 15.6623 15.9851 15.708 15.98C15.8612 15.963 15.9079 16.035 15.9038 16.1808C15.8955 16.4375 15.8965 16.6952 15.9075 16.9519C15.9075 16.9955 15.9859 17.0757 16.017 17.0711C16.1683 17.0477 16.3453 17.1628 16.4682 16.9982C16.4851 16.9753 16.4737 16.9313 16.4737 16.8969C16.4737 16.7713 16.4737 16.6457 16.4737 16.5196C16.474 16.3018 16.4315 16.0862 16.3484 15.8849C16.2654 15.6836 16.1435 15.5007 15.9897 15.3465C15.8359 15.1924 15.6532 15.0701 15.4521 14.9866C15.251 14.9031 15.0354 14.86 14.8177 14.8599C14.086 14.8553 13.3544 14.8553 12.623 14.8599C12.4639 14.8698 12.3059 14.8932 12.1508 14.9296C12.021 14.953 12.0004 14.9998 12.0843 15.1231C12.2305 15.3386 12.3823 15.5614 12.4685 15.8035C12.5547 16.0455 12.5703 16.3147 12.606 16.5732C12.6266 16.73 12.5634 16.957 12.6459 17.0317C12.7422 17.117 12.9567 17.0743 13.12 17.0775C13.4088 17.084 13.6999 17.0808 13.9915 17.0803ZM4.64467 17.0803C5.04445 17.0803 5.44516 17.0725 5.84448 17.084C6.0077 17.0886 6.04988 17.0303 6.04346 16.8781C6.03333 16.684 6.03747 16.4894 6.05584 16.2959C6.09843 15.8601 6.27621 15.4486 6.56428 15.119C6.65598 15.0135 6.62801 14.9585 6.50652 14.9356C6.35064 14.9053 6.19246 14.8654 6.03475 14.864C5.29753 14.8563 4.55985 14.8475 3.82309 14.8682C3.57878 14.8744 3.33839 14.931 3.11704 15.0346C2.44767 15.3615 2.15838 15.9282 2.17305 16.6654C2.18176 17.1133 2.17305 17.1106 2.62006 17.0821C2.71771 17.0762 2.74935 17.0395 2.74797 16.9473C2.7443 16.7415 2.74797 16.5347 2.74797 16.3298C2.74797 15.9703 2.74797 15.9745 3.10237 15.9804C3.22707 15.9827 3.2775 16.0263 3.27521 16.1528C3.27017 16.41 3.27842 16.6672 3.272 16.9244C3.26879 17.0436 3.31051 17.084 3.42972 17.0826C3.83317 17.0753 4.23892 17.0803 4.64467 17.0808V17.0803ZM4.92479 13.2365C5.68815 13.2365 5.68815 13.2365 6.09252 12.6047C6.09616 12.6002 6.09924 12.5953 6.10169 12.59C6.17229 12.364 6.26903 12.1416 6.30616 11.9097C6.34147 11.6923 6.31946 11.4649 6.31258 11.2426C6.29241 10.5691 5.75187 9.99646 5.07471 9.92357C4.39755 9.85067 3.71672 10.3087 3.59614 10.978C3.53287 11.3324 3.5503 11.7061 3.57093 12.0688C3.59247 12.4401 3.85334 12.706 4.05324 12.9981C4.17427 13.1783 4.30906 13.2699 4.53051 13.2406C4.6598 13.2241 4.79321 13.2369 4.92479 13.2369V13.2365ZM13.7077 13.2365C13.9017 13.2365 14.0965 13.2411 14.2904 13.2333C14.3509 13.2319 14.4088 13.2084 14.4532 13.1672C14.8489 12.7088 15.1867 12.2251 15.1019 11.5704C15.0961 11.4735 15.0954 11.3763 15.0996 11.2793C15.0928 10.9388 14.9614 10.6127 14.7302 10.3628C14.499 10.1128 14.1841 9.95638 13.8453 9.92311C13.142 9.85984 12.49 10.3302 12.3708 11.0266C12.3176 11.3384 12.325 11.6648 12.341 11.9826C12.3658 12.4791 12.7128 12.8147 12.9884 13.1833L13.6761 13.2369C13.6848 13.2379 13.6963 13.2369 13.7077 13.2369V13.2365ZM9.3064 17.0803C9.80384 17.0803 10.3008 17.0762 10.7983 17.083C10.9358 17.083 10.9945 17.0482 10.9858 16.8997C10.9748 16.7117 10.983 16.5228 10.983 16.3344C10.983 15.9548 10.9881 15.9525 11.3654 15.9791C11.4658 15.9864 11.5098 16.0276 11.5089 16.1271C11.5089 16.3105 11.5048 16.4939 11.5089 16.6773C11.5204 17.1509 11.4135 17.0698 11.9321 17.0812C12.0412 17.084 12.0866 17.0473 12.082 16.934C12.0751 16.7575 12.0916 16.5787 12.076 16.4031C12.0587 16.1628 11.989 15.9292 11.8718 15.7186C11.7546 15.5081 11.5927 15.3258 11.3975 15.1845C11.2989 15.1098 11.2494 15.0855 11.2228 15.251C11.1559 15.6682 10.8386 15.952 10.4393 15.9557C9.69656 15.963 8.95368 15.963 8.21065 15.9557C8.03171 15.9533 7.85872 15.891 7.71928 15.7788C7.57984 15.6667 7.48199 15.511 7.44134 15.3367C7.37532 15.0809 7.36615 15.0782 7.15571 15.2574C7.13416 15.2762 7.11353 15.2959 7.09244 15.3152C6.59729 15.7709 6.52531 16.36 6.56979 16.9845C6.58033 17.1358 6.71099 17.0853 6.78206 17.0739C6.9008 17.0542 7.06081 17.1711 7.13508 16.9859C7.14234 16.9523 7.14358 16.9176 7.13875 16.8836C7.13875 16.6953 7.13875 16.5068 7.13875 16.3179C7.13875 15.9717 7.13875 15.9768 7.48673 15.9795C7.62198 15.9795 7.67012 16.0322 7.66553 16.1629C7.65957 16.4141 7.67012 16.6672 7.66186 16.9171C7.65774 17.0473 7.70771 17.0826 7.83104 17.0812C8.32252 17.0775 8.814 17.0808 9.3064 17.0808V17.0803ZM2.99692 5.06331V5.76615C2.99692 5.77761 2.99692 5.78907 2.99692 5.80054C3.00563 6.1288 3.23303 6.36583 3.55809 6.37087C3.92487 6.37668 4.29042 6.37668 4.65475 6.37087C4.72804 6.3721 4.80083 6.35866 4.86886 6.33136C4.93688 6.30406 4.99876 6.26344 5.05087 6.21189C5.10297 6.16034 5.14425 6.0989 5.17228 6.03117C5.20031 5.96344 5.21452 5.8908 5.21409 5.8175C5.22051 5.30906 5.21409 4.80015 5.21775 4.29171C5.21775 4.18672 5.18291 4.13629 5.07655 4.12116C4.76406 4.0764 4.46724 3.956 4.21187 3.77043C4.13439 3.71495 4.07708 3.71266 3.9996 3.77043C3.74529 3.95762 3.4485 4.07877 3.13584 4.12299C3.02901 4.13812 2.99279 4.18901 2.99509 4.294C3.00059 4.54937 2.99692 4.80657 2.99692 5.06331ZM4.67997 7.3708C4.66392 7.26994 4.64512 7.16999 4.63412 7.06867C4.61762 6.93754 4.55205 6.88528 4.41635 6.89582C4.24029 6.90683 4.06332 6.89812 3.88635 6.89857C3.61127 6.89857 3.61127 6.89857 3.55809 7.16724C3.48703 7.53081 3.59706 7.82148 3.85289 7.95673C4.22929 8.15616 4.71344 7.86274 4.67997 7.37126V7.3708ZM4.91975 14.335H5.26223C5.71336 14.335 5.71061 14.335 5.58774 13.8999C5.55748 13.7921 5.50384 13.7564 5.39472 13.7601C5.16549 13.7674 4.93625 13.7601 4.71023 13.7601C4.28522 13.7601 4.28522 13.7601 4.20591 14.1768C4.20512 14.1824 4.2039 14.1879 4.20224 14.1933C4.17427 14.2978 4.21279 14.3373 4.32144 14.3345C4.52042 14.3308 4.72169 14.335 4.91975 14.3354V14.335ZM13.7169 14.335H14.0424C14.5073 14.335 14.5055 14.335 14.3698 13.8889C14.3427 13.7995 14.3014 13.7578 14.2024 13.7605C13.969 13.7665 13.7348 13.7605 13.5009 13.7605C13.0746 13.7605 13.0769 13.7605 12.9907 14.1731C12.9664 14.2887 12.9856 14.3428 13.1181 14.3373C13.3176 14.329 13.5175 14.335 13.7169 14.3354V14.335ZM2.4706 4.71625C2.4706 4.56725 2.4706 4.4187 2.4706 4.27016C2.4706 4.17847 2.43575 4.14867 2.34498 4.16471C2.10428 4.20597 1.90347 4.44575 1.89934 4.70387C1.89476 4.96887 2.09373 5.21736 2.34177 5.26275C2.42888 5.2788 2.47197 5.25633 2.4706 5.16189C2.46876 5.01334 2.4706 4.8648 2.4706 4.71625ZM5.74316 4.70479C5.74316 4.8593 5.73629 5.0138 5.74866 5.16739C5.75784 5.19093 5.7729 5.21172 5.7924 5.22777C5.81191 5.24383 5.83521 5.25461 5.86007 5.25908C6.10398 5.23708 6.3135 4.97804 6.31396 4.71442C6.31442 4.4508 6.10581 4.19176 5.86145 4.16884C5.8363 4.17301 5.81268 4.18366 5.7929 4.19974C5.77313 4.21581 5.75788 4.23677 5.74866 4.26053C5.73629 4.40724 5.74362 4.55625 5.74316 4.70479Z" fill="white"/>
<path d="M12.3418 1.70631C13.4345 1.70631 14.5269 1.70631 15.619 1.70631C16.5153 1.70631 17.0861 2.36421 16.9737 3.25227C16.8316 4.36223 16.6987 5.47402 16.5552 6.58444C16.5182 6.90054 16.3655 7.19177 16.1265 7.40191C15.8875 7.61205 15.5791 7.72621 15.2609 7.72236C14.2944 7.72572 13.328 7.72572 12.3615 7.72236C12.22 7.71883 12.0811 7.76059 11.9649 7.84157C11.5592 8.11894 11.1461 8.38577 10.739 8.66131C10.4919 8.82865 10.2347 8.88229 9.96647 8.731C9.7056 8.58475 9.5997 8.34955 9.61024 8.05705C9.61024 8.03412 9.61024 8.0112 9.61024 7.98828C9.61024 7.67652 9.61437 7.73016 9.35854 7.72053C8.74556 7.69715 8.21236 7.22171 8.13534 6.6202C7.98435 5.45874 7.83779 4.29728 7.69567 3.13582C7.60397 2.38805 8.2142 1.71456 8.97938 1.70906C10.1003 1.70218 11.2213 1.70631 12.3418 1.70631ZM12.3611 2.23171C11.258 2.23171 10.1548 2.23171 9.05136 2.23171C8.48194 2.23171 8.14543 2.63425 8.22612 3.19817C8.28709 3.6163 8.33202 4.03626 8.38521 4.45576C8.47369 5.15217 8.55392 5.84997 8.65525 6.54455C8.71439 6.94938 9.02202 7.19191 9.43465 7.1965C9.60061 7.1965 9.76704 7.20521 9.93209 7.1965C10.0971 7.18779 10.143 7.25426 10.1356 7.40785C10.1246 7.6134 10.1246 7.8194 10.1356 8.02495C10.1407 8.10702 10.1696 8.22439 10.2273 8.25648C10.2851 8.28857 10.4016 8.25052 10.469 8.20697C10.9155 7.91874 11.3587 7.6244 11.7985 7.32395C11.9243 7.23599 12.0752 7.19112 12.2286 7.19604C13.223 7.20154 14.2179 7.19971 15.2123 7.19833C15.6754 7.19833 15.9619 6.95672 16.0421 6.49916C16.066 6.36437 16.0774 6.22775 16.0944 6.09158C16.2141 5.13429 16.3264 4.17609 16.4557 3.21972C16.535 2.63012 16.2113 2.23401 15.6199 2.23355C14.5333 2.23141 13.447 2.2308 12.3611 2.23171Z" fill="white"/>
<path d="M13.7279 4.71428C13.7279 4.14807 13.733 3.58232 13.7247 3.01794C13.722 2.85014 13.7793 2.79925 13.9434 2.80292C14.3491 2.81254 14.7553 2.80979 15.1611 2.80292C15.2986 2.80292 15.3541 2.84876 15.3537 2.99089C15.3497 4.14012 15.3497 5.28936 15.3537 6.43859C15.3537 6.58209 15.3009 6.62932 15.1616 6.62702C14.7558 6.62106 14.3496 6.61877 13.9439 6.62702C13.7802 6.63115 13.722 6.58118 13.7247 6.41246C13.733 5.84671 13.7279 5.28049 13.7279 4.71428ZM14.826 4.71428V3.70427C14.826 3.32512 14.826 3.33245 14.4431 3.32603C14.2909 3.32603 14.2487 3.37188 14.2501 3.52088C14.257 4.24664 14.2533 4.9724 14.2533 5.69816C14.2533 6.11079 14.2533 6.10437 14.6618 6.10162C14.7897 6.10162 14.8301 6.0599 14.8282 5.93336C14.8218 5.52761 14.826 5.12186 14.826 4.71612V4.71428Z" fill="white"/>
<path d="M13.1546 4.99173C13.1546 5.47175 13.1514 5.95452 13.1569 6.43225C13.1569 6.56979 13.1156 6.62847 12.9703 6.62618C12.5531 6.62037 12.1357 6.62037 11.7182 6.62618C11.5761 6.62618 11.5284 6.57529 11.5293 6.435C11.533 5.46885 11.533 4.5027 11.5293 3.53654C11.5293 3.4068 11.5697 3.34995 11.7063 3.35316C12.1293 3.35805 12.5525 3.35805 12.9758 3.35316C13.1097 3.35316 13.1592 3.40267 13.156 3.53654C13.1518 4.01977 13.1546 4.50575 13.1546 4.99173ZM12.0566 4.99173V5.71153C12.0566 6.10352 12.0566 6.09756 12.4453 6.10077C12.5829 6.10077 12.6342 6.06318 12.6324 5.91738C12.6251 5.36722 12.6292 4.82026 12.6292 4.27193C12.6292 3.86985 12.6292 3.87444 12.2321 3.87444C12.101 3.87444 12.0488 3.90974 12.0538 4.0482C12.063 4.36408 12.057 4.67814 12.057 4.99265L12.0566 4.99173Z" fill="white"/>
<path d="M10.9568 5.2632C10.9568 5.65198 10.9518 6.0426 10.9591 6.42955C10.9623 6.58084 10.9055 6.62898 10.7583 6.62669C10.3466 6.61997 9.93503 6.61997 9.52362 6.62669C9.38608 6.62669 9.33015 6.58084 9.33107 6.43872C9.33565 5.65565 9.33565 4.87243 9.33107 4.08905C9.33107 3.94601 9.38333 3.89879 9.52317 3.90108C9.93457 3.90689 10.3461 3.90689 10.7578 3.90108C10.905 3.90108 10.9623 3.94693 10.9591 4.09776C10.9536 4.48563 10.9568 4.87441 10.9568 5.2632ZM10.4314 5.26595V4.83774C10.4314 4.41457 10.4314 4.41869 10.0146 4.42511C9.89636 4.42511 9.8551 4.46408 9.85693 4.58328C9.86243 4.95465 9.85326 5.32601 9.85968 5.69737C9.86839 6.16868 9.7634 6.08799 10.2838 6.09945C10.3947 6.1022 10.4355 6.06231 10.4328 5.9509C10.4286 5.72304 10.4328 5.49472 10.4332 5.26595H10.4314Z" fill="white"/>
</svg>
