<svg width="19" height="19" viewBox="0 0 19 19" fill="none" xmlns="http://www.w3.org/2000/svg">
<path d="M18.2954 7.54478C18.2191 7.4568 18.1375 7.36998 18.0595 7.28608C17.9913 7.21383 17.9214 7.13867 17.8544 7.06292C17.7012 6.89861 17.5851 6.70326 17.514 6.49013C17.4429 6.27701 17.4185 6.05109 17.4424 5.8277C17.4634 5.61853 17.4873 5.40935 17.5089 5.22465C17.5176 5.14949 17.5258 5.07782 17.5328 5.01257C17.5281 3.88805 16.8277 2.94182 15.7895 2.65748C15.6263 2.61262 15.4556 2.58174 15.2901 2.55086C15.2373 2.54154 15.1843 2.53163 15.1311 2.52114C14.6038 2.41976 14.2064 2.13892 13.9512 1.68562C13.9156 1.62269 13.8818 1.5586 13.8481 1.49451C13.786 1.37203 13.7178 1.25282 13.6435 1.13734C13.0621 0.269188 12.2743 -0.0990494 11.3036 0.0425354C10.961 0.0920609 10.6231 0.24122 10.2962 0.385136L10.1919 0.431165C9.65761 0.664226 9.15828 0.660148 8.66477 0.416599L8.58436 0.376978C8.44511 0.30706 8.30061 0.235394 8.15436 0.178876C7.75466 0.0262211 7.39109 -0.0279657 7.04033 0.0134027C6.13256 0.120611 5.47707 0.582655 5.09544 1.37914C4.75633 2.08707 4.2302 2.46929 3.43779 2.58116C2.36687 2.73381 1.61 3.42659 1.4154 4.43516C1.35713 4.74746 1.35422 5.10987 1.4154 5.5422C1.50921 6.2309 1.33674 6.77626 0.887514 7.20975C0.766801 7.32396 0.653534 7.44579 0.54841 7.57449C0.0683038 8.16822 -0.0977523 8.85167 0.0549028 9.60446C0.153954 10.0921 0.407991 10.5186 0.854886 10.9446C1.24876 11.3221 1.43754 11.7265 1.43754 12.1804C1.43298 12.38 1.41546 12.5791 1.3851 12.7764C1.37753 12.8318 1.36995 12.8877 1.36354 12.9436C1.28654 13.5214 1.42607 14.1072 1.75527 14.5882C2.08446 15.0692 2.58002 15.4113 3.14646 15.5487C3.28047 15.5831 3.41972 15.607 3.55432 15.6332C3.62365 15.646 3.69357 15.6588 3.76291 15.6728C4.00969 15.7163 4.24333 15.8154 4.44614 15.9626C4.64895 16.1098 4.81559 16.3012 4.93346 16.5223C4.96492 16.5806 4.99522 16.6388 5.02552 16.6971C5.08681 16.8199 5.15469 16.9393 5.22886 17.0548C5.80452 17.916 6.5847 18.286 7.54782 18.1531C7.91664 18.1025 8.27905 17.9416 8.62923 17.7861L8.66127 17.7715C8.90737 17.6572 9.17479 17.5961 9.44611 17.5921C9.71118 17.5936 9.97221 17.6572 10.2082 17.7779L10.2845 17.8158C10.425 17.8863 10.5706 17.9591 10.718 18.0156C11.4941 18.3151 12.2452 18.2359 12.9496 17.7826C13.3196 17.5437 13.6045 17.1935 13.8731 16.6476C14.1534 16.0789 14.6055 15.7474 15.2173 15.6635C15.2598 15.6576 15.3024 15.6495 15.3443 15.6413L15.4305 15.625C16.2684 15.4828 16.8825 15.0517 17.256 14.3432C17.5176 13.8479 17.5904 13.2944 17.4727 12.6966C17.3341 11.9922 17.5124 11.4229 18.0175 10.9545C18.1262 10.8501 18.2281 10.739 18.3228 10.6218C18.6808 10.1875 18.8743 9.64103 18.8693 9.07829C18.8643 8.51554 18.6611 7.97257 18.2954 7.54478ZM17.7804 10.0688C17.681 10.1967 17.5721 10.3169 17.4547 10.4283C16.7922 11.0751 16.5481 11.836 16.7089 12.7554C16.7486 12.9511 16.7631 13.151 16.752 13.3503C16.6815 14.1229 16.1979 14.6636 15.4259 14.8349C15.3338 14.8553 15.24 14.8722 15.1491 14.8891C15.0582 14.906 14.9627 14.9235 14.8706 14.9439C14.1714 15.1 13.6331 15.5027 13.2765 16.1407C13.2438 16.1989 13.2124 16.2572 13.1803 16.3155C13.1221 16.4221 13.0638 16.5316 13.0009 16.6359C12.6845 17.1481 12.2114 17.3934 11.4662 17.4365H11.4574L11.4493 17.433C11.3962 17.4132 11.3327 17.3916 11.264 17.3677C11.0504 17.2993 10.8416 17.217 10.6388 17.1213C10.0293 16.82 9.45834 16.742 8.89084 16.8824C8.62126 16.9591 8.36009 17.0628 8.11125 17.1918C7.13006 17.6626 6.27298 17.387 5.76024 16.4343C5.55457 16.0533 5.32209 15.6571 4.94453 15.3686C4.51686 15.0441 4.02044 14.9293 3.59161 14.8594C2.72404 14.7219 2.1746 14.1526 2.11924 13.3428C2.11214 13.135 2.12639 12.9271 2.16178 12.7222C2.17285 12.6453 2.18334 12.5678 2.19149 12.4892C2.26899 11.7772 2.06156 11.1397 1.57388 10.595C1.51561 10.5297 1.45269 10.4656 1.39209 10.4033C1.3315 10.3409 1.27148 10.2803 1.21322 10.2157C0.609589 9.54445 0.617746 8.61336 1.23361 7.95205C1.29188 7.8868 1.36238 7.81688 1.44744 7.73239C2.07846 7.10429 2.31443 6.35966 2.16819 5.45655C2.12297 5.21791 2.11199 4.97405 2.13556 4.73231C2.21888 4.05177 2.69665 3.5303 3.37952 3.37182C3.48673 3.34676 3.59685 3.32695 3.70289 3.30714C3.80894 3.28733 3.91556 3.2681 4.02044 3.24363C4.34689 3.17324 4.65448 3.03376 4.92251 2.83457C5.19055 2.63537 5.41282 2.38109 5.57438 2.08881C5.62041 2.00899 5.66469 1.92625 5.7078 1.84643C5.75092 1.76661 5.79229 1.68853 5.83657 1.61337C6.27298 0.855919 7.13763 0.571585 7.93937 0.923507C8.03725 0.966623 8.14096 1.01673 8.27556 1.0849C9.04815 1.47645 9.81027 1.47645 10.6062 1.0849C10.8392 0.959952 11.0873 0.865561 11.3444 0.804063C11.6618 0.742852 11.9905 0.780935 12.2855 0.913129C12.5805 1.04532 12.8277 1.26521 12.9933 1.54287C13.0615 1.65299 13.1232 1.76777 13.1827 1.87964C13.2118 1.93325 13.2409 1.98685 13.2701 2.03987C13.6465 2.71866 14.2303 3.13584 15.0052 3.27917L15.1305 3.30132C15.2301 3.31938 15.3338 3.33744 15.4352 3.35958C16.3296 3.55885 16.8429 4.28309 16.7421 5.20484L16.7299 5.31671C16.6908 5.60028 16.6735 5.88642 16.678 6.17263C16.7036 6.74538 16.9443 7.25229 17.4151 7.72249C17.5365 7.83968 17.6509 7.964 17.7577 8.0948C17.9789 8.37524 18.1009 8.72108 18.1047 9.07824C18.1085 9.4354 17.9938 9.78375 17.7786 10.0688H17.7804Z" fill="white"/>
<path d="M6.28334 12.746C5.86791 12.7414 5.67855 12.4017 5.84577 12.1168C5.90136 12.0309 5.96775 11.9526 6.04329 11.8837C8.102 9.82265 10.1617 7.76278 12.2223 5.70407C12.2864 5.63487 12.357 5.57203 12.4332 5.51646C12.5129 5.45925 12.6103 5.43208 12.7081 5.43975C12.8058 5.44742 12.8978 5.48945 12.9675 5.55839C13.0373 5.62732 13.0804 5.71872 13.0893 5.81641C13.0981 5.91409 13.0721 6.01176 13.0159 6.09212C12.9655 6.16313 12.9081 6.22892 12.8446 6.28847C10.775 8.35922 8.70427 10.4286 6.63235 12.4966C6.51291 12.6155 6.35792 12.6936 6.28334 12.746Z" fill="white"/>
<path d="M13.1249 12.1896C13.1213 12.5603 13.0079 12.9217 12.799 13.2279C12.5901 13.5342 12.2951 13.7717 11.9513 13.9104C11.6075 14.049 11.2303 14.0827 10.8673 14.007C10.5044 13.9313 10.1721 13.7498 9.91228 13.4853C9.65251 13.2208 9.47697 12.8852 9.40787 12.521C9.33876 12.1568 9.37918 11.7802 9.52401 11.439C9.66885 11.0977 9.91161 10.807 10.2216 10.6037C10.5316 10.4004 10.8949 10.2935 11.2656 10.2966C11.7628 10.3023 12.2375 10.5046 12.586 10.8594C12.9344 11.2141 13.1281 11.6924 13.1249 12.1896ZM12.2783 12.1698C12.2726 11.8979 12.1609 11.6389 11.9669 11.4483C11.7729 11.2576 11.512 11.1504 11.24 11.1496C10.9679 11.1511 10.7075 11.2607 10.5162 11.4542C10.3248 11.6477 10.2182 11.9093 10.2198 12.1815C10.2213 12.4536 10.3309 12.7139 10.5244 12.9053C10.7179 13.0966 10.9795 13.2032 11.2516 13.2017C11.5236 13.1979 11.7834 13.0878 11.9752 12.8949C12.1671 12.7021 12.2759 12.4418 12.2783 12.1698Z" fill="white"/>
<path d="M7.61854 4.14209C8.11627 4.14209 8.59363 4.33982 8.94558 4.69177C9.29754 5.04372 9.49526 5.52108 9.49526 6.01882C9.49526 6.51655 9.29754 6.99391 8.94558 7.34586C8.59363 7.69782 8.11627 7.89554 7.61854 7.89554C6.60064 7.90428 5.74414 7.04545 5.74414 6.01765C5.74506 5.52071 5.9428 5.04436 6.29409 4.69286C6.64537 4.34136 7.12159 4.14332 7.61854 4.14209ZM7.60863 7.04021C7.7433 7.04086 7.87677 7.01498 8.00144 6.96404C8.1261 6.91311 8.23951 6.83812 8.3352 6.74336C8.43088 6.64859 8.50696 6.53591 8.5591 6.41174C8.61123 6.28758 8.6384 6.15436 8.63905 6.01969C8.6397 5.88502 8.61382 5.75155 8.56289 5.62688C8.51196 5.50222 8.43697 5.38881 8.3422 5.29312C8.24744 5.19744 8.13476 5.12136 8.01059 5.06922C7.88642 5.01709 7.7532 4.98992 7.61854 4.98927C7.34656 4.98795 7.08521 5.09473 6.89197 5.28612C6.69873 5.4775 6.58943 5.73781 6.58811 6.00978C6.5868 6.28176 6.69358 6.54311 6.88496 6.73635C7.07635 6.92959 7.33666 7.03889 7.60863 7.04021Z" fill="white"/>
</svg>
