<svg width="26" height="19" viewBox="0 0 26 19" fill="none" xmlns="http://www.w3.org/2000/svg">
<path d="M25.794 14.4107C25.763 14.4868 25.7267 14.5609 25.7004 14.6383C25.4984 15.204 25.1179 15.571 24.5321 15.711C24.3698 15.7501 24.3166 15.7689 24.4055 15.9622C24.5119 16.1925 24.5402 16.4605 24.5907 16.7144C24.7099 17.3204 24.8331 17.9312 24.9274 18.544C24.9476 18.6712 24.8991 18.8739 24.8082 18.9372C24.7423 18.9734 24.6693 18.9945 24.5943 18.9991C24.5193 19.0036 24.4442 18.9915 24.3745 18.9635C23.6446 18.6268 22.9247 18.2618 22.2069 17.8962C22.0911 17.8302 21.9905 17.7405 21.9119 17.6329C21.5389 17.1575 21.1719 16.6771 20.811 16.1918C20.7704 16.1297 20.7141 16.0794 20.6477 16.0463C20.5813 16.0131 20.5072 15.9983 20.4332 16.0033C19.6925 16.0127 18.9518 16.0073 18.2157 16.0066C18.1402 16.0108 18.0645 16.0079 17.9895 15.9979C17.7828 15.9568 17.6528 15.8309 17.6636 15.6154C17.6743 15.3999 17.8057 15.2787 18.0272 15.2787C18.4386 15.2754 18.8501 15.2787 19.2615 15.2787C19.7154 15.2787 20.1692 15.2875 20.6224 15.2747C21.2204 15.2585 21.7072 14.841 21.7739 14.3077C21.8487 13.7124 21.5416 13.1919 20.9921 13.0283C20.7973 12.9784 20.5965 12.9558 20.3955 12.9609C18.5468 12.9564 16.6988 12.9564 14.8515 12.9609C14.7593 12.9609 14.6663 12.9609 14.5741 12.9609C14.3721 12.9643 14.1855 12.9441 14.0946 12.7219C14.0132 12.5199 14.131 12.3852 14.2502 12.2505C14.6794 11.7666 15.109 11.2831 15.539 10.8C15.7007 10.6182 15.8582 10.4324 16.0259 10.256C16.1222 10.1543 16.1397 10.0768 16.0461 9.95495C15.2165 8.87753 14.3914 7.79608 13.5707 6.71059C13.4549 6.55773 13.36 6.60082 13.2307 6.66345C11.8327 7.33683 10.4343 8.01022 9.03551 8.6836C8.96817 8.7166 8.90083 8.75094 8.83349 8.78124C8.59242 8.88157 8.39243 8.8176 8.30085 8.61491C8.20927 8.41223 8.28872 8.2358 8.51902 8.12335C9.28062 7.75164 10.0449 7.38666 10.8085 7.019C11.4509 6.70969 12.0938 6.40083 12.7371 6.09242C12.9997 5.96582 12.9984 5.96448 12.8152 5.72408C11.9587 4.6029 11.0974 3.48575 10.2516 2.35716C10.1176 2.17729 10.0241 1.97054 9.97757 1.75112C9.89878 1.34709 10.0436 1.00097 10.3614 0.741041C10.5634 0.576062 10.7708 0.419163 10.9802 0.264285C11.5492 -0.155906 12.1849 -0.0724067 12.6186 0.495929C13.6004 1.77536 14.579 3.05681 15.5545 4.34028C15.9013 4.79346 16.2421 5.25271 16.599 5.69782C16.6824 5.798 16.7937 5.87112 16.9188 5.90791C17.7774 6.13484 18.644 6.33416 19.5012 6.56783C20.2286 6.76525 20.8739 7.18993 21.3429 7.77992C21.5389 8.02099 21.545 8.22233 21.3598 8.37519C21.1894 8.51727 20.978 8.48091 20.7935 8.25937C20.3394 7.71148 19.7125 7.33437 19.0157 7.19004C18.5747 7.09037 18.137 6.97455 17.6966 6.8695C17.6415 6.86162 17.5858 6.85914 17.5302 6.8621C17.5471 6.9147 17.5697 6.96529 17.5976 7.01294C18.1102 7.68632 18.624 8.36105 19.139 9.03713C20.5558 10.8921 21.973 12.7472 23.3907 14.6026C23.6863 14.9898 24.0728 15.1185 24.4715 14.969C25.0459 14.7528 25.221 14.0734 24.827 13.5549C24.019 12.49 23.2096 11.4281 22.3988 10.3691C22.2055 10.1152 22.0103 9.8627 21.8197 9.60681C21.6291 9.35092 21.6412 9.15362 21.8325 9.01221C22.0237 8.8708 22.215 8.91996 22.4082 9.17248C23.285 10.3204 24.1604 11.4687 25.0344 12.6175C25.3395 13.0175 25.6714 13.4 25.79 13.9084L25.794 14.4107ZM19.6379 12.2276C19.8729 12.2276 20.1093 12.2317 20.343 12.2276C20.4236 12.219 20.5034 12.2035 20.5813 12.1812C20.5486 12.1141 20.5117 12.0491 20.4709 11.9865C19.7639 11.0582 19.0561 10.1303 18.3477 9.20278C16.9767 7.40709 15.6075 5.6114 14.2401 3.81571C14.1054 3.6339 14.0118 3.62986 13.8482 3.76992C13.6125 3.97194 13.3559 4.14836 13.1075 4.33893C12.7809 4.59279 12.824 4.5268 13.0401 4.8103C14.7397 7.04054 16.4596 9.25463 18.1343 11.5058C18.5349 12.0424 18.9221 12.4222 19.6379 12.2269V12.2276ZM22.4911 14.6518C22.4592 14.6921 22.431 14.7351 22.4069 14.7804C22.2527 15.1835 21.9648 15.5215 21.5914 15.738C21.4601 15.8141 21.4904 15.8801 21.5638 15.9737C21.7961 16.2713 22.0264 16.5696 22.25 16.8733C22.3308 16.9831 22.3975 17.008 22.5126 16.915C22.821 16.6699 23.1339 16.4309 23.4513 16.1979C23.5638 16.1151 23.5792 16.0484 23.489 15.9346C23.1887 15.5528 22.8971 15.1636 22.6015 14.7777C22.5712 14.74 22.5368 14.7043 22.4911 14.6525V14.6518ZM11.7378 0.718146C11.6678 0.729763 11.5999 0.751067 11.5358 0.781444C11.2853 0.963257 11.028 1.13901 10.7951 1.34305C10.6355 1.48446 10.6563 1.67974 10.7776 1.84539C10.9493 2.08242 11.1365 2.30935 11.3089 2.54638C11.3876 2.6548 11.4577 2.65345 11.5567 2.57601C11.8738 2.32821 12.1917 2.08175 12.5156 1.84337C12.6294 1.7592 12.6125 1.6932 12.5371 1.59826C12.36 1.37537 12.2004 1.14036 12.0132 0.924874C11.9405 0.833968 11.8233 0.779423 11.7378 0.718146ZM16.5188 12.2256H17.5754C17.71 12.2256 17.7437 12.1791 17.6548 12.0633C17.3406 11.6517 17.0263 11.2391 16.7121 10.8256C16.636 10.7246 16.5774 10.732 16.4966 10.8256C16.139 11.2351 15.7754 11.6404 15.4158 12.0485C15.3866 12.0879 15.3609 12.1298 15.3391 12.1737C15.3871 12.1987 15.4386 12.2164 15.4919 12.2263C15.8347 12.2283 16.1774 12.2256 16.5208 12.2256H16.5188ZM12.4206 3.92884C12.463 3.89988 12.5055 3.87295 12.5452 3.84332C12.7317 3.70191 12.9176 3.55915 13.1041 3.41707C13.6583 2.99688 13.6542 3.00024 13.2044 2.4649C13.1088 2.3511 13.0448 2.35581 12.9411 2.44133C12.7593 2.58948 12.5688 2.72618 12.3829 2.86893C11.8294 3.29586 11.83 3.29586 12.2846 3.82042C12.3052 3.84668 12.3277 3.87144 12.3519 3.8945C12.3733 3.90874 12.3964 3.92028 12.4206 3.92884ZM24.0749 17.9123C24.0075 17.5561 23.9489 17.2437 23.8802 16.9339C23.8593 16.92 23.8355 16.9109 23.8105 16.9073C23.7856 16.9037 23.7602 16.9056 23.7361 16.913C23.5247 17.0625 23.3186 17.2196 23.118 17.3844C23.1065 17.4048 23.0998 17.4275 23.0985 17.4509C23.0973 17.4742 23.1014 17.4976 23.1106 17.5191C23.3916 17.6672 23.676 17.8086 23.9637 17.9433C23.99 17.9554 24.0398 17.9218 24.0749 17.9123Z" fill="white"/>
<path d="M0 13.4572C0 12.0727 0 10.6866 0 9.29901C0 8.92326 0.117169 8.79397 0.492917 8.79195C1.60131 8.78656 2.71014 8.78656 3.81943 8.79195C4.18441 8.79195 4.30898 8.91653 4.30292 9.27746C4.30292 9.47274 4.37565 9.52526 4.55342 9.51988C4.84702 9.5118 5.14196 9.52661 5.43488 9.51382C5.55959 9.50627 5.68178 9.47544 5.79514 9.42291C6.19917 9.23706 6.59647 9.03706 6.9978 8.84649C7.27726 8.71182 7.47658 8.75828 7.58567 8.96905C7.69475 9.17982 7.6025 9.36837 7.32439 9.50372C6.87996 9.72122 6.4362 9.94209 5.98503 10.1448C5.83934 10.207 5.68344 10.2419 5.52511 10.2478C5.20636 10.264 4.88699 10.264 4.56823 10.2478C4.35208 10.237 4.30292 10.3192 4.30427 10.5219C4.311 12.2727 4.30831 14.0167 4.30831 15.7635C4.30831 15.9904 4.3211 16.2187 4.30427 16.4436C4.28743 16.6685 4.35881 16.7406 4.5844 16.7345C5.113 16.7204 5.64295 16.7433 6.17156 16.7251C6.49845 16.7111 6.82271 16.789 7.10756 16.95C7.78187 17.3339 8.5418 17.5423 9.31761 17.556C10.2399 17.5749 11.1465 17.3151 11.9189 16.8106C12.6461 16.3433 13.37 15.8679 14.1033 15.412C14.2368 15.3298 14.3892 15.2835 14.5458 15.2773C15.1673 15.2625 15.7888 15.2699 16.4104 15.2719C16.7167 15.2719 16.8595 15.3857 16.8669 15.6194C16.8743 15.8531 16.7127 15.9998 16.4104 16.0019C15.8642 16.0019 15.3181 15.9938 14.7727 16.0093C14.6168 16.0137 14.4645 16.0577 14.3303 16.1372C13.6879 16.5352 13.0583 16.9527 12.4206 17.3587C10.6374 18.4934 8.79304 18.6045 6.89882 17.6631C6.63307 17.5224 6.33545 17.4528 6.03486 17.4611C5.53993 17.4786 5.04364 17.4705 4.54803 17.4611C4.38642 17.4611 4.30629 17.4887 4.30696 17.6786C4.30696 18.0362 4.19585 18.1432 3.83559 18.1439C2.71823 18.147 1.60108 18.147 0.484163 18.1439C0.105721 18.1459 0 18.0301 0 17.6429V13.4572ZM0.729948 13.4794C0.729948 14.7043 0.733315 15.9298 0.726581 17.1554C0.726581 17.3453 0.771698 17.4247 0.975059 17.4247C1.76382 17.4158 2.55257 17.4158 3.34133 17.4247C3.52718 17.4247 3.58307 17.3641 3.5824 17.1769C3.57701 14.7078 3.57701 12.2401 3.5824 9.77374C3.5824 9.57914 3.51102 9.52998 3.33392 9.53133C2.55347 9.53671 1.77302 9.53941 0.992567 9.53133C0.781125 9.53133 0.723214 9.6027 0.723214 9.80809C0.733988 11.0283 0.729948 12.2558 0.729948 13.4794Z" fill="white"/>
<path d="M2.51945 15.9368C2.51945 15.957 2.53561 16.0499 2.4979 16.1024C2.42114 16.2095 2.32484 16.3522 2.21643 16.3718C2.10801 16.3913 1.88512 16.2964 1.86963 16.229C1.82696 15.9904 1.83016 15.7459 1.87906 15.5085C1.8932 15.4412 2.12013 15.359 2.23528 15.3738C2.51339 15.4162 2.52214 15.6566 2.51945 15.9368Z" fill="white"/>
</svg>
