<svg width="19" height="20" viewBox="0 0 19 20" fill="none" xmlns="http://www.w3.org/2000/svg">
<path d="M18.3284 1.19922V17.6053C18.3109 17.6496 18.2963 17.695 18.2848 17.7412C18.0996 18.6949 17.3612 19.3103 16.3893 19.3103C11.5662 19.3103 6.74289 19.3103 1.91945 19.3103C1.75836 19.3098 1.59783 19.2912 1.4409 19.2548C0.579042 19.0519 0 18.3044 0 17.3952C0 13.139 0 8.88277 0 4.62658C0 4.60839 0 4.59069 0 4.5725C0.00382838 4.31696 0.091881 4.22555 0.343597 4.22268C0.535016 4.22268 0.726434 4.2179 0.917853 4.22268C1.03223 4.22555 1.0796 4.18249 1.07625 4.0662C1.07147 3.86377 1.07242 3.66039 1.07625 3.45749C1.08008 3.25458 1.17723 3.15361 1.38731 3.14882C1.57251 3.14404 1.75818 3.13734 1.94242 3.14882C2.11278 3.16079 2.16112 3.09044 2.15155 2.93156C2.14102 2.75929 2.14772 2.58557 2.15155 2.41282C2.1549 2.16828 2.24726 2.07784 2.48653 2.07209C2.68369 2.06922 2.88085 2.06779 3.07754 2.07209C3.18425 2.07209 3.22876 2.03237 3.22636 1.9247C3.22206 1.74572 3.23402 1.56627 3.22349 1.38777C3.21296 1.20927 3.27135 1.07289 3.42735 0.983398H18.114L18.3284 1.19922ZM17.8019 9.61208V5.27836C17.8019 4.10815 17.8019 2.9381 17.8019 1.76822C17.8019 1.50884 17.8019 1.50884 17.5344 1.50789H4.1758C3.7341 1.50789 3.7341 1.50789 3.7341 1.95198C3.7341 7.08583 3.7341 12.2195 3.7341 17.3531C3.7341 17.823 3.6092 18.2475 3.31298 18.6174C3.27815 18.669 3.24804 18.7236 3.22301 18.7806C3.2814 18.7873 3.33978 18.7949 3.39816 18.8007C3.41602 18.8016 3.43391 18.8016 3.45176 18.8007H16.328C17.244 18.8007 17.8029 18.2432 17.8029 17.3301C17.8023 14.7577 17.8019 12.1851 17.8019 9.61208ZM3.22397 10.1437C3.22397 7.75101 3.22397 5.35732 3.22397 2.96267C3.22397 2.5382 3.31442 2.58605 2.80859 2.57983C2.70188 2.57983 2.65833 2.62003 2.66024 2.7277C2.66407 2.93061 2.66407 3.13351 2.66024 3.33641C2.65546 3.55559 2.56023 3.64891 2.33866 3.65369C2.18361 3.65752 2.02856 3.65369 1.87303 3.65369C1.5859 3.65369 1.5859 3.65369 1.5859 3.93173C1.5859 8.38509 1.5859 12.8383 1.5859 17.2913C1.5859 17.3334 1.5859 17.3751 1.5859 17.4167C1.59643 17.6009 1.71128 17.7225 1.87303 17.7196C2.03478 17.7168 2.1415 17.5957 2.15011 17.4081C2.15298 17.3368 2.15011 17.2645 2.15011 17.1932C2.15011 13.0209 2.15011 8.84832 2.15011 4.67539C2.14617 4.59791 2.14921 4.52023 2.1592 4.44329C2.18361 4.31074 2.27023 4.22555 2.40566 4.22603C2.54108 4.22651 2.62627 4.31217 2.65067 4.44473C2.66003 4.51578 2.66291 4.58754 2.65929 4.65912C2.65929 8.87384 2.65929 13.0882 2.65929 17.3023C2.65929 17.3559 2.65929 17.41 2.65929 17.4636C2.6547 17.5863 2.62168 17.7063 2.56282 17.8141C2.50397 17.922 2.42089 18.0146 2.32012 18.0849C2.21936 18.1551 2.10367 18.201 1.98215 18.2189C1.86064 18.2368 1.73663 18.2263 1.61988 18.1881C1.27293 18.0728 1.07625 17.7723 1.07625 17.3507C1.07625 13.2734 1.07625 9.19638 1.07625 5.11948C1.07625 4.68257 1.17196 4.7309 0.654174 4.72851C0.558464 4.72851 0.51061 4.7644 0.513959 4.86489C0.516831 4.93045 0.513959 4.99649 0.513959 5.06206V17.2937C0.513959 17.3712 0.513959 17.4488 0.516352 17.5263C0.5532 18.3226 1.33515 18.9332 2.1147 18.7753C2.78466 18.6399 3.22636 18.1053 3.22684 17.4114C3.2262 14.99 3.22525 12.5674 3.22397 10.1437Z" fill="white"/>
<path d="M10.7749 3.14746H15.7518C16.0868 3.14746 16.1614 3.22164 16.1619 3.5571C16.1619 4.73911 16.1619 5.92112 16.1619 7.10313C16.1619 7.40557 16.0796 7.4898 15.7829 7.4898H5.75588C5.45536 7.4898 5.37305 7.40749 5.37305 7.10696C5.37305 5.91283 5.37305 4.71901 5.37305 3.52551C5.37305 3.22929 5.45727 3.14794 5.76067 3.14746H10.7749ZM10.7859 3.65759C9.22264 3.65759 7.65939 3.65663 6.09613 3.65472C5.93725 3.65472 5.87791 3.6954 5.87935 3.86432C5.88637 4.83099 5.88637 5.79765 5.87935 6.76432C5.87935 6.94043 5.93725 6.98349 6.10522 6.98349C9.21387 6.97903 12.3227 6.97903 15.4316 6.98349C15.623 6.98349 15.6585 6.91698 15.657 6.74422C15.6503 5.79574 15.6542 4.84726 15.6537 3.8983C15.6537 3.65903 15.6537 3.65568 15.4048 3.65568L10.7859 3.65759Z" fill="white"/>
<path d="M10.7754 9.63943H5.79849C5.44102 9.63943 5.3745 9.57148 5.37402 9.20874C5.37402 8.94602 5.37402 8.68234 5.37402 8.42057C5.37402 8.14349 5.4616 8.0564 5.73915 8.0564C7.47628 8.0564 9.21325 8.0564 10.9501 8.0564H15.7484C16.0935 8.0564 16.1633 8.1277 16.1638 8.47895C16.1638 8.74168 16.1638 9.00536 16.1638 9.26664C16.1638 9.55377 16.0777 9.64039 15.7896 9.64039L10.7754 9.63943ZM10.7873 8.56461H6.27704C5.84635 8.56461 5.83486 8.57418 5.8899 9.00248C5.89612 9.05034 5.96599 9.09819 6.01767 9.12404C6.06935 9.14988 6.12343 9.1293 6.17703 9.1293H15.3584C15.4002 9.12714 15.442 9.12714 15.4838 9.1293C15.6207 9.14413 15.6671 9.07762 15.6542 8.95032C15.652 8.90856 15.652 8.86671 15.6542 8.82494C15.6542 8.56509 15.6542 8.56461 15.3871 8.56461H10.7873Z" fill="white"/>
<path d="M9.93982 14.7522C9.93982 15.4323 9.93982 16.1123 9.93982 16.7923C9.93982 17.0866 9.86182 17.1612 9.56608 17.1617H5.75349C5.45536 17.1617 5.37305 17.078 5.37305 16.7765C5.37305 15.4279 5.37305 14.0796 5.37305 12.7313C5.37305 12.4399 5.45679 12.3542 5.74249 12.3538C7.01861 12.3538 8.29474 12.3538 9.57086 12.3538C9.85464 12.3538 9.93647 12.4318 9.93743 12.7117C9.94126 13.3917 9.93982 14.0717 9.93982 14.7522ZM5.8827 14.7398C5.8827 15.3141 5.88653 15.8859 5.8827 16.4592C5.8827 16.6061 5.93055 16.6549 6.07699 16.6545C7.13362 16.649 8.19025 16.649 9.24689 16.6545C9.3938 16.6545 9.44931 16.6066 9.44883 16.4592C9.4466 15.3247 9.4466 14.1904 9.44883 13.0563C9.44883 12.9127 9.39332 12.8605 9.24689 12.861C8.19025 12.8658 7.13362 12.8658 6.07699 12.861C5.92864 12.861 5.88079 12.9089 5.8827 13.0563C5.88557 13.6181 5.8827 14.1785 5.8827 14.7398Z" fill="white"/>
<path d="M10.5217 13.6658C10.5217 12.6449 10.5217 11.624 10.5217 10.6031C10.5217 10.3351 10.6107 10.2011 10.7773 10.2088C10.9438 10.2165 11.0165 10.3414 11.0165 10.6027C11.0165 12.6566 11.0165 14.7102 11.0165 16.7635C11.0165 17.031 10.9275 17.1654 10.761 17.1583C10.5945 17.1511 10.5217 17.0252 10.5217 16.7639C10.5214 15.7309 10.5214 14.6982 10.5217 13.6658Z" fill="white"/>
<path d="M7.67136 10.7143C7.03346 10.7143 6.39555 10.7143 5.75717 10.7143C5.68108 10.7143 5.58777 10.7186 5.53321 10.6784C5.4643 10.6305 5.38965 10.5348 5.38965 10.4597C5.38965 10.3845 5.46765 10.2917 5.53656 10.2415C5.59112 10.2022 5.68443 10.207 5.76052 10.207C7.03059 10.2051 8.30065 10.2051 9.57071 10.207C9.61238 10.2049 9.65415 10.2062 9.69562 10.2108C9.83296 10.2333 9.93058 10.3022 9.93489 10.4539C9.93872 10.6142 9.83918 10.697 9.69562 10.7114C9.55877 10.7201 9.42157 10.7219 9.28454 10.7167L7.67136 10.7143Z" fill="white"/>
<path d="M13.8657 10.7142H11.9878C11.9342 10.7178 11.8803 10.7159 11.827 10.7085C11.6902 10.6807 11.5997 10.6046 11.6026 10.4529C11.6055 10.3093 11.6945 10.2385 11.8227 10.2108C11.8758 10.2033 11.9296 10.2014 11.9831 10.205H15.7574C16.0234 10.205 16.1569 10.2902 16.1589 10.4577C16.1608 10.6252 16.0249 10.7147 15.7621 10.7147L13.8657 10.7142Z" fill="white"/>
<path d="M7.65712 11.7885C7.02512 11.7885 6.39311 11.7885 5.76111 11.7885C5.70177 11.7885 5.62425 11.8038 5.58692 11.7732C5.50605 11.7076 5.3955 11.6172 5.39263 11.5339C5.38976 11.4506 5.50222 11.3587 5.58405 11.2946C5.62616 11.2611 5.71039 11.2774 5.77547 11.2774C7.03341 11.2774 8.29151 11.2774 9.54977 11.2774C9.59764 11.2749 9.64563 11.276 9.69333 11.2807C9.8369 11.3037 9.93835 11.3764 9.93261 11.5387C9.92974 11.6904 9.83307 11.7631 9.69333 11.7823C9.61012 11.7896 9.52649 11.7912 9.44305 11.787L7.65712 11.7885Z" fill="white"/>
<path d="M13.8652 11.7885C13.2393 11.7885 12.6133 11.7885 11.9874 11.7885C11.9279 11.7923 11.8681 11.7891 11.8094 11.7789C11.6806 11.7478 11.5993 11.6688 11.6026 11.5262C11.606 11.3922 11.6864 11.3195 11.807 11.2898C11.8655 11.2792 11.9252 11.2759 11.9845 11.2798C13.2428 11.2798 14.5009 11.2798 15.7588 11.2798C16.0239 11.2798 16.1584 11.3654 16.1594 11.5334C16.1603 11.7014 16.0249 11.7894 15.7617 11.7894L13.8652 11.7885Z" fill="white"/>
<path d="M13.8676 12.3533H15.7636C15.8231 12.3503 15.8827 12.3534 15.9416 12.3624C16.0732 12.3897 16.1584 12.4749 16.1569 12.6098C16.1555 12.7448 16.0694 12.8276 15.9373 12.8548C15.8898 12.862 15.8417 12.8646 15.7937 12.8625H11.9486C11.913 12.8645 11.8773 12.8634 11.8419 12.8591C11.7045 12.8352 11.6074 12.7663 11.6026 12.6146C11.5997 12.4538 11.6983 12.372 11.8443 12.3581C11.9802 12.3447 12.1185 12.3533 12.2553 12.3533H13.8676Z" fill="white"/>
<path d="M13.8652 13.4266C14.5031 13.4266 15.1415 13.4266 15.7794 13.4266C15.8498 13.4266 15.9388 13.418 15.9866 13.4553C16.0589 13.5113 16.1474 13.6047 16.147 13.6817C16.1465 13.7587 16.0575 13.8511 15.9843 13.9066C15.9364 13.9435 15.8474 13.9344 15.777 13.9344C14.507 13.9344 13.2369 13.9344 11.9669 13.9344C11.9252 13.9366 11.8834 13.9355 11.8419 13.931C11.696 13.9057 11.5984 13.8301 11.6027 13.6693C11.6075 13.518 11.7051 13.4419 11.8419 13.43C11.9788 13.418 12.1291 13.4247 12.2726 13.4247L13.8652 13.4266Z" fill="white"/>
<path d="M13.8671 14.5028H15.7631C15.8226 14.4998 15.8823 14.5028 15.9411 14.5119C16.0732 14.5392 16.1584 14.6243 16.157 14.7593C16.1555 14.8942 16.0694 14.977 15.9363 15.0057C15.8888 15.0129 15.8408 15.0155 15.7928 15.0134H11.9491C11.9133 15.0153 11.8774 15.014 11.8419 15.0096C11.7046 14.9856 11.6074 14.9167 11.6026 14.765C11.5993 14.6047 11.6983 14.5229 11.8443 14.5085C11.9802 14.4956 12.118 14.5037 12.2554 14.5037L13.8671 14.5028Z" fill="white"/>
<path d="M13.8853 16.0869C13.2587 16.0869 12.6326 16.0869 12.007 16.0869C11.9534 16.0899 11.8996 16.0887 11.8462 16.0836C11.7002 16.0615 11.6012 15.9878 11.6036 15.8266C11.606 15.6749 11.7026 15.6045 11.84 15.5816C11.8876 15.576 11.9356 15.5745 11.9835 15.5772H15.8119C16.0296 15.5801 16.1579 15.673 16.1603 15.8285C16.1627 15.984 16.033 16.0855 15.8181 16.0859C15.173 16.0879 14.5289 16.0869 13.8853 16.0869Z" fill="white"/>
<path d="M13.8649 17.1616C13.2327 17.1616 12.6006 17.1616 11.9684 17.1616C11.8985 17.1616 11.8081 17.1688 11.7626 17.131C11.6932 17.0726 11.6191 16.9788 11.6152 16.898C11.6152 16.8262 11.6937 16.7324 11.7631 16.6845C11.8186 16.6458 11.9115 16.6539 11.9875 16.6539C13.2455 16.6539 14.5036 16.6539 15.7618 16.6539H15.7977C16.0294 16.6563 16.161 16.7496 16.1605 16.909C16.16 17.0683 16.0284 17.1631 15.7968 17.1631C15.1527 17.1628 14.5087 17.1623 13.8649 17.1616Z" fill="white"/>
</svg>
