<svg width="25" height="23" viewBox="0 0 25 23" fill="none" xmlns="http://www.w3.org/2000/svg">
<path d="M24.2111 15.7081L24.3025 15.5859C25.0863 14.5442 25.0842 13.531 24.2955 12.4969L24.2104 12.3851L24.2899 12.2691C24.3229 12.2191 24.3602 12.1719 24.3905 12.1254C24.454 12.0402 24.5127 11.9517 24.5664 11.8601C24.9793 11.1122 24.9758 10.2469 24.5572 9.54686C24.1386 8.84684 23.3711 8.42461 22.5071 8.41975C22.0956 8.41975 21.6566 8.41975 21.1254 8.41975H20.011H18.8938H17.4382L17.4755 8.19196C17.4755 8.17391 17.4804 8.15863 17.4818 8.14405C17.486 8.10916 17.4926 8.07459 17.5015 8.04057C17.9711 6.45514 18.1865 4.80691 18.1396 3.15573C18.103 1.89182 17.5233 0.977905 16.3667 0.362612C15.8644 0.0959394 15.329 0.0410767 14.6782 0.0410767C14.5488 0.0410767 14.4158 0.0410765 14.287 0.0452433H14.2167C13.7946 0.0521879 13.5835 0.210526 13.4745 0.610536C13.3795 0.957766 13.2803 1.33139 13.198 1.69945C12.7611 3.66755 11.8711 5.37384 10.5534 6.76901C9.8787 7.485 9.16251 7.96765 8.36399 8.24474C8.29768 8.26988 8.22747 8.2835 8.15645 8.28502C7.91444 8.28502 7.80468 8.08641 7.76036 8.00099C7.31784 7.18777 6.63823 6.76971 5.74122 6.75929C5.09467 6.75165 4.40451 6.74818 3.57082 6.74818C2.97774 6.74818 2.37481 6.74818 1.79088 6.75165H0.665227C0.26351 6.75165 0.00390625 7.01138 0.00390625 7.4107C0.00390625 12.2136 0.00390625 17.2304 0.00390625 22.3222C0.00390625 22.7333 0.264917 22.9895 0.68563 22.9895H1.43911H3.52017C4.35315 22.9895 5.04895 22.9895 5.71027 22.9847C6.56225 22.9805 7.23201 22.6013 7.70197 21.8583C7.75192 21.7791 7.85604 21.6145 8.07203 21.6145C8.13845 21.6159 8.20414 21.6286 8.2662 21.652C8.58561 21.7645 8.91416 21.8708 9.23215 21.9735C9.50653 22.0624 9.79006 22.1541 10.068 22.2513C11.0761 22.5986 12.1188 22.9555 13.2113 22.9694C14.4566 22.9854 15.775 22.993 17.2419 22.993C18.3352 22.993 19.5248 22.9888 20.9854 22.9798C21.907 22.9743 22.7885 22.3111 23.0812 21.4041C23.2447 20.8974 23.2321 20.3514 23.0453 19.8527L22.9792 19.6631L23.172 19.6013C23.5522 19.4849 23.8981 19.2791 24.18 19.0016C24.4619 18.7241 24.6712 18.3832 24.7901 18.0082C25.0145 17.2665 24.8407 16.4685 24.3131 15.8199L24.2111 15.7081ZM6.74094 9.23018V20.4596C6.74094 21.3353 6.34344 21.7263 5.45347 21.7263H1.30615V8.02668H1.50806H2.69914H3.87756C4.59446 8.02668 5.17628 8.02668 5.70675 8.03502C6.26395 8.04057 6.68747 8.44822 6.73672 9.02671C6.74235 9.09546 6.74165 9.16421 6.74094 9.23018ZM21.0403 13.0581C21.2052 13.0538 21.3696 13.0394 21.5327 13.015C21.7139 12.9875 21.8968 12.9717 22.0801 12.9678C22.2184 12.9657 22.3564 12.9835 22.4895 13.0206C22.5324 13.031 22.5763 13.037 22.6204 13.0386C22.6856 13.0423 22.7504 13.0519 22.8139 13.0671C23.018 13.1176 23.201 13.2296 23.3377 13.3875C23.4744 13.5455 23.5578 13.7415 23.5765 13.9484C23.6014 14.1392 23.5671 14.3329 23.4781 14.5041C23.3892 14.6753 23.2499 14.8159 23.0784 14.9074C22.8766 15.0088 22.654 15.0632 22.4276 15.0664C22.2468 15.0727 22.0484 15.0762 21.8029 15.0762H21.4286H21.0557H20.9052C20.4943 15.0762 20.2185 15.3345 20.2199 15.713C20.2213 16.0915 20.5014 16.3422 20.9129 16.3442H21.9028C22.1427 16.3442 22.3376 16.3442 22.5163 16.3491C23.0235 16.3595 23.4055 16.6422 23.5378 17.1061C23.6658 17.5526 23.4921 17.9998 23.1065 18.2172C22.908 18.3252 22.6865 18.3858 22.46 18.3943C22.2721 18.4019 22.0667 18.4054 21.8134 18.4054H21.4138H21.017H20.9361C20.5189 18.4054 20.2382 18.638 20.2206 18.9943C20.2016 19.3811 20.4444 19.636 20.8707 19.6763C21.4828 19.7339 21.926 20.1902 21.9007 20.7381C21.8739 21.3117 21.4082 21.7284 20.7989 21.7298C19.5164 21.7298 18.4477 21.7298 17.3397 21.7298C15.9861 21.7298 14.8027 21.7298 13.7207 21.7215C12.8675 21.7084 12.022 21.5595 11.2168 21.2805C10.2804 20.9659 9.34261 20.6596 8.43083 20.3714C8.14308 20.2804 8.02067 20.1152 8.02278 19.8158C8.03122 18.5769 8.02982 17.3158 8.02911 16.0991C8.02911 15.7121 8.02911 15.325 8.02911 14.938C8.02911 14.5509 8.02911 14.1653 8.02911 13.781C8.02911 12.5705 8.02911 11.3191 8.02348 10.0878C8.02348 9.78159 8.1459 9.62603 8.45334 9.55033C9.54804 9.2788 10.5485 8.65309 11.5095 7.63709C12.9869 6.07525 13.9902 4.14326 14.4918 1.8939C14.5621 1.57306 14.6191 1.31958 14.9589 1.31958C15.0735 1.32511 15.1876 1.33904 15.3001 1.36125C16.1943 1.50917 16.8134 2.22446 16.8416 3.14184C16.9023 4.8096 16.6587 6.47455 16.1226 8.05724C16.0374 8.30655 15.877 8.42253 15.6188 8.42253H15.5865C15.4043 8.41697 15.2073 8.41419 14.9681 8.41419C14.8105 8.41419 14.6522 8.41419 14.4946 8.41419H14.19C13.9923 8.40701 13.7998 8.47743 13.6546 8.61003C13.5971 8.66953 13.5524 8.73987 13.5231 8.81684C13.4939 8.89382 13.4807 8.97583 13.4843 9.05796C13.4878 9.43088 13.7657 9.68297 14.1836 9.68297H17.1856C18.8741 9.68297 20.6139 9.68297 22.3277 9.68297C22.5143 9.67912 22.7004 9.70133 22.8807 9.74895C23.0883 9.81567 23.269 9.94582 23.3967 10.1206C23.5245 10.2954 23.5926 10.5057 23.5913 10.7212C23.5861 10.9309 23.5169 11.1342 23.3928 11.3044C23.2686 11.4747 23.0953 11.604 22.8955 11.6754C22.8184 11.6974 22.7391 11.7114 22.6591 11.717C22.608 11.7201 22.5574 11.728 22.5078 11.7407C22.3736 11.7786 22.2345 11.7969 22.0949 11.7948C21.9097 11.7904 21.7249 11.7742 21.5419 11.7462C21.3758 11.7209 21.2083 11.7061 21.0403 11.7018C20.6695 11.7018 20.2646 11.7948 20.2305 12.3872C20.2305 12.9203 20.6716 13.0581 21.0403 13.0581Z" fill="#1F3792"/>
<path d="M4.65504 19.0499C4.65423 19.1326 4.6368 19.2143 4.60377 19.2902C4.57075 19.3662 4.52278 19.435 4.46264 19.4925C4.40251 19.5501 4.33141 19.5953 4.25345 19.6255C4.17549 19.6558 4.09224 19.6704 4.0085 19.6687C3.92374 19.669 3.83977 19.6527 3.76149 19.6206C3.68321 19.5885 3.6122 19.5414 3.55261 19.4819C3.49241 19.4204 3.44528 19.3478 3.41398 19.2681C3.38269 19.1884 3.36787 19.1034 3.37039 19.018C3.37131 18.9356 3.38871 18.8542 3.4216 18.7785C3.4545 18.7028 3.50223 18.6342 3.56205 18.5768C3.62188 18.5193 3.69262 18.4741 3.7702 18.4438C3.84778 18.4134 3.93068 18.3985 4.01413 18.3999V18.3013V18.3999C4.09887 18.3992 4.18288 18.4153 4.26119 18.4473C4.3395 18.4793 4.41051 18.5264 4.47002 18.586C4.53062 18.6473 4.57821 18.7198 4.60998 18.7995C4.64176 18.8792 4.65708 18.9643 4.65504 19.0499Z" fill="#1F3792"/>
</svg>
