<svg width="57" height="42" viewBox="0 0 57 42" fill="none" xmlns="http://www.w3.org/2000/svg">
<path d="M56.8843 31.8791C56.8159 32.0469 56.7358 32.2102 56.6778 32.381C56.2323 33.6284 55.3933 34.4378 54.1013 34.7467C53.7434 34.8328 53.6261 34.8744 53.8221 35.3006C54.0567 35.8085 54.1191 36.3995 54.2305 36.9594C54.4933 38.296 54.7651 39.6429 54.973 40.9943C55.0175 41.275 54.9106 41.722 54.7101 41.8616C54.5649 41.9414 54.4038 41.988 54.2385 41.998C54.0731 42.008 53.9075 41.9812 53.7538 41.9195C52.144 41.177 50.5565 40.3721 48.9734 39.5657C48.718 39.4203 48.4963 39.2224 48.3229 38.985C47.5002 37.9366 46.6909 36.8772 45.8949 35.807C45.8055 35.6699 45.6812 35.5591 45.5348 35.486C45.3883 35.4129 45.2251 35.3802 45.0618 35.3912C43.4282 35.412 41.7947 35.4001 40.1715 35.3986C40.0049 35.4079 39.8379 35.4014 39.6725 35.3793C39.2166 35.2887 38.93 35.011 38.9538 34.5358C38.9775 34.0606 39.2671 33.7933 39.7557 33.7933C40.663 33.7859 41.5704 33.7933 42.4778 33.7933C43.4787 33.7933 44.4796 33.8126 45.4791 33.7844C46.7978 33.7487 47.8715 32.828 48.0185 31.6518C48.1833 30.3391 47.5062 29.1911 46.2944 28.8302C45.8647 28.7203 45.4219 28.6703 44.9786 28.6817C40.9016 28.6718 36.8262 28.6718 32.7522 28.6817C32.5487 28.6817 32.3438 28.6817 32.1403 28.6817C31.6948 28.6892 31.2835 28.6446 31.083 28.1545C30.9033 27.709 31.1632 27.412 31.426 27.115C32.3725 26.0478 33.32 24.9815 34.2684 23.9162C34.6248 23.5152 34.9723 23.1054 35.3421 22.7163C35.5545 22.492 35.5931 22.3213 35.3867 22.0525C33.5571 19.6764 31.7374 17.2914 29.9276 14.8975C29.6722 14.5604 29.4628 14.6554 29.1777 14.7935C26.0947 16.2786 23.0107 17.7636 19.9258 19.2487C19.7773 19.3215 19.6288 19.3972 19.4803 19.464C18.9486 19.6853 18.5076 19.5442 18.3056 19.0972C18.1036 18.6502 18.2789 18.2611 18.7868 18.0131C20.4664 17.1934 22.1519 16.3885 23.8359 15.5777C25.2527 14.8955 26.6704 14.2144 28.0891 13.5342C28.6683 13.255 28.6653 13.2521 28.2614 12.7219C26.3724 10.2493 24.473 7.78559 22.6078 5.29665C22.3122 4.89997 22.1061 4.44401 22.0034 3.9601C21.8296 3.06907 22.1489 2.30575 22.8499 1.73252C23.2954 1.36869 23.7528 1.02267 24.2146 0.681109C25.4695 -0.245562 26.8714 -0.061416 27.8278 1.19197C29.993 4.01356 32.1512 6.83961 34.3026 9.67012C35.0674 10.6696 35.8188 11.6824 36.6059 12.664C36.7899 12.8849 37.0354 13.0462 37.3113 13.1273C39.2047 13.6278 41.116 14.0674 43.0065 14.5827C44.6106 15.018 46.0337 15.9546 47.0681 17.2558C47.5002 17.7874 47.5136 18.2314 47.1052 18.5685C46.7295 18.8819 46.2632 18.8017 45.8563 18.3131C44.855 17.1048 43.4724 16.2732 41.9357 15.9549C40.963 15.7351 39.9977 15.4796 39.0265 15.248C38.9051 15.2306 38.7822 15.2251 38.6597 15.2316C38.6968 15.3476 38.7466 15.4592 38.8082 15.5643C39.9388 17.0493 41.0719 18.5374 42.2075 20.0283C45.332 24.1192 48.4576 28.2105 51.5841 32.3023C52.236 33.1562 53.0885 33.4398 53.9676 33.1102C55.2344 32.6335 55.6205 31.135 54.7517 29.9916C52.9697 27.6432 51.1846 25.3013 49.3966 22.9658C48.9704 22.4059 48.5398 21.849 48.1195 21.2847C47.6992 20.7204 47.7259 20.2853 48.1477 19.9734C48.5695 19.6615 48.9912 19.77 49.4174 20.3268C51.351 22.8584 53.2815 25.3909 55.2091 27.9244C55.8818 28.8065 56.614 29.65 56.8753 30.7712L56.8843 31.8791ZM43.3079 27.0645C43.8262 27.0645 44.3475 27.0734 44.8628 27.0645C45.0406 27.0456 45.2165 27.0113 45.3885 26.962C45.3162 26.8141 45.2349 26.6708 45.1449 26.5329C43.5856 24.4855 42.0248 22.4391 40.4626 20.3937C37.439 16.4335 34.4194 12.4734 31.4038 8.51327C31.1067 8.1123 30.9003 8.10339 30.5395 8.41228C30.0197 8.8578 29.4539 9.24688 28.9059 9.66715C28.1857 10.227 28.2807 10.0815 28.7574 10.7067C32.5057 15.6252 36.2985 20.508 39.9918 25.4725C40.8754 26.6561 41.7293 27.4937 43.3079 27.063V27.0645ZM49.6001 32.4107C49.5299 32.4995 49.4677 32.5944 49.4145 32.6943C49.0744 33.5833 48.4396 34.3288 47.6161 34.8061C47.3265 34.9739 47.3933 35.1194 47.5552 35.3259C48.0675 35.9822 48.5754 36.6401 49.0684 37.3099C49.2466 37.5519 49.3937 37.6069 49.6476 37.402C50.3278 36.8614 51.0178 36.3342 51.7178 35.8204C51.9658 35.6377 51.9999 35.4907 51.8009 35.2397C51.1386 34.3977 50.4956 33.5393 49.8436 32.6884C49.7768 32.6052 49.7011 32.5265 49.6001 32.4122V32.4107ZM25.8853 1.68203C25.731 1.70765 25.5811 1.75464 25.4398 1.82163C24.8874 2.22259 24.3201 2.61019 23.8062 3.06016C23.4543 3.37202 23.5003 3.80269 23.7676 4.16801C24.1463 4.69075 24.5592 5.19121 24.9393 5.71395C25.1131 5.95304 25.2675 5.95007 25.4858 5.77929C26.1853 5.23279 26.8862 4.68926 27.6005 4.16355C27.8515 3.97792 27.8144 3.83239 27.6481 3.62299C27.2575 3.13144 26.9055 2.61316 26.4927 2.13794C26.3323 1.93746 26.0739 1.81717 25.8853 1.68203ZM36.4292 27.0601H38.7592C39.0562 27.0601 39.1305 26.9576 38.9344 26.7022C38.2414 25.7943 37.5484 24.8845 36.8554 23.9726C36.6876 23.7499 36.5584 23.7662 36.3802 23.9726C35.5916 24.8756 34.7897 25.7696 33.9967 26.6695C33.9322 26.7564 33.8755 26.8488 33.8274 26.9457C33.9334 27.0007 34.047 27.0398 34.1645 27.0615C34.9204 27.066 35.6762 27.0601 36.4336 27.0601H36.4292ZM27.3912 8.76276C27.4847 8.6989 27.5783 8.6395 27.6659 8.57415C28.0772 8.26229 28.4871 7.94746 28.8985 7.63412C30.1207 6.70745 30.1118 6.71487 29.1198 5.53425C28.9089 5.28328 28.7678 5.29368 28.5391 5.48228C28.1381 5.80899 27.7179 6.11045 27.308 6.42528C26.0873 7.36681 26.0888 7.36681 27.0912 8.52366C27.1367 8.58157 27.1864 8.63616 27.2397 8.68702C27.2868 8.71844 27.3377 8.74388 27.3912 8.76276ZM53.0929 39.6013C52.9444 38.8157 52.8152 38.1267 52.6637 37.4435C52.6175 37.4129 52.565 37.3928 52.51 37.3849C52.4551 37.3769 52.399 37.3812 52.3459 37.3975C51.8796 37.7272 51.4252 38.0737 50.9827 38.437C50.9573 38.482 50.9426 38.5321 50.9398 38.5836C50.937 38.6351 50.946 38.6866 50.9663 38.734C51.5861 39.0608 52.2133 39.3726 52.8479 39.6696C52.9058 39.6964 53.0157 39.6221 53.0929 39.6013Z" fill="#1F3792"/>
<path d="M0 29.7761C0 26.7229 0 23.6662 0 20.606C0 19.7773 0.258399 19.4922 1.08706 19.4877C3.53145 19.4758 5.97683 19.4758 8.42321 19.4877C9.2281 19.4877 9.50284 19.7625 9.48947 20.5584C9.48947 20.9891 9.64986 21.1049 10.0419 21.0931C10.6894 21.0752 11.3398 21.1079 11.9858 21.0797C12.2609 21.0631 12.5303 20.9951 12.7803 20.8792C13.6714 20.4693 14.5476 20.0283 15.4326 19.608C16.0489 19.311 16.4885 19.4135 16.7291 19.8783C16.9697 20.3431 16.7662 20.7589 16.1529 21.0574C15.1728 21.5371 14.1941 22.0242 13.1991 22.4712C12.8778 22.6085 12.534 22.6855 12.1848 22.6984C11.4819 22.734 10.7775 22.734 10.0746 22.6984C9.59788 22.6746 9.48947 22.8558 9.49244 23.3028C9.50729 27.1639 9.50135 31.0102 9.50135 34.8624C9.50135 35.3629 9.52957 35.8663 9.49244 36.3623C9.45532 36.8584 9.61273 37.0173 10.1102 37.0039C11.276 36.9727 12.4447 37.0232 13.6105 36.9831C14.3314 36.9523 15.0465 37.1241 15.6747 37.4791C17.1618 38.3257 18.8377 38.7853 20.5486 38.8157C22.5827 38.8573 24.5821 38.2843 26.2854 37.1717C27.8892 36.1411 29.4857 35.0926 31.1029 34.0872C31.3972 33.9061 31.7332 33.8038 32.0786 33.7902C33.4493 33.7576 34.82 33.7739 36.1907 33.7784C36.8664 33.7784 37.1812 34.0293 37.1975 34.5446C37.2139 35.06 36.8575 35.3837 36.1907 35.3882C34.9863 35.3882 33.7819 35.3703 32.579 35.4045C32.2351 35.4142 31.8994 35.5113 31.6034 35.6867C30.1866 36.5643 28.7981 37.485 27.3918 38.3805C23.4593 40.8828 19.3918 41.1279 15.2143 39.0518C14.6283 38.7414 13.9719 38.588 13.309 38.6063C12.2175 38.6449 11.123 38.6271 10.03 38.6063C9.67362 38.6063 9.4969 38.6671 9.49838 39.0859C9.49838 39.8745 9.25335 40.1106 8.45885 40.1121C5.99465 40.119 3.53095 40.119 1.06775 40.1121C0.233153 40.1166 0 39.8611 0 39.0072V29.7761ZM1.60979 29.8252C1.60979 32.5265 1.61722 35.2293 1.60237 37.932C1.60237 38.3508 1.70187 38.5261 2.15035 38.5261C3.88984 38.5063 5.62933 38.5063 7.36882 38.5261C7.77869 38.5261 7.90195 38.3924 7.90047 37.9796C7.88859 32.5344 7.88859 27.0922 7.90047 21.6529C7.90047 21.2237 7.74305 21.1153 7.35248 21.1183C5.63131 21.1302 3.91014 21.1361 2.18896 21.1183C1.72266 21.1183 1.59494 21.2757 1.59494 21.7287C1.61871 24.4196 1.60979 27.1268 1.60979 29.8252Z" fill="#1F3792"/>
<path d="M5.55737 35.2441C5.55737 35.2887 5.59301 35.4936 5.50984 35.6095C5.34055 35.8456 5.12819 36.1604 4.88909 36.2035C4.65 36.2466 4.15845 36.0372 4.12429 35.8887C4.03018 35.3625 4.03724 34.8232 4.14508 34.2997C4.17627 34.1511 4.67673 33.97 4.93067 34.0026C5.544 34.0962 5.56331 34.6264 5.55737 35.2441Z" fill="#92D7D7"/>
</svg>
