<svg width="39" height="37" viewBox="0 0 39 37" fill="none" xmlns="http://www.w3.org/2000/svg">
<path d="M37.2072 15.3437C37.052 15.1648 36.8861 14.9882 36.7273 14.8176C36.5887 14.6707 36.4465 14.5178 36.3102 14.3638C35.9987 14.0296 35.7626 13.6323 35.618 13.1989C35.4735 12.7655 35.4239 12.306 35.4725 11.8517C35.5151 11.4263 35.5637 11.0009 35.6076 10.6253C35.6253 10.4725 35.6419 10.3267 35.6562 10.194C35.6467 7.90707 34.2224 5.98274 32.1108 5.40449C31.779 5.31325 31.4319 5.25045 31.0953 5.18765C30.9879 5.16869 30.8801 5.14855 30.7719 5.12722C29.6995 4.92104 28.8914 4.3499 28.3724 3.42802C28.3001 3.30005 28.2313 3.1697 28.1626 3.03936C28.0365 2.79028 27.8977 2.54784 27.7467 2.313C26.5641 0.547443 24.9621 -0.201436 22.988 0.0865037C22.2913 0.187223 21.604 0.490567 20.9393 0.783246L20.7272 0.876855C19.6406 1.35083 18.6251 1.34253 17.6214 0.847232L17.4579 0.766656C17.1747 0.624464 16.8809 0.478717 16.5834 0.363778C15.7706 0.0533255 15.0312 -0.0568735 14.3178 0.0272569C12.4717 0.245285 11.1387 1.18494 10.3625 2.80474C9.6729 4.24444 8.6029 5.02176 6.99139 5.24927C4.81348 5.55972 3.27425 6.96861 2.87848 9.01973C2.75999 9.65485 2.75406 10.3919 2.87848 11.2711C3.06925 12.6717 2.71851 13.7808 1.80493 14.6624C1.55943 14.8947 1.32908 15.1424 1.1153 15.4042C0.138909 16.6116 -0.198798 18.0015 0.111655 19.5325C0.313094 20.5243 0.829726 21.3916 1.73857 22.2578C2.53959 23.0257 2.92351 23.848 2.92351 24.7711C2.91423 25.177 2.8786 25.5819 2.81686 25.9833C2.80146 26.0958 2.78605 26.2096 2.77302 26.3233C2.61641 27.4983 2.90019 28.6896 3.56967 29.6678C4.23915 30.646 5.24696 31.3418 6.39892 31.6212C6.67146 31.6911 6.95466 31.7397 7.22837 31.793C7.36938 31.8191 7.51157 31.8451 7.65258 31.8736C8.15446 31.962 8.62962 32.1636 9.04206 32.4629C9.45451 32.7622 9.79342 33.1515 10.0331 33.6012C10.0971 33.7197 10.1587 33.8382 10.2203 33.9567C10.345 34.2065 10.483 34.4493 10.6339 34.6842C11.8046 36.4356 13.3912 37.188 15.3499 36.9178C16.1 36.8147 16.837 36.4877 17.5492 36.1713L17.6143 36.1417C18.1148 35.9093 18.6587 35.7849 19.2104 35.7767C19.7495 35.7798 20.2804 35.9093 20.7603 36.1547L20.9156 36.2318C21.2011 36.3751 21.4974 36.5233 21.7972 36.6382C23.3755 37.2472 24.9029 37.0861 26.3355 36.1642C27.0879 35.6784 27.6673 34.9663 28.2136 33.856C28.7835 32.6995 29.703 32.0252 30.9472 31.8546C31.0337 31.8428 31.1202 31.8262 31.2055 31.8096L31.3809 31.7764C33.0848 31.4873 34.3338 30.6104 35.0933 29.1695C35.6253 28.1624 35.7735 27.0367 35.5341 25.8209C35.2521 24.3883 35.6147 23.2307 36.642 22.278C36.863 22.0657 37.0703 21.8397 37.2629 21.6014C37.9909 20.7183 38.3844 19.6069 38.3743 18.4624C38.3641 17.318 37.9509 16.2137 37.2072 15.3437ZM36.1597 20.4769C35.9577 20.7369 35.7363 20.9813 35.4974 21.208C34.1501 22.5232 33.6536 24.0708 33.9807 25.9406C34.0615 26.3385 34.0909 26.7451 34.0683 27.1504C33.925 28.7216 32.9415 29.8213 31.3714 30.1696C31.1842 30.2111 30.9934 30.2455 30.8086 30.2798C30.6237 30.3142 30.4294 30.3497 30.2422 30.3912C28.8203 30.7088 27.7254 31.5276 27.0002 32.8251C26.9338 32.9436 26.8699 33.0621 26.8047 33.1805C26.6862 33.3974 26.5677 33.6202 26.4397 33.8323C25.7963 34.8738 24.8341 35.3727 23.3186 35.4604H23.3008L23.2842 35.4533C23.1764 35.413 23.0473 35.3691 22.9074 35.3205C22.4731 35.1814 22.0484 35.0139 21.636 34.8193C20.3966 34.2067 19.2353 34.0479 18.0812 34.3335C17.533 34.4896 17.0018 34.7004 16.4958 34.9627C14.5003 35.9201 12.7573 35.3596 11.7145 33.4223C11.2963 32.6473 10.8235 31.8416 10.0556 31.255C9.18589 30.595 8.17632 30.3616 7.30421 30.2194C5.53984 29.9398 4.42245 28.7821 4.30988 27.135C4.29543 26.7125 4.32441 26.2896 4.39638 25.8731C4.41889 25.7166 4.44022 25.5591 4.45681 25.3991C4.61441 23.9511 4.19257 22.6548 3.20078 21.5469C3.08229 21.4141 2.95431 21.2838 2.83108 21.157C2.70785 21.0302 2.5858 20.907 2.46731 20.7755C1.23971 19.4104 1.2563 17.5169 2.50878 16.172C2.62727 16.0393 2.77065 15.8971 2.94365 15.7253C4.22693 14.4479 4.70683 12.9336 4.40941 11.0969C4.31746 10.6116 4.29512 10.1157 4.34306 9.62405C4.5125 8.24004 5.48415 7.17952 6.87289 6.85722C7.09092 6.80627 7.31488 6.76598 7.53053 6.72569C7.74619 6.68541 7.96303 6.6463 8.17632 6.59654C8.84022 6.45339 9.46575 6.16972 10.0109 5.76463C10.556 5.35953 11.008 4.84239 11.3365 4.248C11.4302 4.08566 11.5202 3.9174 11.6079 3.75506C11.6956 3.59273 11.7797 3.43394 11.8698 3.28109C12.7573 1.74067 14.5157 1.16242 16.1462 1.87813C16.3453 1.96581 16.5562 2.06771 16.8299 2.20635C18.4011 3.00263 19.951 3.00263 21.5696 2.20635C22.0435 1.95224 22.5481 1.76028 23.071 1.63521C23.7166 1.51073 24.3848 1.58818 24.9849 1.85702C25.5849 2.12586 26.0875 2.57304 26.4243 3.13771C26.563 3.36166 26.6886 3.5951 26.8094 3.8226C26.8687 3.93162 26.9279 4.04063 26.9872 4.14846C27.7526 5.52891 28.9399 6.37732 30.5159 6.66882L30.7707 6.71385C30.9733 6.75058 31.1842 6.78731 31.3904 6.83234C33.2093 7.23759 34.2532 8.71046 34.0482 10.585L34.0233 10.8125C33.9439 11.3892 33.9086 11.9711 33.9179 12.5532C33.97 13.718 34.4594 14.7489 35.4168 15.7051C35.6639 15.9435 35.8965 16.1963 36.1135 16.4623C36.5634 17.0326 36.8116 17.736 36.8193 18.4623C36.827 19.1887 36.5938 19.8971 36.1562 20.4769H36.1597Z" fill="#1F3792"/>
<path d="M12.7788 25.9214C11.9339 25.912 11.5488 25.2211 11.8889 24.6417C12.002 24.4672 12.137 24.3079 12.2906 24.1677C16.4774 19.9762 20.6661 15.7871 24.8568 11.6003C24.9871 11.4596 25.1308 11.3318 25.2858 11.2188C25.4478 11.1024 25.6458 11.0472 25.8446 11.0628C26.0435 11.0784 26.2304 11.1638 26.3723 11.304C26.5142 11.4442 26.6019 11.6301 26.6199 11.8288C26.638 12.0274 26.5851 12.2261 26.4707 12.3895C26.3682 12.5339 26.2515 12.6677 26.1223 12.7888C21.9134 17.0001 17.7022 21.2086 13.4886 25.4143C13.2456 25.656 12.9305 25.8148 12.7788 25.9214Z" fill="#1F3792"/>
<path d="M26.6915 24.7899C26.6842 25.5438 26.4536 26.2787 26.0288 26.9016C25.604 27.5244 25.004 28.0074 24.3048 28.2894C23.6056 28.5714 22.8385 28.6398 22.1004 28.4859C21.3623 28.3321 20.6864 27.9629 20.1581 27.425C19.6298 26.8871 19.2728 26.2046 19.1323 25.4639C18.9917 24.7231 19.0739 23.9574 19.3685 23.2633C19.663 22.5693 20.1567 21.9782 20.7872 21.5647C21.4176 21.1511 22.1564 20.9338 22.9104 20.9401C23.9215 20.9516 24.8869 21.3631 25.5955 22.0846C26.3041 22.806 26.6981 23.7787 26.6915 24.7899ZM24.9698 24.7496C24.9583 24.1966 24.7311 23.67 24.3365 23.2823C23.9419 22.8946 23.4114 22.6766 22.8582 22.6748C22.3048 22.678 21.7753 22.9008 21.3862 23.2944C20.9971 23.6879 20.7803 24.2199 20.7834 24.7733C20.7866 25.3268 21.0094 25.8563 21.403 26.2454C21.7965 26.6345 22.3285 26.8513 22.8819 26.8482C23.4351 26.8404 23.9633 26.6165 24.3535 26.2244C24.7437 25.8322 24.9649 25.3028 24.9698 24.7496Z" fill="#92D7D7"/>
<path d="M15.4926 8.42383C16.5048 8.42383 17.4756 8.82594 18.1914 9.54171C18.9072 10.2575 19.3093 11.2283 19.3093 12.2405C19.3093 13.2527 18.9072 14.2235 18.1914 14.9393C17.4756 15.6551 16.5048 16.0572 15.4926 16.0572C13.4225 16.075 11.6807 14.3284 11.6807 12.2381C11.6825 11.2275 12.0847 10.2588 12.7991 9.54392C13.5135 8.82908 14.482 8.42633 15.4926 8.42383ZM15.4725 14.3177C15.7463 14.319 16.0178 14.2664 16.2713 14.1628C16.5248 14.0592 16.7555 13.9067 16.9501 13.714C17.1447 13.5213 17.2994 13.2921 17.4054 13.0396C17.5114 12.7871 17.5667 12.5162 17.568 12.2423C17.5693 11.9684 17.5167 11.697 17.4131 11.4434C17.3095 11.1899 17.157 10.9593 16.9643 10.7647C16.7716 10.5701 16.5424 10.4154 16.2899 10.3093C16.0374 10.2033 15.7665 10.148 15.4926 10.1467C14.9395 10.1441 14.408 10.3612 14.015 10.7504C13.622 11.1396 13.3997 11.669 13.397 12.2221C13.3944 12.7752 13.6115 13.3068 14.0007 13.6997C14.39 14.0927 14.9194 14.315 15.4725 14.3177Z" fill="#92D7D7"/>
</svg>
