<svg width="38" height="38" viewBox="0 0 38 38" fill="none" xmlns="http://www.w3.org/2000/svg">
<path d="M20.3189 37.0619H4.14961C3.5955 37.0619 3.5785 37.0619 3.5985 36.4968C3.63351 35.5156 3.55149 34.5014 3.76954 33.5602C4.22663 31.5918 5.5629 30.4205 7.5403 30.0115C7.81935 29.9534 7.91237 29.8294 8.01339 29.5844C8.39847 28.6492 8.24944 27.884 7.5393 27.1239C6.81415 26.3497 6.5571 25.3465 6.5911 24.2833C6.60811 23.7112 6.5911 23.1321 6.67212 22.569C6.95618 20.6356 8.76454 19.1423 10.773 19.1453C12.7814 19.1483 14.5887 20.6526 14.8418 22.592C14.9275 23.3843 14.9412 24.1827 14.8828 24.9774C14.8282 25.8501 14.4636 26.6745 13.8546 27.3019C13.2725 27.927 13.1314 28.5552 13.4315 29.3603C13.5805 29.7604 13.6935 30.0255 14.1696 30.0755C14.5187 30.1125 14.8638 30.2695 15.1928 30.4135C15.793 30.6756 16.172 30.4425 16.173 29.7804C16.173 27.696 16.173 25.6126 16.173 23.5292C16.1629 22.8289 16.307 22.135 16.5951 21.4967C16.6637 21.3527 16.6894 21.1919 16.6691 21.0336C16.131 18.2241 14.5237 16.2907 11.8682 15.2325C11.3781 15.0324 11.3681 15.0494 11.232 15.5565C11.0907 16.0657 10.784 16.5133 10.3603 16.8289C9.93655 17.1446 9.41984 17.3103 8.89157 17.2999C8.3693 17.2845 7.86721 17.0948 7.46533 16.7609C7.06345 16.427 6.78492 15.9681 6.67412 15.4575C6.60211 15.1104 6.47408 15.0654 6.17402 15.1795C3.35545 16.2587 1.68611 18.2721 1.22002 21.2607C1.17199 21.6191 1.14893 21.9803 1.15101 22.3419C1.15101 22.599 1.04198 22.688 0.789933 22.696C-0.0102286 22.72 -0.0102286 22.727 0.00277401 21.9118C0.0797896 18.2991 2.64631 15.0054 6.18102 13.9802C6.27951 13.9657 6.37547 13.9374 6.46608 13.8962C6.5661 13.8282 6.69613 13.7352 6.72113 13.6302C6.73813 13.5571 6.62111 13.4151 6.53509 13.3581C6.22503 13.1683 5.96234 12.9103 5.76701 12.6037C5.57168 12.2971 5.44885 11.95 5.40787 11.5887C5.38086 11.3887 5.30785 11.3307 5.11481 11.2937C3.71452 11.0286 2.98838 10.1494 2.99838 8.73716C3.00638 7.53692 2.95737 6.33668 3.0764 5.14944C3.33645 2.53691 5.54989 0.358469 8.14742 0.0484062C11.3701 -0.341673 14.1796 1.65973 14.8018 4.82737C14.9268 5.4685 14.9018 6.14064 14.9208 6.79977C14.9398 7.4589 14.9268 8.14704 14.9208 8.82118C14.9208 10.1104 14.1666 11.0306 12.8974 11.2677C12.6393 11.3167 12.5263 11.3957 12.4883 11.6678C12.3883 12.3859 12.0082 12.936 11.4001 13.3371C11.3001 13.4021 11.175 13.5641 11.2 13.6372C11.2292 13.6994 11.2709 13.755 11.3225 13.8005C11.3742 13.8459 11.4346 13.8802 11.5001 13.9012C14.5517 14.8104 16.5761 16.7688 17.5513 19.8024C17.6733 20.1835 17.8324 19.9844 18.0004 19.8734C20.4759 18.2491 23.7066 19.5123 24.3857 22.3819C24.4655 22.734 24.5051 23.0941 24.5037 23.4551C24.5147 25.5886 24.5087 27.722 24.5097 29.8564C24.5097 30.4085 24.9148 30.6486 25.4259 30.4435C25.874 30.2645 26.3501 30.1565 26.8042 29.9905C26.9448 29.9414 27.0605 29.839 27.1263 29.7054C27.2616 29.2907 27.3689 28.8673 27.4473 28.4381C27.4595 28.282 27.4163 28.1265 27.3253 27.9991C27.0612 27.606 26.7602 27.2379 26.4901 26.8488C26.0014 26.1614 25.7474 25.3346 25.766 24.4913C25.781 23.7472 25.758 22.982 25.921 22.2639C26.3541 20.3585 28.1775 19.0552 30.1419 19.1503C32.1063 19.2453 33.7776 20.7346 34.0126 22.685C34.1127 23.5422 34.0747 24.4273 33.9976 25.2915C33.9286 26.0647 33.5396 26.7508 33.0144 27.3139C32.4573 27.914 32.2973 28.5142 32.5854 29.3023C32.7404 29.7274 32.8754 29.9625 33.3625 30.0695C35.587 30.5586 37.0823 32.47 37.0873 34.7424C37.0873 35.3539 37.0873 35.965 37.0873 36.5758C37.0873 37.0569 37.0813 37.0619 36.6042 37.0629H20.3189V37.0619ZM17.3183 27.3479C17.3183 28.7195 17.3183 30.0911 17.3183 31.4628C17.3183 32.1139 17.5183 32.3199 18.1594 32.3209C19.6057 32.3209 21.0524 32.3209 22.4993 32.3209C23.1505 32.3209 23.3585 32.1209 23.3585 31.4808C23.3585 28.7755 23.3585 26.0697 23.3585 23.3631C23.3535 21.6388 22.0282 20.2955 20.3479 20.2925C18.6475 20.2925 17.3273 21.6358 17.3203 23.3831C17.3153 24.7014 17.3193 26.0267 17.3193 27.3479H17.3183ZM4.14361 6.05362C4.14361 6.24066 4.14361 6.4277 4.14361 6.61473C4.14361 6.78377 4.17462 6.84178 4.38366 6.80277C4.92629 6.68429 5.47746 6.60904 6.03199 6.57773C7.00119 6.54872 7.83236 6.24066 8.5325 5.56252C8.94358 5.16244 8.95558 5.15344 9.38367 5.55652C10.1298 6.25666 11.004 6.57773 12.0302 6.57973C12.5303 6.57973 13.0304 6.69775 13.5305 6.79677C13.7205 6.83378 13.7836 6.81077 13.7806 6.62173C13.7806 6.31067 13.7876 5.99861 13.7806 5.68655C13.6995 3.27606 11.5861 1.18564 9.17963 1.12762C6.33005 1.05961 4.14661 3.19704 4.14361 6.05362ZM30.5239 35.9147C31.4241 35.9147 32.3193 35.9097 33.2175 35.9147C33.4555 35.9147 33.5506 35.8396 33.5456 35.5926C33.5325 35.0445 33.5556 34.4924 33.5375 33.9473C33.5265 33.6252 33.6376 33.4782 33.9686 33.5142C34.0683 33.5253 34.169 33.5253 34.2687 33.5142C34.6028 33.4772 34.7048 33.6342 34.6958 33.9523C34.6778 34.5124 34.6798 35.0745 34.7038 35.6346C34.7038 35.7296 34.8748 35.9047 34.9428 35.8946C35.2729 35.8436 35.659 36.0947 35.927 35.7356C35.964 35.6856 35.939 35.5896 35.939 35.5146C35.939 35.2405 35.939 34.9665 35.939 34.6914C35.9398 34.2164 35.847 33.7458 35.6658 33.3067C35.4846 32.8676 35.2187 32.4685 34.8831 32.1322C34.5476 31.796 34.1491 31.5291 33.7104 31.347C33.2717 31.1648 32.8013 31.0709 32.3263 31.0707C30.73 31.0607 29.134 31.0607 27.5383 31.0707C27.1913 31.0923 26.8466 31.1432 26.5081 31.2227C26.2251 31.2737 26.1801 31.3757 26.3631 31.6448C26.6822 32.1149 27.0132 32.601 27.2013 33.1291C27.3893 33.6572 27.4233 34.2443 27.5013 34.8084C27.5463 35.1505 27.4083 35.6456 27.5883 35.8086C27.7984 35.9947 28.2665 35.9016 28.6226 35.9087C29.2527 35.9227 29.8878 35.9157 30.5239 35.9147ZM10.1328 35.9147C11.005 35.9147 11.8792 35.8977 12.7503 35.9227C13.1064 35.9327 13.1984 35.8056 13.1844 35.4736C13.1623 35.0501 13.1714 34.6255 13.2114 34.2033C13.3044 33.2527 13.6922 32.355 14.3207 31.6358C14.5207 31.4057 14.4597 31.2857 14.1946 31.2357C13.8546 31.1697 13.5095 31.0827 13.1654 31.0797C11.5571 31.0627 9.94778 31.0437 8.34046 31.0887C7.80748 31.1022 7.28305 31.2258 6.80015 31.4518C5.33985 32.1649 4.70872 33.4011 4.74073 35.0095C4.75974 35.9867 4.74073 35.9807 5.71593 35.9187C5.92897 35.9057 5.99799 35.8256 5.99498 35.6246C5.98698 35.1755 5.99498 34.7244 5.99498 34.2773C5.99498 33.4932 5.99498 33.5022 6.76814 33.5152C7.0402 33.5202 7.15022 33.6152 7.14522 33.8912C7.13421 34.4524 7.15222 35.0135 7.13822 35.5746C7.13121 35.8346 7.22223 35.9227 7.48229 35.9197C8.36246 35.9037 9.24764 35.9147 10.1328 35.9157V35.9147ZM10.7439 27.529C12.4093 27.529 12.4093 27.529 13.2915 26.1507C13.2994 26.1409 13.3061 26.1301 13.3115 26.1187C13.4655 25.6256 13.6765 25.1405 13.7576 24.6344C13.8346 24.1603 13.7866 23.6642 13.7716 23.1791C13.7275 21.7098 12.5483 20.4605 11.071 20.3015C9.59371 20.1425 8.10841 21.1417 7.84536 22.602C7.70733 23.3751 7.74534 24.1903 7.79035 24.9814C7.83736 25.7916 8.40647 26.3717 8.84256 27.0089C9.10661 27.4019 9.40067 27.602 9.88377 27.538C10.1658 27.502 10.4569 27.53 10.7439 27.53V27.529ZM29.9048 27.529C30.3279 27.529 30.753 27.539 31.1761 27.522C31.3081 27.519 31.4344 27.4677 31.5311 27.3779C32.3943 26.3777 33.1315 25.3225 32.9464 23.8942C32.9338 23.6827 32.9321 23.4708 32.9414 23.2591C32.9266 22.5164 32.6398 21.805 32.1354 21.2597C31.6311 20.7144 30.9441 20.3731 30.2049 20.3005C28.6706 20.1625 27.2483 21.1887 26.9882 22.708C26.8722 23.3881 26.8882 24.1003 26.9232 24.7934C26.9772 25.8766 27.7344 26.6088 28.3355 27.4129L29.8358 27.53C29.8548 27.532 29.8798 27.53 29.9048 27.53V27.529ZM20.3029 35.9147C21.3881 35.9147 22.4723 35.9057 23.5575 35.9207C23.8576 35.9207 23.9856 35.8446 23.9666 35.5206C23.9426 35.1105 23.9606 34.6984 23.9606 34.2873C23.9606 33.4592 23.9716 33.4542 24.7948 33.5122C25.0138 33.5282 25.1098 33.6182 25.1078 33.8352C25.1078 34.2353 25.0988 34.6354 25.1078 35.0355C25.1329 36.0687 24.8998 35.8917 26.031 35.9167C26.2691 35.9227 26.3681 35.8426 26.3581 35.5956C26.3431 35.2105 26.3791 34.8204 26.3451 34.4374C26.3074 33.913 26.1553 33.4033 25.8996 32.944C25.6438 32.4848 25.2906 32.087 24.8648 31.7788C24.6498 31.6158 24.5417 31.5628 24.4837 31.9238C24.3377 32.834 23.6456 33.4532 22.7744 33.4612C21.154 33.4772 19.5334 33.4772 17.9124 33.4612C17.522 33.4559 17.1446 33.3201 16.8404 33.0754C16.5362 32.8307 16.3227 32.4911 16.2341 32.1109C16.09 31.5528 16.07 31.5468 15.6109 31.9379C15.5639 31.9789 15.5189 32.0219 15.4729 32.0639C14.3927 33.0581 14.2356 34.3433 14.3327 35.7056C14.3557 36.0357 14.6407 35.9257 14.7958 35.9007C15.0548 35.8576 15.4039 36.1127 15.5659 35.7086C15.5818 35.6353 15.5845 35.5598 15.5739 35.4856C15.5739 35.0748 15.5739 34.6634 15.5739 34.2513C15.5739 33.4962 15.5739 33.5072 16.3331 33.5132C16.6281 33.5132 16.7332 33.6282 16.7232 33.9132C16.7101 34.4614 16.7332 35.0135 16.7152 35.5586C16.7061 35.8426 16.8152 35.9197 17.0842 35.9167C18.1564 35.9087 19.2287 35.9157 20.3029 35.9157V35.9147ZM6.53809 9.69836V11.2317C6.53809 11.2567 6.53809 11.2817 6.53809 11.3067C6.5571 12.0228 7.0532 12.5399 7.76234 12.5509C8.5625 12.5636 9.36 12.5636 10.1548 12.5509C10.3147 12.5536 10.4735 12.5243 10.6219 12.4647C10.7703 12.4052 10.9053 12.3166 11.019 12.2041C11.1327 12.0916 11.2227 11.9576 11.2839 11.8098C11.345 11.6621 11.376 11.5036 11.3751 11.3437C11.3891 10.2345 11.3751 9.12424 11.3831 8.01502C11.3831 7.78597 11.3071 7.67595 11.075 7.64294C10.3933 7.54529 9.74574 7.28263 9.18863 6.87779C9.0196 6.75676 8.89457 6.75176 8.72554 6.87779C8.17075 7.28618 7.52326 7.55047 6.84116 7.64694C6.60811 7.67995 6.52909 7.79097 6.53409 8.02002C6.5461 8.57713 6.53809 9.13824 6.53809 9.69836ZM10.2098 14.7324C10.1748 14.5123 10.1338 14.2943 10.1098 14.0732C10.0738 13.7872 9.93078 13.6732 9.63472 13.6962C9.25064 13.7202 8.86456 13.7012 8.47849 13.7022C7.87836 13.7022 7.87837 13.7022 7.76234 14.2883C7.60731 15.0814 7.84736 15.7156 8.40547 16.0106C9.22664 16.4457 10.2829 15.8056 10.2098 14.7334V14.7324ZM10.7329 29.9254H11.4801C12.4643 29.9254 12.4583 29.9254 12.1902 28.9763C12.1242 28.7412 12.0072 28.6632 11.7692 28.6712C11.269 28.6872 10.7689 28.6712 10.2758 28.6712C9.34866 28.6712 9.34866 28.6712 9.17563 29.5804C9.17391 29.5926 9.17124 29.6046 9.16763 29.6164C9.10661 29.8444 9.19063 29.9304 9.42768 29.9244C9.86176 29.9164 10.3009 29.9254 10.7329 29.9264V29.9254ZM29.9248 29.9254H30.635C31.6492 29.9254 31.6452 29.9254 31.3491 28.9522C31.2901 28.7572 31.2001 28.6662 30.984 28.6722C30.4749 28.6852 29.9638 28.6722 29.4537 28.6722C28.5235 28.6722 28.5285 28.6722 28.3405 29.5724C28.2875 29.8244 28.3295 29.9424 28.6186 29.9304C29.0536 29.9124 29.4897 29.9254 29.9248 29.9264V29.9254ZM5.38986 8.9412C5.38986 8.61614 5.38986 8.29207 5.38986 7.96801C5.38986 7.76797 5.31385 7.70295 5.11581 7.73796C4.5907 7.82798 4.15261 8.35108 4.14361 8.9142C4.13361 9.49232 4.5677 10.0344 5.10881 10.1334C5.29884 10.1685 5.39286 10.1194 5.38986 9.9134C5.38586 9.58933 5.38986 9.26527 5.38986 8.9412ZM12.5293 8.9162C12.5293 9.25327 12.5143 9.59033 12.5413 9.9254C12.5613 9.97676 12.5942 10.0221 12.6367 10.0571C12.6793 10.0922 12.7301 10.1157 12.7844 10.1254C13.3165 10.0774 13.7736 9.51232 13.7746 8.9372C13.7756 8.36209 13.3205 7.79697 12.7874 7.74696C12.7325 7.75606 12.681 7.77929 12.6378 7.81437C12.5947 7.84945 12.5614 7.89516 12.5413 7.947C12.5143 8.26707 12.5303 8.59213 12.5293 8.9162Z" fill="#1F3792"/>
<path d="M26.9255 2.37475C29.3093 2.37475 31.6925 2.37475 34.075 2.37475C36.0304 2.37475 37.2756 3.81004 37.0306 5.74743C36.7205 8.16892 36.4304 10.5944 36.1174 13.0169C36.0368 13.7065 35.7037 14.3419 35.1823 14.8003C34.6608 15.2587 33.9881 15.5078 33.2938 15.4994C31.1854 15.5067 29.077 15.5067 26.9685 15.4994C26.6598 15.4917 26.3567 15.5828 26.1034 15.7595C25.2182 16.3646 24.317 16.9467 23.4288 17.5478C22.8897 17.9129 22.3286 18.0299 21.7435 17.6998C21.1744 17.3808 20.9433 16.8677 20.9663 16.2295C20.9663 16.1795 20.9663 16.1295 20.9663 16.0795C20.9663 15.3994 20.9753 15.5164 20.4172 15.4954C19.0799 15.4444 17.9167 14.4072 17.7487 13.0949C17.4193 10.5611 17.0995 8.02722 16.7895 5.49338C16.5894 3.86205 17.9207 2.39275 19.59 2.38075C22.0355 2.36575 24.481 2.37475 26.9255 2.37475ZM26.9675 3.52098C24.561 3.52098 22.1542 3.52098 19.7471 3.52098C18.5048 3.52098 17.7707 4.39916 17.9467 5.62941C18.0797 6.54159 18.1778 7.45778 18.2938 8.37296C18.4868 9.89227 18.6619 11.4146 18.8829 12.9299C19.0119 13.8131 19.6831 14.3422 20.5832 14.3522C20.9453 14.3522 21.3084 14.3712 21.6685 14.3522C22.0285 14.3332 22.1286 14.4782 22.1126 14.8133C22.0885 15.2617 22.0885 15.7111 22.1126 16.1595C22.1236 16.3386 22.1866 16.5946 22.3126 16.6646C22.4386 16.7347 22.6927 16.6516 22.8397 16.5566C23.8139 15.9278 24.7808 15.2857 25.7403 14.6302C26.0147 14.4383 26.3438 14.3404 26.6785 14.3512C28.8479 14.3632 31.0183 14.3592 33.1878 14.3562C34.198 14.3562 34.8231 13.8291 34.9982 12.8309C35.0502 12.5368 35.0752 12.2387 35.1122 11.9417C35.3732 9.85326 35.6183 7.76284 35.9003 5.67642C36.0734 4.39016 35.3672 3.52598 34.077 3.52498C31.7065 3.52031 29.3367 3.51898 26.9675 3.52098Z" fill="#1F3792"/>
<path d="M29.9486 8.93709C29.9486 7.70184 29.9596 6.46759 29.9416 5.23634C29.9356 4.87026 30.0606 4.75924 30.4187 4.76724C31.3039 4.78825 32.1901 4.78225 33.0752 4.76724C33.3753 4.76724 33.4963 4.86726 33.4953 5.17733C33.4867 7.6845 33.4867 10.1917 33.4953 12.6988C33.4953 13.0119 33.3803 13.1149 33.0762 13.1099C32.1911 13.0969 31.3049 13.0919 30.4197 13.1099C30.0626 13.1189 29.9356 13.0099 29.9416 12.6418C29.9596 11.4076 29.9486 10.1723 29.9486 8.93709ZM32.3441 8.93709V6.73364C32.3441 5.90647 32.3441 5.92248 31.5089 5.90847C31.1769 5.90847 31.0848 6.00849 31.0878 6.33356C31.1028 7.91688 31.0948 9.5002 31.0948 11.0835C31.0948 11.9837 31.0948 11.9697 31.986 11.9637C32.2651 11.9637 32.3531 11.8727 32.3491 11.5966C32.3351 10.7114 32.3441 9.82627 32.3441 8.94109V8.93709Z" fill="#92D7D7"/>
<path d="M28.6991 9.54217C28.6991 10.5894 28.6921 11.6426 28.7041 12.6848C28.7041 12.9849 28.614 13.1129 28.297 13.1079C27.3868 13.0952 26.4763 13.0952 25.5654 13.1079C25.2554 13.1079 25.1513 12.9969 25.1533 12.6908C25.1614 10.583 25.1614 8.47528 25.1533 6.36752C25.1533 6.08447 25.2414 5.96044 25.5394 5.96744C26.4623 5.97811 27.3855 5.97811 28.309 5.96744C28.601 5.96744 28.7091 6.07546 28.7021 6.36752C28.6931 7.42174 28.6991 8.48195 28.6991 9.54217ZM26.3036 9.54217V11.1125C26.3036 11.9677 26.3036 11.9547 27.1518 11.9617C27.4518 11.9617 27.5638 11.8796 27.5598 11.5616C27.5438 10.3613 27.5528 9.16809 27.5528 7.97185C27.5528 7.09467 27.5528 7.10467 26.6867 7.10467C26.4006 7.10467 26.2866 7.18169 26.2976 7.48375C26.3176 8.17289 26.3046 8.85803 26.3046 9.54417L26.3036 9.54217Z" fill="#92D7D7"/>
<path d="M23.9032 10.1345C23.9032 10.9827 23.8922 11.8348 23.9082 12.679C23.9152 13.0091 23.7912 13.1141 23.4701 13.1091C22.5719 13.0944 21.6741 13.0944 20.7766 13.1091C20.4765 13.1091 20.3545 13.0091 20.3565 12.699C20.3665 10.9907 20.3665 9.28199 20.3565 7.57297C20.3565 7.26091 20.4705 7.15789 20.7756 7.16289C21.6731 7.17556 22.5709 7.17556 23.4691 7.16289C23.7902 7.16289 23.9152 7.26291 23.9082 7.59198C23.8962 8.43815 23.9032 9.28632 23.9032 10.1345ZM22.757 10.1405V9.20631C22.757 8.28312 22.757 8.29212 21.8478 8.30612C21.5897 8.30612 21.4997 8.39114 21.5037 8.65119C21.5157 9.46136 21.4957 10.2715 21.5097 11.0817C21.5287 12.1099 21.2997 11.9339 22.4349 11.9589C22.6769 11.9649 22.766 11.8778 22.76 11.6348C22.751 11.1377 22.76 10.6396 22.761 10.1405H22.757Z" fill="#92D7D7"/>
</svg>
