<svg width="38" height="38" viewBox="0 0 38 38" fill="none" xmlns="http://www.w3.org/2000/svg">
<path d="M37.2742 0.43892V33.8037C37.2386 33.8938 37.2091 33.9861 37.1856 34.0801C36.809 36.0197 35.3073 37.2712 33.3307 37.2712C23.522 37.2712 13.7129 37.2712 3.90357 37.2712C3.57595 37.2702 3.24949 37.2324 2.93035 37.1583C1.17759 36.7457 0 35.2255 0 33.3764C0 24.7206 0 16.0649 0 7.40909C0 7.37211 0 7.3361 0 7.29912C0.00778572 6.77942 0.186857 6.59353 0.698769 6.5877C1.08805 6.5877 1.47734 6.57796 1.86663 6.5877C2.09923 6.59353 2.19557 6.50595 2.18876 6.26945C2.17903 5.85778 2.18098 5.44417 2.18876 5.03152C2.19655 4.61888 2.39411 4.41353 2.82135 4.4038C3.19799 4.39407 3.57559 4.38044 3.95028 4.4038C4.29675 4.42813 4.39504 4.28507 4.37558 3.96196C4.35417 3.6116 4.36779 3.25833 4.37558 2.90699C4.38239 2.40968 4.57022 2.22574 5.05683 2.21407C5.45779 2.20823 5.85876 2.20531 6.25875 2.21407C6.47578 2.21407 6.56628 2.13329 6.56142 1.91431C6.55266 1.55033 6.57699 1.18538 6.55558 0.822367C6.53417 0.459358 6.6529 0.181991 6.97017 0H36.8382L37.2742 0.43892ZM36.2036 17.548V8.73461C36.2036 6.35477 36.2036 3.97526 36.2036 1.59607C36.2036 1.06859 36.2036 1.06859 35.6596 1.06664H8.49228C7.594 1.06664 7.594 1.06664 7.594 1.96979C7.594 12.4104 7.594 22.8508 7.594 33.2908C7.594 34.2465 7.33999 35.1097 6.73757 35.862C6.66673 35.9669 6.6055 36.078 6.55461 36.1939C6.67334 36.2075 6.79207 36.2231 6.9108 36.2348C6.94711 36.2367 6.9835 36.2367 7.0198 36.2348H33.2061C35.0688 36.2348 36.2056 35.101 36.2056 33.2441C36.2043 28.0127 36.2036 22.7807 36.2036 17.548ZM6.55655 18.6293C6.55655 13.7632 6.55655 8.89519 6.55655 4.02522C6.55655 3.16198 6.74049 3.2593 5.7118 3.24665C5.49477 3.24665 5.40621 3.3284 5.4101 3.54737C5.41789 3.96001 5.41789 4.37266 5.4101 4.7853C5.40037 5.23103 5.2067 5.42081 4.7561 5.43054C4.44078 5.43833 4.12546 5.43054 3.80917 5.43054C3.22524 5.43054 3.22524 5.43054 3.22524 5.99598C3.22524 15.0527 3.22524 24.1091 3.22524 33.1652C3.22524 33.2509 3.22524 33.3356 3.22524 33.4202C3.24665 33.7949 3.48022 34.0421 3.80917 34.0363C4.13811 34.0304 4.35514 33.7842 4.37266 33.4027C4.3785 33.2577 4.37266 33.1107 4.37266 32.9657C4.37266 24.4806 4.37266 15.9948 4.37266 7.50836C4.36464 7.35078 4.37083 7.19281 4.39115 7.03635C4.44078 6.76677 4.61693 6.59353 4.89235 6.59451C5.16777 6.59548 5.34101 6.76969 5.39064 7.03927C5.40966 7.18377 5.41553 7.3297 5.40816 7.47527C5.40816 16.0467 5.40816 24.6175 5.40816 33.1876C5.40816 33.2966 5.40816 33.4066 5.40816 33.5156C5.39883 33.7652 5.33167 34.0093 5.21198 34.2285C5.09229 34.4477 4.92333 34.6362 4.71841 34.7791C4.51349 34.9219 4.2782 35.0152 4.03108 35.0516C3.78397 35.0881 3.53176 35.0667 3.29433 34.989C2.58875 34.7545 2.18876 34.1433 2.18876 33.2859C2.18876 24.9941 2.18876 16.7027 2.18876 8.4115C2.18876 7.52296 2.3834 7.62125 1.33039 7.61638C1.13574 7.61638 1.03842 7.68938 1.04523 7.89375C1.05107 8.02708 1.04523 8.16139 1.04523 8.29472V33.1701C1.04523 33.3278 1.04523 33.4854 1.0501 33.6431C1.12504 35.2625 2.71527 36.5043 4.30064 36.1832C5.66314 35.9078 6.56142 34.8207 6.56239 33.4095C6.56109 28.485 6.55915 23.5583 6.55655 18.6293Z" fill="#1F3792"/>
<path d="M21.9134 4.40088H32.0348C32.7161 4.40088 32.8679 4.55173 32.8689 5.23395C32.8689 7.63779 32.8689 10.0416 32.8689 12.4455C32.8689 13.0606 32.7015 13.2318 32.0981 13.2318H11.7063C11.0951 13.2318 10.9277 13.0644 10.9277 12.4533C10.9277 10.0248 10.9277 7.59692 10.9277 5.16972C10.9277 4.5673 11.099 4.40185 11.716 4.40088H21.9134ZM21.9358 5.43833C18.7566 5.43833 15.5774 5.43638 12.3983 5.43249C12.0752 5.43249 11.9545 5.51521 11.9574 5.85876C11.9717 7.82465 11.9717 9.79055 11.9574 11.7564C11.9574 12.1146 12.0752 12.2022 12.4168 12.2022C18.7388 12.1931 25.0611 12.1931 31.3838 12.2022C31.773 12.2022 31.8451 12.0669 31.8421 11.7156C31.8285 9.78665 31.8363 7.85774 31.8353 5.92785C31.8353 5.44125 31.8353 5.43443 31.3293 5.43443L21.9358 5.43833Z" fill="#92D7D7"/>
<path d="M21.9134 17.6036H11.792C11.065 17.6036 10.9297 17.4654 10.9287 16.7277C10.9287 16.1934 10.9287 15.6571 10.9287 15.1248C10.9287 14.5613 11.1068 14.3842 11.6713 14.3842C15.204 14.3842 18.7365 14.3842 22.2686 14.3842H32.027C32.7287 14.3842 32.8708 14.5292 32.8718 15.2435C32.8718 15.7778 32.8718 16.314 32.8718 16.8454C32.8718 17.4293 32.6966 17.6055 32.1107 17.6055L21.9134 17.6036ZM21.9377 15.4177H12.7652C11.8893 15.4177 11.8659 15.4372 11.9778 16.3082C11.9905 16.4055 12.1326 16.5028 12.2377 16.5554C12.3428 16.608 12.4528 16.5661 12.5618 16.5661H31.2339C31.3188 16.5617 31.4039 16.5617 31.4889 16.5661C31.7672 16.5963 31.8616 16.461 31.8353 16.2021C31.8309 16.1172 31.8309 16.0321 31.8353 15.9471C31.8353 15.4187 31.8353 15.4177 31.2923 15.4177H21.9377Z" fill="#1F3792"/>
<path d="M20.2151 28.0014C20.2151 29.3844 20.2151 30.7673 20.2151 32.1502C20.2151 32.7488 20.0565 32.9006 19.455 32.9016H11.7014C11.0951 32.9016 10.9277 32.7312 10.9277 32.1181C10.9277 29.3756 10.9277 26.6334 10.9277 23.8915C10.9277 23.2988 11.098 23.1246 11.6791 23.1237C14.2743 23.1237 16.8695 23.1237 19.4648 23.1237C20.0419 23.1237 20.2083 23.2823 20.2103 23.8516C20.218 25.2346 20.2151 26.6175 20.2151 28.0014ZM11.9642 27.9761C11.9642 29.144 11.972 30.307 11.9642 31.4729C11.9642 31.7717 12.0615 31.8709 12.3593 31.8699C14.5082 31.8589 16.6571 31.8589 18.8059 31.8699C19.1047 31.8699 19.2176 31.7726 19.2166 31.4729C19.2121 29.1657 19.2121 26.8589 19.2166 24.5523C19.2166 24.2604 19.1037 24.1543 18.8059 24.1553C16.6571 24.165 14.5082 24.165 12.3593 24.1553C12.0576 24.1553 11.9603 24.2526 11.9642 24.5523C11.97 25.6949 11.9642 26.8345 11.9642 27.9761Z" fill="#92D7D7"/>
<path d="M21.3979 25.7921C21.3979 23.7159 21.3979 21.6397 21.3979 19.5635C21.3979 19.0185 21.579 18.746 21.9176 18.7616C22.2563 18.7772 22.4043 19.0312 22.4043 19.5626C22.4043 23.7396 22.4043 27.916 22.4043 32.0918C22.4043 32.6358 22.2232 32.9093 21.8846 32.8947C21.5459 32.8801 21.3979 32.6241 21.3979 32.0927C21.3973 29.9919 21.3973 27.8917 21.3979 25.7921Z" fill="#1F3792"/>
<path d="M15.6012 19.7894C14.3039 19.7894 13.0066 19.7894 11.7084 19.7894C11.5536 19.7894 11.3638 19.7982 11.2529 19.7164C11.1128 19.6191 10.9609 19.4245 10.9609 19.2717C10.9609 19.1189 11.1196 18.9301 11.2597 18.8279C11.3707 18.7481 11.5604 18.7578 11.7152 18.7578C14.2981 18.7539 16.881 18.7539 19.4639 18.7578C19.5487 18.7536 19.6336 18.7562 19.7179 18.7656C19.9972 18.8113 20.1958 18.9515 20.2045 19.26C20.2123 19.586 20.0099 19.7544 19.7179 19.7836C19.4396 19.8013 19.1606 19.8048 18.8819 19.7943L15.6012 19.7894Z" fill="#1F3792"/>
<path d="M28.2001 19.7894H24.3812C24.2721 19.7967 24.1625 19.7928 24.0542 19.7777C23.7759 19.7212 23.592 19.5665 23.5978 19.258C23.6036 18.966 23.7846 18.822 24.0455 18.7655C24.1535 18.7504 24.2627 18.7465 24.3715 18.7539H32.0472C32.5884 18.7539 32.8599 18.9271 32.8638 19.2677C32.8677 19.6083 32.5913 19.7903 32.057 19.7903L28.2001 19.7894Z" fill="#1F3792"/>
<path d="M15.5712 21.9742C14.2859 21.9742 13.0006 21.9742 11.7153 21.9742C11.5946 21.9742 11.437 22.0053 11.3611 21.943C11.1966 21.8097 10.9718 21.6258 10.9659 21.4564C10.9601 21.2871 11.1888 21.1002 11.3552 20.9698C11.4409 20.9017 11.6121 20.9348 11.7445 20.9348C14.3028 20.9348 16.8613 20.9348 19.4203 20.9348C19.5176 20.9297 19.6152 20.932 19.7122 20.9416C20.0042 20.9883 20.2105 21.1362 20.1988 21.4662C20.193 21.7747 19.9964 21.9226 19.7122 21.9615C19.543 21.9765 19.3729 21.9797 19.2032 21.9713L15.5712 21.9742Z" fill="#1F3792"/>
<path d="M28.1982 21.9742C26.9253 21.9742 25.6523 21.9742 24.3793 21.9742C24.2583 21.982 24.1368 21.9755 24.0173 21.9548C23.7555 21.8915 23.5901 21.7309 23.5969 21.4409C23.6037 21.1684 23.7672 21.0205 24.0124 20.9602C24.1315 20.9386 24.2528 20.9318 24.3735 20.9397C26.9324 20.9397 29.491 20.9397 32.0493 20.9397C32.5884 20.9397 32.8619 21.1139 32.8638 21.4555C32.8658 21.7971 32.5904 21.9762 32.0551 21.9762L28.1982 21.9742Z" fill="#1F3792"/>
<path d="M28.2011 23.1226H32.057C32.178 23.1165 32.2993 23.1227 32.419 23.1411C32.6866 23.1966 32.8599 23.3698 32.8569 23.6443C32.854 23.9187 32.6788 24.0871 32.4102 24.1425C32.3136 24.1571 32.2159 24.1623 32.1183 24.1581H24.2985C24.2261 24.1622 24.1535 24.1599 24.0815 24.1513C23.8021 24.1026 23.6046 23.9625 23.5949 23.654C23.589 23.327 23.7895 23.1606 24.0863 23.1323C24.3627 23.1051 24.644 23.1226 24.9223 23.1226H28.2011Z" fill="#1F3792"/>
<path d="M28.1983 25.3055C29.4956 25.3055 30.7939 25.3055 32.0912 25.3055C32.2342 25.3055 32.4153 25.288 32.5126 25.3639C32.6595 25.4778 32.8396 25.6676 32.8386 25.8243C32.8376 25.981 32.6566 26.1688 32.5077 26.2817C32.4104 26.3566 32.2294 26.3381 32.0863 26.3381C29.5034 26.3381 26.9205 26.3381 24.3376 26.3381C24.2529 26.3427 24.1679 26.3404 24.0836 26.3313C23.7867 26.2797 23.5882 26.126 23.597 25.799C23.6067 25.4914 23.8052 25.3367 24.0836 25.3124C24.3619 25.288 24.6675 25.3017 24.9595 25.3017L28.1983 25.3055Z" fill="#1F3792"/>
<path d="M28.2002 27.4943H32.056C32.177 27.4882 32.2983 27.4944 32.4181 27.5128C32.6867 27.5682 32.8599 27.7415 32.857 28.0159C32.8541 28.2904 32.6789 28.4587 32.4083 28.5171C32.3117 28.5318 32.214 28.537 32.1164 28.5327H24.2995C24.2267 28.5365 24.1538 28.5339 24.0815 28.5249C23.8022 28.4763 23.6046 28.3361 23.5949 28.0276C23.5881 27.7016 23.7895 27.5352 24.0864 27.506C24.3628 27.4797 24.643 27.4962 24.9224 27.4962L28.2002 27.4943Z" fill="#1F3792"/>
<path d="M28.239 30.7157C26.9647 30.7157 25.6915 30.7157 24.4191 30.7157C24.3101 30.7217 24.2008 30.7194 24.0921 30.7089C23.7953 30.6641 23.5939 30.5142 23.5987 30.1862C23.6036 29.8777 23.8002 29.7347 24.0795 29.688C24.1764 29.6766 24.2741 29.6737 24.3715 29.6792H32.1572C32.6 29.685 32.8608 29.8738 32.8657 30.1901C32.8705 30.5064 32.6068 30.7128 32.1698 30.7137C30.8579 30.7176 29.548 30.7157 28.239 30.7157Z" fill="#1F3792"/>
<path d="M28.1952 32.9015C26.9096 32.9015 25.624 32.9015 24.3384 32.9015C24.1963 32.9015 24.0123 32.9161 23.9199 32.8392C23.7788 32.7204 23.6279 32.5297 23.6201 32.3652C23.6201 32.2192 23.7797 32.0285 23.9208 31.9312C24.0337 31.8523 24.2225 31.8689 24.3773 31.8689C26.9355 31.8689 29.4941 31.8689 32.053 31.8689H32.126C32.5971 31.8737 32.8647 32.0635 32.8637 32.3876C32.8627 32.7117 32.5951 32.9044 32.1241 32.9044C30.8141 32.9037 29.5045 32.9028 28.1952 32.9015Z" fill="#1F3792"/>
</svg>
