<svg width="25" height="29" viewBox="0 0 25 29" fill="none" xmlns="http://www.w3.org/2000/svg">
<g clip-path="url(#clip0_581_9452)">
<path d="M16.3561 0.853691C16.3373 1.17951 16.3414 1.50882 16.3456 1.82764C16.3456 1.99544 16.3505 2.16954 16.3456 2.33944C16.3456 2.73307 16.0793 3.00855 15.7045 3.00855H15.6961C15.3297 3.00435 15.0724 2.72888 15.0669 2.33944C15.0669 2.17024 15.0669 1.99614 15.0669 1.82834C15.071 1.50952 15.0752 1.18021 15.0564 0.853691C15.0319 0.430691 15.1759 0.165704 15.522 0H15.8821C16.2366 0.165704 16.3806 0.427894 16.3561 0.853691Z" fill="#1F3792"/>
<path d="M24.0611 20.8488L24.152 20.7258C24.9309 19.677 24.9288 18.6569 24.145 17.6158L24.0604 17.5033L24.1394 17.3865C24.1723 17.3362 24.2093 17.2886 24.2394 17.2418C24.3025 17.156 24.3609 17.0669 24.4142 16.9747C24.8246 16.2217 24.8211 15.3505 24.4051 14.6457C23.9891 13.941 23.2263 13.5159 22.3677 13.511C21.9587 13.511 21.5224 13.511 20.9945 13.511H19.887H18.7767H17.3301L17.3672 13.2816C17.3672 13.2635 17.3721 13.2481 17.3735 13.2334C17.3777 13.1983 17.3842 13.1635 17.3931 13.1292C17.8598 11.533 18.0738 9.87362 18.0272 8.21124C17.9909 6.93874 17.4147 6.01863 16.2653 5.39916C15.7661 5.13067 15.234 5.07544 14.5873 5.07544C14.4586 5.07544 14.3265 5.07544 14.1985 5.07963H14.1286C13.7091 5.08663 13.4994 5.24604 13.391 5.64876C13.2966 5.99835 13.198 6.37451 13.1162 6.74507C12.682 8.72653 11.7976 10.4444 10.488 11.849C9.81752 12.5699 9.10576 13.0558 8.31219 13.3348C8.24629 13.3601 8.17651 13.3738 8.10594 13.3753C7.86542 13.3753 7.75635 13.1754 7.7123 13.0894C7.27252 12.2706 6.59712 11.8497 5.70567 11.8392C5.06313 11.8316 4.37724 11.8281 3.54872 11.8281C2.95932 11.8281 2.36012 11.8281 1.77981 11.8316H0.66113C0.261901 11.8316 0.00390625 12.093 0.00390625 12.4951C0.00390625 17.3306 0.00390625 22.3814 0.00390625 27.5077C0.00390625 27.9217 0.2633 28.1796 0.681406 28.1796H1.43022H3.49838C4.3262 28.1796 5.01769 28.1796 5.67491 28.1748C6.52161 28.1706 7.18722 27.7888 7.65427 27.0407C7.70391 26.961 7.80739 26.7953 8.02204 26.7953C8.08805 26.7967 8.15333 26.8095 8.21501 26.833C8.53243 26.9463 8.85895 27.0533 9.17497 27.1568C9.44765 27.2462 9.72942 27.3385 10.0056 27.4364C11.0075 27.786 12.0437 28.1454 13.1295 28.1594C14.367 28.1755 15.6773 28.1831 17.1351 28.1831C18.2216 28.1831 19.4039 28.179 20.8554 28.1699C21.7713 28.1643 22.6474 27.4966 22.9382 26.5834C23.1007 26.0734 23.0881 25.5236 22.9026 25.0215L22.8368 24.8306L23.0284 24.7684C23.4063 24.6512 23.7501 24.4441 24.0302 24.1647C24.3103 23.8853 24.5184 23.542 24.6365 23.1645C24.8595 22.4178 24.6869 21.6144 24.1625 20.9614L24.0611 20.8488ZM6.6992 14.3269V25.6326C6.6992 26.5142 6.30416 26.9078 5.41971 26.9078H1.29808V13.1152H1.49874H2.68244H3.85356C4.56602 13.1152 5.14423 13.1152 5.67141 13.1236C6.22516 13.1292 6.64606 13.5396 6.695 14.1221C6.7006 14.1913 6.6999 14.2605 6.6992 14.3269ZM20.9099 18.1808C21.0738 18.1765 21.2373 18.162 21.3993 18.1374C21.5794 18.1097 21.7611 18.0938 21.9433 18.0899C22.0808 18.0878 22.2179 18.1057 22.3502 18.143C22.3928 18.1535 22.4364 18.1596 22.4803 18.1612C22.5451 18.1649 22.6094 18.1745 22.6725 18.1898C22.8754 18.2407 23.0573 18.3535 23.1931 18.5125C23.3289 18.6715 23.4119 18.8688 23.4304 19.0771C23.4551 19.2692 23.4211 19.4643 23.3327 19.6367C23.2443 19.809 23.1058 19.9506 22.9354 20.0427C22.7349 20.1447 22.5137 20.1995 22.2887 20.2028C22.109 20.2091 21.9118 20.2126 21.6678 20.2126H21.2959H20.9253H20.7757C20.3674 20.2126 20.0933 20.4727 20.0947 20.8537C20.0961 21.2348 20.3743 21.4872 20.7834 21.4893H21.7671C22.0055 21.4893 22.1992 21.4893 22.3768 21.4941C22.8809 21.5046 23.2605 21.7892 23.392 22.2562C23.5192 22.7058 23.3465 23.1561 22.9634 23.3749C22.766 23.4837 22.546 23.5447 22.3208 23.5532C22.1342 23.5609 21.93 23.5644 21.6783 23.5644H21.2812H20.8868H20.8064C20.3918 23.5644 20.1129 23.7986 20.0954 24.1573C20.0765 24.5467 20.3177 24.8033 20.7414 24.8439C21.3497 24.9019 21.7902 25.3613 21.765 25.9129C21.7384 26.4904 21.2756 26.91 20.6701 26.9113C19.3955 26.9113 18.3335 26.9113 17.2323 26.9113C15.887 26.9113 14.711 26.9113 13.6357 26.903C12.7878 26.8898 11.9475 26.7399 11.1473 26.459C10.2167 26.1423 9.28474 25.8339 8.37861 25.5438C8.09265 25.4522 7.971 25.2858 7.97309 24.9844C7.98148 23.7371 7.98009 22.4674 7.97939 21.2424C7.97939 20.8528 7.97939 20.4631 7.97939 20.0734C7.97939 19.6838 7.97939 19.2955 7.97939 18.9086C7.97939 17.6899 7.97939 16.43 7.97379 15.1904C7.97379 14.8821 8.09545 14.7254 8.40099 14.6492C9.4889 14.3759 10.4831 13.7459 11.4382 12.723C12.9065 11.1506 13.9035 9.20546 14.402 6.94084C14.4719 6.61782 14.5286 6.36262 14.8663 6.36262C14.9802 6.36818 15.0935 6.38221 15.2054 6.40457C16.094 6.55349 16.7093 7.27364 16.7372 8.19725C16.7976 9.87633 16.5555 11.5526 16.0227 13.146C15.9381 13.397 15.7787 13.5138 15.5221 13.5138H15.4899C15.3088 13.5082 15.1131 13.5054 14.8753 13.5054C14.7187 13.5054 14.5614 13.5054 14.4048 13.5054H14.1021C13.9056 13.4981 13.7143 13.569 13.57 13.7025C13.5129 13.7624 13.4684 13.8333 13.4394 13.9108C13.4103 13.9883 13.3972 14.0708 13.4008 14.1535C13.4043 14.529 13.6805 14.7828 14.0958 14.7828H17.0791C18.7572 14.7828 20.4862 14.7828 22.1894 14.7828C22.3748 14.7789 22.5598 14.8013 22.739 14.8492C22.9453 14.9164 23.1249 15.0474 23.2518 15.2234C23.3787 15.3993 23.4464 15.6111 23.4451 15.828C23.44 16.0392 23.3712 16.2438 23.2479 16.4152C23.1245 16.5867 22.9522 16.7168 22.7536 16.7887C22.677 16.8109 22.5983 16.825 22.5187 16.8307C22.468 16.8337 22.4176 16.8417 22.3684 16.8544C22.235 16.8927 22.0967 16.911 21.958 16.909C21.7739 16.9045 21.5904 16.8882 21.4084 16.86C21.2434 16.8345 21.0769 16.8196 20.9099 16.8153C20.5414 16.8153 20.2632 16.9341 20.1052 17.5054C20.2653 18.0647 20.5435 18.1808 20.9099 18.1808Z" fill="#1F3792"/>
<path d="M6.69491 14.1191C6.64597 13.5367 6.22506 13.1263 5.67132 13.1207C5.14134 13.1151 4.56313 13.1123 3.85346 13.1123H2.68235H1.49865H1.30078V26.9077H5.42241C6.30687 26.9077 6.7019 26.5141 6.7019 25.6324V14.3268C6.6998 14.2603 6.7005 14.1911 6.69491 14.1191ZM3.98421 24.8361C3.89998 24.8364 3.81653 24.8199 3.73873 24.7877C3.66094 24.7554 3.59037 24.7079 3.53115 24.648C3.47132 24.5861 3.42448 24.513 3.39338 24.4328C3.36228 24.3525 3.34755 24.2669 3.35006 24.1809C3.35097 24.098 3.36827 24.0161 3.40095 23.9398C3.43364 23.8636 3.48108 23.7946 3.54053 23.7368C3.59999 23.6789 3.67029 23.6334 3.74739 23.6029C3.82449 23.5723 3.90688 23.5573 3.9898 23.5587V23.4594V23.5587C4.07402 23.558 4.15751 23.5742 4.23534 23.6064C4.31316 23.6386 4.38373 23.6861 4.44287 23.746C4.50259 23.8079 4.54937 23.8811 4.58047 23.9613C4.61156 24.0415 4.62635 24.1271 4.62396 24.2131C4.62314 24.2961 4.60591 24.3781 4.57326 24.4544C4.54061 24.5307 4.49319 24.5998 4.43373 24.6577C4.37427 24.7156 4.30394 24.7612 4.22679 24.7918C4.14964 24.8224 4.0672 24.8374 3.98421 24.8361Z" fill="#92D7D7"/>
<path d="M20.0964 20.8508C20.0964 21.2291 20.376 21.4843 20.785 21.4864H21.7688C22.0072 21.4864 22.2009 21.4864 22.3785 21.4913C22.8826 21.5018 23.2622 21.7863 23.3937 22.2534C23.5209 22.7029 23.3482 23.1532 22.9651 23.3721C22.7677 23.4808 22.5477 23.5418 22.3225 23.5503C22.1359 23.558 21.9317 23.5615 21.68 23.5615H21.2829H20.8885H20.8081C20.3935 23.5615 20.1145 23.7958 20.0971 24.1544C20.0782 24.5439 20.3194 24.8005 20.7431 24.841C21.3514 24.8991 21.7919 25.3584 21.7667 25.9101C21.7401 26.4876 21.2773 26.9071 20.6718 26.9085C19.3972 26.9085 18.3351 26.9085 17.2339 26.9085C15.8887 26.9085 14.7127 26.9085 13.6374 26.9001C12.7889 26.8881 11.9479 26.7391 11.1469 26.4589C10.2163 26.1422 9.28433 25.8338 8.3782 25.5437C8.09224 25.4521 7.97059 25.2857 7.97268 24.9844C7.98107 23.737 7.97967 22.4673 7.97898 21.2424C7.97898 20.8527 7.97898 20.463 7.97898 20.0734C7.97898 19.6837 7.97898 19.2954 7.97898 18.9085C7.97898 17.6899 7.97897 16.43 7.97338 15.1903C7.97338 14.882 8.09504 14.7254 8.40058 14.6492C9.48849 14.3758 10.4827 13.7458 11.4378 12.7229C12.9061 11.1505 13.9031 9.20539 14.4016 6.94077C14.4715 6.61775 14.5281 6.36255 14.8658 6.36255C14.9798 6.36811 15.0931 6.38214 15.2049 6.4045C16.0936 6.55342 16.7089 7.27357 16.7368 8.19718C16.7971 9.87626 16.5551 11.5525 16.0223 13.1459C15.9377 13.3969 15.7783 13.5137 15.5217 13.5137H15.4895C15.3084 13.5081 15.1126 13.5053 14.8749 13.5053C14.7183 13.5053 14.561 13.5053 14.4044 13.5053H14.1016C13.9052 13.4981 13.7139 13.569 13.5696 13.7025C13.5125 13.7624 13.468 13.8332 13.439 13.9107C13.4099 13.9882 13.3968 14.0708 13.4004 14.1534C13.4039 14.5289 13.68 14.7827 14.0953 14.7827H17.0787C18.7567 14.7827 20.4858 14.7827 22.189 14.7827C22.3744 14.7788 22.5594 14.8012 22.7385 14.8491C22.9448 14.9163 23.1244 15.0473 23.2514 15.2233C23.3783 15.3992 23.446 15.611 23.4447 15.828C23.4396 16.0391 23.3708 16.2438 23.2474 16.4152C23.1241 16.5866 22.9518 16.7167 22.7532 16.7886C22.6766 16.8108 22.5979 16.8249 22.5183 16.8306C22.4675 16.8336 22.4172 16.8416 22.368 16.8544C22.2346 16.8926 22.0963 16.911 21.9576 16.9089C21.7735 16.9045 21.5899 16.8881 21.408 16.8599C21.243 16.8345 21.0765 16.8195 20.9095 16.8152C20.541 16.8152 20.2628 16.9341 20.1048 17.5053C20.2656 18.0646 20.5438 18.1814 20.9102 18.1814C21.0741 18.1771 21.2375 18.1626 21.3996 18.138C21.5797 18.1104 21.7614 18.0945 21.9436 18.0905C22.0811 18.0884 22.2181 18.1063 22.3505 18.1436C22.3931 18.1541 22.4367 18.1602 22.4805 18.1618C22.5454 18.1656 22.6097 18.1751 22.6728 18.1905C22.8756 18.2413 23.0576 18.3541 23.1934 18.5131C23.3292 18.6721 23.4122 18.8694 23.4307 19.0777C23.4554 19.2698 23.4213 19.4649 23.333 19.6373C23.2446 19.8097 23.1061 19.9512 22.9357 20.0433C22.7352 20.1454 22.514 20.2001 22.289 20.2034C22.1093 20.2097 21.9121 20.2132 21.6681 20.2132H21.2961H20.9256H20.776C20.3697 20.2146 20.0964 20.4698 20.0964 20.8508Z" fill="#92D7D7"/>
<path d="M21.5554 3.27406C21.1883 3.67888 20.7793 4.0879 20.227 4.60249C20.1519 4.65638 20.0672 4.69531 19.9774 4.71716C19.9508 4.72555 19.9249 4.73324 19.9012 4.74163C19.5802 4.70527 19.4005 4.5976 19.2859 4.37806C19.195 4.20257 19.1307 3.94597 19.339 3.71804C19.7823 3.23281 20.2291 2.78604 20.6675 2.38961C20.7674 2.29864 20.898 2.24871 21.0331 2.24977C21.1209 2.25122 21.2076 2.27014 21.288 2.30543C21.3684 2.34072 21.441 2.39168 21.5016 2.45533C21.7589 2.71962 21.7316 3.07969 21.5554 3.27406Z" fill="#1F3792"/>
<path d="M12.2217 4.0335C12.1847 4.35931 12.077 4.5418 11.8574 4.65576C11.76 4.70992 11.6508 4.73966 11.5393 4.74246C11.4116 4.74149 11.2892 4.69142 11.1974 4.60263C10.7136 4.16075 10.2675 3.71467 9.86899 3.27419C9.66344 3.04766 9.6914 2.67221 9.93192 2.43519C10.054 2.3162 10.2173 2.24884 10.3878 2.24711C10.531 2.24543 10.6694 2.29873 10.7744 2.39603C11.1841 2.77079 11.605 3.19239 12.0616 3.68601C12.1218 3.7666 12.1666 3.85762 12.1937 3.95449C12.2042 3.98595 12.2126 4.01043 12.2217 4.0335Z" fill="#1F3792"/>
<path d="M4.62657 24.2132C4.62576 24.2964 4.60844 24.3787 4.57562 24.4552C4.5428 24.5316 4.49513 24.6009 4.43536 24.6588C4.3756 24.7168 4.30494 24.7623 4.22747 24.7927C4.15 24.8231 4.06725 24.8379 3.98403 24.8361C3.8998 24.8365 3.81635 24.82 3.73856 24.7877C3.66076 24.7555 3.59019 24.708 3.53097 24.6481C3.47115 24.5862 3.4243 24.5131 3.3932 24.4329C3.3621 24.3526 3.34738 24.267 3.34988 24.181C3.35079 24.0981 3.36809 24.0162 3.40078 23.9399C3.43346 23.8637 3.4809 23.7947 3.54036 23.7369C3.59981 23.679 3.67011 23.6335 3.74721 23.603C3.82432 23.5724 3.9067 23.5574 3.98963 23.5588V23.4595V23.5588C4.07384 23.5581 4.15734 23.5743 4.23516 23.6065C4.31298 23.6387 4.38355 23.6862 4.44269 23.7461C4.50292 23.8078 4.55021 23.8809 4.58179 23.9611C4.61337 24.0413 4.6286 24.127 4.62657 24.2132Z" fill="#1F3792"/>
</g>
<defs>
<clipPath id="clip0_581_9452">
<rect width="24.7347" height="28.19" fill="white"/>
</clipPath>
</defs>
</svg>
