<svg width="13" height="13" viewBox="0 0 13 13" fill="none" xmlns="http://www.w3.org/2000/svg">
<path d="M2.70079 3.89768C3.35534 3.89768 3.88596 3.36706 3.88596 2.71251C3.88596 2.05796 3.35534 1.52734 2.70079 1.52734C2.04624 1.52734 1.51562 2.05796 1.51562 2.71251C1.51562 3.36706 2.04624 3.89768 2.70079 3.89768Z" fill="#1F3792"/>
<path d="M5.0066 4.79727V11.3726H7.04814V8.12093C7.04814 7.26293 7.20956 6.43202 8.27339 6.43202C9.3226 6.43202 9.3356 7.41297 9.3356 8.1751V11.3731H11.3782V7.76722C11.3782 5.99597 10.9969 4.63477 8.92664 4.63477C7.93269 4.63477 7.26644 5.18022 6.99398 5.69643H6.96635V4.79727H5.0066ZM1.67969 4.79727H3.72448V11.3726H1.67969V4.79727Z" fill="#1F3792"/>
</svg>
