<svg width="46" height="69" viewBox="0 0 46 69" fill="none" xmlns="http://www.w3.org/2000/svg">
<path d="M23.4274 0C24.5626 0.140554 25.7087 0.223445 26.8313 0.430672C36.5331 2.22183 43.8095 9.55047 45.4277 19.2811C46.3287 24.7015 45.3304 29.8371 42.7247 34.6664C40.5768 38.6415 37.7855 42.1698 35.0267 45.7197C33.895 47.1757 32.7544 48.6245 31.6227 50.0787C31.4768 50.2679 31.356 50.4751 31.147 50.7869C31.5921 50.8896 31.9255 50.9833 32.266 51.0445C35.5583 51.6302 38.7802 52.4465 41.6832 54.1728C42.5935 54.7074 43.4306 55.3579 44.1735 56.1081C46.2656 58.256 46.2854 61.0131 44.1735 63.1358C43.2533 64.0228 42.2145 64.7778 41.0867 65.3792C37.9531 67.1073 34.5095 67.902 30.9957 68.3994C23.8923 69.394 16.8321 69.2156 9.8603 67.3939C7.26005 66.7109 4.7535 65.7721 2.61276 64.08C2.00034 63.5902 1.45506 63.0219 0.990978 62.3898C-0.306443 60.6274 -0.288424 58.5858 0.990978 56.8036C2.1028 55.263 3.6561 54.2809 5.33554 53.479C7.93038 52.2392 10.6892 51.5365 13.5165 51.0355C13.7598 50.9941 14.003 50.9472 14.2373 50.8914C14.3534 50.8461 14.4655 50.7912 14.5725 50.7274C14.376 50.4319 14.2121 50.1562 14.0193 49.9003C11.0262 45.9359 7.95201 42.0311 5.05984 37.9946C2.66862 34.6592 1.00179 30.9669 0.31704 26.8602C-1.78046 14.259 6.75189 2.34257 19.3333 0.360395C20.3298 0.196415 21.3371 0.115326 22.3462 0H23.4274ZM22.9102 57.3028C23.1426 57.0235 23.3048 56.8415 23.4508 56.6487C26.5358 52.6141 29.6496 48.6029 32.6913 44.5376C35.0177 41.4256 37.3764 38.3298 39.492 35.0736C42.5553 30.3507 43.8167 25.1628 42.8995 19.5064C41.1462 8.70534 30.5001 1.04875 19.7207 2.88316C7.13571 5.00589 -0.405552 17.5873 3.64168 29.6947C4.84 33.2861 6.88524 36.4053 9.1359 39.3876C13.5399 45.2133 17.9962 50.9995 22.4327 56.8C22.5516 56.9532 22.7066 57.0848 22.9012 57.3028H22.9102ZM16.5456 53.2429C16.3566 53.2311 16.167 53.2311 15.978 53.2429C12.7344 53.6754 9.54135 54.3241 6.5753 55.7657C5.52634 56.274 4.54506 56.9114 3.6543 57.6632C2.23434 58.8615 2.22173 60.2724 3.58402 61.5428C4.28227 62.1762 5.06006 62.716 5.89776 63.1484C8.30339 64.4278 10.9163 65.0999 13.576 65.5991C18.6071 66.5397 23.667 66.6514 28.7504 66.1126C32.0913 65.7523 35.3925 65.1378 38.4811 63.7809C39.7958 63.2072 41.0264 62.4573 42.1391 61.5518C43.5662 60.377 43.5122 58.9192 42.1391 57.6758C41.4523 57.0627 40.6942 56.5345 39.8812 56.1027C37.0088 54.562 33.868 53.8772 30.6911 53.3673C30.21 53.2898 29.7217 53.2574 29.2405 53.2033C28.9414 53.5835 28.6837 53.8917 28.4441 54.216C27.0121 56.1537 25.5843 58.0909 24.1608 60.0274C23.3102 61.177 22.4273 61.1572 21.5767 59.9949C20.0919 57.9599 18.6005 55.9321 17.1024 53.9115C16.9403 53.679 16.733 53.4664 16.5456 53.2429Z" fill="#1744F2"/>
<path d="M32.257 22.9535C32.2354 28.0909 27.9936 32.3238 22.8669 32.313C17.7115 32.313 13.439 28.0081 13.4967 22.8742C13.5543 17.7404 17.7998 13.504 22.9192 13.5472C28.0386 13.5905 32.2841 17.8395 32.257 22.9535ZM29.6676 22.9679C29.6737 21.6226 29.2802 20.3057 28.5372 19.1842C27.7941 18.0627 26.7349 17.1869 25.4937 16.668C24.2524 16.149 22.8851 16.0102 21.5649 16.269C20.2447 16.5279 19.031 17.1728 18.0777 18.1221C17.1244 19.0714 16.4743 20.2823 16.2098 21.6014C15.9453 22.9205 16.0783 24.2884 16.592 25.5318C17.1057 26.7753 17.9769 27.8382 19.0953 28.5861C20.2136 29.3339 21.5288 29.7329 22.8741 29.7325C23.765 29.7359 24.6478 29.5634 25.472 29.225C26.2961 28.8867 27.0454 28.3891 27.677 27.7607C28.3085 27.1323 28.8099 26.3856 29.1524 25.5632C29.4949 24.7407 29.6718 23.8588 29.673 22.9679H29.6676Z" fill="#1744F2"/>
<path d="M40.3656 22.5989C40.3656 23.2602 40.2629 23.8819 39.5656 24.1702C38.7096 24.5306 37.9042 23.99 37.7996 23.0007C37.7276 22.3088 37.7546 21.6042 37.6447 20.9213C36.7413 15.3315 33.6935 11.3996 28.5014 9.12553C28.2277 9.02169 27.9605 8.90133 27.7014 8.76513C27.4376 8.60849 27.2399 8.36106 27.1453 8.06918C27.0508 7.77729 27.0659 7.46096 27.1878 7.1794C27.3007 6.90643 27.5098 6.68433 27.7755 6.55515C28.0411 6.42597 28.3449 6.39867 28.6294 6.47843C29.2124 6.64608 29.7793 6.8656 30.3232 7.13435C36.2211 10.1148 39.5566 14.8738 40.2575 21.46C40.2972 21.8403 40.3242 22.2205 40.3656 22.5989Z" fill="#1744F2"/>
<path d="M22.989 7.99012C22.6609 7.98238 22.3483 7.84881 22.1158 7.61706C21.8834 7.3853 21.7489 7.07307 21.7402 6.74496C21.7489 6.4168 21.883 6.10443 22.1149 5.87213C22.3469 5.63984 22.6591 5.5053 22.9872 5.49619C23.1503 5.49414 23.3121 5.5252 23.4628 5.58749C23.6135 5.64978 23.75 5.742 23.8641 5.85857C23.9781 5.97515 24.0673 6.11365 24.1263 6.26569C24.1852 6.41774 24.2128 6.58017 24.2071 6.74315C24.2135 6.90618 24.1866 7.0688 24.128 7.22107C24.0694 7.37335 23.9804 7.51208 23.8664 7.62878C23.7524 7.74549 23.6158 7.83773 23.4649 7.89985C23.3141 7.96198 23.1521 7.9927 22.989 7.99012Z" fill="#1744F2"/>
</svg>
