<svg width="18" height="21" viewBox="0 0 18 21" fill="none" xmlns="http://www.w3.org/2000/svg">
<g clip-path="url(#clip0_847_20268)">
<path d="M11.9029 0.621251C11.8891 0.858354 11.8922 1.098 11.8952 1.33002C11.8952 1.45213 11.8988 1.57882 11.8952 1.70246C11.8952 1.98892 11.7014 2.18939 11.4287 2.18939H11.4226C11.156 2.18634 10.9687 1.98587 10.9646 1.70246C10.9646 1.57933 10.9646 1.45264 10.9646 1.33053C10.9677 1.09851 10.9707 0.858863 10.957 0.621251C10.9392 0.313424 11.044 0.120587 11.2959 0H11.5579C11.8159 0.120587 11.9207 0.311388 11.9029 0.621251Z" fill="#1F3792"/>
<path d="M17.5094 15.172L17.5756 15.0825C18.1424 14.3192 18.1408 13.5769 17.5705 12.8193L17.5089 12.7374L17.5664 12.6524C17.5903 12.6158 17.6173 12.5812 17.6392 12.5471C17.6851 12.4847 17.7276 12.4198 17.7664 12.3527C18.065 11.8047 18.0625 11.1708 17.7597 10.6579C17.457 10.145 16.9019 9.83566 16.2771 9.83209C15.9794 9.83209 15.6619 9.83209 15.2778 9.83209H14.4718H13.6639H12.6111L12.6381 9.66521C12.6381 9.65198 12.6417 9.64078 12.6427 9.6301C12.6457 9.60454 12.6505 9.57921 12.6569 9.55429C12.9966 8.3927 13.1523 7.1851 13.1184 5.97535C13.092 5.04933 12.6727 4.37974 11.8362 3.92894C11.4729 3.73356 11.0857 3.69336 10.6151 3.69336C10.5215 3.69336 10.4253 3.69336 10.3322 3.69641H10.2813C9.97604 3.7015 9.8234 3.81751 9.74453 4.11058C9.67585 4.36498 9.60411 4.63872 9.54457 4.90839C9.22861 6.35034 8.58497 7.60047 7.63198 8.62266C7.14403 9.14724 6.62607 9.50086 6.04857 9.70388C6.00062 9.72229 5.94984 9.73227 5.89848 9.73339C5.72345 9.73339 5.64407 9.58787 5.61202 9.52528C5.29198 8.92947 4.80048 8.62317 4.15175 8.61554C3.68416 8.60994 3.18502 8.6074 2.58208 8.6074C2.15316 8.6074 1.71711 8.6074 1.29481 8.60994H0.480718C0.19019 8.60994 0.00244141 8.80024 0.00244141 9.0928C0.00244141 12.6117 0.00244141 16.2873 0.00244141 20.0179C0.00244141 20.3191 0.191208 20.5068 0.495474 20.5068H1.0404H2.54545C3.14788 20.5068 3.65108 20.5068 4.12936 20.5033C4.74552 20.5002 5.22991 20.2224 5.56979 19.678C5.60591 19.62 5.68122 19.4994 5.83742 19.4994C5.88546 19.5004 5.93296 19.5097 5.97785 19.5269C6.20885 19.6093 6.44646 19.6871 6.67644 19.7624C6.87487 19.8276 7.07992 19.8947 7.2809 19.966C8.01002 20.2204 8.76407 20.4819 9.55424 20.4921C10.4548 20.5038 11.4083 20.5094 12.4692 20.5094C13.2599 20.5094 14.1203 20.5063 15.1765 20.4997C15.8431 20.4956 16.4806 20.0097 16.6923 19.3452C16.8105 18.974 16.8014 18.574 16.6663 18.2086L16.6185 18.0697L16.7579 18.0244C17.0329 17.9391 17.2831 17.7883 17.4869 17.585C17.6908 17.3817 17.8422 17.1319 17.9282 16.8572C18.0905 16.3138 17.9648 15.7291 17.5832 15.2539L17.5094 15.172ZM4.87476 10.4259V18.6532C4.87476 19.2949 4.58728 19.5813 3.94365 19.5813H0.94424V9.54411H1.09027H1.95167H2.80392C3.3224 9.54411 3.74318 9.54411 4.12682 9.55022C4.52979 9.55429 4.83609 9.85295 4.87171 10.2768C4.87578 10.3272 4.87527 10.3775 4.87476 10.4259V10.4259ZM15.2162 13.2304C15.3355 13.2273 15.4544 13.2168 15.5724 13.1989C15.7034 13.1787 15.8357 13.1672 15.9682 13.1643C16.0683 13.1627 16.168 13.1758 16.2644 13.2029C16.2954 13.2106 16.3271 13.215 16.359 13.2162C16.4062 13.2189 16.453 13.2259 16.4989 13.237C16.6465 13.274 16.7789 13.3561 16.8778 13.4718C16.9766 13.5875 17.037 13.7311 17.0505 13.8827C17.0684 14.0225 17.0436 14.1645 16.9793 14.2899C16.915 14.4153 16.8142 14.5183 16.6902 14.5854C16.5443 14.6596 16.3833 14.6995 16.2196 14.7019C16.0888 14.7064 15.9453 14.709 15.7678 14.709H15.4971H15.2274H15.1185C14.8214 14.709 14.6219 14.8983 14.623 15.1756C14.624 15.4529 14.8265 15.6365 15.1241 15.6381H15.84C16.0135 15.6381 16.1545 15.6381 16.2837 15.6416C16.6505 15.6493 16.9268 15.8563 17.0225 16.1962C17.1151 16.5234 16.9894 16.8511 16.7106 17.0103C16.567 17.0894 16.4068 17.1339 16.243 17.1401C16.1071 17.1457 15.9586 17.1482 15.7754 17.1482H15.4864H15.1994H15.1409C14.8392 17.1482 14.6362 17.3187 14.6235 17.5797C14.6097 17.8631 14.7853 18.0498 15.0936 18.0793C15.5363 18.1215 15.8568 18.4558 15.8385 18.8573C15.8192 19.2776 15.4823 19.5828 15.0417 19.5839C14.1142 19.5839 13.3413 19.5839 12.5399 19.5839C11.561 19.5839 10.7052 19.5839 9.92262 19.5777C9.30555 19.5682 8.69408 19.4591 8.11178 19.2547C7.43456 19.0242 6.75632 18.7998 6.09691 18.5886C5.88881 18.522 5.80028 18.4009 5.8018 18.1816C5.80791 17.2739 5.80689 16.3499 5.80638 15.4585C5.80638 15.1749 5.80638 14.8913 5.80638 14.6077C5.80638 14.3242 5.80638 14.0416 5.80638 13.7601C5.80638 12.8732 5.80638 11.9564 5.80231 11.0542C5.80231 10.8299 5.89084 10.7159 6.11319 10.6604C6.90489 10.4615 7.62841 10.0031 8.32344 9.25867C9.39193 8.11437 10.1175 6.69887 10.4803 5.05085C10.5311 4.81578 10.5724 4.63007 10.8181 4.63007C10.901 4.63412 10.9835 4.64432 11.0649 4.6606C11.7116 4.76897 12.1593 5.29304 12.1797 5.96517C12.2236 7.18708 12.0474 8.40692 11.6597 9.5665C11.5981 9.74916 11.4821 9.83413 11.2954 9.83413H11.272C11.1402 9.83006 10.9977 9.82802 10.8247 9.82802C10.7108 9.82802 10.5963 9.82802 10.4823 9.82802H10.262C10.119 9.82276 9.9798 9.87435 9.87479 9.97151C9.83322 10.0151 9.80089 10.0666 9.77973 10.123C9.75857 10.1794 9.74903 10.2395 9.75166 10.2997C9.7542 10.5729 9.95518 10.7576 10.2574 10.7576H12.4285C13.6496 10.7576 14.9079 10.7576 16.1473 10.7576C16.2823 10.7548 16.4169 10.7711 16.5473 10.8059C16.6974 10.8548 16.8281 10.9502 16.9205 11.0782C17.0128 11.2063 17.0621 11.3604 17.0612 11.5183C17.0574 11.6719 17.0074 11.8209 16.9176 11.9456C16.8278 12.0703 16.7025 12.1651 16.5579 12.2174C16.5022 12.2335 16.4449 12.2438 16.387 12.2479C16.3501 12.2501 16.3134 12.2559 16.2776 12.2652C16.1805 12.293 16.0799 12.3064 15.9789 12.3049C15.845 12.3017 15.7114 12.2898 15.579 12.2693C15.4589 12.2507 15.3377 12.2398 15.2162 12.2367C14.9481 12.2367 14.7456 12.3232 14.6306 12.7389C14.7471 13.1459 14.9496 13.2304 15.2162 13.2304V13.2304Z" fill="#1F3792"/>
<path d="M4.87172 10.2748C4.8361 9.85096 4.5298 9.55229 4.12683 9.54822C3.74115 9.54415 3.32037 9.54211 2.80394 9.54211H1.95169H1.09028H0.946289V19.5813H3.94569C4.58933 19.5813 4.87681 19.2949 4.87681 18.6533V10.4259C4.87528 10.3776 4.87579 10.3272 4.87172 10.2748ZM2.89908 18.0738C2.83779 18.074 2.77706 18.062 2.72044 18.0385C2.66383 18.015 2.61247 17.9805 2.56938 17.9369C2.52584 17.8919 2.49175 17.8386 2.46912 17.7803C2.44649 17.7219 2.43577 17.6596 2.4376 17.597C2.43826 17.5367 2.45085 17.477 2.47463 17.4216C2.49842 17.3661 2.53294 17.3159 2.57621 17.2738C2.61947 17.2317 2.67063 17.1986 2.72674 17.1763C2.78285 17.1541 2.8428 17.1432 2.90315 17.1442V17.0719V17.1442C2.96444 17.1437 3.0252 17.1555 3.08183 17.1789C3.13847 17.2023 3.18982 17.2369 3.23286 17.2805C3.27632 17.3256 3.31036 17.3788 3.33299 17.4372C3.35562 17.4956 3.36638 17.5578 3.36464 17.6204C3.36404 17.6808 3.35151 17.7405 3.32775 17.796C3.30399 17.8516 3.26948 17.9018 3.22621 17.944C3.18293 17.9861 3.13175 18.0193 3.07561 18.0415C3.01947 18.0638 2.95947 18.0748 2.89908 18.0738V18.0738Z" fill="#92D7D7"/>
<path d="M14.6245 15.1736C14.6245 15.4489 14.828 15.6346 15.1256 15.6361H15.8415C16.015 15.6361 16.156 15.6361 16.2852 15.6397C16.652 15.6473 16.9283 15.8544 17.024 16.1942C17.1166 16.5214 16.9909 16.8491 16.7121 17.0083C16.5685 17.0875 16.4083 17.1319 16.2445 17.1381C16.1086 17.1437 15.9601 17.1462 15.7769 17.1462H15.4879H15.2009H15.1424C14.8407 17.1462 14.6377 17.3167 14.625 17.5777C14.6112 17.8611 14.7868 18.0478 15.0951 18.0773C15.5378 18.1196 15.8583 18.4539 15.84 18.8553C15.8207 19.2756 15.4838 19.5809 15.0432 19.5819C14.1157 19.5819 13.3428 19.5819 12.5414 19.5819C11.5625 19.5819 10.7067 19.5819 9.92412 19.5758C9.30665 19.567 8.69465 19.4586 8.11175 19.2547C7.43453 19.0242 6.7563 18.7998 6.09688 18.5887C5.88878 18.522 5.80025 18.4009 5.80178 18.1816C5.80788 17.2739 5.80687 16.3499 5.80636 15.4585C5.80636 15.1749 5.80636 14.8914 5.80636 14.6078C5.80636 14.3242 5.80636 14.0417 5.80636 13.7601C5.80636 12.8733 5.80636 11.9564 5.80228 11.0543C5.80228 10.8299 5.89082 10.7159 6.11317 10.6605C6.90487 10.4615 7.62839 10.0031 8.32342 9.25873C9.39191 8.11442 10.1175 6.69893 10.4802 5.05091C10.5311 4.81584 10.5723 4.63013 10.8181 4.63013C10.901 4.63418 10.9835 4.64438 11.0649 4.66066C11.7115 4.76903 12.1593 5.2931 12.1796 5.96523C12.2235 7.18713 12.0474 8.40698 11.6597 9.56655C11.5981 9.74922 11.4821 9.83419 11.2953 9.83419H11.2719C11.1402 9.83012 10.9977 9.82808 10.8247 9.82808C10.7107 9.82808 10.5962 9.82808 10.4823 9.82808H10.262C10.119 9.82282 9.97977 9.87441 9.87476 9.97156C9.8332 10.0152 9.80087 10.0667 9.77971 10.1231C9.75855 10.1795 9.749 10.2396 9.75163 10.2997C9.75418 10.573 9.95515 10.7577 10.2574 10.7577H12.4285C13.6496 10.7577 14.9079 10.7577 16.1473 10.7577C16.2822 10.7548 16.4169 10.7711 16.5472 10.806C16.6974 10.8549 16.8281 10.9502 16.9204 11.0783C17.0128 11.2063 17.0621 11.3604 17.0611 11.5183C17.0574 11.672 17.0074 11.8209 16.9176 11.9457C16.8278 12.0704 16.7024 12.1651 16.5579 12.2174C16.5022 12.2336 16.4449 12.2438 16.387 12.248C16.35 12.2502 16.3134 12.256 16.2776 12.2653C16.1805 12.2931 16.0799 12.3065 15.9789 12.3049C15.845 12.3017 15.7114 12.2898 15.579 12.2693C15.4589 12.2508 15.3377 12.2399 15.2162 12.2368C14.9481 12.2368 14.7456 12.3233 14.6306 12.739C14.7476 13.146 14.9501 13.231 15.2167 13.231C15.336 13.2279 15.4549 13.2173 15.5729 13.1994C15.7039 13.1793 15.8362 13.1677 15.9687 13.1648C16.0688 13.1633 16.1685 13.1763 16.2648 13.2035C16.2959 13.2111 16.3276 13.2156 16.3595 13.2167C16.4067 13.2194 16.4535 13.2264 16.4994 13.2376C16.647 13.2746 16.7794 13.3567 16.8783 13.4724C16.9771 13.5881 17.0375 13.7317 17.051 13.8833C17.0689 14.0231 17.0441 14.165 16.9798 14.2905C16.9155 14.4159 16.8147 14.5189 16.6907 14.5859C16.5448 14.6602 16.3838 14.7001 16.2201 14.7024C16.0893 14.707 15.9458 14.7096 15.7683 14.7096H15.4976H15.2279H15.119C14.8234 14.7106 14.6245 14.8963 14.6245 15.1736Z" fill="#92D7D7"/>
<path d="M15.6866 2.38262C15.4195 2.67722 15.1218 2.97487 14.7199 3.34935C14.6652 3.38856 14.6036 3.41689 14.5382 3.43279C14.5189 3.4389 14.5001 3.4445 14.4828 3.4506C14.2492 3.42414 14.1185 3.34579 14.035 3.18602C13.9689 3.05831 13.9221 2.87158 14.0737 2.70571C14.3963 2.3526 14.7214 2.02747 15.0404 1.73898C15.1131 1.67278 15.2082 1.63644 15.3065 1.63722C15.3704 1.63827 15.4335 1.65204 15.492 1.67772C15.5505 1.70341 15.6034 1.74049 15.6474 1.78681C15.8347 1.97914 15.8148 2.24117 15.6866 2.38262Z" fill="#1F3792"/>
<path d="M8.89426 2.93528C8.86729 3.17238 8.78894 3.30518 8.62917 3.38812C8.55823 3.42753 8.47879 3.44917 8.39766 3.45121C8.30474 3.4505 8.21564 3.41406 8.14886 3.34945C7.79677 3.02788 7.47215 2.70326 7.18213 2.38272C7.03254 2.21786 7.05289 1.94464 7.22792 1.77215C7.31678 1.68556 7.43559 1.63654 7.55966 1.63528C7.66387 1.63406 7.76457 1.67285 7.84103 1.74366C8.13919 2.01638 8.44549 2.32319 8.77774 2.6824C8.82156 2.74105 8.85416 2.80729 8.87391 2.87778C8.88154 2.90068 8.88764 2.91849 8.89426 2.93528Z" fill="#1F3792"/>
<path d="M3.36678 17.6204C3.36618 17.681 3.35358 17.7408 3.3297 17.7965C3.30581 17.8521 3.27112 17.9025 3.22763 17.9447C3.18414 17.9869 3.13272 18.02 3.07634 18.0421C3.01996 18.0643 2.95975 18.075 2.89918 18.0737C2.83789 18.074 2.77716 18.062 2.72055 18.0385C2.66393 18.015 2.61258 17.9805 2.56948 17.9369C2.52595 17.8919 2.49186 17.8386 2.46922 17.7803C2.44659 17.7219 2.43587 17.6596 2.4377 17.597C2.43836 17.5366 2.45095 17.477 2.47474 17.4215C2.49852 17.3661 2.53304 17.3158 2.57631 17.2738C2.61958 17.2317 2.67074 17.1986 2.72684 17.1763C2.78295 17.1541 2.84291 17.1431 2.90326 17.1442V17.0719V17.1442C2.96454 17.1437 3.0253 17.1555 3.08194 17.1789C3.13857 17.2023 3.18993 17.2369 3.23296 17.2805C3.27679 17.3254 3.31121 17.3786 3.33419 17.4369C3.35717 17.4953 3.36825 17.5577 3.36678 17.6204V17.6204Z" fill="#1F3792"/>
</g>
<defs>
<clipPath id="clip0_847_20268">
<rect width="18" height="20.5145" fill="white"/>
</clipPath>
</defs>
</svg>
