<svg width="69" height="69" viewBox="0 0 69 69" fill="none" xmlns="http://www.w3.org/2000/svg">
<path d="M64.1424 68.9998C55.7155 69.0226 47.3677 67.3744 39.582 64.1503C31.7962 60.9263 24.727 56.1904 18.7833 50.2167C12.8096 44.273 8.07374 37.2038 4.84968 29.418C1.62562 21.6323 -0.0226451 13.2845 0.000234974 4.85762C-0.00295369 3.5742 0.503145 2.34194 1.40747 1.43125C2.3118 0.520551 3.54048 0.00581774 4.82388 0L17.8002 0C19.0832 0.00158632 20.3133 0.511984 21.2206 1.41925C22.1278 2.32651 22.6382 3.55657 22.6398 4.83963C22.6339 9.21527 23.3281 13.5637 24.696 17.72C24.9693 18.5737 25.002 19.4862 24.7905 20.3573C24.579 21.2284 24.1315 22.0243 23.497 22.6576L15.9259 30.2287C21.0975 39.9359 29.043 47.8828 38.7493 53.0561L46.3165 45.489C46.9525 44.8546 47.7527 44.41 48.6273 44.205C49.5019 43.9999 50.4163 44.0425 51.268 44.328C55.4197 45.6945 59.7635 46.3873 64.1344 46.3802C65.4176 46.3817 66.6479 46.8921 67.5555 47.7993C68.4631 48.7065 68.9739 49.9366 68.976 51.2198V64.1601C68.9739 65.442 68.4642 66.6708 67.5583 67.5778C66.6525 68.4848 65.4242 68.9961 64.1424 68.9998ZM4.82388 2.26596C4.14163 2.26701 3.48762 2.53851 3.00519 3.02094C2.52276 3.50337 2.25126 4.15738 2.25021 4.83963C2.22886 12.9698 3.81982 21.0236 6.93104 28.5349C10.0423 36.0463 14.612 42.8662 20.3759 48.6002C26.1097 54.3641 32.9296 58.9339 40.441 62.0451C47.9524 65.1564 56.0062 66.7473 64.1364 66.7258C64.8197 66.7285 65.4761 66.4597 65.9613 65.9786C66.4465 65.4975 66.7209 64.8434 66.7241 64.1601V51.2198C66.723 50.5372 66.4512 49.8829 65.9684 49.4004C65.4855 48.9179 64.831 48.6466 64.1484 48.6461C59.5324 48.652 54.9452 47.9194 50.5606 46.4761C50.1093 46.3237 49.6243 46.3003 49.1604 46.4087C48.6965 46.5171 48.2721 46.7529 47.935 47.0895L39.7784 55.2462C39.6081 55.4142 39.389 55.5241 39.1524 55.56C38.9159 55.5959 38.674 55.556 38.4615 55.446C27.7511 49.9483 19.0317 41.2339 13.528 30.5265C13.4185 30.3142 13.3788 30.0728 13.4147 29.8367C13.4506 29.6005 13.5602 29.3818 13.7279 29.2117L21.8825 21.057C22.2259 20.7208 22.4686 20.2953 22.583 19.8285C22.6974 19.3618 22.679 18.8723 22.5299 18.4154C21.089 14.0345 20.3585 9.45135 20.3659 4.83963C20.3648 4.15876 20.0944 3.50595 19.6137 3.02375C19.133 2.54155 18.4811 2.26912 17.8002 2.26596H4.82388Z" fill="#1744F2"/>
<path d="M61.043 54.152C53.8915 54.152 48.6262 50.7731 48.3725 50.6072C48.1299 50.4391 47.9624 50.183 47.9058 49.8933C47.8492 49.6037 47.9078 49.3034 48.0692 49.0563C48.2307 48.8092 48.4821 48.6349 48.7701 48.5704C49.0581 48.5059 49.36 48.5563 49.6113 48.7109C49.6753 48.7509 56.0995 52.8492 63.9884 51.6702C64.1397 51.6374 64.2962 51.6359 64.4481 51.6659C64.6001 51.6959 64.7443 51.7568 64.8718 51.8447C64.9993 51.9326 65.1074 52.0457 65.1895 52.177C65.2716 52.3083 65.3258 52.4551 65.349 52.6083C65.3721 52.7614 65.3636 52.9176 65.3239 53.0674C65.2843 53.2171 65.2144 53.3571 65.1186 53.4787C65.0227 53.6004 64.9029 53.7011 64.7666 53.7746C64.6303 53.8481 64.4804 53.8929 64.3261 53.9062C63.2393 54.0691 62.1419 54.1513 61.043 54.152Z" fill="#1744F2"/>
<path d="M17.9117 16.9844C17.69 16.9843 17.4731 16.9191 17.2881 16.7969C17.103 16.6747 16.9579 16.5009 16.8707 16.297C15.1802 12.3546 15.39 5.67861 15.4 5.39487C15.4173 5.09961 15.5494 4.82283 15.768 4.62363C15.9866 4.42443 16.2744 4.31862 16.57 4.3288C16.8656 4.33897 17.1455 4.46433 17.3499 4.67808C17.5543 4.89184 17.667 5.17705 17.664 5.4728C17.664 5.53674 17.4641 11.927 18.9528 15.4018C19.0268 15.5743 19.0569 15.7625 19.0404 15.9495C19.0238 16.1364 18.9612 16.3164 18.858 16.4732C18.7549 16.63 18.6144 16.7588 18.4493 16.848C18.2841 16.9372 18.0994 16.9841 17.9117 16.9844Z" fill="#1744F2"/>
<path d="M19.5163 20.6671C19.3163 20.6671 19.1199 20.6143 18.9469 20.5139C18.7739 20.4135 18.6305 20.2693 18.5312 20.0957C18.4091 19.8907 18.3055 19.6754 18.2215 19.4522C18.1231 19.1679 18.1418 18.8562 18.2733 18.5856C18.4049 18.3151 18.6385 18.1078 18.9228 18.0095C19.2071 17.9112 19.5189 17.9299 19.7894 18.0614C20.06 18.193 20.2672 18.4266 20.3655 18.7109C20.3875 18.7589 20.4494 18.8788 20.5034 18.9707C20.6015 19.1431 20.6528 19.3382 20.652 19.5365C20.6512 19.7349 20.5985 19.9296 20.499 20.1012C20.3996 20.2729 20.2569 20.4154 20.0851 20.5147C19.9134 20.614 19.7186 20.6666 19.5203 20.6671H19.5163ZM20.3655 18.7209V18.7349C20.3653 18.7302 20.3653 18.7256 20.3655 18.7209Z" fill="#1744F2"/>
</svg>
