<svg width="13" height="13" viewBox="0 0 13 13" fill="none" xmlns="http://www.w3.org/2000/svg">
<path d="M6.50815 0C2.92177 0 0.0146484 2.90713 0.0146484 6.4935C0.0146484 9.24422 1.72659 11.5928 4.14255 12.5385C4.08527 12.0242 4.03449 11.2373 4.16368 10.6767C4.2823 10.1688 4.9254 7.44981 4.9254 7.44981C4.9254 7.44981 4.7308 7.05819 4.7308 6.48497C4.7308 5.5835 5.25568 4.90872 5.90527 4.90872C6.4598 4.90872 6.72833 5.3235 6.72833 5.82278C6.72833 6.37934 6.3749 7.21297 6.19087 7.98525C6.03649 8.63078 6.51465 9.15728 7.15165 9.15728C8.30499 9.15728 9.19346 7.94056 9.19346 6.18434C9.19346 4.63531 8.07627 3.54778 6.48093 3.54778C4.63371 3.54778 3.55024 4.93594 3.55024 6.36391C3.55024 6.9225 3.76393 7.52334 4.03287 7.84713C4.08568 7.91253 4.09218 7.96981 4.07715 8.03563C4.0284 8.23875 3.9183 8.68522 3.89718 8.77419C3.86752 8.89484 3.80415 8.92003 3.67943 8.86316C2.87099 8.48859 2.36115 7.30356 2.36115 6.34725C2.36115 4.30138 3.85087 2.418 6.65237 2.418C8.9038 2.418 10.6556 4.02594 10.6556 6.16728C10.6556 8.40816 9.24424 10.2107 7.28084 10.2107C6.62271 10.2107 6.0048 9.86984 5.78705 9.46359L5.3808 11.0061C5.23496 11.5712 4.83684 12.2797 4.5683 12.7095C5.17768 12.8956 5.81874 12.9996 6.49149 12.9996C10.0718 12.9996 12.983 10.0945 12.983 6.50609C12.983 2.91972 10.0714 0.014625 6.49149 0.014625L6.50815 0Z" fill="#1F3792"/>
</svg>
