<svg width="17" height="19" viewBox="0 0 17 19" fill="none" xmlns="http://www.w3.org/2000/svg">
<path d="M7.97409 18.9687C7.63076 18.9661 7.35423 18.6853 7.35683 18.342L7.47929 2.19748L1.1564 8.52987C1.09934 8.59036 1.03072 8.63879 0.954616 8.6723C0.878508 8.70581 0.796454 8.72372 0.713306 8.72497C0.630157 8.72622 0.547602 8.71078 0.470524 8.67957C0.393445 8.64836 0.323407 8.60201 0.264552 8.54326C0.205698 8.48451 0.159221 8.41456 0.127871 8.33753C0.0965206 8.26051 0.0809334 8.17798 0.0820311 8.09483C0.0831288 8.01168 0.100889 7.9296 0.134262 7.85343C0.167634 7.77726 0.215941 7.70856 0.276326 7.65138L7.66624 0.249266L7.67928 0.235929C7.74521 0.171791 7.82459 0.123138 7.91166 0.0935016C7.99873 0.0638648 8.09131 0.0539886 8.18267 0.0645887C8.33218 0.0813176 8.47049 0.151878 8.57179 0.263101L15.8422 7.76945C15.9017 7.82754 15.9489 7.89696 15.9811 7.97363C16.0133 8.0503 16.0299 8.13264 16.0297 8.2158C16.0295 8.29896 16.0127 8.38124 15.9802 8.45778C15.9477 8.53431 15.9001 8.60355 15.8404 8.6614C15.7807 8.71925 15.7099 8.76453 15.6324 8.79457C15.5548 8.82461 15.4721 8.83879 15.3889 8.83629C15.3058 8.83378 15.224 8.81463 15.1485 8.77996C15.0729 8.7453 15.005 8.69584 14.9489 8.63449L8.72275 2.20691L8.60029 18.3514C8.59973 18.4331 8.58309 18.5138 8.55132 18.5891C8.51954 18.6643 8.47326 18.7325 8.4151 18.7898C8.35695 18.8471 8.28807 18.8924 8.2124 18.9231C8.13672 18.9538 8.05575 18.9693 7.97409 18.9687Z" fill="#1F3792"/>
</svg>
