<svg width="134" height="133" viewBox="0 0 134 133" fill="none" xmlns="http://www.w3.org/2000/svg">
<path d="M44.4871 2.51187C44.0519 1.89543 43.6349 1.2681 43.1889 0.60452L42.9278 0.216523C42.8924 0.162897 42.8465 0.116959 42.7929 0.081448C42.7394 0.045937 42.6792 0.0215812 42.616 0.00983337C42.5536 -0.00327682 42.4891 -0.0032778 42.4267 0.00983048C42.3643 0.0229388 42.3052 0.0488705 42.2534 0.0859823L40.1212 1.53644C40.0393 1.58896 39.976 1.66587 39.9403 1.75632C39.9045 1.84676 39.898 1.94615 39.9218 2.04047C39.9185 2.05234 39.9185 2.06486 39.9218 2.07673L40.1212 2.39221C40.5527 3.07755 40.9987 3.78102 41.4665 4.45548C48.1966 14.1917 49.6471 25.0556 45.7816 36.7281C44.6696 40.0932 43.5624 43.4606 42.4601 46.8305C39.0986 57.0816 35.6248 67.6844 31.9443 78.0153C28.7968 86.8377 27.6654 93.8253 28.2782 100.675C28.3025 101.07 28.288 101.466 28.2347 101.857C28.2103 102.103 28.095 102.332 27.9112 102.497C27.7275 102.663 27.4886 102.754 27.2412 102.753H24.2822C24.0307 102.752 23.7889 102.656 23.6048 102.485C23.4207 102.313 23.3078 102.079 23.2887 101.828C23.2597 101.466 23.2379 101.132 23.2379 100.798C23.2379 99.7782 23.2379 98.7605 23.2379 97.7451C23.2379 95.6311 23.2597 93.4482 23.1944 91.3051C23.17 89.9389 22.949 88.5833 22.5381 87.2801C19.2056 77.1849 15.7862 66.9193 12.4792 56.9873C10.0617 49.7568 7.65639 42.5239 5.26314 35.2885C3.54797 30.0959 3.18536 24.5914 4.15716 18.4125C4.94041 13.4592 7.05807 8.58928 10.6842 3.52356C10.9671 3.12469 11.2209 2.68955 11.4928 2.22903C11.5297 2.1702 11.5536 2.10421 11.5629 2.03544C11.5723 1.96667 11.567 1.8967 11.5472 1.83015C11.528 1.76608 11.4954 1.7068 11.4517 1.65618C11.4079 1.60557 11.354 1.56476 11.2934 1.53644L8.97268 0.430465C8.9072 0.398595 8.83518 0.382453 8.76236 0.383326C8.68371 0.382913 8.60617 0.401887 8.5366 0.43857C8.46703 0.475253 8.40757 0.528513 8.36348 0.593642C7.81594 1.38414 7.27564 2.18189 6.73897 2.97964C-0.295734 13.4483 -1.82596 24.9649 2.16279 37.214C5.48796 47.4325 8.95455 57.796 12.316 67.8222C14.4518 74.2151 16.6673 80.8292 18.8176 87.3417C19.2999 88.8349 19.553 90.3925 19.5683 91.9614C19.6263 95.3918 19.6154 98.8801 19.6045 102.249C19.6045 103.578 19.6045 104.908 19.6045 106.238C19.6045 108.21 19.6045 110.184 19.6045 112.159C19.6045 116.757 19.6045 121.511 19.6045 126.185C19.5928 127.181 19.8139 128.166 20.2502 129.061C20.6865 129.956 21.3259 130.737 22.1174 131.341C22.8776 131.904 23.7588 132.281 24.6907 132.442C25.6225 132.603 26.5792 132.544 27.4841 132.27C30.2182 131.483 31.8971 129.042 31.8971 125.898C31.8971 122.045 31.8971 118.191 31.8971 114.335C31.8971 106.81 31.8971 99.0324 31.8971 91.3813C31.8997 90.2953 32.076 89.2169 32.4193 88.1866C37.96 71.4665 43.6603 54.3149 49.386 37.2068C50.6019 33.5775 51.2847 29.7911 51.413 25.9657C51.7773 17.595 49.3401 9.34186 44.4871 2.51187ZM23.528 107.046C23.6201 106.945 23.732 106.864 23.8568 106.809C23.9817 106.753 24.1166 106.724 24.2532 106.723H27.194C27.4585 106.723 27.7121 106.829 27.8991 107.016C28.0861 107.203 28.1912 107.456 28.1912 107.721V108.272C28.1912 108.536 28.0861 108.79 27.8991 108.977C27.7121 109.164 27.4585 109.269 27.194 109.269H24.2931C24.043 109.267 23.8026 109.172 23.6188 109.003C23.4351 108.833 23.3212 108.601 23.2995 108.352L23.256 107.804C23.2464 107.666 23.2656 107.527 23.3124 107.397C23.3593 107.266 23.4327 107.147 23.528 107.046ZM23.2814 114.222C23.273 114.086 23.2926 113.949 23.3392 113.821C23.3857 113.692 23.4582 113.575 23.552 113.476C23.6458 113.376 23.7591 113.297 23.8847 113.244C24.0103 113.19 24.1456 113.163 24.2822 113.163H27.1831C27.4476 113.163 27.7013 113.269 27.8883 113.456C28.0753 113.643 28.1803 113.896 28.1803 114.161V114.795C28.1803 115.06 28.0753 115.313 27.8883 115.5C27.7013 115.687 27.4476 115.792 27.1831 115.792H24.2822C24.026 115.792 23.7797 115.693 23.5942 115.516C23.4087 115.339 23.298 115.098 23.285 114.842L23.2814 114.222ZM27.97 122.022C27.8769 122.121 27.7645 122.199 27.6396 122.252C27.5148 122.305 27.3804 122.332 27.2448 122.33H24.3439C24.0794 122.33 23.8258 122.225 23.6388 122.038C23.4517 121.851 23.3467 121.598 23.3467 121.333V120.662C23.3462 120.531 23.3717 120.401 23.4216 120.28C23.4715 120.158 23.5448 120.048 23.6375 119.955C23.7301 119.862 23.8402 119.788 23.9614 119.738C24.0826 119.687 24.2126 119.662 24.3439 119.662H27.2158C27.4723 119.661 27.719 119.76 27.9047 119.937C28.0905 120.114 28.2008 120.355 28.213 120.612L28.2456 121.282C28.2522 121.416 28.2312 121.55 28.1837 121.676C28.1363 121.801 28.0636 121.915 27.97 122.011V122.022Z" fill="#1F3792"/>
<path d="M132.772 43.1757C132.182 41.9812 131.864 40.6711 131.84 39.3392C131.79 32.9826 131.793 26.5172 131.797 20.2694V12.0707C131.797 11.059 131.568 10.3736 131.101 9.97112C130.688 9.64936 130.172 9.49175 129.65 9.52874C129.399 9.52986 129.148 9.54925 128.9 9.58675C123.206 10.4135 119.511 14.6633 119.49 20.4289C119.49 21.4442 119.49 22.4777 119.515 23.4785C119.54 25.5055 119.569 27.605 119.453 29.6647C119.25 33.1675 119.54 36.79 122.989 39.5532C123.262 39.7682 123.486 40.0381 123.648 40.3455C123.81 40.6528 123.905 40.9907 123.928 41.3372C123.954 41.8152 123.885 42.2937 123.725 42.7449C123.565 43.1961 123.317 43.6112 122.996 43.9662C122.464 44.604 121.877 45.1937 121.241 45.7285C119.936 46.7583 119.428 48.0891 119.49 50.1777C119.809 58.8333 120.073 67.5614 120.306 75.2597C120.378 77.7473 120.451 80.1441 120.523 82.4214C120.599 85.3767 120.665 88.1362 120.73 90.7615C120.878 96.683 121.005 101.796 121.15 106.978C121.306 112.417 121.459 116.536 121.644 120.394C121.692 121.243 121.923 122.071 122.321 122.822C122.719 123.573 123.275 124.229 123.95 124.746C124.633 125.282 125.424 125.665 126.269 125.867C127.114 126.069 127.993 126.086 128.845 125.917C132.109 125.25 133.969 122.846 133.969 119.321V99.5331C133.969 82.813 133.969 65.5199 133.998 48.5097C134.03 46.6584 133.609 44.8273 132.772 43.1757ZM123.156 33.1712C123.083 28.0148 123.08 23.7033 123.156 19.6094C123.203 16.8318 125.27 14.2137 127.768 13.7749L128.069 13.7242V40.2494L127.616 39.6982C127.293 39.3102 126.96 38.915 126.622 38.5161C125.745 37.4718 124.838 36.3948 123.986 35.2526C123.504 34.6593 123.215 33.9332 123.156 33.1712ZM130.35 101.894V118.792C130.35 118.893 130.35 118.998 130.35 119.1C130.37 119.463 130.351 119.828 130.296 120.188C130.045 121.544 129.164 122.32 127.819 122.363H127.681C127.117 122.39 126.562 122.21 126.12 121.858C125.679 121.506 125.38 121.005 125.281 120.449C125.148 119.902 125.079 119.343 125.074 118.781C124.994 115.638 124.916 112.495 124.838 109.353C124.719 104.53 124.595 99.544 124.454 94.6414L124.36 91.4468C123.997 78.6792 123.605 65.4728 123.13 52.4912C123.032 49.8079 123.681 48.0891 125.371 46.5589C126.118 45.8808 126.615 44.9235 127.144 43.9118C127.384 43.4513 127.63 42.9799 127.906 42.5266L128.153 42.1205L128.356 42.552C128.541 42.9436 128.751 43.3243 128.972 43.7305C129.661 44.9815 130.372 46.2688 130.372 47.9585C130.346 65.9659 130.35 84.2381 130.35 101.894Z" fill="#1F3792"/>
<path d="M84.0299 6.08004V2.356C84.0242 1.98732 83.8725 1.63597 83.608 1.37902C83.3436 1.12206 82.988 0.980473 82.6194 0.985318H81.8434C81.4744 0.987056 81.1206 1.13216 80.8567 1.38997C80.5928 1.64778 80.4395 1.99809 80.4292 2.36688C80.4292 2.4394 80.4292 2.5083 80.4292 2.58082C80.4292 9.89111 80.4292 16.0338 80.4292 22.2526C80.4292 23.2462 80.2624 24.2216 79.0222 24.6386L78.9316 24.6713L78.8409 24.635C77.6697 24.1455 77.5138 23.1845 77.5138 22.1837C77.5355 15.3775 77.5138 8.46241 77.5138 2.51555C77.509 2.10423 77.3415 1.71156 77.0479 1.42342C76.7543 1.13529 76.3586 0.975162 75.9473 0.978066H75.4795C75.07 0.976056 74.676 1.13488 74.3823 1.42038C74.0887 1.70588 73.9189 2.09523 73.9094 2.50467V2.55906C73.9094 4.60179 73.9094 6.6433 73.9094 8.68361C73.9094 12.7231 73.9094 16.9041 73.8767 21.0125V21.23C73.8477 23.5073 73.8187 25.6576 75.8639 27.1479C75.9131 27.191 75.9527 27.2439 75.9802 27.3032C76.0076 27.3626 76.0224 27.427 76.0234 27.4924C76.0234 27.5323 76.0234 27.583 76.0488 27.6374L76.0778 27.7535L76.0053 27.8477L75.882 28.0363C75.759 28.2467 75.5993 28.4333 75.4106 28.5875C74.214 29.494 73.7317 30.7197 73.8477 32.5762C73.881 33.3727 73.8726 34.1703 73.8223 34.9659C73.8223 35.2632 73.797 35.5605 73.7861 35.8543L73.4815 45.9095C73.1551 56.788 72.8227 67.6664 72.4843 78.5448C72.3175 83.9078 72.1217 89.3616 71.9476 94.634L71.7446 100.639C71.6757 102.651 70.7365 104.305 69.83 105.904C69.3636 106.697 68.9412 107.516 68.5644 108.355L68.4665 108.595L68.2272 108.493C66.4377 107.699 64.5062 107.275 62.5487 107.246C60.9887 107.251 59.445 107.563 58.0051 108.163C56.3883 108.793 54.9212 109.754 53.6984 110.985C52.4756 112.216 51.5241 113.689 50.9052 115.31C49.8547 118.018 49.7703 121.006 50.6663 123.769C51.5623 126.532 53.3838 128.901 55.8236 130.478C58.2634 132.054 61.1721 132.74 64.0592 132.421C66.9463 132.103 69.6351 130.798 71.6721 128.727C76.444 123.882 76.4187 117.809 71.5995 110.68L71.5161 110.556L71.5814 110.422C71.8751 109.831 72.1725 109.244 72.4662 108.656C73.2095 107.18 73.9783 105.654 74.6962 104.134C75.0358 103.488 75.2476 102.783 75.3199 102.057C75.5955 94.3801 75.8675 86.0436 76.1467 76.5758C76.3087 70.9964 76.4658 65.4182 76.6181 59.8412C76.7631 54.5228 76.9118 49.2045 77.0641 43.8862C77.162 40.6226 77.2889 36.7282 77.5138 32.7684C77.5879 32.0108 77.9045 31.2974 78.4167 30.7342C79.0404 30.0488 79.7148 29.3925 80.3639 28.7543C81.2088 27.9312 82.0791 27.079 82.8478 26.1688C83.4996 25.4157 83.8946 24.4746 83.9755 23.4819C84.0553 17.7054 84.0408 11.7948 84.0299 6.08004ZM71.7011 119.915C71.6992 121.103 71.4631 122.279 71.0063 123.376C70.5495 124.472 69.881 125.468 69.039 126.306C68.197 127.144 67.1981 127.808 66.0993 128.259C65.0006 128.711 63.8236 128.941 62.6357 128.937C60.269 128.887 58.0165 127.91 56.3618 126.217C54.7071 124.524 53.7821 122.25 53.7855 119.883C53.7888 117.516 54.7202 115.244 56.3796 113.556C58.0391 111.868 60.2943 110.898 62.6611 110.854C65.0635 110.856 67.3669 111.811 69.0653 113.51C70.7637 115.209 71.7182 117.513 71.7192 119.915H71.7011Z" fill="#1F3792"/>
<path d="M109.021 114.915C107.919 112.264 105.923 110.083 103.379 108.751C99.6297 106.76 95.7353 106.724 91.4746 108.642L91.286 108.725L90.0459 107.05C88.8021 105.371 87.6309 103.787 86.456 102.162C86.3394 101.985 86.2672 101.782 86.2457 101.571C86.1401 100.786 86.0808 99.9952 86.068 99.2031C85.8577 91.9798 85.6498 84.7542 85.4443 77.5261C85.1518 67.3511 84.8569 57.1774 84.5595 47.0049C84.4362 42.9037 84.2803 38.7373 84.1244 34.705L84.0301 32.2283C84.0207 32.0116 83.928 31.8068 83.7712 31.6568C83.6145 31.5068 83.4058 31.4231 83.1888 31.4233H81.3214C81.2064 31.4241 81.0929 31.4483 80.9877 31.4946C80.8825 31.5409 80.7879 31.6083 80.7098 31.6925C80.6316 31.7768 80.5716 31.8762 80.5333 31.9845C80.4951 32.0929 80.4794 32.208 80.4874 32.3226V32.5656C80.5345 33.5047 80.578 34.3786 80.5998 35.2743C80.6916 38.4169 80.7799 41.5596 80.8645 44.7023C80.9902 49.2422 81.1195 53.7809 81.2525 58.3184L81.3177 60.4687C81.7202 73.8854 82.1372 87.7844 82.6123 101.444C82.681 102.501 83.0288 103.521 83.6203 104.399C84.6212 105.911 85.7126 107.34 86.8657 108.856C87.3492 109.472 87.8254 110.101 88.2944 110.741L88.4141 110.905L88.2836 111.061C85.7453 114.049 84.603 117.116 84.7807 120.434C84.8477 122.125 85.2581 123.785 85.9868 125.312C86.7155 126.839 87.7474 128.202 89.0197 129.318C91.1637 131.231 93.8961 132.355 96.7654 132.504C99.6347 132.654 102.469 131.82 104.8 130.14C107.132 128.461 108.82 126.037 109.587 123.268C110.354 120.499 110.153 117.551 109.018 114.912L109.021 114.915ZM105.464 124.213C104.704 125.833 103.406 127.14 101.791 127.911C100.419 128.578 98.9146 128.93 97.3888 128.941C96.2009 128.947 95.0239 128.714 93.9272 128.258C92.8304 127.801 91.8362 127.13 91.0032 126.283C88.1856 123.455 87.5728 119.325 89.4077 115.499C90.1822 113.886 91.4919 112.592 93.1136 111.837C96.9246 110.067 101.026 110.709 103.818 113.508C106.61 116.308 107.245 120.409 105.464 124.213Z" fill="white"/>
</svg>
