<svg width="112" height="86" viewBox="0 0 112 86" fill="none" xmlns="http://www.w3.org/2000/svg">
<path d="M112 17.1854C111.708 18.8454 111.813 20.5231 111.784 22.1948C111.65 30.1036 111.533 38.0133 111.433 45.9241C111.433 46.681 111.24 47.023 110.434 47.0931C104.913 47.5374 99.3977 47.9992 93.8622 48.2388C93.6313 48.2388 93.3624 48.3528 93.0877 48.0722C95.1588 46.2953 96.9276 44.1938 98.3251 41.8498C98.5472 41.4757 98.7616 41.0968 98.9681 40.7129C99.1464 40.3856 99.351 39.9969 98.9009 39.7747C98.5092 39.5818 98.3485 39.9706 98.179 40.2541C97.7113 41.0315 97.2671 41.8294 96.7556 42.5922C92.7223 48.4989 87.0786 51.6525 80.0145 52.4358C73.3859 53.1577 67.0583 51.8513 60.8447 49.6972C60.6378 49.6291 60.4492 49.5148 60.2933 49.3628C60.1373 49.2109 60.018 49.0254 59.9445 48.8204C59.6113 48.0547 59.243 47.3036 58.8631 46.5583C58.6789 46.2017 58.5708 45.5441 58.0067 45.8188C57.3608 46.1374 57.8986 46.643 58.0798 47.0142C59.3921 49.6972 60.5875 52.4241 61.3298 55.3263C61.6718 56.6708 61.9144 58.0269 61.6893 59.4181C61.6427 59.8738 61.4583 60.3046 61.1607 60.6529C60.863 61.0011 60.4663 61.2504 60.0234 61.3675C58.0476 61.9783 56.1479 61.727 54.2803 60.9291C54.1083 60.8762 53.9618 60.7616 53.8691 60.6073C53.7763 60.4531 53.7437 60.27 53.7776 60.0932C54.105 55.2357 52.93 50.7114 50.7059 46.4297C50.399 45.8452 50.6036 45.7136 51.1384 45.5529C56.3993 44.0185 61.1369 41.4085 65.5882 38.2666C65.8525 38.0586 66.1689 37.927 66.5028 37.8863C66.8368 37.8456 67.1755 37.8973 67.4821 38.0358C72.5441 39.8127 77.7436 40.7305 83.1301 40.3739C83.4933 40.3584 83.8553 40.3223 84.2144 40.2658C84.5067 40.2073 84.9451 40.1956 84.8545 39.7134C84.7756 39.2808 84.4102 39.31 84.0712 39.3568C82.4046 39.5501 80.7236 39.5872 79.05 39.4679C75.1044 39.2837 71.302 38.3836 67.4528 37.0713C69.3964 35.4696 71.2523 33.9762 73.0615 32.4154C73.4531 32.0764 74.5023 31.7666 73.9061 31.1002C73.3596 30.4923 72.851 31.4276 72.4448 31.7812C67.4762 36.0483 62.2359 39.8917 56.2677 42.6565C52.6436 44.337 48.8734 45.5412 44.8693 45.7282C39.9533 45.9591 35.5459 44.7258 32.2608 40.7743C31.0742 39.351 30.2676 37.7201 30.1974 35.8233C30.0718 32.3774 32.3018 30.2293 35.7505 30.6005C46.3832 31.7432 56.0807 29.0076 65.141 23.6006C65.6262 23.3084 66.7017 23.0658 66.237 22.3322C65.8161 21.6746 65.1673 22.5426 64.6938 22.832C60.6159 25.3041 56.2127 27.1948 51.6119 28.4494C51.4636 28.5167 51.3022 28.5501 51.1394 28.5471C50.9765 28.544 50.8165 28.5047 50.6708 28.4318C51.0332 27.9204 51.381 27.4235 51.7347 26.9296C56.2531 20.6224 60.8563 14.362 65.2287 7.96723C66.2516 6.46497 67.1576 6.38898 68.6482 6.71924C77.4575 8.69892 85.9196 11.9905 93.7511 16.4839C93.8768 16.5541 93.9995 16.6359 94.1311 16.6973C94.4233 16.8346 94.7156 17.1064 94.9932 16.7148C95.3235 16.2326 94.8617 16.0572 94.5811 15.8935C92.506 14.6835 90.3813 13.5554 88.2039 12.5471C86.8219 11.9377 85.4736 11.2548 84.1647 10.5012C85.0415 10.4281 85.8979 10.3317 86.7659 10.282C92.4739 9.94003 98.1644 9.40518 103.858 8.86741C106.576 8.61606 109.285 8.28288 112 7.99061V17.1854Z" fill="#1744F2"/>
<path d="M52.5173 6.2953L39.5815 25.2723C38.8064 22.8928 37.616 20.6694 36.0655 18.705C35.9587 18.5581 35.8446 18.4166 35.7236 18.2812C35.5102 18.0562 35.3056 17.6616 34.9345 17.9626C34.5633 18.2637 34.7971 18.6086 35.0397 18.9037C36.1956 20.3529 37.1766 21.9333 37.9624 23.6122C38.8099 25.3219 38.8976 26.7862 37.5327 28.3557C36.7933 29.212 36.235 29.6884 35.0134 29.7177C30.5008 29.8346 28.1509 33.3593 29.6327 37.7696C30.0068 38.8861 29.8636 39.6372 29.2002 40.517C28.2152 41.8234 27.3267 43.2058 26.4236 44.5707C25.9911 45.2254 25.6111 45.8187 24.6379 45.6287C23.6646 45.4388 22.9544 44.9624 22.592 44.03C22.0922 42.6914 22.1419 41.2798 22.3699 39.9383C23.5389 33.0261 25.7514 26.4121 28.4899 19.9822C30.6177 14.9815 34.5604 11.8338 39.5055 9.81129C43.4248 8.20674 47.5137 7.20133 51.6317 6.30407C51.926 6.27379 52.2225 6.27086 52.5173 6.2953Z" fill="#1744F2"/>
<path d="M37.8191 29.8112C37.7519 29.4459 37.9711 29.2705 38.1114 29.0718C44.0971 20.2804 50.0866 11.4938 56.08 2.71215C57.3456 0.876711 60.4085 -0.403422 62.2849 0.116815C65.114 0.903015 66.5462 4.63528 64.851 7.02018C59.7451 14.2041 54.5895 21.3559 49.4573 28.5223C49.2644 28.7912 49.089 29.0835 48.7354 29.1507C45.1229 29.8288 41.5017 30.1649 37.8191 29.8112Z" fill="#1744F2"/>
<path d="M0 85.3188L3.09512 81.0487C8.8528 73.1321 14.6076 65.2107 20.3594 57.2844C20.5112 57.0243 20.7347 56.8135 21.0032 56.6772C21.2717 56.5409 21.5738 56.4848 21.8733 56.5157C23.6562 56.5946 25.4419 56.583 27.2277 56.5859C27.8122 56.5859 28.16 56.6326 27.7508 57.3575C23.3668 65.0938 18.9302 72.7834 12.8452 79.3448C10.3463 82.0337 7.54051 84.3367 3.86963 85.2808C2.63041 85.6052 1.38243 85.8215 0 85.3188Z" fill="#1744F2"/>
<path d="M45.273 55.6039C45.273 57.6118 45.0363 59.3332 44.1741 60.9027C43.0898 62.8784 41.4794 63.2818 39.6381 61.9929C37.3584 60.3942 36.0461 58.0268 34.8244 55.6214C33.3046 52.6257 33.3309 52.6111 35.2511 49.9251C36.0987 48.756 36.9668 47.587 37.7939 46.3799C38.0628 45.9941 38.2966 45.8743 38.7759 46.0233C39.5007 46.2455 40.2665 46.4997 41.0059 46.4734C42.6017 46.415 43.3645 47.1398 43.8526 48.6187C44.6329 50.9802 45.2409 53.3505 45.273 55.6039Z" fill="#1744F2"/>
<path d="M20.298 55.4491C20.2775 55.0721 20.5522 54.847 20.7276 54.5869C23.8198 50.0392 26.9266 45.5003 30.0013 40.9409C30.4601 40.257 30.6705 40.0992 31.2142 40.9088C32.5246 42.8141 34.3604 44.2975 36.4984 45.1788C37.1618 45.4711 37.191 45.6786 36.7906 46.2456C34.6454 49.1858 32.5381 52.1582 30.4163 55.1218C30.1825 55.4462 29.9779 55.7502 29.4781 55.7355C26.5262 55.6566 23.5714 55.6128 20.6195 55.5514C20.508 55.5328 20.3997 55.4984 20.298 55.4491Z" fill="#1744F2"/>
<path d="M52.9267 57.9012C52.9267 60.0961 52.7221 61.7474 52.0499 63.3052C50.9597 65.8216 48.7823 66.3331 46.6926 64.5824C46.3857 64.3281 46.1081 64.0359 45.8158 63.7524C44.939 62.8756 44.559 62.0894 45.2313 60.6748C46.8007 57.3254 46.3243 53.7948 45.3657 50.3402C45.0737 49.3308 44.7154 48.3417 44.2931 47.3795C44.0476 46.795 44.2112 46.7219 44.749 46.6781C46.1264 46.6127 47.4954 46.4279 48.8408 46.1257C49.3493 45.9942 49.5598 46.2455 49.7673 46.6371C51.7313 50.3226 52.8448 54.2244 52.9267 57.9012Z" fill="#1744F2"/>
</svg>
