<svg width="112" height="90" viewBox="0 0 112 90" fill="none" xmlns="http://www.w3.org/2000/svg">
<path d="M72.7589 47.2082C72.3537 46.6841 72.5322 46.1934 72.5247 45.7436C72.469 41.6548 72.7701 37.566 72.4021 33.4512C72.2682 31.9644 71.5471 31.0909 70.2908 30.8493C69.6418 30.7072 68.9632 30.8105 68.3859 31.1393C67.8086 31.4681 67.3735 31.9991 67.1647 32.6298C64.7746 38.7444 62.4291 44.8961 60.0688 51.0033C59.6744 52.1458 59.1532 53.2405 58.515 54.2669C58.515 53.8394 58.515 53.412 58.515 52.9882C58.515 43.8715 58.5088 34.7547 58.4964 25.6379C58.4964 24.7049 58.4221 23.8091 57.6415 23.1363C56.1212 21.8242 54.088 22.3186 53.1476 24.3295C51.486 27.8756 49.8951 31.4514 48.2745 35.0161C47.1593 37.5066 46.0108 40.0045 44.6577 42.4875C44.6577 41.8407 44.6577 41.1902 44.6577 40.5434C44.6577 38.276 44.6577 36.0086 44.6169 33.7412C44.6169 32.3026 43.9218 31.2767 42.7249 30.931C42.1589 30.7449 41.5474 30.7499 40.9846 30.9454C40.4217 31.1408 39.9387 31.5159 39.6099 32.0127C37.3797 34.9864 35.1494 37.9192 32.9526 40.9337C32.7412 41.2797 32.4395 41.5614 32.08 41.7488C31.7204 41.9361 31.3166 42.0218 30.912 41.9968C23.9313 41.9596 16.9518 41.9596 9.97362 41.9968C9.06665 41.9968 8.59086 41.7255 8.19314 40.8817C-0.318989 22.7386 11.9177 3.97474 28.7821 0.975055C38.5097 -0.742238 46.6761 2.56968 53.891 8.85899C55.6826 10.4239 55.6826 10.4759 57.3702 8.71031C61.5593 4.32415 66.5588 1.45084 72.5805 0.436078C81.3677 -1.05076 89.0955 1.27614 95.6264 7.23834C100.187 11.3978 103.916 16.1891 105.38 22.3929C106.867 28.79 106.123 34.9158 103.254 40.8148C102.826 41.692 102.295 41.9708 101.34 41.9634C93.7939 41.9262 86.2482 41.9634 78.7025 41.9187C78.0957 41.8774 77.4886 41.9961 76.942 42.2629C76.3954 42.5297 75.9284 42.9352 75.5876 43.439C74.6918 44.6954 73.7328 45.9146 72.7589 47.2082Z" fill="#1744F2"/>
<path d="M67.1092 49.1186C67.1092 51.3006 67.1092 53.4119 67.1092 55.5269C67.1092 57.0658 67.7672 58.1066 69.0012 58.4708C70.3394 58.8648 71.3876 58.3742 72.1979 57.2925C74.4282 54.3188 76.6584 51.3786 78.8627 48.3938C79.0527 48.0854 79.3218 47.8335 79.6421 47.6642C79.9624 47.4949 80.3222 47.4144 80.684 47.4311C89.8875 47.4608 99.091 47.4311 108.295 47.4571C110.488 47.4571 111.748 48.5722 111.699 50.3564C111.662 51.9473 110.502 53.0588 108.796 53.0662C104.042 53.0662 99.2843 53.0922 94.5302 53.0662C94.1257 53.0458 93.7218 53.1157 93.3477 53.2706C92.9735 53.4255 92.6385 53.6617 92.3668 53.962C81.2379 65.1653 70.0866 76.35 58.9131 87.5161C55.8242 90.6087 55.4079 90.6199 52.2744 87.4975C41.1231 76.381 29.9966 65.2384 18.8949 54.0698C18.5959 53.7365 18.2269 53.4734 17.8144 53.2993C17.4019 53.1252 16.956 53.0443 16.5086 53.0625C12.1038 53.1182 7.69907 53.0885 3.29432 53.0848C1.25364 53.0848 0.0418731 52.0737 0.000985179 50.3639C-0.0399028 48.654 1.19417 47.472 3.28689 47.4757C10.3493 47.4757 17.4118 47.5389 24.4743 47.5612C27.4814 47.5612 30.4885 47.6355 33.4956 47.4014C33.9796 47.3937 34.4548 47.2711 34.882 47.0436C35.3092 46.8161 35.6762 46.4902 35.9526 46.0929C36.8968 44.7882 37.8781 43.5096 38.8482 42.216C39.2943 42.4874 39.101 42.8739 39.101 43.1787C39.127 46.8438 39.127 50.5088 39.1419 54.1702C39.1419 54.7798 39.1791 55.3931 39.2423 55.999C39.3947 57.4263 40.2013 58.363 41.4205 58.5712C42.6397 58.7794 43.7734 58.259 44.3941 56.9505C46.6839 52.018 48.929 47.0668 51.1927 42.1231C51.7279 40.9522 52.2669 39.785 52.8914 38.406C53.1155 38.941 53.1926 39.5262 53.1144 40.101C53.1144 48.5636 53.1045 57.0261 53.0847 65.4887C53.0847 66.9755 53.159 68.4624 53.2296 69.9492C53.2928 71.2948 54.066 72.2315 55.2517 72.4619C56.6382 72.737 57.8128 72.2352 58.3518 70.9156C59.8386 67.2543 61.2809 63.567 62.7045 59.8759C63.9609 56.6346 65.1652 53.371 66.4216 50.126C66.5331 49.81 66.4959 49.3305 67.1092 49.1186Z" fill="#1744F2"/>
</svg>
