<svg width="111" height="109" viewBox="0 0 111 109" fill="none" xmlns="http://www.w3.org/2000/svg">
<path d="M111 89.7837C110.479 90.7157 110.056 91.7114 109.09 92.3221C108.241 92.8855 107.223 93.1371 106.21 93.0341C105.376 92.9501 105.104 93.2077 105.119 94.0876C105.174 97.4799 105.168 100.875 105.119 104.267C105.095 106.423 103.509 108.131 101.336 108.467C100.347 108.612 99.339 108.411 98.4812 107.899C97.6233 107.387 96.9683 106.595 96.6265 105.656C96.3923 104.974 96.2844 104.254 96.3081 103.532C96.3081 100.392 96.2821 97.2483 96.3284 94.1108C96.3284 93.2656 96.1113 93.0254 95.2517 93.0254C68.7526 93.0486 42.2546 93.0486 15.7575 93.0254C14.9557 93.0254 14.7126 93.2222 14.7242 94.0413C14.7705 97.3216 14.7705 100.607 14.7242 103.897C14.6836 106.994 12.2466 109.005 9.34351 108.409C8.36611 108.194 7.49227 107.65 6.86838 106.867C6.2445 106.085 5.90846 105.112 5.91656 104.111C5.89919 100.898 5.91656 97.6854 5.91656 94.4726C5.91656 93.0659 5.91656 93.0486 4.46937 93.0457C2.73274 93.0457 1.40132 92.2786 0.573527 90.7678C0.176509 90.0941 -0.0216804 89.3218 0.00188103 88.5401C0.0254425 87.7585 0.269793 86.9995 0.706669 86.351C1.04178 85.7679 1.51674 85.2774 2.08873 84.9237C2.66072 84.57 3.31174 84.3642 3.98311 84.3249C4.48673 84.2902 4.99325 84.2844 5.49687 84.2844C38.817 84.2844 72.1381 84.2728 105.46 84.2496C108.114 84.2496 110.001 85.063 110.977 87.6042L111 89.7837Z" fill="#1744F2"/>
<path d="M40.2814 68.9036C43.6331 69.8124 46.6316 71.7603 50.3393 71.6388C55.8908 71.4564 61.4538 71.5867 67.0139 71.5925C69.587 71.5925 71.4625 73.3291 71.5002 75.7256C71.5349 78.0093 69.6709 79.937 67.1933 79.9543C60.516 80.0035 53.8387 79.9746 47.1613 79.9543C45.9428 79.9543 44.8458 79.4362 43.7315 79.0455C41.9312 78.4174 40.1338 77.7778 38.3363 77.141C38.1048 77.06 37.8877 76.8921 37.523 77.1034L45.7286 81.7865C45.3205 82.0759 44.9934 81.9601 44.6895 81.963C38.9509 81.963 33.2114 81.963 27.4708 81.963C24.3681 81.963 22.0439 79.7344 21.9976 76.6171C21.9435 72.8641 21.9435 69.1101 21.9976 65.3551C22.0207 62.3276 24.3362 60.1105 27.4216 60.1076C36.0855 60.1076 44.7484 60.1076 53.4103 60.1076C53.7279 60.1233 54.0454 60.0748 54.3439 59.9649C54.6423 59.855 54.9154 59.686 55.1469 59.4679C56.131 58.5649 57.1875 57.7457 58.1658 56.8369C58.6057 56.4288 58.9675 56.4056 59.5087 56.6227C61.0746 57.2479 62.5507 58.122 64.2468 58.397C65.535 58.6252 66.8621 58.4555 68.0514 57.9105C69.2407 57.3655 70.2358 56.471 70.9039 55.3463C71.5746 54.2258 71.894 52.93 71.8207 51.6262C71.7475 50.3224 71.285 49.0705 70.4929 48.0322C69.6825 46.97 69.7375 46.8426 71.1152 46.6603C71.5805 46.5961 72.0494 46.5622 72.519 46.559C79.1587 46.559 85.8004 46.559 92.4439 46.559C95.0778 46.559 96.8434 47.7167 97.5149 49.7978C98.5048 52.8774 96.2471 55.931 92.9157 55.9454C86.962 55.9686 81.0053 55.9773 75.0487 55.931C74.5717 55.915 74.0965 55.9974 73.6528 56.1732C73.2091 56.349 72.8064 56.6143 72.4698 56.9527C68.2498 60.8427 63.9661 64.6604 59.7345 68.5534C59.3749 68.9208 58.9402 69.2064 58.4602 69.3907C57.9802 69.575 57.4662 69.6537 56.953 69.6214C54.7533 69.5346 52.5478 69.5317 50.348 69.6214C47.4073 69.7285 44.5303 69.2567 41.6388 68.8573C41.2047 68.7791 40.7589 68.6749 40.2814 68.9036Z" fill="#1744F2"/>
<path d="M85.6245 44.0322C85.3003 44.3217 84.9212 44.1972 84.5796 44.1972C81.6534 44.1972 78.7301 44.1798 75.8039 44.2204C75.0426 44.2204 74.6316 44.0351 74.4001 43.2652C74.0133 41.9514 73.4945 40.68 72.8516 39.4707C73.0687 40.7153 73.2655 41.9656 73.5144 43.2073C73.6562 43.9049 73.5839 44.2754 72.7185 44.2175C70.9124 44.0988 69.1931 44.4172 67.7141 45.5576C67.387 45.8123 67.1149 45.6762 66.8168 45.5576C62.9702 43.9367 59.1264 42.3014 55.2682 40.6979C55.0526 40.6193 54.8619 40.4844 54.7158 40.3073C54.5698 40.1302 54.4737 39.9173 54.4375 39.6907C53.8741 37.4697 53.2634 35.2613 52.6054 33.0654C52.4115 33.9656 52.6575 34.8368 52.7038 35.7167C52.8051 37.5517 53.0077 39.3839 53.0685 41.216C53.0945 41.9656 53.4129 42.2696 54.0497 42.53C58.3913 44.313 62.701 46.1046 67.0021 47.9454C67.986 48.3385 68.7922 49.0779 69.2688 50.0242C69.7454 50.9705 69.8595 52.0584 69.5896 53.083C69.3308 54.0689 68.7422 54.9366 67.9218 55.5416C67.1014 56.1466 66.0986 56.4526 65.0802 56.4086C64.4326 56.353 63.8002 56.1814 63.2133 55.9021C58.1308 53.7805 53.083 51.6039 47.9628 49.5345C45.6473 48.5967 44.5532 47.0424 44.449 44.5272C44.2754 40.3477 43.7804 36.1798 43.6444 32.0003C43.4389 25.7774 47.986 21.1377 54.2378 21.0711C59.112 21.019 63.989 21.0711 68.8631 21.0537C72.2554 21.0306 74.7995 22.5357 76.7445 25.2159C78.0499 27.022 78.8024 29.0856 79.5289 31.1638C80.5043 33.9482 81.5203 36.721 82.4407 39.5257C82.8199 40.842 83.5766 42.0184 84.6173 42.9092C85.0342 43.2019 85.3787 43.586 85.6245 44.0322Z" fill="#1744F2"/>
<path d="M72.7938 72.678H73.7432C82.872 72.678 92.0009 72.678 101.13 72.678C103.657 72.678 105.448 74.0036 106.036 76.2583C106.212 76.9222 106.234 77.6173 106.103 78.2913C105.971 78.9653 105.688 79.6005 105.275 80.1492C104.862 80.6979 104.33 81.1458 103.718 81.459C103.107 81.7722 102.433 81.9426 101.746 81.9574C98.5625 81.9979 95.396 81.9574 92.2209 81.9574H68.2988C72.4175 80.7678 74.6462 77.2279 72.7938 72.678Z" fill="#1744F2"/>
<path d="M18.7005 68.5852C18.703 71.0107 17.7489 73.3393 16.0452 75.0657C14.3416 76.7921 12.0259 77.777 9.60057 77.8067C7.15331 77.8015 4.80653 76.8328 3.06821 75.1102C1.32989 73.3876 0.339889 71.0497 0.3125 68.6026C0.318594 66.1766 1.28402 63.8516 2.99808 62.1348C4.71215 60.418 7.03569 59.4489 9.46164 59.439C10.6728 59.4181 11.876 59.6397 13.0003 60.0908C14.1245 60.5419 15.1472 61.2133 16.0081 62.0656C16.869 62.9178 17.5507 63.9337 18.0131 65.0533C18.4754 66.173 18.7092 67.3739 18.7005 68.5852Z" fill="#1744F2"/>
<path d="M52.2815 9.01889C52.2969 7.22258 52.8439 5.47105 53.8533 3.98512C54.8627 2.49919 56.2895 1.34538 57.9538 0.669159C59.618 -0.00706167 61.4452 -0.175422 63.205 0.185305C64.9648 0.546031 66.5784 1.41969 67.8423 2.69615C69.1063 3.97261 69.9641 5.59471 70.3075 7.35795C70.6509 9.1212 70.4646 10.9466 69.772 12.6042C69.0795 14.2617 67.9117 15.677 66.416 16.6718C64.9202 17.6666 63.1634 18.1963 61.367 18.1941C60.167 18.1914 58.9794 17.9517 57.8725 17.4885C56.7655 17.0254 55.761 16.348 54.9167 15.4954C54.0724 14.6427 53.4049 13.6316 52.9527 12.5202C52.5005 11.4087 52.2724 10.2188 52.2815 9.01889Z" fill="#1744F2"/>
<path d="M54.9907 95.6449C56.4697 95.6449 57.9488 95.6622 59.4249 95.6449C60.0038 95.6449 60.2932 95.7462 60.2701 96.4061C60.2353 98.7216 60.3222 101.037 60.2353 103.327C60.1224 106.328 57.6941 108.629 54.8518 108.551C51.8677 108.47 49.6998 106.169 49.6824 103.052C49.6824 100.89 49.7056 98.7245 49.665 96.5624C49.665 95.8706 49.83 95.6188 50.5594 95.6449C52.0355 95.6825 53.5146 95.6449 54.9907 95.6449Z" fill="#1744F2"/>
<path d="M67.778 95.6448C69.2571 95.6448 70.7361 95.6738 72.2122 95.6304C72.8866 95.6101 73.0805 95.8417 73.0805 96.4987C73.0458 98.6984 73.0805 100.898 73.0603 103.098C73.0169 106.198 70.6029 108.617 67.6709 108.545C64.6868 108.473 62.4929 106.149 62.4842 103.046C62.4842 100.881 62.5102 98.7042 62.4697 96.5537C62.4697 95.8706 62.6231 95.6043 63.3583 95.6333C64.82 95.6825 66.3048 95.6448 67.778 95.6448Z" fill="#1744F2"/>
<path d="M78.6962 70.1049C75.2519 69.8155 71.8828 70.4493 68.5166 69.7113C67.2373 69.4218 65.8567 69.6129 64.5224 69.5926C63.8133 69.5926 63.1012 69.5926 62.4211 69.5926C62.2648 69.2134 62.5282 69.1208 62.6671 68.9964C66.3922 65.636 70.1404 62.3045 73.8307 58.9094C74.5688 58.2321 75.3445 58.3971 76.1462 58.3884C76.4762 58.3884 76.4936 58.6779 76.5428 58.9355C77.2461 62.6056 77.9552 66.2756 78.6962 70.1049Z" fill="#1744F2"/>
<path d="M47.5669 51.6561L56.3051 55.3117C55.3615 56.1193 54.5453 56.8052 53.7407 57.5115C53.4512 57.7575 53.1415 57.7141 52.8231 57.717C50.9823 57.717 49.1415 57.6938 47.3007 57.717C46.606 57.717 46.3397 57.6128 46.525 56.8255C46.9128 55.1583 47.2023 53.4564 47.5669 51.6561Z" fill="#1744F2"/>
<path d="M87.9834 58.4172C90.2786 58.2551 92.5363 58.5533 94.8026 58.1654C93.3669 60.5996 89.8184 60.7414 87.9834 58.4172Z" fill="#1744F2"/>
</svg>
