<svg width="116" height="138" viewBox="0 0 116 138" fill="none" xmlns="http://www.w3.org/2000/svg">
<path d="M92.1469 0.11084C93.5441 0.394604 94.9558 0.631673 96.3423 0.965725C102.639 2.49107 108.127 6.33718 111.71 11.7348C115.293 17.1325 116.706 23.6838 115.667 30.0785C115.584 30.5598 115.57 31.1992 115.261 31.465C114.712 31.9463 113.903 32.5426 113.314 32.442C112.725 32.3414 112.025 31.5009 111.877 30.8651C111.687 30.0426 111.992 29.1051 112.089 28.2143C113.357 16.2567 104.859 5.61012 92.5635 4.17693C81.2668 2.85868 70.7317 10.6424 68.7381 22.2193C68.1737 25.4987 68.3654 28.8636 69.2986 32.0576C70.2317 35.2517 71.8817 38.1905 74.1228 40.6502C76.3639 43.1099 79.137 45.0255 82.2306 46.2511C85.3243 47.4767 88.6569 47.9798 91.9745 47.7222C98.1095 47.2516 103.196 44.5433 107.172 39.8199C107.463 39.4607 107.729 39.1015 108.002 38.7423C108.961 37.5103 110.024 37.1978 110.969 37.8659C111.913 38.534 111.971 39.7804 111.012 41.0699C108.037 45.1559 103.909 48.2603 99.1584 49.9851C97.9838 50.4161 96.7302 50.6352 95.5664 51.095C95.1042 51.3424 94.7545 51.7577 94.5894 52.2552C94.417 52.7365 94.5319 53.3328 94.5319 53.8572C94.5319 63.5806 94.6433 73.3041 94.4888 83.0275C94.2482 98.1137 88.6591 111.002 78.0987 121.738C69.7151 130.265 59.3775 135.086 47.8186 137.543C47.4632 137.617 47.0964 137.617 46.741 137.543C26.0011 133.045 11.1663 121.393 3.41846 101.332C1.11972 95.2864 -0.0373161 88.8667 0.00610567 82.3989C0.00610567 77.782 0.00610567 73.1664 0.00610567 68.5519C-0.00663156 68.1926 0.000563388 67.8328 0.0276574 67.4743C0.149784 66.4578 0.692169 65.822 1.75179 65.7466C2.20176 65.6813 2.65937 65.7953 3.02616 66.064C3.39294 66.3327 3.63958 66.7347 3.713 67.1834C3.81288 67.71 3.85503 68.246 3.83872 68.7818C3.93211 75.0066 3.63757 81.2638 4.19791 87.4599C5.38326 100.79 11.2777 111.925 21.1304 120.944C28.3897 127.593 37.0535 131.479 46.5758 133.595C47.0489 133.7 47.5394 133.7 48.0125 133.595C70.1641 128.344 84.3559 114.946 89.6217 92.618C90.4658 89.026 90.6814 85.2545 90.7424 81.5548C90.8969 72.327 90.7963 63.0957 90.7927 53.8644C90.7927 51.7775 90.7927 51.8026 88.7489 51.5943C87.4594 51.4614 86.1699 51.289 84.8947 51.0483C84.1009 50.9011 83.8171 51.1884 83.7956 51.9283C83.7956 52.4204 83.7776 52.9125 83.7776 53.4046C83.7776 62.7725 83.6375 72.1367 83.8028 81.5009C84.162 100.897 71.6691 120.571 48.6771 126.3C47.8151 126.524 46.9114 126.535 46.0442 126.332C28.2927 121.548 16.6728 110.499 12.0212 92.5677C11.2221 89.3481 10.8192 86.043 10.8215 82.7258C10.7029 66.5189 10.782 50.2976 10.782 34.0763C10.782 31.4434 11.6081 30.409 14.2087 29.9851C25.6347 28.1281 35.8789 23.6274 44.8552 16.2746C46.5937 14.8378 47.9407 14.8378 49.6972 16.2746C53.6879 19.5352 58.053 22.3085 62.7 24.5361C64.5212 25.4054 64.5463 25.3623 64.7762 23.419C64.9257 22.0899 65.1524 20.7707 65.4551 19.4679C65.6419 18.6848 65.5413 18.2143 64.7906 17.8371C58.4282 14.6837 52.7377 10.3265 48.0341 5.00667C47.1613 4.01888 46.7554 4.80552 46.2633 5.34072C40.5282 11.6812 33.4091 16.6149 25.4587 19.7588C19.3331 22.2096 12.8194 23.5477 6.22377 23.71C3.8459 23.7674 3.8459 23.7674 3.8459 26.1992V56.5799C3.8459 57.0289 3.86745 57.4779 3.8459 57.9233C3.72737 59.2523 2.94791 60.0246 1.82363 59.9707C0.746048 59.9168 0.0276574 59.141 0.0276574 57.8587C0.0132896 46.4363 0.0132896 35.0126 0.0276574 23.5878C0.0276574 21.386 1.46444 20.0857 3.88182 20.0462C10.9328 19.9241 17.7791 18.7746 24.356 16.095C31.899 13.0424 38.6255 8.27145 44.0003 2.16184C44.6972 1.37521 45.6239 0.789719 46.4393 0.11084H48.0521C49.1296 1.04116 50.2827 1.88526 51.2381 2.91975C55.4067 7.4311 60.3097 11.2034 65.7388 14.0764C66.8164 14.6475 67.2906 14.4355 67.894 13.3975C71.9206 6.45064 77.8689 2.16903 85.7712 0.649633C86.644 0.470035 87.5132 0.290437 88.3681 0.11084H92.1469ZM14.6002 59.9959C14.6002 67.7904 14.5499 75.5885 14.6289 83.3831C14.6343 85.5767 14.8666 87.7639 15.3222 89.9097C19.0901 106.939 29.5571 117.668 46.2381 122.438C46.9696 122.62 47.7356 122.609 48.4615 122.406C67.4414 117.377 79.8085 101.555 80.0168 81.9068C80.1246 71.6482 80.0168 61.3895 80.0564 51.1309C80.0564 49.9528 79.6576 49.3062 78.5908 48.7423C71.2992 44.8881 66.8272 38.8788 65.0384 30.8256C64.9388 30.4832 64.7706 30.1645 64.544 29.8891C64.3173 29.6137 64.0371 29.3873 63.7202 29.2236C58.1984 26.8518 53.0194 23.7507 48.3215 20.0031C47.5456 19.3781 46.9924 19.414 46.2309 20.0031C37.5117 26.9783 27.1581 31.6155 16.1483 33.4765C14.9163 33.692 14.5679 34.1949 14.5751 35.4018C14.6254 43.6022 14.6002 51.799 14.6002 59.9959Z" fill="#1F3792"/>
<path d="M86.3322 38.2859C85.4245 38.3344 84.5164 38.1966 83.6639 37.881C82.8114 37.5653 82.0325 37.0784 81.3753 36.4504C79.7266 34.8699 78.0779 33.2823 76.5298 31.6084C75.44 30.4876 74.84 28.9798 74.8619 27.4167C74.8838 25.8535 75.5258 24.3631 76.6465 23.2733C77.7673 22.1835 79.2751 21.5835 80.8383 21.6054C82.4014 21.6273 83.8918 22.2692 84.9817 23.39C86.0126 24.4245 86.598 24.3024 87.5319 23.3254C90.1361 20.6135 92.8229 17.9806 95.4989 15.3369C97.2949 13.5624 99.4716 13.1135 101.821 13.9001C104.17 14.6867 105.395 16.515 105.653 18.9288C105.756 19.7566 105.668 20.597 105.395 21.3853C105.122 22.1737 104.672 22.889 104.08 23.4762C99.7985 27.8081 95.4881 32.1185 91.149 36.4073C90.5186 37.0349 89.7654 37.5257 88.9366 37.849C88.1078 38.1722 87.2212 38.321 86.3322 38.2859ZM101.871 19.8124C101.928 17.8692 100.201 16.8527 98.7281 17.6573C98.276 17.9452 97.8641 18.2919 97.5032 18.6882C94.486 21.6874 91.4939 24.7119 88.4659 27.7004C86.9357 29.2126 85.5636 29.191 84.0154 27.7004C83.4982 27.2047 83.0133 26.6731 82.4817 26.1953C81.4651 25.2758 80.1756 25.2327 79.3495 26.0589C78.5233 26.885 78.4982 28.1314 79.4896 29.1695C80.8832 30.6063 82.3021 32.043 83.7712 33.4367C85.3157 34.8735 87.1979 34.9166 88.6993 33.4367C92.8552 29.3563 96.9608 25.2291 101.052 21.0912C101.379 20.7018 101.654 20.272 101.871 19.8124Z" fill="#1F3792"/>
<path d="M72.9647 68.9256C72.9647 83.0599 61.4453 94.6403 47.3648 94.6547C33.1838 94.6691 21.5566 83.085 21.5566 68.9543C21.5566 54.8235 33.1622 43.2144 47.3325 43.2144C61.4273 43.2395 72.9611 54.7948 72.9647 68.9256ZM69.1285 68.9256C69.1285 64.5982 67.845 60.368 65.4403 56.7702C63.0357 53.1724 59.6181 50.3687 55.6197 48.7136C51.6213 47.0586 47.2219 46.6267 42.9779 47.4725C38.734 48.3183 34.8363 50.4038 31.7779 53.4652C28.7195 56.5267 26.6378 60.4264 25.7962 64.6712C24.9546 68.9159 25.3908 73.3149 27.0498 77.3117C28.7088 81.3084 31.5159 84.7234 35.1161 87.1244C38.7162 89.5255 42.9476 90.8048 47.275 90.8005C50.1464 90.8048 52.9903 90.2423 55.6438 89.1454C58.2974 88.0484 60.7083 86.4385 62.7385 84.408C64.7687 82.3775 66.3781 79.9663 67.4747 77.3126C68.5712 74.6589 69.1332 71.8148 69.1285 68.9435V68.9256Z" fill="#1F3792"/>
<path d="M41.3952 58.1561C41.3952 57.0354 41.3629 55.9147 41.3952 54.7976C41.4671 52.8077 42.7817 51.4176 44.7717 51.3206C46.424 51.2416 48.087 51.2452 49.7393 51.3206C51.7257 51.4104 53.0511 52.7574 53.1337 54.7761C53.2235 57.0103 53.2163 59.2517 53.1804 61.493C53.1804 62.6353 53.5899 63.095 54.7573 63.0663C56.9125 63.0088 59.0676 63.0268 61.2049 63.0663C63.5217 63.113 64.8471 64.4636 64.883 66.7768C64.9082 68.2998 64.9261 69.8228 64.883 71.3458C64.8184 73.3429 63.5073 74.7186 61.503 74.7976C59.3119 74.879 57.1172 74.8898 54.9189 74.83C53.6653 74.7976 53.123 75.2215 53.1804 76.5218C53.2487 78.5332 53.2199 80.5519 53.1804 82.567C53.1194 85.2933 51.8047 86.5649 49.082 86.5828C47.7817 86.5828 46.4814 86.6044 45.1847 86.5828C42.8033 86.5325 41.4312 85.1748 41.3952 82.8149C41.3629 80.6202 41.3557 78.4255 41.3952 76.2308C41.3952 75.2538 41.0037 74.8515 40.0447 74.8551C37.8895 74.8551 35.7343 74.8802 33.5791 74.8335C30.9606 74.7797 29.6639 73.4506 29.628 70.8106C29.5993 69.557 29.5993 68.2962 29.628 67.0462C29.6855 64.4133 31.0037 63.095 33.6222 63.0627C35.5942 63.0376 37.5734 63.0627 39.5346 63.0627C41.2911 63.0627 41.3737 62.9657 41.3916 61.2667C41.3916 60.2358 41.3916 59.2085 41.3916 58.1777L41.3952 58.1561ZM38.5863 71.0871V71.1159C39.7501 71.1159 40.9139 71.0943 42.0777 71.1159C44.1215 71.159 45.0411 72.021 45.1021 74.0541C45.1632 76.0225 45.1021 78.0052 45.1345 79.9628C45.1632 83.307 45.0159 82.6317 47.9649 82.7502C49.0712 82.7969 49.4807 82.391 49.4592 81.2919C49.4125 78.8781 49.4304 76.4607 49.4592 74.0433C49.4843 72.1001 50.4146 71.1697 52.3507 71.1231C54.3622 71.0835 56.3773 71.1231 58.3924 71.1051C61.5569 71.1051 60.9462 71.1266 61.0863 68.4183C61.1617 67.0534 60.5727 66.7301 59.3622 66.7588C57.1711 66.8127 54.9764 66.7876 52.7853 66.7588C50.3176 66.7301 49.4699 65.8752 49.4484 63.4399C49.4484 61.5613 49.4484 59.6827 49.4484 57.8005C49.4484 54.6863 49.5669 55.2251 46.7903 55.0922C45.4505 55.0275 45.0914 55.5519 45.1201 56.784C45.1704 59.1547 45.162 61.5266 45.0949 63.8996C45.0375 65.7854 44.1179 66.687 42.2429 66.7409C40.2745 66.7983 38.2918 66.766 36.3378 66.7696C33.2235 66.7696 33.2451 66.7696 33.4355 69.9269C33.4858 70.7172 33.7947 71.0835 34.5597 71.0835L38.5863 71.0871Z" fill="white"/>
</svg>
