<svg width="112" height="112" viewBox="0 0 112 112" fill="none" xmlns="http://www.w3.org/2000/svg">
<path d="M39.5312 101.158C37.2173 98.6269 35.2216 95.8218 33.5887 92.8057C30.0771 86.2827 28.4793 78.9005 28.9795 71.5092C29.0398 70.5228 28.7321 70.4263 27.9116 70.4323C22.9827 70.4625 18.0537 70.4323 13.1308 70.4323C11.4114 70.4323 10.8503 69.8622 10.8473 68.1307C10.8473 66.0252 10.8473 63.9136 10.8473 61.7961C10.8473 60.2033 11.4506 59.585 12.992 59.585H70.1065C71.654 59.585 72.2482 60.2064 72.2543 61.7961C72.2543 63.9056 72.2543 66.0172 72.2543 68.1307C72.2543 69.8562 71.6842 70.4293 69.9678 70.4293C60.4115 70.4293 50.8592 70.4243 41.311 70.4142C40.3879 70.4142 39.9988 70.5288 39.9053 71.6208C38.8284 84.1725 46.2158 96.2053 57.9108 100.839C58.5076 101.06 59.1419 101.163 59.778 101.14C76.3708 101.14 92.9616 101.14 109.55 101.14C111.496 101.14 112 101.65 112 103.614C112 105.578 112 107.535 112 109.484C112 111.49 111.502 111.976 109.451 111.976H2.31659C0.579082 111.976 0.00594619 111.415 0.00292969 109.707C0.00292969 107.598 0.00292969 105.486 0.00292969 103.373C0.00292969 101.72 0.588132 101.131 2.22911 101.131C14.1584 101.131 26.0867 101.131 38.0139 101.131L39.5312 101.158ZM50.5415 101.158C50.1885 100.857 50.0799 100.76 49.9593 100.673C40.6282 93.773 36.015 84.5224 36.1196 72.9209C36.1196 72.1216 36.6233 70.9964 36.0683 70.6012C35.5132 70.2061 34.4062 70.5017 33.5495 70.4383C32.9221 70.3961 32.7561 70.6193 32.6838 71.2438C32.4351 73.8264 32.5131 76.4301 32.916 78.9932C34.1226 87.5299 37.9114 94.7122 44.2068 100.588C44.5085 100.866 44.7498 101.177 45.2415 101.171C46.9186 101.14 48.5988 101.155 50.5415 101.155V101.158Z" fill="#1744F2"/>
<path d="M81.2378 92.124C77.9197 92.124 74.6015 92.0305 71.3045 92.1481C67.5731 92.2778 64.5958 90.8088 62.0649 88.2267C59.9353 86.0457 58.43 83.4546 57.136 80.7246C56.9188 80.2631 56.9127 79.9946 57.4527 79.7925C58.3275 79.4637 59.2324 78.7066 60.0318 78.8152C60.8312 78.9238 60.9367 80.2148 61.3681 80.972C62.4631 82.9176 63.6908 84.7517 65.3589 86.2569C68.5926 89.1799 72.2124 89.2191 75.4763 86.3564C77.8201 84.3022 79.3525 81.6748 80.5772 78.8725C83.099 73.0959 84.2543 67.0025 84.6978 60.7433C85.2635 53.421 84.5717 46.056 82.6526 38.9671C81.5546 34.9642 80.0312 31.1393 77.4913 27.8061C76.8791 26.9909 76.1824 26.2427 75.413 25.5738C72.2215 22.8137 68.6319 22.8409 65.4585 25.6523C63.3107 27.5617 61.8387 29.9478 60.6472 32.5299C60.3244 33.2418 60.0077 33.456 59.332 33.0095C59.1011 32.8878 58.8598 32.7868 58.611 32.7079C56.8011 31.9145 56.8011 31.9145 57.7362 30.0865C59.3531 26.9041 61.3108 23.9872 64.2881 21.8937C66.1612 20.5454 68.4176 19.8338 70.7253 19.8636C77.3858 19.8998 84.0492 20.0235 90.7036 19.8274C95.4607 19.6826 98.9387 21.7248 101.762 25.2571C105.195 29.5406 107.083 34.551 108.359 39.8087C110.29 47.7753 110.658 55.8505 109.771 63.9921C109.014 70.93 107.409 77.5905 103.88 83.6838C102.335 86.3474 100.435 88.7063 97.8105 90.3986C96.0814 91.5548 94.0445 92.1644 91.9645 92.1481C88.3839 92.0969 84.8124 92.124 81.2378 92.124Z" fill="#1744F2"/>
<path d="M25.2813 0H48.1887C50.0529 0 50.5778 0.530905 50.5778 2.4132V26.5724C50.5778 28.3491 50.0167 28.8981 48.2068 28.8981C32.9352 28.8981 17.6626 28.8981 2.38907 28.8981C0.527889 28.8981 0 28.3552 0 26.4759C0 18.4319 0 10.3818 0 2.32573C0 0.542971 0.558054 0 2.37097 0H25.2813ZM28.9977 17.4957C28.5211 17.1639 28.4306 16.7416 28.2526 16.3887C26.678 13.2726 25.1215 10.1415 23.5499 7.02243C22.5242 4.98628 21.2211 4.88071 19.8335 6.72078C18.5213 8.4613 17.2001 10.1928 15.9121 11.9604C15.7667 12.1947 15.56 12.3846 15.3143 12.5096C15.0686 12.6346 14.7933 12.6898 14.5184 12.6693C12.98 12.6241 11.4356 12.6542 9.89414 12.6542C7.17928 12.6542 7.20643 12.6542 7.20945 15.3299C7.20945 16.0418 7.36631 16.3012 8.1325 16.2891C10.6875 16.2409 13.2606 16.256 15.8035 16.2891C16.235 16.3156 16.666 16.2281 17.053 16.0354C17.4401 15.8427 17.7696 15.5515 18.0085 15.1911C19.0704 13.6829 20.1865 12.2319 21.2815 10.7538C21.6796 11.0163 21.7581 11.3994 21.924 11.7252C23.6595 15.17 25.3879 18.6199 27.1093 22.0748C27.4864 22.838 28.0143 23.4262 28.877 23.4383C29.7397 23.4503 30.3008 22.8832 30.6869 22.12C31.5134 20.4338 32.3943 18.7747 33.1876 17.0734C33.4892 16.4279 33.8754 16.2258 34.5692 16.2409C36.5993 16.2861 38.6294 16.259 40.6595 16.259C43.4347 16.259 43.4105 16.259 43.3743 13.5079C43.3743 12.8111 43.1783 12.603 42.4845 12.6271C39.29 12.6633 36.0925 12.6512 32.895 12.6271C32.4423 12.6001 31.9925 12.7152 31.6085 12.9564C31.2244 13.1977 30.9254 13.5529 30.7533 13.9725C30.1922 15.1459 29.5949 16.2891 28.9977 17.4957Z" fill="#1744F2"/>
<path d="M27.6194 39.7393C31.6826 39.7393 35.7458 39.7393 39.8121 39.7393C42.1776 39.7826 44.4316 40.7526 46.0892 42.4408C47.7468 44.129 48.6755 46.4003 48.6755 48.7662C48.6755 51.1321 47.7468 53.4035 46.0892 55.0917C44.4316 56.7798 42.1776 57.7499 39.8121 57.7931C31.4966 57.8092 23.1801 57.8092 14.8626 57.7931C13.2306 57.7931 12.6484 57.1898 12.6484 55.5398C12.6484 51.0613 12.6484 46.5828 12.6484 42.1043C12.6484 40.2944 13.1914 39.7363 14.9742 39.7363L27.6194 39.7393Z" fill="#1744F2"/>
<path d="M59.5326 57.8021C58.3471 57.7982 57.174 57.5597 56.0811 57.1002C54.9881 56.6408 53.997 55.9696 53.1647 55.1252C52.3324 54.2809 51.6755 53.2802 51.2318 52.1807C50.7882 51.0813 50.5665 49.9049 50.5797 48.7194C50.5797 43.6698 54.6218 39.7182 59.7438 39.7423C64.712 39.7634 68.6576 43.8176 68.6395 48.8763C68.632 50.0616 68.3901 51.2337 67.9275 52.3251C67.465 53.4165 66.791 54.4056 65.9445 55.2353C65.0979 56.065 64.0956 56.719 62.9951 57.1595C61.8946 57.6001 60.7179 57.8185 59.5326 57.8021Z" fill="#1744F2"/>
</svg>
