<svg width="112" height="120" viewBox="0 0 112 120" fill="none" xmlns="http://www.w3.org/2000/svg">
<path d="M0 40.8587C0 33.325 0 25.7935 0 18.2643C0 16.6861 0.47044 16.0889 2.05859 15.8554C12.0373 14.4087 21.8844 12.1672 31.5061 9.15242C39.2734 6.71347 46.9039 3.91752 54.2641 0.420921C54.7904 0.14445 55.3761 0 55.9707 0C56.5652 0 57.1509 0.14445 57.6773 0.420921C71.2541 6.661 85.5207 11.2751 100.18 14.1671C103.437 14.8177 106.723 15.2815 109.993 15.8554C111.391 16.0989 111.885 16.7228 111.885 18.1575C111.885 32.8879 112.195 47.6284 111.798 62.3455C111.277 81.8104 102.419 96.8978 86.3107 107.721C77.3423 113.747 67.4364 117.554 56.8665 119.686C55.8923 119.883 54.958 119.686 54.0272 119.476C40.628 116.523 28.3598 111.171 18.0836 101.889C8.51908 93.2566 2.73589 82.5499 0.73402 69.7691C0 65.2215 0 60.6606 0 56.0863C0 51.0116 0 45.9335 0 40.8587ZM55.959 23.8695C36.2005 23.8695 19.9787 40.0847 19.992 59.8465C20.0054 79.6083 36.1304 95.7234 55.8689 95.7968C75.6074 95.8702 91.8492 79.6617 91.9026 59.8732C91.956 40.0847 75.7375 23.8829 55.959 23.8695Z" fill="#1744F2"/>
<path d="M55.8787 79.8117C54.0504 79.8117 52.2086 79.8117 50.3903 79.8117C48.6353 79.8117 47.9613 79.1444 47.9547 77.4261C47.9547 74.7236 47.8646 72.0144 47.9914 69.3152C48.0548 67.9806 47.5877 67.7604 46.3965 67.7971C43.7274 67.8839 41.0582 67.8305 38.4124 67.8238C36.6541 67.8238 35.9735 67.1565 35.9668 65.4449C35.9668 61.7014 35.9668 57.9579 35.9668 54.2144C35.9668 52.5028 36.6541 51.8489 38.4191 51.8455C41.165 51.8455 43.9109 51.7988 46.6535 51.8689C47.6544 51.8956 48.0147 51.6787 47.988 50.5977C47.9046 47.8551 47.9547 45.1059 47.9613 42.36C47.9613 40.525 48.6086 39.861 50.4036 39.8577C54.1071 39.8577 57.8094 39.8577 61.5107 39.8577C63.259 39.8577 63.9363 40.525 63.9396 42.2466C63.9396 44.9491 64.003 47.655 63.9163 50.3575C63.8762 51.5119 64.1098 51.9323 65.3743 51.8789C68.0735 51.7655 70.7793 51.8389 73.4852 51.8455C75.2402 51.8455 75.9275 52.5128 75.9308 54.2178C75.9308 57.9613 75.9308 61.7059 75.9308 65.4516C75.9308 67.1532 75.2335 67.8171 73.4819 67.8238C70.776 67.8238 68.0701 67.8739 65.3676 67.8005C64.2899 67.7738 63.8629 67.9873 63.9096 69.1918C64.0164 71.8609 63.9463 74.5301 63.943 77.1792C63.943 79.2245 63.3424 79.8117 61.2538 79.8117C59.4588 79.815 57.6704 79.8117 55.8787 79.8117Z" fill="#1744F2"/>
</svg>
