<svg width="111" height="111" viewBox="0 0 111 111" fill="none" xmlns="http://www.w3.org/2000/svg">
<path d="M80.1198 49.3689C72.3706 49.3689 64.6175 49.3387 56.8644 49.3954C55.6947 49.3954 55.441 49.0472 55.4486 47.9417C55.4978 40.6695 55.4486 33.401 55.4865 26.1287C55.4865 25.2466 55.4372 24.6939 54.3508 24.4024C53.0409 24.0542 52.3595 22.8882 52.3519 21.5215C52.3216 15.4039 52.3065 9.29004 52.3519 3.17618C52.3519 1.19627 53.6958 0 55.6985 0C69.9502 0 84.202 0 98.4538 0C100.487 0 101.694 1.20763 101.698 3.23296C101.717 9.29004 101.698 15.366 101.698 21.4307C101.737 22.1094 101.549 22.7818 101.162 23.3409C100.775 23.9 100.212 24.3136 99.563 24.516C98.3516 24.9816 98.1737 25.7009 99.2299 26.5678C100.916 28.0023 102.686 29.3359 104.53 30.5617C109.19 33.5524 111.034 37.7545 111 43.2475C110.878 61.6913 110.954 80.1313 110.939 98.5751C110.959 100.203 110.654 101.819 110.04 103.327C109.427 104.835 108.518 106.205 107.366 107.356C106.215 108.508 104.846 109.417 103.338 110.031C101.83 110.645 100.214 110.951 98.5863 110.932C84.6702 110.932 70.7541 110.932 56.8379 110.969C55.6417 110.969 55.4486 110.591 55.4524 109.504C55.4902 100.212 55.4902 90.9192 55.4524 81.6267C55.4524 80.3887 55.706 80.0177 57.0159 80.0215C72.3781 80.0745 87.7366 80.0215 103.099 80.0859C104.397 80.0859 104.787 79.7793 104.78 78.4353C104.717 69.2387 104.717 60.042 104.78 50.8454C104.78 49.6226 104.424 49.3311 103.246 49.3311C95.5313 49.3917 87.8274 49.3689 80.1198 49.3689ZM76.9512 18.4854C82.7244 18.4854 88.4937 18.4854 94.2669 18.4854C95.024 18.4854 95.5313 18.4854 95.5124 17.4595C95.4556 14.0524 95.4707 10.6453 95.5124 7.21549C95.5124 6.34857 95.1338 6.182 94.3767 6.182C82.8329 6.19714 71.2904 6.19714 59.7491 6.182C58.7118 6.182 58.5907 6.61735 58.6134 7.46913C58.6475 10.6453 58.6816 13.8215 58.6134 16.9939C58.5831 18.1637 58.8557 18.5346 60.0936 18.5082C65.6964 18.4438 71.3257 18.4854 76.9512 18.4854ZM84.1781 98.5486C90.6137 98.5486 97.0493 98.5486 103.508 98.5486C104.412 98.5486 104.814 98.348 104.757 97.3637C104.687 96.1154 104.687 94.8642 104.757 93.6159C104.81 92.6695 104.481 92.4082 103.534 92.412C90.7954 92.4423 78.0528 92.412 65.2989 92.4348C63.0654 92.4348 61.7177 93.6197 61.7101 95.5011C61.7025 97.3826 63.001 98.5297 65.2724 98.5297C71.5768 98.5474 77.8787 98.5537 84.1781 98.5486Z" fill="#1744F2"/>
<path d="M0 67.8127V28.525C0 25.6857 1.0827 24.5992 3.90303 24.5992H45.3561C48.2105 24.5992 49.3727 25.7652 49.3727 28.6272V107.044C49.3727 109.8 48.2749 110.916 45.5454 110.92C31.5334 110.92 17.5264 110.92 3.52446 110.92C1.12434 110.92 0.011357 109.784 0.011357 107.373C0.00378567 94.1912 0 81.0045 0 67.8127ZM21.4988 46.2154C21.5091 45.4083 21.357 44.6074 21.0515 43.8603C20.746 43.1132 20.2934 42.4351 19.7205 41.8665C19.1476 41.2979 18.4662 40.8503 17.7169 40.5503C16.9675 40.2504 16.1655 40.1042 15.3585 40.1205C13.7415 40.1421 12.1993 40.8051 11.0712 41.9638C9.94309 43.1224 9.32145 44.6817 9.34304 46.2987C9.36462 47.9157 10.0277 49.4579 11.1863 50.586C12.345 51.7141 13.9043 52.3357 15.5213 52.3141C16.3148 52.3082 17.0993 52.1455 17.8298 51.8355C18.5603 51.5254 19.2222 51.074 19.7777 50.5073C20.3332 49.9406 20.7712 49.2696 21.0666 48.5331C21.3619 47.7966 21.5088 47.0089 21.4988 46.2154ZM33.9613 40.1205C32.3458 40.1125 30.7933 40.7465 29.6453 41.8831C28.4973 43.0198 27.8479 44.5659 27.8398 46.1814C27.8318 47.7968 28.4658 49.3493 29.6025 50.4973C30.7391 51.6453 32.2852 52.2948 33.9007 52.3028C34.7006 52.3068 35.4934 52.1532 36.234 51.8507C36.9745 51.5483 37.6482 51.103 38.2167 50.5401C38.7851 49.9773 39.2371 49.3081 39.5469 48.5706C39.8567 47.8331 40.0181 47.0418 40.0221 46.2419C40.0261 45.442 39.8725 44.6492 39.57 43.9086C39.2676 43.1681 38.8223 42.4944 38.2595 41.926C37.6967 41.3575 37.0274 40.9055 36.2899 40.5957C35.5524 40.286 34.7612 40.1245 33.9613 40.1205ZM21.4988 89.3342C21.4978 87.7063 20.8512 86.1453 19.7008 84.9934C18.5504 83.8416 16.9902 83.1931 15.3623 83.1901C13.7368 83.2332 12.1915 83.9059 11.0524 85.0662C9.9132 86.2266 9.26913 87.7839 9.25597 89.4099C9.28782 91.0423 9.96487 92.5955 11.139 93.7299C12.3132 94.8644 13.8888 95.4876 15.5213 95.4632C16.3148 95.4563 17.0992 95.2928 17.8295 94.9822C18.5597 94.6715 19.2215 94.2198 19.7768 93.6528C20.3321 93.0859 20.7701 92.4149 21.0656 91.6784C21.3611 90.9419 21.5083 90.1543 21.4988 89.3607V89.3342ZM39.9918 89.4213C40.0131 87.7927 39.3872 86.2222 38.2515 85.0546C37.1159 83.887 35.5634 83.2178 33.9348 83.1939C32.308 83.2132 30.7527 83.865 29.5981 85.0111C28.4435 86.1572 27.7803 87.7077 27.749 89.3342C27.7619 90.964 28.4179 92.5226 29.5743 93.6711C30.7306 94.8196 32.2936 95.4651 33.9234 95.467C35.5253 95.4701 37.0631 94.8384 38.2004 93.7104C39.3377 92.5823 39.9818 91.0496 39.9918 89.4478V89.4213ZM15.4228 61.6988C13.7956 61.6938 12.2327 62.3341 11.0767 63.4794C9.92072 64.6248 9.26598 66.1817 9.25597 67.8089C9.29783 69.434 9.96666 70.9799 11.1225 72.123C12.2783 73.2661 13.8315 73.9178 15.4569 73.9417C17.0616 73.9132 18.592 73.2602 19.723 72.1215C20.854 70.9827 21.4965 69.4479 21.514 67.843C21.5324 67.0356 21.3878 66.2327 21.0889 65.4824C20.79 64.7322 20.3428 64.0499 19.7742 63.4763C19.2056 62.9028 18.5272 62.4498 17.7796 62.1444C17.0319 61.839 16.2304 61.6874 15.4228 61.6988ZM33.8363 61.6988C32.2319 61.7145 30.6972 62.3567 29.5598 63.4884C28.4225 64.6201 27.7726 66.1516 27.749 67.7559C27.772 69.3813 28.4235 70.9346 29.5669 72.09C30.7103 73.2454 32.2567 73.9131 33.8818 73.953C35.5088 73.9381 37.0639 73.2807 38.2084 72.1242C39.3529 70.9676 39.9939 69.4057 39.9918 67.7786C40.0018 66.971 39.8487 66.1698 39.5419 65.4227C39.2351 64.6756 38.7809 63.998 38.2063 63.4305C37.6317 62.8629 36.9485 62.4171 36.1977 62.1195C35.4468 61.822 34.6437 61.6789 33.8363 61.6988Z" fill="#1744F2"/>
<path d="M73.9646 71.3751C73.9646 67.8582 73.9646 67.8582 70.4893 67.8582C69.5732 67.8582 68.6533 67.9036 67.7447 67.8355C67.3346 67.8337 66.9288 67.7512 66.5505 67.5927C66.1723 67.4341 65.829 67.2026 65.5402 66.9113C65.2514 66.6201 65.0228 66.2748 64.8675 65.8952C64.7121 65.5157 64.6331 65.1092 64.6348 64.699C64.6365 64.2889 64.719 63.8831 64.8776 63.5049C65.0362 63.1266 65.2677 62.7833 65.5589 62.4945C65.8502 62.2057 66.1954 61.9771 66.575 61.8218C66.9546 61.6664 67.3611 61.5874 67.7712 61.5891C69.4028 61.5134 71.0458 61.5134 72.6926 61.5891C73.6655 61.6308 74.0592 61.3923 73.9987 60.3361C73.9116 58.7536 73.9608 57.1599 73.9987 55.5699C74.0252 53.749 75.3085 52.3862 77.0007 52.3369C77.804 52.3264 78.5799 52.6292 79.1637 53.1812C79.7475 53.7331 80.0933 54.4909 80.1277 55.2935C80.2336 56.9319 80.25 58.5748 80.1769 60.2149C80.1352 61.2484 80.3851 61.6875 81.5246 61.608C83.0086 61.5058 84.5077 61.5588 85.9992 61.608C88.0435 61.6497 89.4063 62.9292 89.4063 64.7539C89.4063 66.5786 88.0435 67.843 85.9992 67.8847C84.5077 67.915 83.0123 67.9453 81.5208 67.8847C80.5441 67.8355 80.1352 68.1005 80.1958 69.1491C80.2791 70.5877 80.2412 72.0376 80.1958 73.4799C80.1428 75.7248 78.8216 77.205 76.9855 77.1331C75.1495 77.0612 74.0062 75.6453 73.9987 73.4421L73.9646 71.3751Z" fill="#1744F2"/>
</svg>
