<svg width="91" height="115" viewBox="0 0 91 115" fill="none" xmlns="http://www.w3.org/2000/svg">
<path d="M90.5478 61.6385C90.3737 65.4892 90.7844 69.6324 90.3014 73.7624C88.9674 85.1174 83.6546 94.1923 74.4779 100.941C67.381 106.162 59.3411 108.537 50.5291 108.274C41.5792 108.008 33.0234 100.284 31.7519 91.3666C30.7662 84.5523 32.639 78.6612 37.3769 73.6802C38.3954 72.6091 38.5827 72.665 39.1051 74.0712C39.5651 75.3066 39.3121 76.588 39.3647 77.8497C39.3975 78.6678 39.3187 79.4925 39.3909 80.3073C39.5454 81.9895 41.1093 82.7189 42.532 81.8088C44.8056 80.35 46.0246 80.373 48.1175 81.9041C49.5796 82.9752 50.8873 82.4758 51.4425 80.6293C52.3757 77.5211 54.439 75.599 57.5998 74.9616C58.6643 74.7448 59.8011 74.8762 60.9051 74.84C62.6432 74.7809 63.3791 73.8347 63.0802 72.1064C62.7853 70.5617 63.0933 68.9627 63.941 67.638C64.9529 66.0149 64.4831 64.8321 62.6267 64.2867C59.9983 63.5146 57.3698 62.7753 54.7413 62.0361C53.8575 61.7863 53.0459 61.4381 53.1773 60.3341C53.3088 59.2301 54.14 59.0593 55.0863 59.0921C55.9881 59.1381 56.8918 59.1381 57.7936 59.0921C59.351 58.987 60.1691 57.8173 59.6401 56.3552C59.2302 55.3044 59.0319 54.1829 59.0568 53.0552C59.0816 51.9275 59.3289 50.8158 59.7847 49.784C60.294 48.5979 59.9161 47.7502 58.7826 47.1293C56.1837 45.7 55.8453 43.4625 57.9152 41.3466C58.3456 40.9063 58.8122 40.4956 59.1966 40.0324C60.0443 38.9908 59.9128 37.7324 58.7497 37.0753C56.4662 35.8366 55.1586 34.0756 55.0764 31.4208C55.0631 31.0034 54.9081 30.603 54.637 30.2853C54.3659 29.9677 53.9949 29.7517 53.5848 29.6728C52.7239 29.4429 52.0504 29.8043 51.5575 30.4811C50.999 31.2401 50.5061 32.0451 49.9706 32.8172C49.5566 33.4086 49.0999 33.9671 48.2588 33.586C47.4735 33.2279 47.4177 32.5609 47.5721 31.8183C48.0124 29.6991 48.4329 27.5733 48.8863 25.4574C49.0736 24.5867 48.9751 23.8146 48.2654 23.2265C47.5557 22.6384 46.7704 22.6844 45.9654 23.0688C44.1025 23.9526 42.2691 23.8705 40.4193 22.9571C38.7765 22.1521 37.62 22.7304 37.2717 24.544C36.8939 26.5154 36.424 28.4539 35.8918 30.3825C35.8089 30.7155 35.6458 31.0231 35.4167 31.2785C35.1876 31.5339 34.8995 31.7294 34.5775 31.8479C31.9078 33.0729 29.1645 34.1307 26.3635 35.0152C25.6506 35.2419 25.1577 35.1894 24.6024 34.6867C18.7442 29.3377 16.4279 22.7336 18.3171 15.0486C20.2063 7.36359 25.299 2.54689 32.9807 0.56896C36.4208 -0.314867 39.9134 -0.00273471 43.3698 0.394823C52.0504 1.41008 60.0738 4.31783 67.2332 9.35138C79.5739 18.0254 87.1439 29.7846 89.8118 44.6848C90.7975 50.221 90.4197 55.7934 90.5478 61.6385ZM86.6051 69.5239C86.6314 66.9579 86.6314 66.9579 84.0817 66.9612C83.8771 66.9743 83.6719 66.9743 83.4673 66.9612C82.7905 66.8659 82.6591 67.1977 82.6558 67.8089C82.6929 69.651 82.6282 71.4937 82.4619 73.3287C80.9637 86.1951 71.3106 96.9423 58.7333 99.6628C56.8145 100.077 56.8145 100.077 57.1069 102.005C57.3993 103.934 57.4059 103.96 59.3149 103.514C75.5457 99.7252 86.4309 86.1688 86.5919 69.5305L86.6051 69.5239ZM38.0701 4.01556C36.5949 3.98958 35.1223 4.14964 33.6871 4.49197C33.4144 4.55111 32.9709 4.59383 33.0497 4.91581C33.3192 6.02306 33.5557 7.18288 34.0913 8.16528C34.3147 8.56941 35.2084 8.08314 35.7998 8.00428C36.1272 7.96899 36.4562 7.95035 36.7855 7.94843C43.3118 7.82403 49.7834 9.15988 55.727 11.8583C58.1813 12.9491 58.1287 12.9294 59.4397 10.5441C59.9161 9.67665 59.6664 9.40395 58.8976 9.02939C52.3978 5.87589 45.2929 4.16551 38.0701 4.01556Z" fill="#1744F2"/>
<path d="M35.3892 41.34C37.5042 37.5264 39.1282 33.4605 40.2224 29.2392C40.2852 29.0448 40.3335 28.846 40.3669 28.6445C40.4589 27.5931 40.9255 27.1265 42.0097 27.4814C42.3592 27.6049 42.7327 27.6454 43.1006 27.5996C44.5265 27.3401 44.4477 28.0892 44.2078 29.0847C43.9121 30.3136 43.4948 31.5489 43.6033 32.8238C43.665 33.7075 43.9564 34.5598 44.4486 35.2964C44.9408 36.033 45.6167 36.6284 46.4096 37.0236C47.2024 37.4189 48.0847 37.6003 48.9691 37.55C49.8536 37.4998 50.7096 37.2195 51.4526 36.7369C52.1688 36.2934 52.3594 36.4083 52.9278 37.0162C54.2158 38.3534 54.4983 39.3654 53.4174 41.1626C51.8698 43.7451 52.6781 47.011 54.8565 49.1466C55.369 49.6493 55.6023 50.037 55.3986 50.8157C55.0495 51.9587 54.9785 53.1685 55.1916 54.3445C55.3493 55.0476 55.1127 55.1527 54.4786 55.1922C52.0374 55.3466 50.2796 56.5491 49.4878 58.8885C48.5448 61.6779 50.066 64.5594 52.9574 65.5221C54.8564 66.1562 56.7851 66.6951 58.717 67.2076C59.43 67.3982 59.4727 67.6577 59.4464 68.3871C59.3774 70.4308 58.418 70.9992 56.45 71.2982C53.1644 71.7976 50.6279 73.7985 48.9292 76.7096C48.5809 77.3043 48.2918 77.508 47.615 77.255C46.534 76.8607 45.3841 76.6373 44.2407 76.9264C43.3995 77.1498 43.2944 76.8311 43.2944 76.0984C43.2944 72.8128 42.0295 70.1252 39.1973 68.3214C36.4144 66.5505 33.431 66.7312 30.4346 67.6117C23.9488 69.524 19.7136 75.2771 19.7136 82.2622C19.6917 92.4651 19.6983 102.668 19.7333 112.871C19.7333 113.949 19.4935 114.254 18.3961 114.218C15.7676 114.133 15.7676 114.195 15.7676 111.59C15.7676 101.756 15.7479 91.9186 15.7676 82.0848C15.8024 75.1046 17.4807 68.2306 20.6665 62.0196C21.2086 60.9354 21.5864 60.988 22.375 61.7305C23.5541 62.8062 24.5999 64.0196 25.4897 65.3447C25.8183 65.8474 26.0483 65.8901 26.5313 65.5681C29.5869 63.5376 29.9187 64.5594 27.3329 61.3757C22.9138 55.961 17.0391 53.3555 10.0704 53.2241C7.08048 53.1584 4.08729 53.1814 1.09739 53.2241C0.243135 53.2241 0 53.0072 0 52.1333C0.0229992 49.2616 0 49.2452 2.8519 49.2649C9.24569 49.3109 15.6263 49.2058 21.9741 48.3055C28.488 47.3636 34.8924 45.7776 41.0931 43.571C41.7502 43.3344 41.9473 43.0781 41.6779 42.3356C40.6922 39.602 40.7218 39.5921 38.044 40.4891C37.2752 40.7388 36.4998 40.9852 35.3892 41.34ZM29.5409 55.3137C29.5409 55.4123 29.5639 55.616 29.5836 55.8197C29.8497 58.6519 31.9196 60.298 33.7366 62.1083C33.7713 62.1592 33.8178 62.2008 33.8722 62.2295C33.9266 62.2582 33.9872 62.2733 34.0487 62.2733C34.1102 62.2733 34.1708 62.2582 34.2252 62.2295C34.2796 62.2008 34.3262 62.1592 34.3609 62.1083C35.1198 61.3132 36.2139 60.6298 36.5326 59.6869C36.7363 59.0922 35.4385 58.4219 34.8504 57.7516C34.6631 57.5348 34.4397 57.3508 34.2557 57.1339C32.741 55.3794 33.4277 53.0499 35.6784 52.4224C36.6969 52.1365 37.745 51.9525 38.7866 51.7653C41.7075 51.2231 41.6582 51.2396 41.1489 48.3975C40.9912 47.5203 40.6134 47.4316 39.9102 47.5761C38.2346 47.9047 36.5458 48.2168 34.8767 48.5979C33.3551 48.9417 31.9966 49.7949 31.0262 51.0162C30.0558 52.2376 29.5317 53.7538 29.5409 55.3137Z" fill="#1744F2"/>
<path d="M33.2872 36.911C32.3585 38.8853 31.2706 40.7808 30.0345 42.5787C29.8045 42.927 29.4266 42.9828 29.0783 43.0617C21.0582 44.9115 12.9263 45.5357 4.71558 45.3386C4.12746 45.3386 3.97303 45.1414 3.94346 44.5665C3.7759 41.3959 3.76276 41.3466 6.97608 41.4057C15.8702 41.5667 24.4851 40.2163 32.7615 36.8782C32.9028 36.819 33.0441 36.6974 33.2872 36.911Z" fill="#1744F2"/>
</svg>
