<svg width="87" height="115" viewBox="0 0 87 115" fill="none" xmlns="http://www.w3.org/2000/svg">
<path d="M46.2589 0C50.8498 2.31795 55.4445 4.63496 60.0429 6.95103C62.4396 8.15782 62.7884 9.17333 61.5957 11.5897C60.1891 14.4309 58.7376 17.2608 57.3452 20.1133C56.7094 21.4157 55.8542 22.2652 54.293 21.9839C54.1322 21.9383 53.96 21.9576 53.8133 22.0375C53.6666 22.1175 53.557 22.2517 53.5082 22.4115C52.9849 23.4861 52.4476 24.555 51.9075 25.6212C51.8642 25.6804 51.8335 25.7478 51.8174 25.8193C51.8013 25.8909 51.8 25.9649 51.8137 26.037C51.8274 26.109 51.8558 26.1774 51.8971 26.238C51.9385 26.2986 51.9918 26.3501 52.0538 26.3892C53.179 27.3456 53.1593 28.4961 52.5433 29.7198C51.9807 30.845 51.404 31.9899 50.8273 33.1208C50.5995 33.5652 50.5601 33.7987 51.1958 33.9647C54.7041 34.7531 57.7703 36.8705 59.7503 39.8721C60.1244 40.4347 60.673 40.6006 61.2243 40.806C69.3456 43.8385 75.7706 48.9807 80.4177 56.303C83.5293 61.2129 85.4555 66.7795 86.0438 72.5624C86.9384 80.875 85.169 88.5968 80.9803 95.7925C80.6315 96.3945 80.5949 96.6702 81.2926 97.0668C84.5501 98.9178 86.2154 101.759 86.2548 105.506C86.2801 107.756 86.2689 110.007 86.2548 112.243C86.2548 114.08 85.3321 115 83.4896 115C56.5744 115 29.6629 115 2.75524 115C0.92114 115 0.0322183 114.08 0.0237792 112.212C0.0237792 109.962 0.0237792 107.711 0.0237792 105.475C-0.0409208 100.524 3.81295 96.2426 8.71045 95.9248C9.34339 95.8826 9.55437 95.6294 9.53749 95.0218C9.50936 94.0513 9.48967 93.0751 9.53749 92.1046C9.5825 91.3311 9.32932 91.0526 8.53042 91.0751C6.7357 91.1257 4.93816 91.0751 3.14063 91.0751C2.54788 91.1099 1.9543 91.0227 1.39654 90.8191C0.934059 90.6076 0.551066 90.2541 0.303206 89.81C0.0553458 89.3659 -0.0444688 88.8544 0.0182634 88.3497C0.0809956 87.845 0.303007 87.3735 0.652042 87.0036C1.00108 86.6337 1.45895 86.3848 1.95915 86.2929C2.25654 86.2535 2.55674 86.2393 2.85651 86.2507H35.4344C35.6586 86.2441 35.8829 86.2488 36.1067 86.2648C36.692 86.3148 37.2402 86.5721 37.6527 86.9903C38.0653 87.4085 38.315 87.9602 38.3571 88.5461C38.3751 89.1307 38.1761 89.7013 37.7985 90.1479C37.4209 90.5946 36.8914 90.8858 36.312 90.9654C34.191 91.2467 32.0531 91.0723 29.9236 91.0582C29.0094 91.0582 28.6437 91.2607 28.7337 92.2256C28.7987 93.1622 28.7987 94.1021 28.7337 95.0387C28.7084 95.6378 28.9475 95.8066 29.5129 95.801C36.3261 95.7391 43.1449 96.0345 49.9468 95.6603C57.5421 95.2468 64.4987 89.0834 66.4678 81.3138C67.4917 77.197 67.1114 72.8561 65.3874 68.98C63.6633 65.1039 60.6943 61.9145 56.9513 59.9178C56.7562 59.7848 56.5235 59.7179 56.2875 59.727C56.0516 59.7361 55.8247 59.8207 55.6404 59.9684C53.1121 61.6402 50.1114 62.4506 47.0853 62.2787C44.0591 62.1069 41.1694 60.9621 38.8466 59.0148C38.253 58.5085 38.0392 58.6548 37.7354 59.2736C36.3767 62.0614 34.9843 64.8322 33.5918 67.6002C32.6073 69.5694 31.4511 69.9435 29.4848 68.9646C25.0777 66.7704 20.6706 64.5696 16.2635 62.3623C14.2943 61.3778 13.9005 60.2076 14.8766 58.2525C21.1497 45.6876 27.4322 33.1283 33.724 20.5746C34.3767 19.2693 35.2403 18.3242 36.8915 18.8024C37.3191 18.929 37.3894 18.5914 37.5216 18.3382C37.893 17.6068 38.239 16.8586 38.6469 16.1384C39.0913 15.3142 39.547 14.6363 38.5315 13.7558C37.8283 13.1425 37.9942 12.0876 38.419 11.224C40.0309 7.97779 41.6653 4.75404 43.2715 1.49935C43.5753 0.843913 44.1886 0.483843 44.6865 0H46.2589ZM52.6192 48.0749C52.661 46.8088 52.1987 45.5778 51.3337 44.6522C50.4688 43.7266 49.2719 43.182 48.0059 43.138C45.4741 43.0508 43.173 45.2759 43.128 47.8667C43.1332 49.0936 43.6097 50.2714 44.459 51.1568C45.3082 52.0422 46.4653 52.5673 47.6908 52.6236C48.3167 52.6645 48.9445 52.5776 49.5358 52.3684C50.1272 52.1592 50.6698 51.8319 51.1308 51.4065C51.5917 50.981 51.9614 50.4663 52.2173 49.8936C52.4731 49.3209 52.6099 48.7021 52.6192 48.0749Z" fill="#1744F2"/>
</svg>
