<svg width="89" height="113" viewBox="0 0 89 113" fill="none" xmlns="http://www.w3.org/2000/svg">
<path d="M88.9971 54.1053C88.9971 62.3073 88.9971 70.5093 88.9971 78.7113C88.9682 92.6257 80.1541 103.8 66.8144 106.866C65.9463 107.069 64.7888 106.925 64.2101 107.455C63.6314 107.984 64.0712 109.219 63.9931 110.119C63.8513 111.751 62.8819 112.894 61.2615 112.927C57.4997 113.006 53.7119 113.015 49.9415 112.927C48.2053 112.886 47.3372 111.771 47.2417 109.845C47.1086 107.305 47.1086 107.299 44.7156 107.308C43.807 107.308 42.69 107.013 42.0447 107.457C41.3271 107.943 41.8422 109.169 41.7554 110.066C41.5731 111.898 40.6674 112.927 38.8415 112.959C35.1993 113.028 31.5553 113.028 27.9093 112.959C26.04 112.921 25.0503 111.727 25.0156 109.778C24.9577 107.393 24.9577 107.393 22.747 107.019C11.7511 105.161 2.31781 95.5132 0.506389 84.3041C0.174921 82.3004 0.00555777 80.2726 0 78.2408C0.0115746 61.6192 0.0163974 44.9947 0.0144683 28.3672C-0.00385453 24.6585 1.1748 21.0459 3.36988 18.0829C5.56496 15.1199 8.65541 12.9699 12.1678 11.9622C13.7091 11.509 15.3059 11.2803 16.9105 11.283C21.2076 11.283 25.5046 11.283 29.7988 11.2977C30.5483 11.2977 30.8926 11.133 31.1328 10.3214C33.005 4.04348 38.3524 -0.0408585 44.5391 0.000308331C50.7257 0.0414752 56.0095 4.06994 57.8499 10.2714C58.1016 11.1271 58.4749 11.3094 59.2967 11.3035C63.3304 11.2594 67.3671 11.283 71.4037 11.283C81.8585 11.283 89.0174 18.5842 89.0174 29.2464C89.0058 37.5366 88.999 45.8229 88.9971 54.1053ZM83.3255 54.2376C83.3255 45.7749 83.1924 37.3063 83.3661 28.8436C83.5021 22.2804 78.3601 16.7699 71.6468 16.9993C66.5337 17.1728 61.409 17.0375 56.2902 17.0316C53.9405 17.0316 53.0088 16.1495 52.8178 13.7589C52.4358 9.17757 48.9027 5.73132 44.542 5.70191C40.1812 5.67251 36.6018 9.11582 36.1909 13.6853C35.9623 16.2347 35.0884 17.0551 32.5304 17.0551C27.2813 17.0551 22.0323 17.0199 16.7832 17.0551C10.4663 17.0934 5.6976 21.9363 5.68892 28.376C5.66577 45.3956 5.57606 62.4151 5.72943 79.4346C5.80756 88.2943 10.0699 94.8222 17.6657 99.0889C20.6693 100.777 23.9507 101.494 27.3884 101.606C29.5586 101.679 30.5946 102.744 30.6727 104.708C30.7798 107.302 30.7798 107.302 33.3869 107.302C36.0896 107.302 36.0896 107.302 36.1735 104.529C36.2227 102.914 37.1111 101.768 38.6736 101.7C42.5743 101.529 46.4865 101.518 50.3813 101.7C51.8803 101.774 52.7541 102.909 52.8381 104.438C52.8872 105.349 52.43 106.546 53.0348 107.099C53.6396 107.652 54.8578 107.272 55.8012 107.284C58.2579 107.308 58.2579 107.284 58.3331 104.782C58.3881 102.897 59.3169 101.841 61.1486 101.632C62.1845 101.518 63.2378 101.556 64.2622 101.4C69.6348 100.613 74.5398 97.86 78.0563 93.658C81.5728 89.456 83.4588 84.094 83.3603 78.579C83.204 70.4779 83.3371 62.3622 83.3371 54.2494L83.3255 54.2376Z" fill="#1744F2"/>
<path d="M44.5619 25.415C52.6642 25.415 60.7837 25.3974 68.8946 25.415C73.5766 25.415 77.101 28.1908 77.7145 32.5222C78.0039 34.5099 77.8129 36.5683 77.8187 38.5943C77.8187 39.1588 77.8476 39.4764 78.5652 39.6675C79.1606 39.819 79.6891 40.1685 80.0666 40.6602C80.4441 41.152 80.649 41.7579 80.6487 42.3816C80.6408 43.0028 80.4316 43.604 80.0533 44.092C79.6751 44.58 79.149 44.9277 78.5565 45.081C77.9633 45.2515 77.7955 45.5044 77.8158 46.0749C77.8476 46.957 77.8331 47.8392 77.8158 48.7213C77.8013 49.8357 77.5901 50.8914 79.1989 51.2854C80.2407 51.5412 80.7123 52.7233 80.6139 53.8672C80.5155 55.011 79.905 56.0343 78.7417 56.3078C77.8736 56.5107 77.7666 56.9311 77.81 57.6574C77.8462 58.3176 77.8462 58.9792 77.81 59.6393C77.7492 60.9479 77.6161 62.1417 79.3378 62.6592C80.3275 62.9533 80.7152 64.1118 80.6081 65.1939C80.5011 66.276 79.9368 67.2905 78.8257 67.561C77.8331 67.7992 77.7579 68.3549 77.8071 69.1636C77.8476 69.8222 77.8071 70.4868 77.8071 71.1484C77.8245 72.304 77.4714 73.5008 79.2539 73.9066C80.2841 74.1359 80.7268 75.3768 80.5966 76.5177C80.4664 77.6586 79.8153 78.6025 78.6607 78.926C78.0675 79.0936 77.8273 79.2759 77.7926 79.9463C77.1907 89.203 70.3154 95.8015 61.0557 96.0455C60.5378 96.0602 60.014 96.0749 59.4961 96.0455C58.8218 96.0073 58.437 96.1396 58.2113 96.9453C57.8756 98.1421 56.9468 98.8037 55.6707 98.8302C54.3338 98.8537 53.3934 98.1774 52.9998 96.9365C52.7654 96.1955 52.4385 96.0338 51.7411 96.0543C46.9704 96.0798 42.1988 96.0798 37.4262 96.0543C36.6623 96.0543 36.2109 96.1425 35.9475 97.0335C35.5945 98.2303 34.6425 98.8507 33.3664 98.8478C32.1453 98.8478 31.1701 98.2597 30.8576 97.1217C30.5683 96.0485 29.9693 96.0367 29.1475 96.0632C25.4639 96.1543 21.9915 95.4721 18.8808 93.3638C13.9616 90.0263 11.2184 85.3833 11.1953 79.3318C11.1345 64.2118 11.1692 49.0918 11.1779 33.9748C11.1779 29.4317 14.3609 25.8002 18.8027 25.5238C22.1738 25.315 25.5651 25.4238 28.9478 25.4179C34.1448 25.4062 39.3534 25.415 44.5619 25.415ZM58.3184 67.5934C58.3391 65.7861 58.1013 63.9853 57.6123 62.2475C55.7314 55.0845 51.7498 49.1653 46.9289 43.7607C45.2506 41.8788 43.7662 41.8906 42.0734 43.7607C38.5563 47.5464 35.6351 51.8609 33.4127 56.5518C31.5203 60.6273 30.2297 64.8881 30.7477 69.437C31.5752 76.8118 38.0946 82.3752 45.1378 81.8782C52.7597 81.3431 58.3328 75.3092 58.3213 67.5934H58.3184ZM67.5491 67.7345C68.8049 67.7345 70.0637 67.711 71.3108 67.7345C71.9706 67.7521 72.2513 67.5316 72.2281 66.8288C72.1905 65.5527 72.1963 64.2706 72.2281 63.0062C72.2281 62.3681 71.9793 62.1623 71.3774 62.1682C68.9062 62.1917 66.4321 62.1387 63.961 62.2064C62.3145 62.2534 61.1917 63.4237 61.1686 64.9204C61.1455 66.4172 62.3116 67.6316 64.0275 67.7139C65.2081 67.7786 66.3801 67.7345 67.552 67.7345H67.5491ZM67.6214 45.1486C68.8773 45.1486 70.1331 45.128 71.3832 45.1486C71.9851 45.1633 72.2513 44.9692 72.231 44.3282C72.2021 43.0079 72.2137 41.6818 72.231 40.3674C72.231 39.8616 72.1442 39.5411 71.5279 39.547C68.9728 39.5734 66.4148 39.5029 63.8626 39.5911C63.137 39.6104 62.4481 39.9192 61.945 40.4509C61.4418 40.9825 61.165 41.6941 61.1744 42.4316C61.2149 43.9636 62.4447 45.1074 64.1114 45.1339C65.2863 45.1633 66.4553 45.1486 67.6243 45.1486H67.6214ZM72.231 53.8113C72.231 53.1115 72.231 52.4116 72.231 51.7088C72.231 51.3736 72.2831 50.9296 71.7796 50.9326C70.7061 50.9326 69.6123 50.7208 68.5706 51.0737C67.2337 51.5265 66.545 52.8821 66.872 54.3494C67.2279 56.0314 68.967 56.887 71.5655 56.4636C72.8879 56.249 71.9822 55.0463 72.2281 54.3347C72.2582 54.1616 72.2592 53.9847 72.231 53.8113ZM72.231 76.2972C72.231 75.5944 72.231 74.8946 72.231 74.1918C72.231 73.8536 72.2715 73.4302 71.7565 73.439C70.6453 73.4596 69.5081 73.242 68.4317 73.6978C67.2192 74.2153 66.6173 75.4239 66.8546 76.8147C66.9563 77.4004 67.2491 77.9342 67.6859 78.33C68.1227 78.7259 68.678 78.9607 69.2621 78.9966C72.2339 79.2847 72.2339 79.2847 72.231 76.3031V76.2972Z" fill="#1744F2"/>
<path d="M44.5105 17.0346C43.7695 17.0087 43.0653 16.6997 42.5385 16.1694C42.0118 15.639 41.7013 14.9263 41.6689 14.1735C41.6892 13.4284 41.994 12.7206 42.5187 12.1998C43.0434 11.6789 43.747 11.386 44.4805 11.383C45.214 11.3799 45.9199 11.667 46.4488 12.1834C46.9777 12.6998 47.2882 13.4051 47.3145 14.15C47.2884 14.9006 46.9857 15.6138 46.4663 16.1482C45.9469 16.6825 45.2488 16.9989 44.5105 17.0346Z" fill="#1744F2"/>
</svg>
