<svg width="99" height="110" viewBox="0 0 99 110" fill="none" xmlns="http://www.w3.org/2000/svg">
<path d="M20.5697 87.6704C19.5014 86.0991 18.5714 84.438 17.7902 82.7059C15.5927 78.1616 14.6994 73.2344 13.6069 68.3695C12.8692 65.0857 12.1813 61.7895 11.4281 58.512C11.3158 58.065 11.3396 57.5946 11.4966 57.1612C15.8261 44.7856 24.3888 37.3497 37.4366 35.6845C52.3364 33.7765 65.8667 42.6068 70.5511 56.8499C70.7769 57.4616 70.8181 58.1261 70.6694 58.761C69.1536 65.0795 68.0548 71.4945 66.2371 77.7476C65.9009 78.8961 65.4029 79.9949 65.0357 81.1372C64.7929 81.8966 64.3633 82.0927 63.5728 82.0461C61.615 81.9278 61.6118 81.9776 61.5745 80.0135C61.4998 75.9672 58.6518 72.9325 54.6179 72.7239C53.5262 72.6938 52.4904 72.2341 51.7357 71.4447C50.5872 70.2868 49.4635 69.1009 48.2465 68.0209C46.2731 66.2269 43.6992 65.2372 41.0322 65.247C38.3653 65.2568 35.7987 66.2653 33.8385 68.0738C32.6246 69.1632 31.5041 70.3522 30.3524 71.4976C29.6135 72.2536 28.608 72.6905 27.5511 72.7146C23.4581 72.9231 20.6008 75.9579 20.5634 80.0883C20.5417 82.5192 20.5697 84.9594 20.5697 87.6704ZM28.0056 63.3925C30.6544 63.2587 32.8238 62.2409 34.4019 60.0932C35.401 58.7268 35.3917 58.7205 33.9132 57.9829C33.629 57.8595 33.3534 57.717 33.0884 57.5565C32.3663 57.0584 31.943 57.0927 31.3765 57.9362C29.9478 60.0745 26.9255 60.2426 25.0673 58.4902C24.616 58.0607 24.5818 57.0833 23.7881 57.1985C23.1655 57.2857 22.6053 57.7463 22.017 58.042C21.919 58.1055 21.8147 58.1587 21.7058 58.2008C20.7066 58.4466 20.9027 58.9789 21.3229 59.6263C22.9041 62.0448 25.1731 63.2306 28.0118 63.38L28.0056 63.3925ZM53.9705 63.3925C55.2421 63.3957 56.4966 63.0993 57.6323 62.5271C58.7679 61.955 59.7527 61.1233 60.5069 60.0994C61.4936 58.7237 61.4936 58.7268 60.0151 57.986C59.6263 57.8134 59.248 57.618 58.8821 57.4008C58.2939 57.0086 58.0044 57.1829 57.6215 57.7588C57.2876 58.2843 56.8403 58.7284 56.3124 59.0587C55.7846 59.3889 55.1895 59.5969 54.5708 59.6673C53.9522 59.7377 53.3256 59.6689 52.737 59.4657C52.1484 59.2626 51.6127 58.9303 51.1692 58.4933C50.7179 58.0669 50.6837 57.0896 49.8899 57.2047C49.2674 57.295 48.7072 57.7525 48.1189 58.0482C48.0211 58.1121 47.9168 58.1654 47.8077 58.207C46.9891 58.4311 46.9143 58.8295 47.3626 59.5392C48.057 60.6786 49.0253 61.6263 50.1794 62.296C51.3335 62.9657 52.6367 63.3362 53.9705 63.3738V63.3925Z" fill="#1744F2"/>
<path d="M1.94114 58.8762C0.90328 56.5305 0.304073 54.0145 0.173205 51.4528C-0.0010985 47.8173 -0.159839 44.1632 0.310157 40.5277C0.348158 39.9856 0.472133 39.4529 0.677439 38.9496C2.41113 35.4044 2.11544 31.5449 2.39246 27.788C2.66325 24.1059 2.85623 20.4393 4.71443 17.1057C7.74917 11.6588 12.3215 8.43103 18.4782 7.49415C19.4119 7.34786 20.1309 6.87164 20.8624 6.3674C25.2259 3.30995 30.229 1.28742 35.4914 0.453546C44.4556 -0.92843 52.7422 0.847803 60.3514 5.78224C61.8244 6.7554 63.4741 7.43008 65.207 7.76805C73.1876 9.36791 79.1761 16.6202 79.5247 24.8155C79.6399 27.5297 79.7488 30.2563 80.1223 32.9393C80.3589 34.6294 79.8111 35.7842 78.6408 36.8144C78.2955 37.1257 77.9283 37.4117 77.542 37.6704C75.3632 39.1084 75.1205 39.043 73.5331 37.0479C67.4822 29.4065 59.6542 25.0645 49.8776 24.4233C48.7322 24.3486 48.3836 23.9658 48.368 22.8671C48.2996 17.887 47.621 12.9785 46.7682 8.08242C46.6312 7.29183 46.3853 7.10197 45.6539 7.35097C45.254 7.49044 44.8323 7.55686 44.4089 7.54706C43.0113 7.49726 43.03 8.26606 43.2323 9.31811C44.0774 13.8936 44.5975 18.5232 44.7886 23.1721C44.8322 24.0685 44.5676 24.3455 43.7023 24.2553C43.046 24.1743 42.3822 24.1743 41.7258 24.2553C40.5151 24.4202 39.8365 23.944 39.3012 22.8422C38.1993 20.5825 37.4149 18.2543 37.3651 15.73C37.3651 15.0421 37.113 14.9145 36.4843 14.902C33.5211 14.846 33.4931 14.8304 33.8542 17.7843C34.1219 19.9848 34.8658 22.0609 35.8867 24.2241C25.8736 24.0996 17.4417 27.5079 10.5287 34.7695C9.80311 33.6158 9.42194 32.279 9.42995 30.9161C9.42995 29.9326 9.06267 29.7303 8.21916 29.8205C7.75624 29.8797 7.28766 29.8797 6.82474 29.8205C5.82872 29.6773 5.5517 30.054 5.67309 31.0313C5.947 33.2101 6.46368 35.3017 7.57798 37.2035C7.86433 37.6953 7.91725 38.0283 7.57798 38.5419C3.42271 44.683 1.58942 51.4746 1.94114 58.8762Z" fill="#1744F2"/>
<path d="M56.7102 93.1984C54.1579 99.0562 50.2143 103.012 43.9923 104.114C33.3847 106.016 25.7341 97.889 24.5295 89.6407C24.0315 86.2418 24.3397 82.818 24.3365 79.4066C24.3365 77.8504 25.8026 76.4933 27.4024 76.4466C28.5482 76.4291 29.6774 76.1707 30.7167 75.688C31.7559 75.2054 32.682 74.5094 33.4345 73.6453C34.3278 72.6742 35.271 71.7466 36.2358 70.844C37.5398 69.6547 39.2371 68.989 41.0018 68.9746C42.7666 68.9602 44.4745 69.5983 45.7976 70.7662C46.9586 71.7933 48.0356 72.917 49.1156 74.0344C49.811 74.7676 50.6444 75.3562 51.5679 75.7664C52.4915 76.1767 53.487 76.4004 54.4972 76.4248C56.5297 76.5213 57.8121 77.9126 57.8339 79.9856C57.8557 82.0087 57.8557 82.0087 55.8543 82.0087C53.6755 82.0087 51.4967 82.0087 49.3179 82.0087C49.0525 82.0256 48.7869 81.9777 48.544 81.8693C48.3011 81.7608 48.0882 81.5951 47.9235 81.3862C46.5611 79.8599 44.7286 78.8316 42.716 78.464C40.7033 78.0964 38.6256 78.4106 36.8117 79.3568C34.9841 80.2971 33.5203 81.8173 32.6498 83.6791C31.7793 85.5409 31.5514 87.639 32.0018 89.6443C32.4522 91.6496 33.5555 93.4487 35.1385 94.7594C36.7216 96.0702 38.6949 96.8184 40.7491 96.8868C42.094 96.9492 43.4357 96.7083 44.675 96.1819C45.9142 95.6555 47.0191 94.8571 47.9079 93.8458C48.0851 93.6245 48.3125 93.4487 48.5713 93.3328C48.83 93.217 49.1127 93.1645 49.3957 93.1797C51.7551 93.2171 54.1206 93.1984 56.7102 93.1984Z" fill="#1744F2"/>
<path d="M71.2761 72.9762C71.9983 69.7049 72.6706 66.6483 73.3491 63.5949C73.6853 62.0853 73.9934 60.5664 74.3949 59.0724C74.63 58.0926 74.5561 57.064 74.1833 56.1279C69.6856 42.9556 60.6499 34.7789 46.9764 32.2421C29.8791 29.0704 13.4168 39.2609 8.02277 55.9038C7.62719 57.0714 7.57747 58.3285 7.87959 59.5237C8.89117 63.735 9.7907 67.9743 10.7276 72.2074C10.7598 72.4019 10.7785 72.5985 10.7836 72.7956C10.3447 72.7956 10.2918 72.4377 10.1611 72.2105C-0.698616 55.2439 8.94097 32.4694 28.6559 28.4946C30.4036 28.1318 32.1841 27.9503 33.969 27.953C38.7842 27.981 43.5993 27.953 48.4113 27.953C61.7424 28.0091 73.8253 38.3396 76.0352 51.4777C77.297 58.4514 75.9688 65.6459 72.3002 71.7094C72.0829 72.2184 71.7283 72.657 71.2761 72.9762Z" fill="#1744F2"/>
<path d="M98.0038 109.972C96.0864 109.972 94.415 109.941 92.7498 109.972C92.1521 109.991 91.8347 109.661 91.4798 109.297C86.9791 104.796 82.4534 100.326 77.9838 95.7849C73.7569 91.4803 68.6461 89.4198 62.6451 89.4478C56.1648 89.482 49.6813 89.4478 43.201 89.4633C42.3512 89.4633 41.6789 89.2268 41.2743 88.4424C41.1152 88.1529 41.04 87.8248 41.0571 87.4949C41.0741 87.1651 41.1827 86.8465 41.3708 86.5749C41.5503 86.2974 41.8008 86.073 42.0964 85.9252C42.392 85.7774 42.7219 85.7116 43.0516 85.7345C50.4252 85.7501 57.8082 85.5789 65.1725 85.8154C70.8684 85.9739 76.2918 88.2889 80.3462 92.2926C86.1885 97.9233 91.8627 103.725 97.5991 109.455C97.6987 109.549 97.7765 109.679 98.0038 109.972Z" fill="#1744F2"/>
<path d="M52.2527 104.702C52.2527 106.296 52.2185 107.728 52.2683 109.156C52.2932 109.851 52.0286 109.991 51.3968 109.984C48.8756 109.953 46.3544 109.984 43.8333 109.984C39.5286 109.984 35.2239 109.963 30.9193 110C30.1256 110 29.8268 109.835 29.8703 108.988C29.945 107.638 29.8921 106.277 29.8921 104.73C37.3311 109.175 44.711 109.237 52.2527 104.702Z" fill="#1744F2"/>
<path d="M80.2095 58.8917C80.5053 53.3486 79.4051 47.8199 77.0097 42.8122C76.8168 42.4045 76.7825 42.1462 77.321 41.9469C78.8555 41.3649 80.1939 40.4529 81.5696 39.3573C82.2886 45.9653 82.6559 52.5172 80.2095 58.8917Z" fill="#1744F2"/>
<path d="M41.4366 82.1115C38.9465 83.1293 37.3653 84.9128 37.3902 87.6425C37.4089 90.3287 38.9465 92.081 41.5113 93.0304C40.5336 93.1971 39.5284 93.0681 38.6246 92.66C37.7207 92.2519 36.9592 91.5831 36.4378 90.7395C35.1523 88.7755 35.0807 86.6932 36.2915 84.7074C37.4307 82.8212 39.1644 81.9092 41.4366 82.1115Z" fill="#1744F2"/>
</svg>
