<svg width="111" height="80" viewBox="0 0 111 80" fill="none" xmlns="http://www.w3.org/2000/svg">
<path d="M111.001 70.332C110.392 71.2114 109.553 71.4672 108.496 71.4269C106.44 71.3522 104.378 71.381 102.319 71.4269C101.618 71.4269 101.32 71.2976 101.262 70.513C101.046 67.775 99.7994 65.218 97.7694 63.3515C95.7394 61.485 93.0753 60.4461 90.308 60.4417C87.5407 60.4374 84.8733 61.4679 82.8374 63.328C80.8014 65.1881 79.5464 67.7412 79.3223 70.4785C79.2615 71.2085 79.0327 71.4298 78.2971 71.4269C66.7367 71.4039 55.1763 71.4039 43.6158 71.4269C42.5646 71.4269 42.5762 70.9614 42.5762 70.2055C42.5897 55.1459 42.5897 40.0872 42.5762 25.0295C42.5762 24.242 42.5762 23.4545 42.5762 22.6642C42.5762 20.7099 43.1235 20.1753 45.0927 20.1724H103.413C105.151 20.1724 106.888 20.2184 108.626 20.1552C109.66 20.1178 110.442 20.4282 111.012 21.2761V53.5508C110.578 53.5508 110.143 53.5221 109.712 53.5221C96.4545 53.5221 83.197 53.5221 69.9396 53.5221C68.3092 53.5221 68.5322 53.7376 68.5293 52.0851C68.5293 45.6301 68.5293 39.1761 68.5293 32.7231C68.5293 31.1367 67.9501 30.5475 66.4124 30.5475C61.7152 30.5475 57.019 30.5475 52.3238 30.5475C50.9309 30.5475 50.3227 31.1395 50.3198 32.4961C50.3198 43.7544 50.3198 55.0117 50.3198 66.2682C50.3198 66.8803 50.4183 67.1447 51.1336 67.1303C56.6628 67.1016 62.1901 67.1016 67.7155 67.1303C68.3874 67.1303 68.5669 66.9464 68.5611 66.2854C68.5264 63.239 68.5843 60.1897 68.5235 57.1461C68.5061 56.1977 68.7175 55.896 69.7426 55.8988C83.504 55.9372 97.2672 55.9458 111.032 55.9247L111.001 70.332ZM80.8629 37.2467C80.8629 38.29 80.9006 39.1522 80.8629 40.0086C80.8253 40.6582 81.0222 40.8708 81.7056 40.8708C83.1536 40.8191 84.6015 40.8938 86.0321 40.8392C86.7619 40.8133 86.9559 41.0691 86.9327 41.756C86.8893 43.193 86.9327 44.63 86.9096 46.067C86.9096 46.6418 87.1036 46.8142 87.6596 46.8085C89.4261 46.7855 91.1936 46.7855 92.962 46.8085C93.5267 46.8085 93.7149 46.6159 93.7034 46.0612C93.6715 44.5926 93.7178 43.124 93.6802 41.6554C93.6657 41.0519 93.8539 40.8421 94.4737 40.8565C95.9535 40.8938 97.4333 40.8363 98.9102 40.8852C99.5907 40.9082 99.779 40.684 99.7558 40.023C99.7152 38.3417 99.7124 36.6576 99.7558 34.9763C99.7732 34.2923 99.5965 34.0221 98.861 34.048C97.413 34.0969 95.9651 34.048 94.5345 34.0739C93.8684 34.0911 93.6657 33.8583 93.6657 33.2117C93.7062 31.7747 93.6657 30.3377 93.6889 28.9151C93.7062 28.3144 93.5151 28.0874 92.8954 28.1161C91.9948 28.1592 91.0912 28.0931 90.1906 28.1362C89.1249 28.1851 87.7465 27.6678 87.0804 28.3633C86.4723 28.9984 86.9211 30.3434 86.9125 31.3752C86.8922 34.0681 86.9125 34.0509 84.2308 34.0767C83.1536 34.0767 81.752 33.6198 81.0917 34.2549C80.3764 34.9246 80.9759 36.3386 80.8629 37.2467Z" fill="#1744F2"/>
<path d="M22.3659 48.4064C27.3468 48.4064 32.3278 48.4265 37.3087 48.3834C38.1775 48.3834 38.3889 48.6392 38.3802 49.4698C38.3435 53.6945 38.3435 57.9212 38.3802 62.1498C38.3802 63.012 38.1225 63.2275 37.2856 63.2189C33.2776 63.1786 29.2726 63.1901 25.2647 63.2189C24.7305 63.2272 24.2105 63.0481 23.7965 62.7131C21.8733 61.2298 19.5063 60.4261 17.0706 60.4292C14.635 60.4323 12.2701 61.2421 10.3508 62.7303C9.99896 63.036 9.54988 63.209 9.08236 63.2189C6.33994 63.1959 3.59752 63.1873 0.855099 63.2189C0.186146 63.2189 -0.0136719 63.035 -0.0136719 62.3711C0.0239749 60.2242 -0.0136719 58.0745 0.000807645 55.9247C0.000807645 51.6856 3.22395 48.4524 7.53016 48.4179C12.4764 48.3805 17.4226 48.4064 22.3659 48.4064ZM4.73851 60.8967H5.17289C7.53016 60.8967 7.53016 60.8967 7.32744 58.5803C7.18554 56.9421 6.27044 56.123 4.55896 56.1029C2.24224 56.0713 2.24224 56.0713 2.24224 58.3734C2.23934 60.8967 2.23934 60.8967 4.73851 60.8967Z" fill="#1744F2"/>
<path d="M16.7305 46.0182C18.9922 41.9343 20.1447 37.5515 22.5889 33.7665C23.3046 32.5981 24.2372 31.5751 25.3371 30.7517C26.4321 29.9714 27.7542 29.5677 29.1018 29.6021C31.8818 29.6021 34.6619 29.6308 37.442 29.5848C38.2326 29.5848 38.3918 29.8722 38.3889 30.5821C38.36 35.4219 38.3745 40.2588 38.3716 45.0957C38.3716 45.5383 38.5192 46.0326 37.7345 46.0326C30.793 46.0096 23.8631 46.0182 16.7305 46.0182ZM28.4705 42.7218C29.8026 42.7218 31.1376 42.6959 32.4668 42.7218C33.1184 42.739 33.3587 42.5292 33.3356 41.8596C33.2979 40.1812 33.3356 38.4999 33.3356 36.8215C33.3356 34.1401 33.3356 34.2349 30.6685 34.1056C28.9077 34.0136 27.8102 34.758 26.9298 36.1174C25.7165 37.9912 24.9867 40.0863 24.0948 42.1096C23.866 42.6298 24.1382 42.7132 24.5842 42.7074C25.8786 42.7132 27.176 42.7218 28.4705 42.7218Z" fill="#1744F2"/>
<path d="M8.46305 71.4501C8.45618 70.3222 8.67372 69.2041 9.10317 68.1598C9.53263 67.1155 10.1656 66.1657 10.9657 65.3647C11.7658 64.5637 12.7174 63.9273 13.7658 63.492C14.8143 63.0567 15.939 62.8311 17.0755 62.8281C19.3451 62.8579 21.5123 63.7709 23.1103 65.3707C24.7084 66.9705 25.6095 69.1291 25.6198 71.3818C25.63 73.6344 24.7486 75.801 23.1651 77.415C21.5817 79.0291 19.423 79.9615 17.1537 80.0116C16.0155 80.0196 14.887 79.804 13.8332 79.3774C12.7793 78.9507 11.8209 78.3214 11.0131 77.5256C10.2054 76.7298 9.56421 75.7834 9.12656 74.7406C8.6889 73.6979 8.4634 72.5796 8.46305 71.4501ZM20.4608 71.3753C20.4518 70.488 20.0943 69.6391 19.4641 69.0094C18.834 68.3798 17.9811 68.0191 17.087 68.0042C16.1769 67.9992 15.3021 68.3533 14.655 68.9884C14.0079 69.6236 13.6416 70.4879 13.6366 71.3911C13.6316 72.2944 13.9883 73.1626 14.6284 73.8048C15.2684 74.447 16.1393 74.8105 17.0494 74.8155C17.5014 74.8132 17.9485 74.7223 18.3649 74.548C18.7814 74.3736 19.159 74.1193 19.476 73.7995C19.7931 73.4798 20.0433 73.1011 20.2123 72.685C20.3813 72.269 20.4657 71.8239 20.4608 71.3753V71.3753Z" fill="#1744F2"/>
<path d="M98.9187 71.3955C98.917 73.0881 98.4101 74.7423 97.462 76.1493C96.5139 77.5563 95.1671 78.653 93.5916 79.3011C92.016 79.9493 90.2823 80.1197 88.6093 79.7909C86.9362 79.4622 85.3988 78.649 84.191 77.4539C82.9832 76.2588 82.1591 74.7355 81.8228 73.0761C81.4865 71.4167 81.653 69.6957 82.3013 68.1301C82.9497 66.5645 84.0507 65.2246 85.4656 64.2795C86.8805 63.3344 88.5457 62.8263 90.2513 62.8195C91.3884 62.8157 92.515 63.0348 93.5666 63.4641C94.6182 63.8934 95.5741 64.5246 96.3793 65.3213C97.1846 66.1181 97.8234 67.0648 98.2592 68.1071C98.695 69.1495 98.9191 70.267 98.9187 71.3955V71.3955ZM93.68 71.3955C93.6691 70.7354 93.4626 70.0931 93.0861 69.5489C92.7096 69.0046 92.1798 68.5825 91.5631 68.3352C90.9463 68.088 90.2698 68.0265 89.618 68.1586C88.9662 68.2906 88.3681 68.6103 87.8984 69.0777C87.4286 69.5451 87.108 70.1395 86.9766 70.7867C86.8451 71.4338 86.9088 72.1051 87.1595 72.7166C87.4102 73.328 87.8368 73.8527 88.3862 74.2249C88.9355 74.5972 89.5832 74.8006 90.2484 74.8097C91.1585 74.8082 92.0309 74.4485 92.6742 73.8095C93.3175 73.1706 93.6792 72.3045 93.68 71.4012V71.3955Z" fill="#1744F2"/>
<path d="M26.4834 65.6014C30.3668 65.6014 34.0446 65.6014 37.7253 65.6014C38.2813 65.6014 38.374 65.8457 38.3682 66.3171C38.3508 67.7828 38.3479 69.2514 38.3682 70.72C38.3682 71.2057 38.2524 71.427 37.7108 71.4241C34.7512 71.404 31.7916 71.4098 28.832 71.4241C28.4237 71.4241 28.1688 71.381 28.137 70.8723C28.024 69.0084 27.4565 67.1996 26.4834 65.6014V65.6014Z" fill="#1744F2"/>
<path d="M54.4205 17.7957C53.2331 17.7957 52.0458 17.767 50.8585 17.7957C50.2272 17.8187 50.0476 17.583 50.0737 16.9881C50.1143 16.0627 50.0737 15.1315 50.0911 14.2032C50.0767 13.9895 50.0983 13.7748 50.1548 13.5681C50.734 11.9932 51.6027 10.7775 55.2197 10.9815C57.105 11.0878 58.466 12.0937 58.7904 13.7865C59.0105 14.9189 58.8599 16.0656 58.8946 17.2065C58.912 17.7813 58.5153 17.7813 58.0925 17.7813C56.8675 17.79 55.6454 17.7957 54.4205 17.7957Z" fill="#1744F2"/>
<path d="M7.62299 65.6015C6.71658 67.3718 6.04473 69.0876 6.04762 70.9844C6.04762 71.4012 5.75803 71.404 5.44817 71.404C3.82647 71.404 2.20186 71.404 0.580157 71.404C0.0559987 71.404 0.000976562 71.1454 0.000976562 70.7373C0.000976562 69.2342 0.000976562 67.7311 0.000976562 66.228C0.000976562 65.794 0.0965414 65.5785 0.594637 65.5842C2.89688 65.613 5.2136 65.6015 7.62299 65.6015Z" fill="#1744F2"/>
<path d="M56.3554 3.82536C56.3554 4.46913 56.3843 5.11577 56.3554 5.75667C56.2975 6.84591 55.5301 7.63625 54.5397 7.68223C54.2951 7.68796 54.0518 7.64581 53.8237 7.5582C53.5956 7.47058 53.3871 7.33922 53.2101 7.17161C53.0332 7.004 52.8912 6.80343 52.7924 6.58136C52.6936 6.35929 52.6398 6.12008 52.6342 5.87738C52.5647 4.51982 52.5647 3.15964 52.6342 1.80208C52.6332 1.55954 52.6817 1.31932 52.7768 1.0959C52.8719 0.872475 53.0116 0.670481 53.1875 0.502096C53.3634 0.33371 53.5718 0.202421 53.8002 0.116145C54.0287 0.0298685 54.2723 -0.00960809 54.5165 9.54429e-05C55.008 0.0229214 55.4719 0.232141 55.8125 0.584572C56.153 0.937002 56.3443 1.40574 56.3467 1.89405C56.3843 2.53494 56.3525 3.18159 56.3554 3.82536Z" fill="#1744F2"/>
<path d="M50.2415 8.19663C50.1662 9.01859 49.8766 9.61925 49.2019 9.94975C48.5271 10.2803 47.8205 10.3033 47.2732 9.80318C46.1505 8.79281 45.0796 7.72714 44.0645 6.61019C43.4072 5.87733 43.5085 4.99502 44.1746 4.27365C44.8001 3.59539 45.6573 3.35973 46.416 3.92015C47.7231 4.92655 48.9043 6.08435 49.9345 7.36892C50.087 7.62386 50.1911 7.90441 50.2415 8.19663V8.19663Z" fill="#1744F2"/>
<path d="M60.6353 10.151C60.3 10.172 59.9657 10.0971 59.6721 9.93505C59.3785 9.77305 59.1379 9.5308 58.9789 9.23709C58.6285 8.59332 58.5734 7.88345 59.0484 7.31728C60.048 6.09628 61.1739 4.98274 62.4076 3.99496C63.1953 3.37993 64.0641 3.57536 64.7417 4.28236C65.4194 4.98936 65.5178 5.81131 64.9387 6.53268C63.9284 7.74093 62.8099 8.8558 61.5968 9.86362C61.3172 10.0625 60.979 10.1636 60.6353 10.151Z" fill="#1744F2"/>
</svg>
