<svg width="81" height="117" viewBox="0 0 81 117" fill="none" xmlns="http://www.w3.org/2000/svg">
<path d="M44.3491 0C44.8528 0.306141 45.2523 0.758568 45.4948 1.29756C45.7373 1.83656 45.8115 2.43678 45.7075 3.019C45.6976 3.17146 45.6976 3.32441 45.7075 3.47686C45.7075 6.39571 45.8015 6.46725 48.4898 7.50888C51.9072 8.83667 54.6354 10.9428 55.7688 14.6343C56.3669 16.6002 56.0023 18.5433 55.6036 20.4834C55.5182 20.9041 55.2391 20.9957 54.8547 21.0043C50.5289 21.093 46.3654 21.8398 42.5493 24.1921C42.8341 22.2834 43.9447 21.1244 45.6819 20.8326C47.0602 20.6008 47.8719 19.7051 47.7124 18.5833C47.5387 17.35 46.5334 16.6689 45.1323 16.7862C41.3903 17.0953 39.6531 19.665 38.477 22.7956C37.889 24.3228 37.5672 25.9404 37.5258 27.5774C37.5124 28.0737 37.3083 28.5454 36.9562 28.8937C33.6499 32.5509 30.7594 36.477 29.1533 41.2187C28.9767 41.7367 28.6691 41.8454 28.2135 41.791C26.3824 41.5993 24.7705 40.6979 23.0504 40.1513C22.6745 40.034 22.7657 39.6448 22.7827 39.3558C22.8055 32.5738 23.0988 25.8232 25.2176 19.293C26.0719 16.6746 27.1826 14.1822 28.9198 12.0417C29.7741 10.9829 29.9336 9.94411 29.5178 8.66497C28.9169 6.82781 28.4641 4.94487 27.9059 3.09341C27.6212 2.18627 27.6582 1.40505 28.6036 0.967226C29.4267 0.586631 30.1329 1.01015 30.5971 2.11187C31.1211 3.37098 31.5853 4.65871 32.1178 5.91496C32.7387 7.37724 33.5702 7.76929 35.1109 7.31715C36.5169 6.87788 37.9559 6.55346 39.4139 6.34706C40.8378 6.16392 41.4074 5.42848 41.4643 3.95475C41.4785 3.727 41.4785 3.49858 41.4643 3.27083C41.3362 1.97165 41.6921 0.858485 42.7572 0H44.3491Z" fill="#1744F2"/>
<path d="M11.8325 0C14.6803 0.858485 15.8963 3.20787 16.9044 5.72323C18.0348 8.46394 18.6267 11.3986 18.6473 14.3653C18.6473 21.3705 18.6473 28.3872 18.6672 35.3782C18.6672 36.0535 18.4679 36.3625 17.8271 36.5972C16.6384 37.0831 15.3734 37.3534 14.0908 37.3956C12.0176 37.3956 10.138 38.2112 8.21293 39.3386V37.925C8.21293 30.6908 8.11041 23.4567 8.24711 16.2282C8.34393 11.2318 6.78619 6.83068 4.21747 2.68706C3.64791 1.78565 3.07835 0.895686 2.50879 0L11.8325 0Z" fill="#1744F2"/>
<path d="M27.6233 64.6925C28.136 66.1748 28.9049 67.2851 29.7136 68.3925C30.6655 69.7339 31.1763 71.3408 31.1746 72.9883C31.1549 73.4127 31.266 73.8328 31.4928 74.1913C31.7196 74.5498 32.0511 74.8293 32.4418 74.9914C32.7396 75.1151 33.0624 75.1659 33.3836 75.1396C33.7048 75.1133 34.0151 75.0107 34.2891 74.8403C34.5631 74.6698 34.7928 74.4363 34.9593 74.1591C35.1258 73.8819 35.2244 73.5689 35.2469 73.2458C35.2896 72.725 35.4206 72.602 35.9446 72.7937C36.4384 72.9865 36.9641 73.0836 37.4938 73.0799C37.9715 73.0611 38.4261 72.8684 38.773 72.5378C39.1198 72.2072 39.3352 71.7611 39.3791 71.2828C39.4787 70.1811 38.9377 69.4742 37.8555 69.0507C35.1786 68.0005 32.8804 66.4753 31.7042 63.6852C31.0236 62.0827 30.9325 60.5975 32.1172 59.0093C33.7876 56.8264 34.8351 54.2276 35.1472 51.4918C35.2298 50.6992 35.5118 50.6047 36.2152 50.8566C40.373 52.3446 44.6703 52.3933 48.9932 51.9583C49.9359 51.8639 50.289 52.027 50.588 53.06C51.3427 55.6641 53.4358 56.9718 55.8593 57.8074C57.4996 58.3798 57.5253 58.3511 56.9984 60.0166C55.5309 64.5722 54.5934 69.2833 54.2047 74.0557C54.0452 76.1561 53.8174 78.0934 52.4761 79.7789C51.7357 80.7147 50.8813 81.3585 49.6853 81.5703C48.4009 81.7963 47.6548 82.7722 47.8484 83.8596C48.0706 85.0843 48.9876 85.6796 50.363 85.5279C51.345 85.4328 52.2963 85.1321 53.1556 84.6451C54.0149 84.1582 54.7633 83.4958 55.3524 82.7006C55.828 82.0854 56.0586 82.0997 56.4146 82.8008C57.4057 84.761 58.7811 86.5037 59.5472 88.6041C60.9711 92.5675 59.8491 96.2275 58.3312 99.8503C57.605 101.582 56.463 103.064 55.4578 104.626C53.8326 107.063 52.7469 109.822 52.2739 112.716C52.1401 113.592 51.9037 114.01 50.85 113.789C46.3847 112.851 41.7655 113.3 37.303 112.579C23.7788 110.398 12.7607 104.246 6.03986 91.689C5.75508 91.1395 5.69813 90.8305 6.25629 90.3783C7.69443 89.2051 8.33804 87.5167 8.88197 85.7997C9.34901 84.3174 9.78757 82.8265 10.2802 81.3557C10.7867 79.9112 11.7023 78.647 12.9145 77.7185C14.1817 76.6912 15.4234 75.6353 16.6622 74.5708C17.1975 74.1129 17.3969 74.1244 17.5763 74.8999C18.2746 77.9755 18.6441 81.1172 18.6784 84.2716C18.7325 88.0862 20.3301 91.1596 23.4599 93.3773C24.599 94.1929 25.7837 94.0784 26.4871 93.1341C27.1905 92.1897 26.9997 90.9821 25.9175 90.1465C24.5221 89.0649 23.4912 87.7743 23.0697 86.0201C22.9159 85.3762 23.0298 85.2188 23.7133 85.3362C24.6483 85.4849 25.592 85.5709 26.5383 85.5937C27.9822 85.6481 28.9191 84.8526 28.959 83.6192C28.9988 82.3858 28.2556 81.6619 26.8032 81.4987C25.7153 81.3786 24.6303 81.2126 23.5453 81.0724C22.8932 80.9865 22.577 80.6689 22.5286 79.9621C22.3156 77.2785 21.828 74.6242 21.0734 72.0411C20.8798 71.3486 20.9851 70.9422 21.5376 70.4787C23.6686 68.6617 25.7002 66.7302 27.6233 64.6925Z" fill="#1744F2"/>
<path d="M58.5452 71.5604C59.5534 73.2001 60.5729 74.6424 61.8971 75.8528C63.4349 77.2493 65.1351 78.4283 67.1228 78.9606C69.7371 79.6617 71.3062 81.4273 72.5336 83.6593C73.5133 85.4564 74.5556 86.0116 75.7773 85.3334C76.9164 84.6952 77.093 83.4476 76.1874 81.7506C74.4787 78.5571 72.115 76.1848 68.5183 75.1002C64.725 73.9556 62.8226 70.8393 61.1738 67.4826C60.0346 65.1933 60.2966 63.0328 61.0485 60.712C61.5269 59.2383 61.8658 58.1366 63.7653 58.1538C65.1059 58.1301 66.3997 57.6544 67.4389 56.8031C68.2078 56.1936 68.3673 56.7315 68.6635 57.2323C72.259 63.3067 75.1594 69.7702 77.3094 76.4996C79.3029 82.735 80.9005 89.0563 81.0116 95.6581C81.0884 100.549 80.7097 105.388 78.6963 109.938C76.381 115.166 72.2232 117.521 66.5817 116.917C63.3011 116.565 60.1115 115.804 56.9163 115.025C56.2157 114.854 56.1047 114.556 56.1987 113.932C56.5432 111.643 57.2153 109.468 58.4769 107.551C60.7409 104.117 62.8141 100.603 63.7909 96.5452C63.9219 96.0072 64.1013 95.847 64.5968 96.2848C65.9643 97.4896 67.1884 98.8493 68.2449 100.337C68.6806 100.952 68.504 101.59 68.3844 102.203C68.1315 103.316 67.6526 104.365 66.9776 105.285C66.2599 106.335 66.4451 107.557 67.3592 108.218C68.2733 108.879 69.4666 108.636 70.2782 107.688C70.8762 106.987 71.087 105.805 71.7818 105.496C72.3856 105.227 73.2057 106.229 74.0743 106.412C75.3416 106.684 76.3241 106.206 76.7057 105.061C77.0873 103.917 76.5661 102.99 75.2818 102.515C74.2907 102.142 73.6699 101.396 73.1687 100.534C71.1003 96.8847 68.2762 93.7239 64.8873 91.2655C64.6951 91.1464 64.5298 90.988 64.4023 90.8007C64.2748 90.6134 64.1877 90.4013 64.1469 90.1781C63.6257 87.1248 62.2445 84.4549 60.5615 81.8794C58.5225 78.786 57.6396 75.4351 58.5452 71.5604Z" fill="#1744F2"/>
<path d="M0.0397742 70.7134C-0.148181 64.9415 0.284685 59.2355 2.31801 53.7726C3.98683 49.2198 6.47296 45.2479 10.7703 42.6953C12.9004 41.4276 15.0135 40.9784 17.3943 42.2604C20.3617 43.8629 23.6594 44.6899 26.792 45.929C27.532 46.2166 28.2555 46.5452 28.9592 46.9134C30.8587 47.9149 31.451 49.2026 31.0552 51.3403C30.5853 53.8728 29.3237 56.0305 27.8001 58.0365C24.5394 62.3289 20.5924 65.9374 16.4801 69.377C14.2987 71.2027 12.1458 73.0657 9.95012 74.8742C7.67188 76.7428 6.51283 79.2525 5.69266 81.9853C5.32244 83.2187 4.95793 84.4549 4.57347 85.6854C4.40967 86.2751 4.084 86.8067 3.6337 87.2192C2.60564 88.1092 1.70289 87.8745 1.35546 86.5753C0.42138 83.1414 0.236272 79.6073 0.0711 76.0789C-0.028573 74.2962 0.0397742 72.5019 0.0397742 70.7134Z" fill="#1744F2"/>
<path d="M56.4175 25.1393C59.9487 24.9161 63.3348 25.6086 66.6183 26.8562C68.2558 27.4772 69.0475 29.0053 68.6374 30.5763C68.2501 32.0672 66.6439 33.0745 65.0007 32.7741C62.0562 32.2283 59.0229 32.4249 56.1726 33.3464C54.3215 33.9359 53.8203 34.7114 54.1791 36.6544C54.4585 37.9561 54.5828 39.2865 54.5493 40.6177C54.4383 42.9843 53.9228 45.1963 52.2113 46.9848C51.9565 47.3129 51.5868 47.5309 51.1775 47.5944C46.2736 48.1152 41.3754 48.5673 36.6537 46.6157C36.0244 46.3581 35.3836 46.1235 34.7799 45.8173C32.3678 44.5925 32.1656 44.3865 33.2762 41.9026C36.0158 35.7988 39.8034 30.5048 45.7582 27.1424C48.4493 25.6229 51.4538 25.1622 54.5066 25.1393C55.1331 25.1335 55.7767 25.1393 56.4175 25.1393Z" fill="#1744F2"/>
<path d="M58.7355 38.2855C60.6459 39.2824 62.2964 40.7165 63.554 42.4721C65.2284 44.6466 66.2296 47.2678 66.4331 50.0096C66.6068 52.4047 65.818 53.4979 63.5398 54.0158C61.4523 54.488 59.3478 54.5481 57.2746 53.9157C56.5436 53.7169 55.8598 53.3724 55.264 52.9027C54.2616 52.0642 54.0423 51.1857 54.9138 50.2585C57.9951 46.9362 58.9007 42.9671 58.6159 38.5889C58.6045 38.5173 58.6643 38.4486 58.7355 38.2855Z" fill="#1744F2"/>
<path d="M8.58035 102.254C9.32648 103.093 10.0043 103.994 10.8273 104.761C12.9782 106.795 15.3501 108.58 17.8984 110.081C18.3939 110.367 18.6644 110.676 18.6701 111.317C18.71 114.465 16.5912 116.9 13.6893 116.977C10.5909 117.06 8.2614 114.779 8.22153 111.554C8.18451 108.55 8.22153 105.545 8.22153 102.543L8.58035 102.254Z" fill="#1744F2"/>
<path d="M31.3257 115.704C28.1732 118.233 23.7221 116.665 22.9902 112.776C24.4141 113.349 25.7526 113.921 27.1138 114.402C28.4751 114.882 29.8449 115.249 31.3257 115.704Z" fill="#1744F2"/>
</svg>
