<svg width="71" height="112" viewBox="0 0 71 112" fill="none" xmlns="http://www.w3.org/2000/svg">
<path d="M63.1518 0C68.0088 1.77973 69.9609 5.58466 70.0573 10.4241C70.221 18.6564 70.6769 26.8829 70.5512 35.1211C70.4431 42.2254 70.1041 49.3092 68.8153 56.3171C68.5231 57.9127 68.5231 57.8922 66.9713 57.6847C58.1426 56.5365 49.4369 54.586 40.9622 51.8575C35.0737 49.9814 29.3571 47.6036 23.875 44.7503C23.0889 44.3353 22.4548 43.7363 21.7417 43.2365C19.8734 41.9003 17.7572 40.9505 15.5171 40.4427C14.4329 40.2002 14.3481 40.0365 15.1342 39.1773C16.9344 37.1726 19.2928 36.6963 21.806 37.1142C25.3859 37.6986 28.6794 39.2007 31.9817 40.621C35.7808 42.2546 39.7669 42.8858 43.8612 43.1401C48.1424 43.406 52.4266 43.7392 56.5034 45.2763C57.9339 45.8123 59.2933 46.5219 60.5508 47.3892C61.7695 48.2367 62.9297 48.1227 63.6281 47.135C64.3266 46.1472 64.046 45.0426 62.8157 44.1746C61.5136 43.2412 60.0986 42.4763 58.6045 41.8981C58.1224 41.714 57.8038 41.4831 57.7278 40.9279C56.808 34.9152 56.4003 28.8353 56.5092 22.7536C56.6738 15.2519 57.6627 7.79112 59.4579 0.505571C59.5117 0.333236 59.5761 0.164391 59.6508 0L63.1518 0Z" fill="#1744F2"/>
<path d="M55.4951 0C54.7207 3.69973 53.9638 7.39653 53.467 11.1489C52.7588 16.6051 52.4657 22.1071 52.5903 27.6077C52.6484 31.4318 52.9412 35.2488 53.467 39.0371C53.6482 40.3258 53.6306 40.3112 52.3389 40.095C49.4019 39.5914 46.4353 39.279 43.4578 39.1598C39.2876 39.0108 35.3629 37.9003 31.5842 36.1848C29.0587 35.0667 26.445 34.1596 23.7698 33.4729C21.5698 32.8886 19.6089 31.6282 18.1637 29.8696C16.7186 28.1109 15.8623 25.9428 15.7157 23.6712C15.621 22.1136 15.9902 20.5629 16.7767 19.2152C17.5632 17.8674 18.7317 16.7831 20.1344 16.0994C20.2362 16.0635 20.3341 16.0175 20.4266 15.962C23.0918 13.9514 25.9207 14.5417 28.8781 15.1525C32.4434 15.889 36.0876 16.2455 39.7377 15.848C43.9225 15.3921 46.953 13.1244 49.0074 9.5211C50.6849 6.57534 51.7048 3.4221 51.7749 0L55.4951 0Z" fill="#1744F2"/>
<path d="M47.838 0C47.6568 2.99543 46.8473 5.80091 45.1494 8.29078C43.4515 10.7806 41.0581 12.0197 38.0188 12.0226C34.7818 12.0245 31.5521 11.7133 28.375 11.0933C29.617 9.78703 30.8093 8.58009 31.9432 7.31763C33.5779 5.50587 35.0314 3.53851 36.2829 1.44365C36.6366 0.876712 37.1187 0.473425 37.5571 0H47.838Z" fill="#1744F2"/>
<path d="M39.6875 112H14.8678C12.9624 112 12.2376 111.272 12.4159 109.414C12.7315 106.36 13.5848 103.432 14.6544 100.565C14.8502 100.039 15.1045 100.036 15.5487 100.237C19.9876 102.251 24.7259 103.526 29.5761 104.01C33.0926 104.39 36.641 104.367 40.1521 103.94C41.4292 103.779 42.1072 102.882 41.9348 101.667C41.7828 100.6 40.798 99.9131 39.5969 100.065C33.9093 100.756 28.1405 100.272 22.6471 98.6448C14.6924 96.342 8.11999 92.1454 3.98191 84.7489C0.700079 78.8808 -0.287684 72.5041 0.0688461 65.8762C0.337705 60.7737 1.66154 55.9898 4.45241 51.6647C6.34762 48.802 8.7433 46.3044 11.5246 44.2915C11.717 44.1551 11.935 44.0589 12.1655 44.0087C12.3959 43.9585 12.6342 43.9553 12.8659 43.9993C15.1015 44.2594 17.2758 44.8263 19.0555 46.2203C21.4665 48.114 24.2164 49.3326 26.9459 50.6039C35.027 54.3467 43.4981 57.1821 52.204 59.0583C52.8645 59.2015 53.0807 59.4499 53.0807 60.1337C53.0223 65.8061 54.4425 71.1219 56.8798 76.2273C60.5854 84.0037 63.0168 92.2243 65.0946 100.553C65.8077 103.405 66.4535 106.278 67.0614 109.157C67.4647 111.071 66.6639 111.994 64.7235 111.994L39.6875 112ZM37.9954 68.5151C37.9078 65.5255 36.242 62.5184 32.6475 60.8848C29.1114 59.2775 25.7331 59.8999 22.7728 62.384C22.0948 62.9538 21.8084 62.8457 21.221 62.3314C16.4634 58.1553 9.01131 59.9087 6.72602 65.7739C5.26483 69.5204 6.02757 73.0448 8.42976 76.1542C11.9366 80.7014 16.6738 83.9452 20.996 87.6362C21.6506 88.2002 22.5098 88.095 23.2228 87.5427C23.8277 87.0751 24.4181 86.5871 24.9967 86.0815C28.2522 83.276 31.7182 80.6897 34.585 77.4693C36.619 75.1869 37.9954 72.6064 37.9954 68.5151Z" fill="#1744F2"/>
<path d="M34.05 69.1259C34.088 71.2096 33.2961 72.7789 32.1534 74.2021C29.9266 76.9812 27.089 79.1117 24.4091 81.4086C23.6376 82.0662 22.8223 83.1621 22.0274 83.1621C21.2325 83.1621 20.423 82.0633 19.6486 81.4086C17.2844 79.4127 14.8471 77.4927 12.7459 75.2074C11.3227 73.6614 10.1158 71.9928 10.0106 69.7688C9.8937 67.1387 11.1182 65.1632 13.3421 64.3157C15.3878 63.5383 17.9916 64.3157 19.5288 66.1626C19.783 66.4549 19.9964 66.8085 20.2214 67.1416C21.2617 68.6875 22.8194 68.7168 23.813 67.1416C24.7715 65.6161 26.0603 64.5553 27.8079 64.1491C28.5565 63.9683 29.3365 63.9609 30.0884 64.1275C30.8404 64.2941 31.5443 64.6303 32.1465 65.1104C32.7486 65.5906 33.2332 66.2019 33.5631 66.8978C33.893 67.5937 34.0596 68.3558 34.05 69.1259Z" fill="#1744F2"/>
</svg>
