<svg width="111" height="108" viewBox="0 0 111 108" fill="none" xmlns="http://www.w3.org/2000/svg">
<path d="M69.1552 53.016C77.5824 53.016 86.0125 53.001 94.4397 53.016C98.6578 53.016 101.745 55.4408 102.617 59.368C102.739 60.0297 102.791 60.7025 102.772 61.3752C102.772 68.7218 102.772 76.0685 102.801 83.4121C102.801 84.3616 102.504 84.4548 101.655 84.4608C97.4879 84.4848 93.5378 83.2589 89.5013 82.5107C85.3547 81.7355 81.1664 81.8016 76.9632 81.9728C72.4981 82.1531 68.1967 83.4392 63.7881 83.968C57.4298 84.7282 51.0715 85.0106 44.8262 83.0515C42.1472 82.2132 39.3758 81.9758 36.5925 81.8977C35.8126 81.8767 35.4941 81.7505 35.5001 80.8611C35.5358 74.3768 35.5001 67.8925 35.5298 61.4083C35.5596 56.3903 38.8966 53.034 43.8647 53.019C52.2979 52.998 60.7251 53.016 69.1552 53.016Z" fill="#1744F2"/>
<path d="M55.524 96.5156C40.1917 96.5156 24.8565 96.5247 9.51831 96.5427C8.41394 96.5427 8.19068 96.2422 8.20259 95.1755C8.25617 89.6678 8.24427 84.1571 8.20259 78.6494C8.20259 77.766 8.35738 77.4174 9.33971 77.4234C16.9126 77.4655 24.4874 77.4655 32.0642 77.4234C33.0317 77.4234 33.2549 77.7449 33.2103 78.6463C33.1388 79.9174 33.1894 81.1944 33.1924 82.4684C33.1924 83.9708 33.5079 84.3043 35.0261 84.3133C37.7052 84.3314 40.4229 84.2412 42.971 85.0885C48.3292 86.8704 53.8213 87.0056 59.361 86.8253C63.079 86.7051 66.7076 85.9239 70.3541 85.2568C78.0282 83.8566 85.6844 83.7995 93.29 85.7917C95.9862 86.4916 98.7607 86.837 101.545 86.8193C102.488 86.8193 102.833 87.0146 102.798 88.0482C102.714 90.4821 102.726 92.922 102.798 95.3558C102.822 96.2873 102.574 96.5397 101.64 96.5367C86.2698 96.5066 70.8979 96.4996 55.524 96.5156Z" fill="#1744F2"/>
<path d="M25.2597 7.4036C31.7153 7.4036 38.1728 7.4036 44.6324 7.4036C47.2549 7.4036 48.1569 8.32906 48.1569 11.0093C48.1569 17.4916 48.1569 23.9728 48.1569 30.4531C48.1569 32.8389 47.1596 33.8635 44.7693 33.8665C31.7431 33.8665 18.7168 33.8665 5.69056 33.8665C3.35381 33.8665 2.28813 32.7668 2.28516 30.423C2.28516 23.9067 2.28516 17.3884 2.28516 10.8681C2.28516 8.49432 3.32702 7.42763 5.66377 7.42463C12.2067 7.40259 18.7386 7.39558 25.2597 7.4036ZM20.4284 23.6683C19.6813 20.9641 18.9966 18.4701 18.2852 15.9702C18.0887 15.2731 18.0202 14.4407 17.023 14.3596C16.13 14.2845 15.8502 14.9846 15.5138 15.6096C14.7577 17.0248 13.9719 18.422 13.2575 19.8583C13.1562 20.1166 12.9723 20.3332 12.7349 20.4737C12.4975 20.6142 12.2204 20.6705 11.9477 20.6335C10.6528 20.5915 9.35196 20.6335 8.05409 20.6335C7.25037 20.6335 6.62526 20.898 6.62526 21.8174C6.62526 22.7369 7.22061 23.0193 8.04517 23.0193C9.71512 23.0193 11.3851 22.9712 13.0521 23.0193C13.439 23.0555 13.8272 22.9634 14.1576 22.7568C14.488 22.5501 14.7426 22.2404 14.8828 21.8745C15.362 20.8859 15.9127 19.9304 16.5527 18.7375L16.7373 19.3866C17.3326 21.544 17.928 23.7014 18.5233 25.8558C18.9758 27.4634 19.9194 27.7067 21.0536 26.5169C21.4834 26.1065 21.8814 25.6635 22.2443 25.1918C23.3576 23.5752 24.7894 22.9412 26.7749 23.1545C28.5877 23.3498 28.5996 23.1936 29.2128 21.4358C29.704 20.0146 30.213 18.5993 30.7012 17.1811C31.6508 21.1504 32.4128 25.0686 33.1511 28.9868C33.2731 29.6388 33.5172 30.1346 34.2197 30.2307C34.9222 30.3269 35.3152 29.9032 35.592 29.3293C36.0206 28.4279 36.4463 27.5054 36.8809 26.598C37.381 25.5553 37.637 24.1641 38.4586 23.5722C39.3367 22.9412 40.7567 23.434 41.9384 23.3829C42.0873 23.3829 42.2361 23.3829 42.3849 23.3829C43.1768 23.3829 43.8346 23.0824 43.8525 22.202C43.8733 21.2645 43.2244 20.931 42.3641 20.934C41.0305 20.934 39.685 20.9911 38.3574 20.934C37.3155 20.8769 36.6993 21.2796 36.2737 22.2321C35.848 23.1846 35.5325 24.1161 34.8151 25.0836C33.9965 20.7507 33.2285 16.6432 32.4337 12.5387C32.2997 11.8476 32.1806 11.0844 31.243 11.0363C30.3053 10.9883 30.0731 11.6613 29.832 12.3494C29.1315 14.4407 28.4151 16.5431 27.6828 18.6564C26.9386 20.8108 26.9416 20.8559 24.6495 20.7928C23.554 20.7627 22.7116 21.0332 22.027 21.9346C21.525 22.5408 20.9914 23.1195 20.4284 23.6683Z" fill="#1744F2"/>
<path d="M5.80973 77.6248C5.80973 87.3272 5.79187 97.0295 5.83652 106.729C5.83652 107.793 5.53885 108.057 4.54461 107.991C3.32221 107.919 2.09668 107.919 0.874282 107.991C0.162839 108.024 -0.0604174 107.769 0.0199548 107.089C0.0408435 106.752 0.0408435 106.414 0.0199548 106.077C0.0199548 86.8264 0.0110246 67.5729 -0.00683594 48.3164C-0.00683594 47.2017 0.290839 46.9102 1.34461 46.9973C2.53398 47.0775 3.72733 47.0775 4.91671 46.9973C5.66982 46.9583 5.83355 47.2347 5.83057 47.9498C5.80378 53.0068 5.81569 58.0639 5.81569 63.1209L5.80973 77.6248Z" fill="#1744F2"/>
<path d="M68.336 2.70435C68.5593 2.91768 68.8064 3.14304 69.0415 3.37741L92.2066 26.7424C94.332 28.8878 96.4336 31.0632 98.6036 33.1666C99.2585 33.8006 99.199 34.1642 98.5738 34.7411C97.6362 35.5884 96.764 36.5139 95.8948 37.4454C95.5286 37.836 95.2786 37.857 94.9095 37.4454C94.3141 36.7843 93.6592 36.1653 93.0282 35.5313C83.7367 26.1425 74.4374 16.7636 65.1301 7.39477C64.4305 6.69166 64.3918 6.31306 65.1301 5.67004C66.0231 4.89181 66.8239 3.98738 67.6663 3.14304C67.8687 2.96275 68.0056 2.73139 68.336 2.70435Z" fill="#1744F2"/>
<path d="M105.195 86.8375C105.195 80.209 105.213 73.5805 105.174 66.952C105.174 66.0987 105.4 65.8613 106.228 65.9064C107.487 65.974 108.749 65.974 110.008 65.9064C110.794 65.8643 111.002 66.1107 110.996 66.9009C110.964 72.5168 110.978 78.1357 110.978 83.7516C110.978 91.4678 110.964 99.181 110.999 106.888C110.999 107.79 110.758 108.045 109.889 107.994C108.667 107.92 107.441 107.92 106.219 107.994C105.376 108.045 105.171 107.778 105.177 106.939C105.213 100.23 105.195 93.5261 105.195 86.8375Z" fill="#1744F2"/>
<path d="M99.682 23.0523C99.5124 23.2416 99.3844 23.4159 99.2177 23.5722C98.277 24.5277 97.3036 25.4561 96.3927 26.4417C95.9343 26.9405 95.6575 26.8233 95.2377 26.3966C88.7405 19.8162 82.2313 13.2458 75.7103 6.68542C75.2697 6.24071 75.2161 5.96427 75.6954 5.51957C76.5773 4.71505 77.4168 3.86454 78.2107 2.97153C78.8269 2.25941 79.199 2.1933 79.9253 2.93548C86.242 9.38068 92.6093 15.7778 98.9617 22.19C99.1194 22.3492 99.2831 22.4904 99.429 22.6707C99.5209 22.7927 99.6053 22.9201 99.682 23.0523Z" fill="#1744F2"/>
<path d="M16.5142 59.7407C16.5631 57.9173 17.3186 56.1861 18.6183 54.9189C19.9181 53.6518 21.6585 52.9499 23.4654 52.9641C25.2724 52.9782 27.0017 53.7073 28.2818 54.9947C29.5619 56.2821 30.2907 58.0249 30.3115 59.8488C30.322 60.7747 30.1496 61.6934 29.8042 62.5512C29.4588 63.4091 28.9475 64.1888 28.3 64.8447C27.6526 65.5007 26.8821 66.0198 26.0336 66.3716C25.185 66.7234 24.2755 66.9009 23.3582 66.8937C22.4409 66.8865 21.5343 66.6948 20.6913 66.3297C19.8483 65.9646 19.0858 65.4335 18.4486 64.7675C17.8113 64.1014 17.312 63.3138 16.9799 62.4507C16.6477 61.5876 16.4894 60.6663 16.5142 59.7407Z" fill="#1744F2"/>
<path d="M20.6308 70.197C24.5006 70.197 28.3525 70.2181 32.2103 70.182C32.9843 70.182 33.2641 70.3833 33.2135 71.1826C33.148 72.2283 33.1718 73.2859 33.2135 74.3286C33.2314 74.9295 32.9962 75.1008 32.4306 75.1008C24.5978 75.0888 16.766 75.0888 8.93513 75.1008C8.39634 75.1008 8.21774 74.8995 8.22964 74.3737C8.25346 73.289 8.27727 72.1982 8.22964 71.1165C8.18797 70.3593 8.46481 70.176 9.17625 70.182C12.9835 70.2151 16.8086 70.197 20.6308 70.197Z" fill="#1744F2"/>
<path d="M104.957 5.26129C101.682 4.18859 98.9407 6.05755 96.5712 9.03226C95.6484 10.1951 94.4875 11.1536 93.4516 12.2353C93.0884 12.6139 92.8563 12.656 92.4693 12.2504C91.5763 11.3008 90.6584 10.3754 89.7158 9.47396C89.299 9.07432 89.4181 8.83695 89.7604 8.48239C92.4197 5.82017 95.069 3.14694 97.7083 0.462688C97.8424 0.312483 98.007 0.193348 98.191 0.113471C98.3749 0.0335935 98.5738 -0.00513218 98.774 -4.47001e-05C102.557 0.0209886 106.341 0.0330076 110.139 -4.47001e-05C110.833 -4.47001e-05 111.032 0.198269 111.008 0.901383C110.955 2.06122 110.961 3.22406 111.008 4.3839C111.035 5.05696 110.836 5.30936 110.139 5.28532C108.651 5.23124 107.162 5.26129 104.957 5.26129Z" fill="#1744F2"/>
<path d="M59.9627 29.7471C59.1114 29.8072 58.5398 29.4256 58.4744 28.5903C58.4029 27.806 58.9209 27.3884 59.6651 27.2381C61.6654 26.8776 63.6628 26.499 65.6692 26.1534C66.4312 26.0242 67.0146 26.3517 67.1754 27.13C67.3361 27.9082 66.9551 28.446 66.1812 28.5963C64.1093 29.0019 62.0345 29.3685 59.9627 29.7471Z" fill="#1744F2"/>
<path d="M72.3968 42.301C72.7838 40.1706 73.1469 38.0372 73.5696 35.9159C73.7125 35.1887 74.2751 34.8642 74.9895 35.0145C75.1486 35.0355 75.3016 35.0899 75.4387 35.174C75.5758 35.2582 75.6939 35.3704 75.7856 35.5033C75.8772 35.6363 75.9403 35.7871 75.9709 35.9461C76.0014 36.1051 75.9987 36.2688 75.9629 36.4267C75.6206 38.5631 75.2485 40.6965 74.8318 42.8208C74.8135 42.982 74.7615 43.1374 74.6792 43.2767C74.597 43.416 74.4863 43.5361 74.3546 43.629C74.2229 43.7219 74.0731 43.7855 73.9152 43.8156C73.7573 43.8456 73.5948 43.8415 73.4386 43.8034C72.6826 43.6531 72.3343 43.1123 72.3968 42.301Z" fill="#1744F2"/>
<path d="M64.5648 39.0017C63.9694 38.9717 63.5705 38.7734 63.3741 38.3227C63.2565 38.1075 63.2093 37.8602 63.2392 37.6163C63.2692 37.3724 63.3747 37.1443 63.5408 36.9645C65.0946 35.372 66.6515 33.7765 68.247 32.226C68.7382 31.7483 69.3514 31.8444 69.8366 32.3282C70.3218 32.8119 70.4319 33.3828 69.9944 33.8306C68.4197 35.5042 66.7884 37.1358 65.1601 38.7493C64.9821 38.876 64.779 38.9621 64.5648 39.0017Z" fill="#1744F2"/>
<path d="M86.6556 38.2145C85.6911 38.0342 84.9737 37.298 84.4944 36.3395C84.0688 35.4862 84.4617 34.771 85.0898 34.131C86.6675 32.4844 86.6615 32.4754 88.2541 34.0859C88.3965 34.2062 88.5271 34.34 88.644 34.4856C88.9864 35.0174 89.8943 35.2127 89.7484 35.988C89.5996 36.7151 87.4563 38.2295 86.6556 38.2145Z" fill="#1744F2"/>
<path d="M66.5503 17.728C65.4281 17.5927 64.7256 16.8265 64.2136 15.9011C63.7462 15.0567 64.1183 14.3326 64.7256 13.6866C66.336 11.9648 66.3301 11.9618 67.9732 13.6205C69.8337 15.5014 69.8188 15.6727 67.6994 17.2772C67.3578 17.5185 66.9637 17.6731 66.5503 17.728Z" fill="#1744F2"/>
<path d="M76.6857 27.9141C75.885 27.9141 74.6228 26.9826 74.3222 26.1112C74.0215 25.2399 74.2805 24.5337 74.9175 23.8787C76.5012 22.2351 76.5012 22.2351 78.0759 23.8246C78.2174 23.9459 78.347 24.0807 78.4628 24.2273C78.8171 24.7531 79.6982 24.9634 79.594 25.7296C79.4988 26.4117 77.3406 27.9141 76.6857 27.9141Z" fill="#1744F2"/>
</svg>
