<svg width="38" height="34" viewBox="0 0 38 34" fill="none" xmlns="http://www.w3.org/2000/svg">
<path d="M38 17.0003C38 16.3103 37.44 15.7503 36.75 15.7503H4.304L17.126 3.14033C17.2484 3.02657 17.3468 2.88942 17.4153 2.73698C17.4838 2.58455 17.521 2.41993 17.5248 2.25285C17.5286 2.08577 17.4988 1.91963 17.4373 1.76426C17.3757 1.60889 17.2837 1.46743 17.1665 1.34826C17.0493 1.22909 16.9095 1.13462 16.7552 1.07045C16.6008 1.00627 16.4352 0.973691 16.2681 0.974629C16.101 0.975568 15.9358 1.01001 15.7822 1.07591C15.6286 1.14182 15.4898 1.23785 15.374 1.35833L0.386002 16.0963L0.359001 16.1223C0.229107 16.2538 0.130123 16.4126 0.0692368 16.5871C0.00835037 16.7617 -0.0129089 16.9476 0.00699997 17.1313C0.0383415 17.432 0.178032 17.7111 0.400002 17.9163L15.374 32.6413C15.4898 32.7618 15.6286 32.8578 15.7822 32.9237C15.9358 32.9896 16.101 33.0241 16.2681 33.025C16.4352 33.026 16.6008 32.9934 16.7552 32.9292C16.9095 32.865 17.0493 32.7706 17.1665 32.6514C17.2837 32.5322 17.3757 32.3908 17.4373 32.2354C17.4988 32.08 17.5286 31.9139 17.5248 31.7468C17.521 31.5797 17.4838 31.4151 17.4153 31.2627C17.3468 31.1102 17.2484 30.9731 17.126 30.8593L4.304 18.2493H36.75C36.9141 18.2495 37.0766 18.2172 37.2283 18.1545C37.3799 18.0918 37.5177 17.9998 37.6338 17.8839C37.7499 17.7679 37.842 17.6301 37.9048 17.4785C37.9677 17.3269 38 17.1644 38 17.0003Z" fill="#1F3792"/>
</svg>
