<svg width="38" height="34" viewBox="0 0 38 34" fill="none" xmlns="http://www.w3.org/2000/svg">
<path d="M0 17C0 16.31 0.56 15.75 1.25 15.75H33.696L20.874 3.13999C20.7516 3.02624 20.6532 2.88908 20.5847 2.73665C20.5162 2.58421 20.479 2.41959 20.4752 2.25251C20.4714 2.08544 20.5012 1.9193 20.5627 1.76392C20.6243 1.60855 20.7163 1.4671 20.8335 1.34792C20.9507 1.22875 21.0905 1.13429 21.2448 1.07011C21.3992 1.00594 21.5648 0.973355 21.7319 0.974293C21.899 0.975232 22.0642 1.00967 22.2178 1.07558C22.3714 1.14148 22.5102 1.23751 22.626 1.35799L37.614 16.096L37.641 16.122C37.7709 16.2535 37.8699 16.4123 37.9308 16.5868C37.9916 16.7613 38.0129 16.9472 37.993 17.131C37.9617 17.4317 37.822 17.7107 37.6 17.916L22.626 32.641C22.5102 32.7615 22.3714 32.8575 22.2178 32.9234C22.0642 32.9893 21.899 33.0238 21.7319 33.0247C21.5648 33.0256 21.3992 32.993 21.2448 32.9289C21.0905 32.8647 20.9507 32.7702 20.8335 32.6511C20.7163 32.5319 20.6243 32.3904 20.5627 32.2351C20.5012 32.0797 20.4714 31.9135 20.4752 31.7465C20.479 31.5794 20.5162 31.4148 20.5847 31.2623C20.6532 31.1099 20.7516 30.9727 20.874 30.859L33.696 18.249H1.25C1.08589 18.2491 0.923373 18.2169 0.771721 18.1542C0.62007 18.0915 0.482263 17.9995 0.366177 17.8835C0.250091 17.7675 0.158001 17.6298 0.09517 17.4782C0.0323394 17.3266 -5.25977e-08 17.1641 0 17Z" fill="#92D7D7"/>
</svg>
