<svg width="14" height="11" viewBox="0 0 14 11" fill="none" xmlns="http://www.w3.org/2000/svg">
<path d="M12.0806 0.131626C12.0806 0.131626 13.2138 -0.310249 13.1194 0.762877C13.0879 1.20476 12.8046 2.75132 12.5843 4.42415L11.8288 9.37948C11.8288 9.37948 11.7659 10.1054 11.1992 10.2317C10.6326 10.3579 9.78273 9.78979 9.62532 9.66353C9.49941 9.56885 7.26448 8.14853 6.47751 7.45415C6.25715 7.26477 6.00533 6.88602 6.50898 6.44414L9.81421 3.2879C10.1919 2.90914 10.5697 2.02539 8.99576 3.09852L4.58882 6.09697C4.58882 6.09697 4.08517 6.41258 3.14084 6.12853L1.09475 5.49727C1.09475 5.49727 0.33927 5.02384 1.62988 4.55038C4.7777 3.06693 8.64952 1.55193 12.0806 0.131626Z" fill="#1F3792"/>
</svg>
