<svg width="13" height="13" viewBox="0 0 13 13" fill="none" xmlns="http://www.w3.org/2000/svg">
<path d="M10.9063 2.06876C10.3333 1.48996 9.65074 1.03105 8.89853 0.718789C8.14631 0.406528 7.33945 0.247169 6.525 0.250007C3.1125 0.250007 0.33125 3.03126 0.33125 6.44376C0.33125 7.53751 0.61875 8.60001 1.15625 9.53751L0.28125 12.75L3.5625 11.8875C4.46875 12.3813 5.4875 12.6438 6.525 12.6438C9.9375 12.6438 12.7188 9.86251 12.7188 6.45001C12.7188 4.79376 12.075 3.23751 10.9063 2.06876ZM6.525 11.5938C5.6 11.5938 4.69375 11.3438 3.9 10.875L3.7125 10.7625L1.7625 11.275L2.28125 9.37501L2.15625 9.18126C1.64234 8.36061 1.36946 7.41203 1.36875 6.44376C1.36875 3.60626 3.68125 1.29376 6.51875 1.29376C7.89375 1.29376 9.1875 1.83126 10.1563 2.80626C10.6359 3.28373 11.0161 3.85167 11.2746 4.47715C11.5332 5.10262 11.665 5.7732 11.6625 6.45001C11.675 9.28751 9.3625 11.5938 6.525 11.5938ZM9.35 7.74376C9.19375 7.66876 8.43125 7.29376 8.29375 7.23751C8.15 7.18751 8.05 7.16251 7.94375 7.31251C7.8375 7.46876 7.54375 7.81876 7.45625 7.91876C7.36875 8.02501 7.275 8.03751 7.11875 7.95626C6.9625 7.88126 6.4625 7.71251 5.875 7.18751C5.4125 6.77501 5.10625 6.26876 5.0125 6.11251C4.925 5.95626 5 5.87501 5.08125 5.79376C5.15 5.72501 5.2375 5.61251 5.3125 5.52501C5.3875 5.43751 5.41875 5.36876 5.46875 5.26876C5.51875 5.16251 5.49375 5.07501 5.45625 5.00001C5.41875 4.92501 5.10625 4.16251 4.98125 3.85001C4.85625 3.55001 4.725 3.58751 4.63125 3.58126H4.33125C4.225 3.58126 4.0625 3.61876 3.91875 3.77501C3.78125 3.93126 3.38125 4.30626 3.38125 5.06876C3.38125 5.83126 3.9375 6.56876 4.0125 6.66876C4.0875 6.77501 5.10625 8.33751 6.65625 9.00626C7.025 9.16876 7.3125 9.26251 7.5375 9.33126C7.90625 9.45001 8.24375 9.43126 8.5125 9.39375C8.8125 9.35001 9.43125 9.01876 9.55625 8.65626C9.6875 8.29376 9.6875 7.98751 9.64375 7.91876C9.6 7.85001 9.50625 7.81876 9.35 7.74376Z" fill="#1F3792"/>
</svg>
